G04 #@! TF.GenerationSoftware,KiCad,Pcbnew,8.0.1*
G04 #@! TF.CreationDate,2025-07-27T10:09:23+02:00*
G04 #@! TF.ProjectId,SVXLink_PiHat_v2,5356584c-696e-46b5-9f50-694861745f76,rev?*
G04 #@! TF.SameCoordinates,Original*
G04 #@! TF.FileFunction,Copper,L1,Top*
G04 #@! TF.FilePolarity,Positive*
%FSLAX46Y46*%
G04 Gerber Fmt 4.6, Leading zero omitted, Abs format (unit mm)*
G04 Created by KiCad (PCBNEW 8.0.1) date 2025-07-27 10:09:23*
%MOMM*%
%LPD*%
G01*
G04 APERTURE LIST*
G04 Aperture macros list*
%AMRoundRect*
0 Rectangle with rounded corners*
0 $1 Rounding radius*
0 $2 $3 $4 $5 $6 $7 $8 $9 X,Y pos of 4 corners*
0 Add a 4 corners polygon primitive as box body*
4,1,4,$2,$3,$4,$5,$6,$7,$8,$9,$2,$3,0*
0 Add four circle primitives for the rounded corners*
1,1,$1+$1,$2,$3*
1,1,$1+$1,$4,$5*
1,1,$1+$1,$6,$7*
1,1,$1+$1,$8,$9*
0 Add four rect primitives between the rounded corners*
20,1,$1+$1,$2,$3,$4,$5,0*
20,1,$1+$1,$4,$5,$6,$7,0*
20,1,$1+$1,$6,$7,$8,$9,0*
20,1,$1+$1,$8,$9,$2,$3,0*%
G04 Aperture macros list end*
G04 #@! TA.AperFunction,ComponentPad*
%ADD10R,1.700000X1.700000*%
G04 #@! TD*
G04 #@! TA.AperFunction,ComponentPad*
%ADD11O,1.700000X1.700000*%
G04 #@! TD*
G04 #@! TA.AperFunction,SMDPad,CuDef*
%ADD12RoundRect,0.250000X0.450000X-0.350000X0.450000X0.350000X-0.450000X0.350000X-0.450000X-0.350000X0*%
G04 #@! TD*
G04 #@! TA.AperFunction,ComponentPad*
%ADD13C,2.000000*%
G04 #@! TD*
G04 #@! TA.AperFunction,ComponentPad*
%ADD14C,2.700000*%
G04 #@! TD*
G04 #@! TA.AperFunction,SMDPad,CuDef*
%ADD15RoundRect,0.250000X0.350000X0.450000X-0.350000X0.450000X-0.350000X-0.450000X0.350000X-0.450000X0*%
G04 #@! TD*
G04 #@! TA.AperFunction,SMDPad,CuDef*
%ADD16RoundRect,0.150000X-0.587500X-0.150000X0.587500X-0.150000X0.587500X0.150000X-0.587500X0.150000X0*%
G04 #@! TD*
G04 #@! TA.AperFunction,ComponentPad*
%ADD17R,1.600000X1.600000*%
G04 #@! TD*
G04 #@! TA.AperFunction,ComponentPad*
%ADD18O,1.600000X1.600000*%
G04 #@! TD*
G04 #@! TA.AperFunction,SMDPad,CuDef*
%ADD19RoundRect,0.250000X-0.350000X-0.450000X0.350000X-0.450000X0.350000X0.450000X-0.350000X0.450000X0*%
G04 #@! TD*
G04 #@! TA.AperFunction,ViaPad*
%ADD20C,0.800000*%
G04 #@! TD*
G04 #@! TA.AperFunction,Conductor*
%ADD21C,0.250000*%
G04 #@! TD*
G04 #@! TA.AperFunction,Conductor*
%ADD22C,0.500000*%
G04 #@! TD*
G04 APERTURE END LIST*
D10*
X85400000Y-60350000D03*
D11*
X85400000Y-57810000D03*
X87940000Y-60350000D03*
X87940000Y-57810000D03*
X90480000Y-60350000D03*
X90480000Y-57810000D03*
X93020000Y-60350000D03*
X93020000Y-57810000D03*
X95560000Y-60350000D03*
X95560000Y-57810000D03*
X98100000Y-60350000D03*
X98100000Y-57810000D03*
X100640000Y-60350000D03*
X100640000Y-57810000D03*
X103180000Y-60350000D03*
X103180000Y-57810000D03*
X105720000Y-60350000D03*
X105720000Y-57810000D03*
X108260000Y-60350000D03*
X108260000Y-57810000D03*
X110800000Y-60350000D03*
X110800000Y-57810000D03*
X113340000Y-60350000D03*
X113340000Y-57810000D03*
X115880000Y-60350000D03*
X115880000Y-57810000D03*
X118420000Y-60350000D03*
X118420000Y-57810000D03*
X120960000Y-60350000D03*
X120960000Y-57810000D03*
X123500000Y-60350000D03*
X123500000Y-57810000D03*
X126040000Y-60350000D03*
X126040000Y-57810000D03*
X128580000Y-60350000D03*
X128580000Y-57810000D03*
X131120000Y-60350000D03*
X131120000Y-57810000D03*
X133660000Y-60350000D03*
X133660000Y-57810000D03*
D12*
X96740000Y-104640000D03*
X96740000Y-102640000D03*
D13*
X122748400Y-107253600D03*
X122748400Y-109793600D03*
X132908400Y-104713600D03*
X127828400Y-96712600D03*
D14*
X80497700Y-59009300D03*
D15*
X80700000Y-74500000D03*
X78700000Y-74500000D03*
D13*
X130368400Y-104713600D03*
D16*
X117788400Y-90894600D03*
X117788400Y-92794600D03*
X119663400Y-91844600D03*
D13*
X117668400Y-107253600D03*
X130368400Y-96712600D03*
X125288400Y-99252600D03*
D15*
X80700000Y-69500000D03*
X78700000Y-69500000D03*
D13*
X125288400Y-102173600D03*
D17*
X86080000Y-102110000D03*
D18*
X86080000Y-104650000D03*
X86080000Y-107190000D03*
X93700000Y-107190000D03*
X93700000Y-104650000D03*
X93700000Y-102110000D03*
D19*
X113293400Y-90744600D03*
X115293400Y-90744600D03*
D13*
X122748400Y-102173600D03*
X117668400Y-102173600D03*
X125288400Y-104713600D03*
X127828400Y-102173600D03*
D10*
X123650000Y-84210000D03*
D11*
X123650000Y-86750000D03*
D15*
X80700000Y-66950000D03*
X78700000Y-66950000D03*
D13*
X127828400Y-99252600D03*
X117668400Y-109793600D03*
X122748400Y-99252600D03*
D14*
X80497700Y-108509300D03*
D13*
X117668400Y-99252600D03*
X130368400Y-109793600D03*
X127828400Y-109793600D03*
D14*
X138497700Y-108509300D03*
D13*
X125288400Y-107253600D03*
X120208400Y-109793600D03*
X122748400Y-96712600D03*
X125288400Y-96712600D03*
D10*
X84300000Y-66900000D03*
D11*
X84300000Y-69440000D03*
X84300000Y-71980000D03*
X84300000Y-74520000D03*
X84300000Y-77060000D03*
X84300000Y-79600000D03*
D13*
X132908400Y-102173600D03*
X132908400Y-107253600D03*
X120208400Y-102173600D03*
X127828400Y-107253600D03*
D14*
X138497700Y-59009300D03*
D15*
X80650000Y-94600000D03*
X78650000Y-94600000D03*
D13*
X127828400Y-104713600D03*
X125288400Y-109793600D03*
X132908400Y-96712600D03*
D19*
X78650000Y-87200000D03*
X80650000Y-87200000D03*
D13*
X130368400Y-107253600D03*
X120208400Y-96712600D03*
X117668400Y-104713600D03*
X130368400Y-102173600D03*
D15*
X80700000Y-72000000D03*
X78700000Y-72000000D03*
D13*
X120208400Y-104713600D03*
X120208400Y-107253600D03*
D10*
X84270000Y-94590000D03*
D11*
X84270000Y-97130000D03*
D10*
X123700000Y-66900000D03*
D11*
X123700000Y-69440000D03*
X123700000Y-71980000D03*
X123700000Y-74520000D03*
X123700000Y-77060000D03*
X123700000Y-79600000D03*
D13*
X122748400Y-104713600D03*
D10*
X84300000Y-84600000D03*
D11*
X84300000Y-87140000D03*
X84300000Y-89680000D03*
D13*
X117668400Y-96712600D03*
X130368400Y-99252600D03*
X120208400Y-99252600D03*
D15*
X115273400Y-92944600D03*
X113273400Y-92944600D03*
D13*
X132908400Y-99252600D03*
X132908400Y-109793600D03*
D20*
X110100000Y-71850000D03*
X127750000Y-73300000D03*
X82850000Y-73250000D03*
X91760000Y-62560000D03*
X84530000Y-64030000D03*
X80910000Y-98200000D03*
X133550000Y-75700000D03*
X103140000Y-65250000D03*
X106500000Y-68750000D03*
X126500000Y-63750000D03*
X86050000Y-84600000D03*
X104450000Y-62550000D03*
X82850000Y-68200000D03*
X109500000Y-62550000D03*
X82850000Y-70800000D03*
X82850000Y-65650000D03*
D21*
X93760000Y-107250000D02*
X98000000Y-107250000D01*
X107910000Y-103090000D02*
X108260000Y-102740000D01*
X108260000Y-102740000D02*
X108260000Y-60350000D01*
X98910000Y-103090000D02*
X107910000Y-103090000D01*
X98500000Y-103500000D02*
X98910000Y-103090000D01*
X93700000Y-107190000D02*
X93760000Y-107250000D01*
X98000000Y-107250000D02*
X98500000Y-106750000D01*
X98500000Y-106750000D02*
X98500000Y-103500000D01*
X82855000Y-73345000D02*
X82850000Y-73350000D01*
X78700000Y-74500000D02*
X78700000Y-73505000D01*
X131120000Y-72980000D02*
X131120000Y-60350000D01*
X82845000Y-73345000D02*
X82850000Y-73350000D01*
X78700000Y-73505000D02*
X78955000Y-73250000D01*
X130800000Y-73300000D02*
X131120000Y-72980000D01*
X127750000Y-73300000D02*
X130800000Y-73300000D01*
X78955000Y-73250000D02*
X82845000Y-73250000D01*
X91750000Y-62500000D02*
X91810000Y-62560000D01*
X91300000Y-57810000D02*
X91750000Y-58260000D01*
X91750000Y-58260000D02*
X91750000Y-62500000D01*
X90480000Y-57810000D02*
X91300000Y-57810000D01*
X125800000Y-67150000D02*
X125800000Y-84000000D01*
X123700000Y-66900000D02*
X125550000Y-66900000D01*
X78990000Y-85860000D02*
X78650000Y-86200000D01*
X86050000Y-84600000D02*
X86490000Y-84600000D01*
X83920000Y-85860000D02*
X78990000Y-85860000D01*
X84300000Y-84600000D02*
X86050000Y-84600000D01*
X86670000Y-57820000D02*
X86660000Y-57810000D01*
X86670000Y-84420000D02*
X86670000Y-57820000D01*
X84300000Y-85480000D02*
X83920000Y-85860000D01*
X125590000Y-84210000D02*
X123650000Y-84210000D01*
X84300000Y-84600000D02*
X84300000Y-85480000D01*
X86660000Y-57810000D02*
X87940000Y-57810000D01*
D22*
X117668400Y-96712600D02*
X132908400Y-96712600D01*
D21*
X85400000Y-57810000D02*
X86660000Y-57810000D01*
X86490000Y-84600000D02*
X86670000Y-84420000D01*
X125800000Y-84000000D02*
X125590000Y-84210000D01*
X78650000Y-86200000D02*
X78650000Y-87200000D01*
X125550000Y-66900000D02*
X125800000Y-67150000D01*
X111750000Y-56500000D02*
X98350000Y-56500000D01*
X112050000Y-90500000D02*
X112050000Y-56800000D01*
X113293400Y-90744600D02*
X112294600Y-90744600D01*
X112294600Y-90744600D02*
X112050000Y-90500000D01*
X98350000Y-56500000D02*
X98100000Y-56750000D01*
X112050000Y-56800000D02*
X111750000Y-56500000D01*
X98100000Y-56750000D02*
X98100000Y-57810000D01*
X105720000Y-60350000D02*
X107750000Y-62380000D01*
X107750000Y-62380000D02*
X107750000Y-102250000D01*
X107750000Y-102250000D02*
X107360000Y-102640000D01*
X107360000Y-102640000D02*
X96740000Y-102640000D01*
X103180000Y-60350000D02*
X103180000Y-62900000D01*
X87400000Y-63370000D02*
X87400000Y-86900000D01*
X87160000Y-87140000D02*
X84300000Y-87140000D01*
X87610000Y-63160000D02*
X87400000Y-63370000D01*
X102920000Y-63160000D02*
X87610000Y-63160000D01*
X80710000Y-87140000D02*
X80650000Y-87200000D01*
X103180000Y-62900000D02*
X102920000Y-63160000D01*
X87400000Y-86900000D02*
X87160000Y-87140000D01*
X84300000Y-87140000D02*
X80710000Y-87140000D01*
X104450000Y-62550000D02*
X104450000Y-58750000D01*
X78700000Y-69500000D02*
X78700000Y-68400000D01*
X104450000Y-62800000D02*
X104450000Y-62550000D01*
X104450000Y-58750000D02*
X105390000Y-57810000D01*
X78700000Y-68400000D02*
X78900000Y-68200000D01*
X105390000Y-57810000D02*
X105720000Y-57810000D01*
X78900000Y-68200000D02*
X82850000Y-68200000D01*
X78945000Y-70750000D02*
X82845000Y-70750000D01*
X109510000Y-59100000D02*
X110800000Y-57810000D01*
X109500000Y-62700000D02*
X109510000Y-62690000D01*
X109510000Y-62690000D02*
X109510000Y-59100000D01*
X82850000Y-70800000D02*
X82855000Y-70805000D01*
X109510000Y-62710000D02*
X109500000Y-62700000D01*
X78700000Y-70995000D02*
X78945000Y-70750000D01*
X78700000Y-72000000D02*
X78700000Y-70995000D01*
X82845000Y-70805000D02*
X82850000Y-70800000D01*
X78950000Y-65650000D02*
X82850000Y-65650000D01*
X78700000Y-65900000D02*
X78950000Y-65650000D01*
X78700000Y-66950000D02*
X78700000Y-65900000D01*
X88540000Y-97400000D02*
X88540000Y-104330000D01*
X88540000Y-104330000D02*
X88220000Y-104650000D01*
X84270000Y-97130000D02*
X88270000Y-97130000D01*
X88220000Y-104650000D02*
X86080000Y-104650000D01*
X88270000Y-97130000D02*
X88540000Y-97400000D01*
X84260000Y-94600000D02*
X84270000Y-94590000D01*
X80650000Y-94600000D02*
X84260000Y-94600000D01*
X84250000Y-66950000D02*
X84300000Y-66900000D01*
X80700000Y-66950000D02*
X84250000Y-66950000D01*
X123650000Y-86750000D02*
X123650000Y-91650000D01*
X123455400Y-91844600D02*
X119663400Y-91844600D01*
X123650000Y-91650000D02*
X123455400Y-91844600D01*
X115293400Y-92924600D02*
X115273400Y-92944600D01*
X117638400Y-90744600D02*
X117788400Y-90894600D01*
X115293400Y-90744600D02*
X115293400Y-92924600D01*
X115293400Y-90744600D02*
X117638400Y-90744600D01*
X78650000Y-101760000D02*
X79000000Y-102110000D01*
X78650000Y-94600000D02*
X78650000Y-101760000D01*
X79000000Y-102110000D02*
X86080000Y-102110000D01*
X96730000Y-104650000D02*
X96740000Y-104640000D01*
X93700000Y-104650000D02*
X96730000Y-104650000D01*
X84280000Y-74500000D02*
X84300000Y-74520000D01*
X80700000Y-74500000D02*
X84280000Y-74500000D01*
X84280000Y-72000000D02*
X84300000Y-71980000D01*
X80700000Y-72000000D02*
X84280000Y-72000000D01*
X80700000Y-69500000D02*
X84240000Y-69500000D01*
X84240000Y-69500000D02*
X84300000Y-69440000D01*
G04 #@! TA.AperFunction,Conductor*
G36*
X119742475Y-99445593D02*
G01*
X119808301Y-99559607D01*
X119901393Y-99652699D01*
X120015407Y-99718525D01*
X120078990Y-99735562D01*
X119338342Y-100476209D01*
X119385168Y-100512655D01*
X119385170Y-100512656D01*
X119542510Y-100597804D01*
X119592101Y-100647023D01*
X119607209Y-100715240D01*
X119583039Y-100780796D01*
X119530952Y-100821418D01*
X119521435Y-100825360D01*
X119318989Y-100949420D01*
X119318986Y-100949421D01*
X119138431Y-101103631D01*
X119055444Y-101200797D01*
X119032690Y-101227438D01*
X118974183Y-101265631D01*
X118904315Y-101266129D01*
X118845269Y-101228776D01*
X118844110Y-101227438D01*
X118821358Y-101200799D01*
X118738369Y-101103631D01*
X118584808Y-100972477D01*
X118557813Y-100949421D01*
X118557810Y-100949420D01*
X118355363Y-100825360D01*
X118345850Y-100821419D01*
X118291448Y-100777576D01*
X118269385Y-100711281D01*
X118286666Y-100643583D01*
X118334289Y-100597804D01*
X118491628Y-100512657D01*
X118491631Y-100512655D01*
X118538456Y-100476209D01*
X117797809Y-99735562D01*
X117861393Y-99718525D01*
X117975407Y-99652699D01*
X118068499Y-99559607D01*
X118134325Y-99445593D01*
X118151362Y-99382010D01*
X118891833Y-100122481D01*
X118925611Y-100118979D01*
X118951194Y-100118980D01*
X118984964Y-100122482D01*
X119725437Y-99382009D01*
X119742475Y-99445593D01*
G37*
G04 #@! TD.AperFunction*
G04 #@! TA.AperFunction,Conductor*
G36*
X122282475Y-99445593D02*
G01*
X122348301Y-99559607D01*
X122441393Y-99652699D01*
X122555407Y-99718525D01*
X122618990Y-99735562D01*
X121878342Y-100476209D01*
X121925168Y-100512655D01*
X121925170Y-100512656D01*
X122082510Y-100597804D01*
X122132101Y-100647023D01*
X122147209Y-100715240D01*
X122123039Y-100780796D01*
X122070952Y-100821418D01*
X122061435Y-100825360D01*
X121858989Y-100949420D01*
X121858986Y-100949421D01*
X121678431Y-101103631D01*
X121595444Y-101200797D01*
X121572690Y-101227438D01*
X121514183Y-101265631D01*
X121444315Y-101266129D01*
X121385269Y-101228776D01*
X121384110Y-101227438D01*
X121361358Y-101200799D01*
X121278369Y-101103631D01*
X121124808Y-100972477D01*
X121097813Y-100949421D01*
X121097810Y-100949420D01*
X120895363Y-100825360D01*
X120885850Y-100821419D01*
X120831448Y-100777576D01*
X120809385Y-100711281D01*
X120826666Y-100643583D01*
X120874289Y-100597804D01*
X121031628Y-100512657D01*
X121031631Y-100512655D01*
X121078456Y-100476209D01*
X120337809Y-99735562D01*
X120401393Y-99718525D01*
X120515407Y-99652699D01*
X120608499Y-99559607D01*
X120674325Y-99445593D01*
X120691362Y-99382010D01*
X121431833Y-100122481D01*
X121465611Y-100118979D01*
X121491194Y-100118980D01*
X121524964Y-100122482D01*
X122265437Y-99382009D01*
X122282475Y-99445593D01*
G37*
G04 #@! TD.AperFunction*
G04 #@! TA.AperFunction,Conductor*
G36*
X124822475Y-99445593D02*
G01*
X124888301Y-99559607D01*
X124981393Y-99652699D01*
X125095407Y-99718525D01*
X125158990Y-99735562D01*
X124418342Y-100476209D01*
X124465168Y-100512655D01*
X124465170Y-100512656D01*
X124622510Y-100597804D01*
X124672101Y-100647023D01*
X124687209Y-100715240D01*
X124663039Y-100780796D01*
X124610952Y-100821418D01*
X124601435Y-100825360D01*
X124398989Y-100949420D01*
X124398986Y-100949421D01*
X124218431Y-101103631D01*
X124135444Y-101200797D01*
X124112690Y-101227438D01*
X124054183Y-101265631D01*
X123984315Y-101266129D01*
X123925269Y-101228776D01*
X123924110Y-101227438D01*
X123901358Y-101200799D01*
X123818369Y-101103631D01*
X123664808Y-100972477D01*
X123637813Y-100949421D01*
X123637810Y-100949420D01*
X123435363Y-100825360D01*
X123425850Y-100821419D01*
X123371448Y-100777576D01*
X123349385Y-100711281D01*
X123366666Y-100643583D01*
X123414289Y-100597804D01*
X123571628Y-100512657D01*
X123571631Y-100512655D01*
X123618456Y-100476209D01*
X122877809Y-99735562D01*
X122941393Y-99718525D01*
X123055407Y-99652699D01*
X123148499Y-99559607D01*
X123214325Y-99445593D01*
X123231362Y-99382010D01*
X123971833Y-100122481D01*
X124005611Y-100118979D01*
X124031194Y-100118980D01*
X124064964Y-100122482D01*
X124805437Y-99382009D01*
X124822475Y-99445593D01*
G37*
G04 #@! TD.AperFunction*
G04 #@! TA.AperFunction,Conductor*
G36*
X127362475Y-99445593D02*
G01*
X127428301Y-99559607D01*
X127521393Y-99652699D01*
X127635407Y-99718525D01*
X127698990Y-99735562D01*
X126958342Y-100476209D01*
X127005168Y-100512655D01*
X127005170Y-100512656D01*
X127162510Y-100597804D01*
X127212101Y-100647023D01*
X127227209Y-100715240D01*
X127203039Y-100780796D01*
X127150952Y-100821418D01*
X127141435Y-100825360D01*
X126938989Y-100949420D01*
X126938986Y-100949421D01*
X126758431Y-101103631D01*
X126675444Y-101200797D01*
X126652690Y-101227438D01*
X126594183Y-101265631D01*
X126524315Y-101266129D01*
X126465269Y-101228776D01*
X126464110Y-101227438D01*
X126441358Y-101200799D01*
X126358369Y-101103631D01*
X126204808Y-100972477D01*
X126177813Y-100949421D01*
X126177810Y-100949420D01*
X125975363Y-100825360D01*
X125965850Y-100821419D01*
X125911448Y-100777576D01*
X125889385Y-100711281D01*
X125906666Y-100643583D01*
X125954289Y-100597804D01*
X126111628Y-100512657D01*
X126111631Y-100512655D01*
X126158456Y-100476209D01*
X125417809Y-99735562D01*
X125481393Y-99718525D01*
X125595407Y-99652699D01*
X125688499Y-99559607D01*
X125754325Y-99445593D01*
X125771362Y-99382010D01*
X126511833Y-100122481D01*
X126545611Y-100118979D01*
X126571194Y-100118980D01*
X126604964Y-100122482D01*
X127345437Y-99382009D01*
X127362475Y-99445593D01*
G37*
G04 #@! TD.AperFunction*
G04 #@! TA.AperFunction,Conductor*
G36*
X129902475Y-99445593D02*
G01*
X129968301Y-99559607D01*
X130061393Y-99652699D01*
X130175407Y-99718525D01*
X130238990Y-99735562D01*
X129498342Y-100476209D01*
X129545168Y-100512655D01*
X129545170Y-100512656D01*
X129702510Y-100597804D01*
X129752101Y-100647023D01*
X129767209Y-100715240D01*
X129743039Y-100780796D01*
X129690952Y-100821418D01*
X129681435Y-100825360D01*
X129478989Y-100949420D01*
X129478986Y-100949421D01*
X129298431Y-101103631D01*
X129215444Y-101200797D01*
X129192690Y-101227438D01*
X129134183Y-101265631D01*
X129064315Y-101266129D01*
X129005269Y-101228776D01*
X129004110Y-101227438D01*
X128981358Y-101200799D01*
X128898369Y-101103631D01*
X128744808Y-100972477D01*
X128717813Y-100949421D01*
X128717810Y-100949420D01*
X128515363Y-100825360D01*
X128505850Y-100821419D01*
X128451448Y-100777576D01*
X128429385Y-100711281D01*
X128446666Y-100643583D01*
X128494289Y-100597804D01*
X128651628Y-100512657D01*
X128651631Y-100512655D01*
X128698456Y-100476209D01*
X127957809Y-99735562D01*
X128021393Y-99718525D01*
X128135407Y-99652699D01*
X128228499Y-99559607D01*
X128294325Y-99445593D01*
X128311362Y-99382010D01*
X129051833Y-100122481D01*
X129085611Y-100118979D01*
X129111194Y-100118980D01*
X129144964Y-100122482D01*
X129885437Y-99382009D01*
X129902475Y-99445593D01*
G37*
G04 #@! TD.AperFunction*
G04 #@! TA.AperFunction,Conductor*
G36*
X132442475Y-99445593D02*
G01*
X132508301Y-99559607D01*
X132601393Y-99652699D01*
X132715407Y-99718525D01*
X132778990Y-99735562D01*
X132038342Y-100476209D01*
X132085168Y-100512655D01*
X132085170Y-100512656D01*
X132242510Y-100597804D01*
X132292101Y-100647023D01*
X132307209Y-100715240D01*
X132283039Y-100780796D01*
X132230952Y-100821418D01*
X132221435Y-100825360D01*
X132018989Y-100949420D01*
X132018986Y-100949421D01*
X131838431Y-101103631D01*
X131755444Y-101200797D01*
X131732690Y-101227438D01*
X131674183Y-101265631D01*
X131604315Y-101266129D01*
X131545269Y-101228776D01*
X131544110Y-101227438D01*
X131521358Y-101200799D01*
X131438369Y-101103631D01*
X131284808Y-100972477D01*
X131257813Y-100949421D01*
X131257810Y-100949420D01*
X131055363Y-100825360D01*
X131045850Y-100821419D01*
X130991448Y-100777576D01*
X130969385Y-100711281D01*
X130986666Y-100643583D01*
X131034289Y-100597804D01*
X131191628Y-100512657D01*
X131191631Y-100512655D01*
X131238456Y-100476209D01*
X130497809Y-99735562D01*
X130561393Y-99718525D01*
X130675407Y-99652699D01*
X130768499Y-99559607D01*
X130834325Y-99445593D01*
X130851362Y-99382010D01*
X131591833Y-100122481D01*
X131625611Y-100118979D01*
X131651194Y-100118980D01*
X131684964Y-100122482D01*
X132425437Y-99382009D01*
X132442475Y-99445593D01*
G37*
G04 #@! TD.AperFunction*
G04 #@! TA.AperFunction,Conductor*
G36*
X119031531Y-97657423D02*
G01*
X119032600Y-97658657D01*
X119138431Y-97782569D01*
X119138434Y-97782572D01*
X119295738Y-97916922D01*
X119333932Y-97975428D01*
X119338969Y-98018897D01*
X119338342Y-98028990D01*
X120078990Y-98769637D01*
X120015407Y-98786675D01*
X119901393Y-98852501D01*
X119808301Y-98945593D01*
X119742475Y-99059607D01*
X119725437Y-99123190D01*
X118984962Y-98382715D01*
X118951194Y-98386218D01*
X118925611Y-98386218D01*
X118891835Y-98382715D01*
X118151362Y-99123189D01*
X118134325Y-99059607D01*
X118068499Y-98945593D01*
X117975407Y-98852501D01*
X117861393Y-98786675D01*
X117797810Y-98769637D01*
X118538456Y-98028990D01*
X118537830Y-98018898D01*
X118553322Y-97950768D01*
X118581058Y-97916925D01*
X118738369Y-97782569D01*
X118844111Y-97658760D01*
X118902616Y-97620568D01*
X118972484Y-97620069D01*
X119031531Y-97657423D01*
G37*
G04 #@! TD.AperFunction*
G04 #@! TA.AperFunction,Conductor*
G36*
X121571531Y-97657423D02*
G01*
X121572600Y-97658657D01*
X121678431Y-97782569D01*
X121678434Y-97782572D01*
X121835738Y-97916922D01*
X121873932Y-97975428D01*
X121878969Y-98018897D01*
X121878342Y-98028990D01*
X122618990Y-98769637D01*
X122555407Y-98786675D01*
X122441393Y-98852501D01*
X122348301Y-98945593D01*
X122282475Y-99059607D01*
X122265437Y-99123190D01*
X121524962Y-98382715D01*
X121491194Y-98386218D01*
X121465611Y-98386218D01*
X121431835Y-98382715D01*
X120691362Y-99123189D01*
X120674325Y-99059607D01*
X120608499Y-98945593D01*
X120515407Y-98852501D01*
X120401393Y-98786675D01*
X120337810Y-98769637D01*
X121078456Y-98028990D01*
X121077830Y-98018898D01*
X121093322Y-97950768D01*
X121121058Y-97916925D01*
X121278369Y-97782569D01*
X121384111Y-97658760D01*
X121442616Y-97620568D01*
X121512484Y-97620069D01*
X121571531Y-97657423D01*
G37*
G04 #@! TD.AperFunction*
G04 #@! TA.AperFunction,Conductor*
G36*
X124111531Y-97657423D02*
G01*
X124112600Y-97658657D01*
X124218431Y-97782569D01*
X124218434Y-97782572D01*
X124375738Y-97916922D01*
X124413932Y-97975428D01*
X124418969Y-98018897D01*
X124418342Y-98028990D01*
X125158990Y-98769637D01*
X125095407Y-98786675D01*
X124981393Y-98852501D01*
X124888301Y-98945593D01*
X124822475Y-99059607D01*
X124805437Y-99123190D01*
X124064962Y-98382715D01*
X124031194Y-98386218D01*
X124005611Y-98386218D01*
X123971835Y-98382715D01*
X123231362Y-99123189D01*
X123214325Y-99059607D01*
X123148499Y-98945593D01*
X123055407Y-98852501D01*
X122941393Y-98786675D01*
X122877810Y-98769637D01*
X123618456Y-98028990D01*
X123617830Y-98018898D01*
X123633322Y-97950768D01*
X123661058Y-97916925D01*
X123818369Y-97782569D01*
X123924111Y-97658760D01*
X123982616Y-97620568D01*
X124052484Y-97620069D01*
X124111531Y-97657423D01*
G37*
G04 #@! TD.AperFunction*
G04 #@! TA.AperFunction,Conductor*
G36*
X126651531Y-97657423D02*
G01*
X126652600Y-97658657D01*
X126758431Y-97782569D01*
X126758434Y-97782572D01*
X126915738Y-97916922D01*
X126953932Y-97975428D01*
X126958969Y-98018897D01*
X126958342Y-98028990D01*
X127698990Y-98769637D01*
X127635407Y-98786675D01*
X127521393Y-98852501D01*
X127428301Y-98945593D01*
X127362475Y-99059607D01*
X127345437Y-99123190D01*
X126604962Y-98382715D01*
X126571194Y-98386218D01*
X126545611Y-98386218D01*
X126511835Y-98382715D01*
X125771362Y-99123189D01*
X125754325Y-99059607D01*
X125688499Y-98945593D01*
X125595407Y-98852501D01*
X125481393Y-98786675D01*
X125417810Y-98769637D01*
X126158456Y-98028990D01*
X126157830Y-98018898D01*
X126173322Y-97950768D01*
X126201058Y-97916925D01*
X126358369Y-97782569D01*
X126464111Y-97658760D01*
X126522616Y-97620568D01*
X126592484Y-97620069D01*
X126651531Y-97657423D01*
G37*
G04 #@! TD.AperFunction*
G04 #@! TA.AperFunction,Conductor*
G36*
X129191531Y-97657423D02*
G01*
X129192600Y-97658657D01*
X129298431Y-97782569D01*
X129298434Y-97782572D01*
X129455738Y-97916922D01*
X129493932Y-97975428D01*
X129498969Y-98018897D01*
X129498342Y-98028990D01*
X130238990Y-98769637D01*
X130175407Y-98786675D01*
X130061393Y-98852501D01*
X129968301Y-98945593D01*
X129902475Y-99059607D01*
X129885437Y-99123190D01*
X129144962Y-98382715D01*
X129111194Y-98386218D01*
X129085611Y-98386218D01*
X129051835Y-98382715D01*
X128311362Y-99123189D01*
X128294325Y-99059607D01*
X128228499Y-98945593D01*
X128135407Y-98852501D01*
X128021393Y-98786675D01*
X127957810Y-98769637D01*
X128698456Y-98028990D01*
X128697830Y-98018898D01*
X128713322Y-97950768D01*
X128741058Y-97916925D01*
X128898369Y-97782569D01*
X129004111Y-97658760D01*
X129062616Y-97620568D01*
X129132484Y-97620069D01*
X129191531Y-97657423D01*
G37*
G04 #@! TD.AperFunction*
G04 #@! TA.AperFunction,Conductor*
G36*
X131731531Y-97657423D02*
G01*
X131732600Y-97658657D01*
X131838431Y-97782569D01*
X131838434Y-97782572D01*
X131995738Y-97916922D01*
X132033932Y-97975428D01*
X132038969Y-98018897D01*
X132038342Y-98028990D01*
X132778990Y-98769637D01*
X132715407Y-98786675D01*
X132601393Y-98852501D01*
X132508301Y-98945593D01*
X132442475Y-99059607D01*
X132425437Y-99123190D01*
X131684962Y-98382715D01*
X131651194Y-98386218D01*
X131625611Y-98386218D01*
X131591835Y-98382715D01*
X130851362Y-99123189D01*
X130834325Y-99059607D01*
X130768499Y-98945593D01*
X130675407Y-98852501D01*
X130561393Y-98786675D01*
X130497810Y-98769637D01*
X131238456Y-98028990D01*
X131237830Y-98018898D01*
X131253322Y-97950768D01*
X131281058Y-97916925D01*
X131438369Y-97782569D01*
X131544111Y-97658760D01*
X131602616Y-97620568D01*
X131672484Y-97620069D01*
X131731531Y-97657423D01*
G37*
G04 #@! TD.AperFunction*
G04 #@! TA.AperFunction,Conductor*
G36*
X82854539Y-95253185D02*
G01*
X82900294Y-95305989D01*
X82911500Y-95357500D01*
X82911500Y-95488654D01*
X82918011Y-95549202D01*
X82918011Y-95549204D01*
X82969111Y-95686204D01*
X83056739Y-95803261D01*
X83173796Y-95890889D01*
X83225737Y-95910262D01*
X83291595Y-95934827D01*
X83347528Y-95976699D01*
X83371944Y-96042163D01*
X83357092Y-96110436D01*
X83339490Y-96134991D01*
X83194279Y-96292730D01*
X83194276Y-96292734D01*
X83071140Y-96481207D01*
X82980703Y-96687385D01*
X82925436Y-96905628D01*
X82925434Y-96905640D01*
X82906844Y-97129994D01*
X82906844Y-97130005D01*
X82925434Y-97354359D01*
X82925436Y-97354371D01*
X82980703Y-97572614D01*
X83071140Y-97778792D01*
X83194276Y-97967265D01*
X83194284Y-97967276D01*
X83346756Y-98132902D01*
X83346760Y-98132906D01*
X83524424Y-98271189D01*
X83524425Y-98271189D01*
X83524427Y-98271191D01*
X83651135Y-98339761D01*
X83722426Y-98378342D01*
X83935365Y-98451444D01*
X84157431Y-98488500D01*
X84382569Y-98488500D01*
X84604635Y-98451444D01*
X84817574Y-98378342D01*
X85015576Y-98271189D01*
X85193240Y-98132906D01*
X85345722Y-97967268D01*
X85431491Y-97835989D01*
X85442148Y-97819678D01*
X85495294Y-97774321D01*
X85545956Y-97763500D01*
X87782500Y-97763500D01*
X87849539Y-97783185D01*
X87895294Y-97835989D01*
X87906500Y-97887500D01*
X87906500Y-103892500D01*
X87886815Y-103959539D01*
X87834011Y-104005294D01*
X87782500Y-104016500D01*
X87298352Y-104016500D01*
X87231313Y-103996815D01*
X87196779Y-103963626D01*
X87086198Y-103805700D01*
X86924300Y-103643802D01*
X86916627Y-103638429D01*
X86873006Y-103583853D01*
X86865814Y-103514355D01*
X86897338Y-103452001D01*
X86957568Y-103416588D01*
X86974489Y-103413570D01*
X86989201Y-103411989D01*
X87126204Y-103360889D01*
X87243261Y-103273261D01*
X87330889Y-103156204D01*
X87381989Y-103019201D01*
X87385591Y-102985692D01*
X87388499Y-102958654D01*
X87388500Y-102958637D01*
X87388500Y-101261362D01*
X87388499Y-101261345D01*
X87384853Y-101227438D01*
X87381989Y-101200799D01*
X87330889Y-101063796D01*
X87243261Y-100946739D01*
X87126204Y-100859111D01*
X86989203Y-100808011D01*
X86928654Y-100801500D01*
X86928638Y-100801500D01*
X85231362Y-100801500D01*
X85231345Y-100801500D01*
X85170797Y-100808011D01*
X85170795Y-100808011D01*
X85033795Y-100859111D01*
X84916739Y-100946739D01*
X84829111Y-101063795D01*
X84778011Y-101200795D01*
X84778011Y-101200797D01*
X84771500Y-101261345D01*
X84771500Y-101352500D01*
X84751815Y-101419539D01*
X84699011Y-101465294D01*
X84647500Y-101476500D01*
X79407500Y-101476500D01*
X79340461Y-101456815D01*
X79294706Y-101404011D01*
X79283500Y-101352500D01*
X79283500Y-95835523D01*
X79303185Y-95768484D01*
X79342401Y-95729986D01*
X79473652Y-95649030D01*
X79562319Y-95560363D01*
X79623642Y-95526878D01*
X79693334Y-95531862D01*
X79737681Y-95560363D01*
X79826348Y-95649030D01*
X79977262Y-95742115D01*
X80145574Y-95797887D01*
X80249455Y-95808500D01*
X81050544Y-95808499D01*
X81154426Y-95797887D01*
X81322738Y-95742115D01*
X81473652Y-95649030D01*
X81599030Y-95523652D01*
X81692115Y-95372738D01*
X81692117Y-95372733D01*
X81710089Y-95318497D01*
X81749861Y-95261052D01*
X81814376Y-95234228D01*
X81827795Y-95233500D01*
X82787500Y-95233500D01*
X82854539Y-95253185D01*
G37*
G04 #@! TD.AperFunction*
G04 #@! TA.AperFunction,Conductor*
G36*
X86036500Y-83573660D02*
G01*
X86016815Y-83640699D01*
X85964011Y-83686454D01*
X85938281Y-83694950D01*
X85796327Y-83725123D01*
X85726660Y-83719807D01*
X85670926Y-83677670D01*
X85654365Y-83647167D01*
X85600889Y-83503796D01*
X85600888Y-83503795D01*
X85513261Y-83386739D01*
X85396204Y-83299111D01*
X85259203Y-83248011D01*
X85198654Y-83241500D01*
X85198638Y-83241500D01*
X83401362Y-83241500D01*
X83401345Y-83241500D01*
X83340797Y-83248011D01*
X83340795Y-83248011D01*
X83203795Y-83299111D01*
X83086739Y-83386739D01*
X82999111Y-83503795D01*
X82948011Y-83640795D01*
X82948011Y-83640797D01*
X82941500Y-83701345D01*
X82941500Y-85102500D01*
X82921815Y-85169539D01*
X82869011Y-85215294D01*
X82817500Y-85226500D01*
X78927602Y-85226500D01*
X78805219Y-85250843D01*
X78805214Y-85250845D01*
X78771448Y-85264829D01*
X78771449Y-85264830D01*
X78689926Y-85298598D01*
X78689922Y-85298600D01*
X78586171Y-85367924D01*
X78586163Y-85367930D01*
X78291933Y-85662163D01*
X78246167Y-85707929D01*
X78223660Y-85730436D01*
X78157927Y-85796168D01*
X78088603Y-85899918D01*
X78088600Y-85899925D01*
X78052182Y-85987844D01*
X78008340Y-86042247D01*
X77983681Y-86054570D01*
X77983805Y-86054835D01*
X77977259Y-86057886D01*
X77826346Y-86150971D01*
X77700971Y-86276346D01*
X77607886Y-86427259D01*
X77607884Y-86427264D01*
X77552113Y-86595572D01*
X77541500Y-86699447D01*
X77541500Y-87700537D01*
X77541501Y-87700553D01*
X77552113Y-87804427D01*
X77607883Y-87972733D01*
X77607885Y-87972738D01*
X77700970Y-88123652D01*
X77826348Y-88249030D01*
X77977262Y-88342115D01*
X78145574Y-88397887D01*
X78249455Y-88408500D01*
X79050544Y-88408499D01*
X79154426Y-88397887D01*
X79322738Y-88342115D01*
X79473652Y-88249030D01*
X79562319Y-88160363D01*
X79623642Y-88126878D01*
X79693334Y-88131862D01*
X79737681Y-88160363D01*
X79826348Y-88249030D01*
X79977262Y-88342115D01*
X80145574Y-88397887D01*
X80249455Y-88408500D01*
X81050544Y-88408499D01*
X81154426Y-88397887D01*
X81322738Y-88342115D01*
X81473652Y-88249030D01*
X81599030Y-88123652D01*
X81692115Y-87972738D01*
X81729970Y-87858497D01*
X81769742Y-87801052D01*
X81834258Y-87774228D01*
X81847676Y-87773500D01*
X83024044Y-87773500D01*
X83091083Y-87793185D01*
X83127852Y-87829678D01*
X83224276Y-87977265D01*
X83224284Y-87977276D01*
X83376756Y-88142902D01*
X83376761Y-88142907D01*
X83435981Y-88189000D01*
X83554424Y-88281189D01*
X83597693Y-88304605D01*
X83597695Y-88304606D01*
X83647286Y-88353825D01*
X83662394Y-88422042D01*
X83638224Y-88487597D01*
X83609802Y-88515236D01*
X83428922Y-88641890D01*
X83428920Y-88641891D01*
X83261891Y-88808920D01*
X83261886Y-88808926D01*
X83126400Y-89002420D01*
X83126399Y-89002422D01*
X83026570Y-89216507D01*
X83026567Y-89216513D01*
X82969364Y-89429999D01*
X82969364Y-89430000D01*
X83866988Y-89430000D01*
X83834075Y-89487007D01*
X83800000Y-89614174D01*
X83800000Y-89745826D01*
X83834075Y-89872993D01*
X83866988Y-89930000D01*
X82969364Y-89930000D01*
X83026567Y-90143486D01*
X83026570Y-90143492D01*
X83126399Y-90357578D01*
X83261894Y-90551082D01*
X83428917Y-90718105D01*
X83622421Y-90853600D01*
X83836507Y-90953429D01*
X83836516Y-90953433D01*
X84050000Y-91010634D01*
X84050000Y-90113012D01*
X84107007Y-90145925D01*
X84234174Y-90180000D01*
X84365826Y-90180000D01*
X84492993Y-90145925D01*
X84550000Y-90113012D01*
X84550000Y-91010633D01*
X84763483Y-90953433D01*
X84763492Y-90953429D01*
X84977578Y-90853600D01*
X85171082Y-90718105D01*
X85338105Y-90551082D01*
X85473600Y-90357578D01*
X85573429Y-90143492D01*
X85573432Y-90143486D01*
X85630636Y-89930000D01*
X84733012Y-89930000D01*
X84765925Y-89872993D01*
X84800000Y-89745826D01*
X84800000Y-89614174D01*
X84765925Y-89487007D01*
X84733012Y-89430000D01*
X85630636Y-89430000D01*
X85630635Y-89429999D01*
X85573432Y-89216513D01*
X85573429Y-89216507D01*
X85473600Y-89002422D01*
X85473599Y-89002420D01*
X85338113Y-88808926D01*
X85338108Y-88808920D01*
X85171082Y-88641894D01*
X84990197Y-88515236D01*
X84946572Y-88460659D01*
X84939380Y-88391160D01*
X84970902Y-88328806D01*
X85002300Y-88304608D01*
X85045576Y-88281189D01*
X85223240Y-88142906D01*
X85375722Y-87977268D01*
X85431956Y-87891195D01*
X85472148Y-87829678D01*
X85525294Y-87784321D01*
X85575956Y-87773500D01*
X87222395Y-87773500D01*
X87222396Y-87773499D01*
X87344785Y-87749155D01*
X87460075Y-87701400D01*
X87563833Y-87632071D01*
X87892071Y-87303833D01*
X87961400Y-87200075D01*
X88009155Y-87084785D01*
X88033500Y-86962394D01*
X88033500Y-86837606D01*
X88033500Y-63917500D01*
X88053185Y-63850461D01*
X88105989Y-63804706D01*
X88157500Y-63793500D01*
X102982395Y-63793500D01*
X102982396Y-63793499D01*
X103104785Y-63769155D01*
X103220075Y-63721400D01*
X103323833Y-63652071D01*
X103672072Y-63303833D01*
X103688612Y-63279078D01*
X103742223Y-63234273D01*
X103811548Y-63225564D01*
X103864600Y-63247649D01*
X103993248Y-63341118D01*
X104167712Y-63418794D01*
X104354513Y-63458500D01*
X104545487Y-63458500D01*
X104732288Y-63418794D01*
X104906752Y-63341118D01*
X105061253Y-63228866D01*
X105189040Y-63086944D01*
X105284527Y-62921556D01*
X105343542Y-62739928D01*
X105363504Y-62550000D01*
X105356567Y-62484000D01*
X106958096Y-62484000D01*
X107080181Y-62606085D01*
X107113666Y-62667408D01*
X107116500Y-62693766D01*
X107116500Y-101882500D01*
X107096815Y-101949539D01*
X107044011Y-101995294D01*
X106992500Y-102006500D01*
X97975524Y-102006500D01*
X97908485Y-101986815D01*
X97869985Y-101947597D01*
X97868246Y-101944777D01*
X97789030Y-101816348D01*
X97663652Y-101690970D01*
X97512738Y-101597885D01*
X97512735Y-101597884D01*
X97344427Y-101542113D01*
X97240546Y-101531500D01*
X96239462Y-101531500D01*
X96239446Y-101531501D01*
X96135572Y-101542113D01*
X95967264Y-101597884D01*
X95967259Y-101597886D01*
X95816346Y-101690971D01*
X95690971Y-101816346D01*
X95597886Y-101967259D01*
X95597884Y-101967264D01*
X95542113Y-102135572D01*
X95531500Y-102239447D01*
X95531500Y-103040537D01*
X95531501Y-103040553D01*
X95542113Y-103144427D01*
X95584804Y-103273261D01*
X95597885Y-103312738D01*
X95681232Y-103447865D01*
X95690971Y-103463653D01*
X95779637Y-103552319D01*
X95813122Y-103613642D01*
X95808138Y-103683334D01*
X95779637Y-103727681D01*
X95690971Y-103816346D01*
X95671755Y-103847500D01*
X95603845Y-103957598D01*
X95551899Y-104004322D01*
X95498308Y-104016500D01*
X94918352Y-104016500D01*
X94851313Y-103996815D01*
X94816779Y-103963626D01*
X94706198Y-103805700D01*
X94544300Y-103643802D01*
X94356749Y-103512477D01*
X94313655Y-103492382D01*
X94261215Y-103446210D01*
X94242063Y-103379017D01*
X94262278Y-103312136D01*
X94313655Y-103267618D01*
X94316882Y-103266112D01*
X94356749Y-103247523D01*
X94544300Y-103116198D01*
X94706198Y-102954300D01*
X94837523Y-102766749D01*
X94934284Y-102559243D01*
X94993543Y-102338087D01*
X95013498Y-102110000D01*
X94993543Y-101881913D01*
X94934284Y-101660757D01*
X94904966Y-101597885D01*
X94848364Y-101476500D01*
X94837523Y-101453251D01*
X94706198Y-101265700D01*
X94544300Y-101103802D01*
X94356749Y-100972477D01*
X94356745Y-100972475D01*
X94149249Y-100875718D01*
X94149238Y-100875714D01*
X93928089Y-100816457D01*
X93928081Y-100816456D01*
X93700002Y-100796502D01*
X93699998Y-100796502D01*
X93471918Y-100816456D01*
X93471910Y-100816457D01*
X93250761Y-100875714D01*
X93250750Y-100875718D01*
X93043254Y-100972475D01*
X93043252Y-100972476D01*
X93043251Y-100972477D01*
X92855700Y-101103802D01*
X92855698Y-101103803D01*
X92855695Y-101103806D01*
X92693806Y-101265695D01*
X92693803Y-101265698D01*
X92693802Y-101265700D01*
X92680858Y-101284186D01*
X92562476Y-101453252D01*
X92562475Y-101453254D01*
X92465718Y-101660750D01*
X92465714Y-101660761D01*
X92406457Y-101881910D01*
X92406456Y-101881918D01*
X92386502Y-102109998D01*
X92386502Y-102110001D01*
X92406456Y-102338081D01*
X92406457Y-102338089D01*
X92465714Y-102559238D01*
X92465718Y-102559249D01*
X92551635Y-102743499D01*
X92562477Y-102766749D01*
X92693802Y-102954300D01*
X92855700Y-103116198D01*
X93037603Y-103243568D01*
X93043251Y-103247523D01*
X93086345Y-103267618D01*
X93138784Y-103313791D01*
X93157936Y-103380984D01*
X93137720Y-103447865D01*
X93086345Y-103492382D01*
X93043251Y-103512476D01*
X92941316Y-103583853D01*
X92855700Y-103643802D01*
X92855698Y-103643803D01*
X92855695Y-103643806D01*
X92693806Y-103805695D01*
X92693803Y-103805698D01*
X92693802Y-103805700D01*
X92633024Y-103892500D01*
X92562476Y-103993252D01*
X92562475Y-103993254D01*
X92465718Y-104200750D01*
X92465714Y-104200761D01*
X92406457Y-104421910D01*
X92406456Y-104421918D01*
X92386502Y-104649998D01*
X92386502Y-104650001D01*
X92406456Y-104878081D01*
X92406457Y-104878089D01*
X92465714Y-105099238D01*
X92465718Y-105099249D01*
X92560815Y-105303185D01*
X92562477Y-105306749D01*
X92693802Y-105494300D01*
X92855700Y-105656198D01*
X92987521Y-105748500D01*
X93043251Y-105787523D01*
X93086345Y-105807618D01*
X93138784Y-105853791D01*
X93157936Y-105920984D01*
X93137720Y-105987865D01*
X93086345Y-106032382D01*
X93043251Y-106052476D01*
X92918126Y-106140090D01*
X92855700Y-106183802D01*
X92855698Y-106183803D01*
X92855695Y-106183806D01*
X92693806Y-106345695D01*
X92693803Y-106345698D01*
X92693802Y-106345700D01*
X92680858Y-106364186D01*
X92562476Y-106533252D01*
X92562475Y-106533254D01*
X92465718Y-106740750D01*
X92465714Y-106740761D01*
X92406457Y-106961910D01*
X92406456Y-106961918D01*
X92386502Y-107189998D01*
X92386502Y-107190001D01*
X92406456Y-107418081D01*
X92406457Y-107418089D01*
X92465714Y-107639238D01*
X92465718Y-107639249D01*
X92553109Y-107826660D01*
X92562477Y-107846749D01*
X92693802Y-108034300D01*
X92855700Y-108196198D01*
X93043251Y-108327523D01*
X93168091Y-108385736D01*
X93250750Y-108424281D01*
X93250752Y-108424281D01*
X93250757Y-108424284D01*
X93471913Y-108483543D01*
X93634832Y-108497796D01*
X93699998Y-108503498D01*
X93700000Y-108503498D01*
X93700002Y-108503498D01*
X93757021Y-108498509D01*
X93928087Y-108483543D01*
X94149243Y-108424284D01*
X94356749Y-108327523D01*
X94544300Y-108196198D01*
X94706198Y-108034300D01*
X94774766Y-107936374D01*
X94829342Y-107892751D01*
X94876340Y-107883500D01*
X98062395Y-107883500D01*
X98062396Y-107883499D01*
X98184785Y-107859155D01*
X98300075Y-107811400D01*
X98403833Y-107742071D01*
X98992072Y-107153833D01*
X99061401Y-107050075D01*
X99109155Y-106934785D01*
X99118460Y-106888008D01*
X99129415Y-106832929D01*
X99133500Y-106812394D01*
X99133500Y-106687606D01*
X99133500Y-103847500D01*
X99153185Y-103780461D01*
X99205989Y-103734706D01*
X99257500Y-103723500D01*
X107972395Y-103723500D01*
X107972396Y-103723499D01*
X108094785Y-103699155D01*
X108210075Y-103651400D01*
X108313833Y-103582071D01*
X108752072Y-103143833D01*
X108821401Y-103040075D01*
X108869155Y-102924785D01*
X108893500Y-102802394D01*
X108893500Y-102677606D01*
X108893500Y-93194600D01*
X112173401Y-93194600D01*
X112173401Y-93444586D01*
X112183894Y-93547297D01*
X112239041Y-93713719D01*
X112239043Y-93713724D01*
X112331084Y-93862945D01*
X112455054Y-93986915D01*
X112604275Y-94078956D01*
X112604280Y-94078958D01*
X112770702Y-94134105D01*
X112770709Y-94134106D01*
X112873419Y-94144599D01*
X113023399Y-94144599D01*
X113023400Y-94144598D01*
X113023400Y-93194600D01*
X112173401Y-93194600D01*
X108893500Y-93194600D01*
X108893500Y-63465388D01*
X108913185Y-63398349D01*
X108965989Y-63352594D01*
X109035147Y-63342650D01*
X109067931Y-63352107D01*
X109217712Y-63418794D01*
X109404513Y-63458500D01*
X109595487Y-63458500D01*
X109782288Y-63418794D01*
X109956752Y-63341118D01*
X110111253Y-63228866D01*
X110239040Y-63086944D01*
X110334527Y-62921556D01*
X110393542Y-62739928D01*
X110413504Y-62550000D01*
X110406567Y-62484000D01*
X111416500Y-62484000D01*
X111416500Y-90562398D01*
X111440843Y-90684777D01*
X111440845Y-90684785D01*
X111488598Y-90800072D01*
X111488603Y-90800081D01*
X111557928Y-90903832D01*
X111557931Y-90903836D01*
X111890763Y-91236669D01*
X111890767Y-91236672D01*
X111994521Y-91305999D01*
X111994523Y-91305999D01*
X111994525Y-91306001D01*
X112076047Y-91339768D01*
X112109815Y-91353755D01*
X112132428Y-91358252D01*
X112194339Y-91390636D01*
X112225944Y-91440865D01*
X112251285Y-91517338D01*
X112335421Y-91653744D01*
X112344371Y-91668253D01*
X112429047Y-91752929D01*
X112462532Y-91814252D01*
X112457548Y-91883944D01*
X112429048Y-91928291D01*
X112331082Y-92026257D01*
X112239043Y-92175475D01*
X112239041Y-92175480D01*
X112183894Y-92341902D01*
X112183893Y-92341909D01*
X112173400Y-92444613D01*
X112173400Y-92694600D01*
X113399400Y-92694600D01*
X113466439Y-92714285D01*
X113512194Y-92767089D01*
X113523400Y-92818600D01*
X113523400Y-94144599D01*
X113673372Y-94144599D01*
X113673386Y-94144598D01*
X113776097Y-94134105D01*
X113942519Y-94078958D01*
X113942524Y-94078956D01*
X114091742Y-93986917D01*
X114179707Y-93898952D01*
X114241030Y-93865467D01*
X114310722Y-93870451D01*
X114355070Y-93898952D01*
X114449748Y-93993630D01*
X114600662Y-94086715D01*
X114768974Y-94142487D01*
X114872855Y-94153100D01*
X115673944Y-94153099D01*
X115777826Y-94142487D01*
X115946138Y-94086715D01*
X116097052Y-93993630D01*
X116222430Y-93868252D01*
X116315515Y-93717338D01*
X116371287Y-93549026D01*
X116381900Y-93445145D01*
X116381899Y-93289921D01*
X116401583Y-93222884D01*
X116454387Y-93177129D01*
X116523545Y-93167185D01*
X116587101Y-93196210D01*
X116612631Y-93226802D01*
X116683214Y-93346152D01*
X116683221Y-93346161D01*
X116799338Y-93462278D01*
X116799347Y-93462285D01*
X116940703Y-93545882D01*
X116940706Y-93545883D01*
X117098404Y-93591699D01*
X117098410Y-93591700D01*
X117135250Y-93594599D01*
X117135266Y-93594600D01*
X117538400Y-93594600D01*
X117538400Y-93044600D01*
X118038400Y-93044600D01*
X118038400Y-93594600D01*
X118441534Y-93594600D01*
X118441549Y-93594599D01*
X118478389Y-93591700D01*
X118478395Y-93591699D01*
X118636093Y-93545883D01*
X118636096Y-93545882D01*
X118777452Y-93462285D01*
X118777461Y-93462278D01*
X118893578Y-93346161D01*
X118893585Y-93346152D01*
X118977181Y-93204798D01*
X119023000Y-93047086D01*
X119023195Y-93044601D01*
X119023195Y-93044600D01*
X118038400Y-93044600D01*
X117538400Y-93044600D01*
X117538400Y-91994600D01*
X117135250Y-91994600D01*
X117098410Y-91997499D01*
X117098404Y-91997500D01*
X116940706Y-92043316D01*
X116940703Y-92043317D01*
X116799347Y-92126914D01*
X116799338Y-92126921D01*
X116683221Y-92243038D01*
X116683214Y-92243047D01*
X116600474Y-92382954D01*
X116549405Y-92430638D01*
X116480663Y-92443141D01*
X116416074Y-92416495D01*
X116376144Y-92359160D01*
X116372488Y-92345786D01*
X116371287Y-92340182D01*
X116371287Y-92340174D01*
X116315515Y-92171862D01*
X116222430Y-92020948D01*
X116143763Y-91942281D01*
X116110278Y-91880958D01*
X116115262Y-91811266D01*
X116143763Y-91766919D01*
X116187897Y-91722785D01*
X116242430Y-91668252D01*
X116335515Y-91517338D01*
X116335517Y-91517333D01*
X116353489Y-91463097D01*
X116393261Y-91405652D01*
X116457776Y-91378828D01*
X116471195Y-91378100D01*
X116562365Y-91378100D01*
X116629404Y-91397785D01*
X116669097Y-91438979D01*
X116676445Y-91451404D01*
X116676451Y-91451412D01*
X116794087Y-91569048D01*
X116794091Y-91569051D01*
X116794093Y-91569053D01*
X116937299Y-91653745D01*
X116979430Y-91665985D01*
X117097064Y-91700161D01*
X117097067Y-91700161D01*
X117097069Y-91700162D01*
X117134398Y-91703100D01*
X118293400Y-91703100D01*
X118360439Y-91722785D01*
X118406194Y-91775589D01*
X118417400Y-91827100D01*
X118417400Y-91870600D01*
X118397715Y-91937639D01*
X118344911Y-91983394D01*
X118293400Y-91994600D01*
X118038400Y-91994600D01*
X118038400Y-92544600D01*
X118678369Y-92544600D01*
X118741487Y-92561866D01*
X118812299Y-92603745D01*
X118812301Y-92603745D01*
X118812302Y-92603746D01*
X118972064Y-92650161D01*
X118972067Y-92650161D01*
X118972069Y-92650162D01*
X119009398Y-92653100D01*
X119009404Y-92653100D01*
X120317396Y-92653100D01*
X120317402Y-92653100D01*
X120354731Y-92650162D01*
X120354733Y-92650161D01*
X120354735Y-92650161D01*
X120396862Y-92637921D01*
X120514501Y-92603745D01*
X120657707Y-92519053D01*
X120657712Y-92519048D01*
X120662342Y-92514419D01*
X120723665Y-92480934D01*
X120750023Y-92478100D01*
X123517795Y-92478100D01*
X123517796Y-92478099D01*
X123640185Y-92453755D01*
X123755475Y-92406000D01*
X123859233Y-92336671D01*
X124142071Y-92053833D01*
X124211400Y-91950075D01*
X124259155Y-91834785D01*
X124283500Y-91712394D01*
X124283500Y-91587606D01*
X124283500Y-88025729D01*
X124303185Y-87958690D01*
X124348484Y-87916674D01*
X124395566Y-87891195D01*
X124395569Y-87891192D01*
X124395576Y-87891189D01*
X124573240Y-87752906D01*
X124725722Y-87587268D01*
X124848860Y-87398791D01*
X124939296Y-87192616D01*
X124994564Y-86974368D01*
X125013156Y-86750000D01*
X125000359Y-86595572D01*
X124994565Y-86525640D01*
X124994563Y-86525628D01*
X124969653Y-86427262D01*
X124939296Y-86307384D01*
X124848860Y-86101209D01*
X124836530Y-86082337D01*
X124751370Y-85951989D01*
X124725722Y-85912732D01*
X124725719Y-85912729D01*
X124725715Y-85912723D01*
X124580510Y-85754991D01*
X124549587Y-85692337D01*
X124557447Y-85622911D01*
X124601594Y-85568755D01*
X124628405Y-85554827D01*
X124708584Y-85524920D01*
X124746204Y-85510889D01*
X124863261Y-85423261D01*
X124950889Y-85306204D01*
X124999218Y-85176630D01*
X125001988Y-85169204D01*
X125001988Y-85169203D01*
X125001989Y-85169201D01*
X125005591Y-85135692D01*
X125008499Y-85108654D01*
X125008500Y-85108637D01*
X125008500Y-84967500D01*
X125028185Y-84900461D01*
X125080989Y-84854706D01*
X125132500Y-84843500D01*
X125652395Y-84843500D01*
X125652396Y-84843499D01*
X125774785Y-84819155D01*
X125890075Y-84771400D01*
X125993833Y-84702071D01*
X126292071Y-84403833D01*
X126361400Y-84300075D01*
X126409155Y-84184785D01*
X126433500Y-84062394D01*
X126433500Y-83937606D01*
X126433500Y-67087606D01*
X126409155Y-66965215D01*
X126361400Y-66849925D01*
X126361399Y-66849924D01*
X126361396Y-66849918D01*
X126292072Y-66746168D01*
X126292071Y-66746167D01*
X126203833Y-66657929D01*
X125953836Y-66407931D01*
X125953832Y-66407928D01*
X125850081Y-66338603D01*
X125850072Y-66338598D01*
X125734785Y-66290845D01*
X125734777Y-66290843D01*
X125612398Y-66266500D01*
X125612394Y-66266500D01*
X125182500Y-66266500D01*
X125115461Y-66246815D01*
X125069706Y-66194011D01*
X125058500Y-66142500D01*
X125058500Y-66001362D01*
X125058499Y-66001345D01*
X125055157Y-65970270D01*
X125051989Y-65940799D01*
X125037133Y-65900970D01*
X125001152Y-65804502D01*
X125000889Y-65803796D01*
X124913261Y-65686739D01*
X124796204Y-65599111D01*
X124659203Y-65548011D01*
X124598654Y-65541500D01*
X124598638Y-65541500D01*
X122801362Y-65541500D01*
X122801345Y-65541500D01*
X122740797Y-65548011D01*
X122740795Y-65548011D01*
X122603795Y-65599111D01*
X122486739Y-65686739D01*
X122399111Y-65803795D01*
X122348011Y-65940795D01*
X122348011Y-65940797D01*
X122341500Y-66001345D01*
X122341500Y-67798654D01*
X122348011Y-67859202D01*
X122348011Y-67859204D01*
X122399111Y-67996204D01*
X122486739Y-68113261D01*
X122603796Y-68200889D01*
X122644795Y-68216181D01*
X122721595Y-68244827D01*
X122777528Y-68286699D01*
X122801944Y-68352163D01*
X122787092Y-68420436D01*
X122769490Y-68444991D01*
X122624279Y-68602730D01*
X122624276Y-68602734D01*
X122501140Y-68791207D01*
X122410703Y-68997385D01*
X122355436Y-69215628D01*
X122355434Y-69215640D01*
X122336844Y-69439994D01*
X122336844Y-69440005D01*
X122355434Y-69664359D01*
X122355436Y-69664371D01*
X122410703Y-69882614D01*
X122501140Y-70088792D01*
X122624276Y-70277265D01*
X122624284Y-70277276D01*
X122759035Y-70423652D01*
X122776760Y-70442906D01*
X122954424Y-70581189D01*
X122954429Y-70581191D01*
X122954431Y-70581193D01*
X122990930Y-70600946D01*
X123040520Y-70650165D01*
X123055628Y-70718382D01*
X123031457Y-70783937D01*
X122990930Y-70819054D01*
X122954431Y-70838806D01*
X122954422Y-70838812D01*
X122776761Y-70977092D01*
X122776756Y-70977097D01*
X122624284Y-71142723D01*
X122624276Y-71142734D01*
X122501140Y-71331207D01*
X122410703Y-71537385D01*
X122355436Y-71755628D01*
X122355434Y-71755640D01*
X122336844Y-71979994D01*
X122336844Y-71980005D01*
X122355434Y-72204359D01*
X122355436Y-72204371D01*
X122410703Y-72422614D01*
X122501140Y-72628792D01*
X122624276Y-72817265D01*
X122624284Y-72817276D01*
X122726629Y-72928450D01*
X122776760Y-72982906D01*
X122954424Y-73121189D01*
X122954429Y-73121191D01*
X122954431Y-73121193D01*
X122990930Y-73140946D01*
X123040520Y-73190165D01*
X123055628Y-73258382D01*
X123031457Y-73323937D01*
X122990930Y-73359054D01*
X122954431Y-73378806D01*
X122954422Y-73378812D01*
X122776761Y-73517092D01*
X122776756Y-73517097D01*
X122624284Y-73682723D01*
X122624276Y-73682734D01*
X122501140Y-73871207D01*
X122410703Y-74077385D01*
X122355436Y-74295628D01*
X122355434Y-74295640D01*
X122336844Y-74519994D01*
X122336844Y-74520005D01*
X122355434Y-74744359D01*
X122355436Y-74744371D01*
X122410703Y-74962614D01*
X122501140Y-75168792D01*
X122624276Y-75357265D01*
X122624284Y-75357276D01*
X122776756Y-75522902D01*
X122776760Y-75522906D01*
X122954424Y-75661189D01*
X122954429Y-75661191D01*
X122954431Y-75661193D01*
X122990930Y-75680946D01*
X123040520Y-75730165D01*
X123055628Y-75798382D01*
X123031457Y-75863937D01*
X122990930Y-75899054D01*
X122954431Y-75918806D01*
X122954422Y-75918812D01*
X122776761Y-76057092D01*
X122776756Y-76057097D01*
X122624284Y-76222723D01*
X122624276Y-76222734D01*
X122501140Y-76411207D01*
X122410703Y-76617385D01*
X122355436Y-76835628D01*
X122355434Y-76835640D01*
X122336844Y-77059994D01*
X122336844Y-77060005D01*
X122355434Y-77284359D01*
X122355436Y-77284371D01*
X122410703Y-77502614D01*
X122501140Y-77708792D01*
X122624276Y-77897265D01*
X122624284Y-77897276D01*
X122776756Y-78062902D01*
X122776760Y-78062906D01*
X122954424Y-78201189D01*
X122997693Y-78224605D01*
X122997695Y-78224606D01*
X123047286Y-78273825D01*
X123062394Y-78342042D01*
X123038224Y-78407597D01*
X123009802Y-78435236D01*
X122828922Y-78561890D01*
X122828920Y-78561891D01*
X122661891Y-78728920D01*
X122661886Y-78728926D01*
X122526400Y-78922420D01*
X122526399Y-78922422D01*
X122426570Y-79136507D01*
X122426567Y-79136513D01*
X122369364Y-79349999D01*
X122369364Y-79350000D01*
X123266988Y-79350000D01*
X123234075Y-79407007D01*
X123200000Y-79534174D01*
X123200000Y-79665826D01*
X123234075Y-79792993D01*
X123266988Y-79850000D01*
X122369364Y-79850000D01*
X122426567Y-80063486D01*
X122426570Y-80063492D01*
X122526399Y-80277578D01*
X122661894Y-80471082D01*
X122828917Y-80638105D01*
X123022421Y-80773600D01*
X123236507Y-80873429D01*
X123236516Y-80873433D01*
X123450000Y-80930634D01*
X123450000Y-80033012D01*
X123507007Y-80065925D01*
X123634174Y-80100000D01*
X123765826Y-80100000D01*
X123892993Y-80065925D01*
X123950000Y-80033012D01*
X123950000Y-80930633D01*
X124163483Y-80873433D01*
X124163492Y-80873429D01*
X124377578Y-80773600D01*
X124571082Y-80638105D01*
X124738105Y-80471082D01*
X124873600Y-80277578D01*
X124930118Y-80156375D01*
X124976290Y-80103936D01*
X125043484Y-80084784D01*
X125110365Y-80105000D01*
X125155699Y-80158165D01*
X125166500Y-80208780D01*
X125166500Y-83029257D01*
X125146815Y-83096296D01*
X125094011Y-83142051D01*
X125024853Y-83151995D01*
X124961297Y-83122970D01*
X124943234Y-83103568D01*
X124863262Y-82996741D01*
X124863263Y-82996741D01*
X124863261Y-82996739D01*
X124746204Y-82909111D01*
X124609203Y-82858011D01*
X124548654Y-82851500D01*
X124548638Y-82851500D01*
X122751362Y-82851500D01*
X122751345Y-82851500D01*
X122690797Y-82858011D01*
X122690795Y-82858011D01*
X122553795Y-82909111D01*
X122436739Y-82996739D01*
X122349111Y-83113795D01*
X122298011Y-83250795D01*
X122298011Y-83250797D01*
X122291500Y-83311345D01*
X122291500Y-85108654D01*
X122298011Y-85169202D01*
X122298011Y-85169204D01*
X122338914Y-85278866D01*
X122349111Y-85306204D01*
X122436739Y-85423261D01*
X122553796Y-85510889D01*
X122605737Y-85530262D01*
X122671595Y-85554827D01*
X122727528Y-85596699D01*
X122751944Y-85662163D01*
X122737092Y-85730436D01*
X122719490Y-85754991D01*
X122574279Y-85912730D01*
X122574276Y-85912734D01*
X122451140Y-86101207D01*
X122360703Y-86307385D01*
X122305436Y-86525628D01*
X122305434Y-86525640D01*
X122286844Y-86749994D01*
X122286844Y-86750005D01*
X122305434Y-86974359D01*
X122305436Y-86974371D01*
X122360703Y-87192614D01*
X122451140Y-87398792D01*
X122574276Y-87587265D01*
X122574284Y-87587276D01*
X122723306Y-87749154D01*
X122726760Y-87752906D01*
X122904424Y-87891189D01*
X122904426Y-87891190D01*
X122904433Y-87891195D01*
X122951516Y-87916674D01*
X123001107Y-87965892D01*
X123016500Y-88025729D01*
X123016500Y-91087100D01*
X122996815Y-91154139D01*
X122944011Y-91199894D01*
X122892500Y-91211100D01*
X120750023Y-91211100D01*
X120682984Y-91191415D01*
X120662342Y-91174781D01*
X120657712Y-91170151D01*
X120657703Y-91170144D01*
X120514501Y-91085455D01*
X120514496Y-91085453D01*
X120354735Y-91039038D01*
X120354729Y-91039037D01*
X120317407Y-91036100D01*
X120317402Y-91036100D01*
X119158400Y-91036100D01*
X119091361Y-91016415D01*
X119045606Y-90963611D01*
X119034400Y-90912100D01*
X119034400Y-90678104D01*
X119034400Y-90678098D01*
X119031462Y-90640769D01*
X119008693Y-90562398D01*
X118985046Y-90481003D01*
X118985045Y-90480999D01*
X118900353Y-90337793D01*
X118900351Y-90337791D01*
X118900348Y-90337787D01*
X118782712Y-90220151D01*
X118782703Y-90220144D01*
X118639501Y-90135455D01*
X118639496Y-90135453D01*
X118479735Y-90089038D01*
X118479729Y-90089037D01*
X118442407Y-90086100D01*
X118442402Y-90086100D01*
X117134398Y-90086100D01*
X117134392Y-90086100D01*
X117097074Y-90089037D01*
X117097069Y-90089038D01*
X117038074Y-90106177D01*
X117003482Y-90111100D01*
X116471195Y-90111100D01*
X116404156Y-90091415D01*
X116358401Y-90038611D01*
X116353489Y-90026103D01*
X116335517Y-89971866D01*
X116309694Y-89930000D01*
X116242430Y-89820948D01*
X116117052Y-89695570D01*
X115966138Y-89602485D01*
X115966135Y-89602484D01*
X115797827Y-89546713D01*
X115693946Y-89536100D01*
X114892862Y-89536100D01*
X114892846Y-89536101D01*
X114788972Y-89546713D01*
X114620664Y-89602484D01*
X114620659Y-89602486D01*
X114469746Y-89695571D01*
X114381081Y-89784237D01*
X114319758Y-89817722D01*
X114250066Y-89812738D01*
X114205719Y-89784237D01*
X114117053Y-89695571D01*
X114117052Y-89695570D01*
X113966138Y-89602485D01*
X113966135Y-89602484D01*
X113797827Y-89546713D01*
X113693946Y-89536100D01*
X112892862Y-89536100D01*
X112892846Y-89536101D01*
X112820102Y-89543533D01*
X112751409Y-89530763D01*
X112700524Y-89482883D01*
X112683500Y-89420175D01*
X112683500Y-62484000D01*
X130486500Y-62484000D01*
X130486500Y-72542500D01*
X130466815Y-72609539D01*
X130414011Y-72655294D01*
X130362500Y-72666500D01*
X128457309Y-72666500D01*
X128390270Y-72646815D01*
X128365160Y-72625473D01*
X128361254Y-72621135D01*
X128338257Y-72604426D01*
X128206752Y-72508882D01*
X128032288Y-72431206D01*
X128032286Y-72431205D01*
X127845487Y-72391500D01*
X127654513Y-72391500D01*
X127467714Y-72431205D01*
X127467712Y-72431206D01*
X127311956Y-72500553D01*
X127293246Y-72508883D01*
X127138745Y-72621135D01*
X127010959Y-72763057D01*
X126915473Y-72928443D01*
X126915470Y-72928450D01*
X126876291Y-73049032D01*
X126856458Y-73110072D01*
X126836496Y-73300000D01*
X126856458Y-73489928D01*
X126856459Y-73489931D01*
X126915470Y-73671549D01*
X126915473Y-73671556D01*
X127010960Y-73836944D01*
X127138747Y-73978866D01*
X127293248Y-74091118D01*
X127467712Y-74168794D01*
X127654513Y-74208500D01*
X127845487Y-74208500D01*
X128032288Y-74168794D01*
X128206752Y-74091118D01*
X128361253Y-73978866D01*
X128365160Y-73974527D01*
X128424646Y-73937879D01*
X128457309Y-73933500D01*
X130862395Y-73933500D01*
X130862396Y-73933499D01*
X130984785Y-73909155D01*
X131100075Y-73861400D01*
X131203833Y-73792071D01*
X131612071Y-73383833D01*
X131681400Y-73280075D01*
X131729155Y-73164785D01*
X131753500Y-73042394D01*
X131753500Y-72917607D01*
X131753500Y-62484000D01*
X141974500Y-62484000D01*
X141974500Y-108996753D01*
X141974330Y-109003243D01*
X141958544Y-109304433D01*
X141957187Y-109317340D01*
X141910517Y-109612010D01*
X141907819Y-109624706D01*
X141830600Y-109912892D01*
X141826589Y-109925237D01*
X141719670Y-110203770D01*
X141714391Y-110215627D01*
X141578941Y-110481464D01*
X141572455Y-110492697D01*
X141497422Y-110608238D01*
X141409962Y-110742914D01*
X141402333Y-110753414D01*
X141214570Y-110985282D01*
X141205885Y-110994927D01*
X140994927Y-111205885D01*
X140985282Y-111214570D01*
X140753414Y-111402333D01*
X140742914Y-111409962D01*
X140492697Y-111572455D01*
X140481464Y-111578941D01*
X140215627Y-111714391D01*
X140203770Y-111719670D01*
X139925237Y-111826589D01*
X139912892Y-111830600D01*
X139624706Y-111907819D01*
X139612010Y-111910517D01*
X139317340Y-111957187D01*
X139304433Y-111958544D01*
X139003244Y-111974330D01*
X138996754Y-111974500D01*
X80003246Y-111974500D01*
X79996756Y-111974330D01*
X79695566Y-111958544D01*
X79682659Y-111957187D01*
X79387989Y-111910517D01*
X79375293Y-111907819D01*
X79087107Y-111830600D01*
X79074762Y-111826589D01*
X78796229Y-111719670D01*
X78784372Y-111714391D01*
X78755029Y-111699440D01*
X78518529Y-111578937D01*
X78507310Y-111572460D01*
X78257079Y-111409958D01*
X78246585Y-111402333D01*
X78014717Y-111214570D01*
X78005072Y-111205885D01*
X77794114Y-110994927D01*
X77785429Y-110985282D01*
X77597666Y-110753414D01*
X77590044Y-110742923D01*
X77427535Y-110492683D01*
X77421065Y-110481477D01*
X77285603Y-110215617D01*
X77280334Y-110203781D01*
X77173407Y-109925228D01*
X77169402Y-109912901D01*
X77092176Y-109624690D01*
X77089484Y-109612022D01*
X77045300Y-109333051D01*
X77042812Y-109317340D01*
X77041455Y-109304433D01*
X77025670Y-109003243D01*
X77025500Y-108996753D01*
X77025500Y-108509301D01*
X78634453Y-108509301D01*
X78638884Y-108571253D01*
X78639200Y-108580099D01*
X78639200Y-108631115D01*
X78647398Y-108693392D01*
X78648143Y-108700728D01*
X78653418Y-108774469D01*
X78653419Y-108774479D01*
X78664107Y-108823610D01*
X78665880Y-108833778D01*
X78670998Y-108872649D01*
X78671001Y-108872661D01*
X78690319Y-108944760D01*
X78691710Y-108950493D01*
X78709928Y-109034238D01*
X78723371Y-109070281D01*
X78726963Y-109081516D01*
X78734055Y-109107980D01*
X78767126Y-109187821D01*
X78768746Y-109191940D01*
X78802825Y-109283309D01*
X78802827Y-109283313D01*
X78802829Y-109283316D01*
X78802831Y-109283321D01*
X78815607Y-109306718D01*
X78821330Y-109318680D01*
X78824751Y-109326940D01*
X78827285Y-109333057D01*
X78827286Y-109333058D01*
X78876410Y-109418145D01*
X78877854Y-109420716D01*
X78930237Y-109516647D01*
X78930240Y-109516651D01*
X78939120Y-109528515D01*
X78947229Y-109540806D01*
X78949100Y-109544046D01*
X78949100Y-109544047D01*
X79016108Y-109631374D01*
X79016998Y-109632549D01*
X79089543Y-109729456D01*
X79089561Y-109729477D01*
X79094666Y-109734582D01*
X79094680Y-109734597D01*
X79272761Y-109912679D01*
X79272800Y-109912715D01*
X79277530Y-109917445D01*
X79277532Y-109917447D01*
X79277540Y-109917454D01*
X79374449Y-109989999D01*
X79375546Y-109990830D01*
X79462957Y-110057902D01*
X79462965Y-110057906D01*
X79462967Y-110057908D01*
X79466178Y-110059762D01*
X79478489Y-110067882D01*
X79485082Y-110072817D01*
X79490353Y-110076763D01*
X79490357Y-110076765D01*
X79490363Y-110076769D01*
X79586281Y-110129144D01*
X79588828Y-110130573D01*
X79673943Y-110179715D01*
X79673954Y-110179719D01*
X79673955Y-110179720D01*
X79688304Y-110185663D01*
X79700283Y-110191393D01*
X79723679Y-110204169D01*
X79815039Y-110238244D01*
X79819158Y-110239865D01*
X79899024Y-110272947D01*
X79920720Y-110278759D01*
X79925477Y-110280033D01*
X79936707Y-110283623D01*
X79972763Y-110297072D01*
X79972768Y-110297073D01*
X80056493Y-110315286D01*
X80062229Y-110316677D01*
X80095165Y-110325501D01*
X80134347Y-110336001D01*
X80173212Y-110341117D01*
X80183371Y-110342887D01*
X80232532Y-110353582D01*
X80306278Y-110358855D01*
X80313578Y-110359596D01*
X80375887Y-110367800D01*
X80426900Y-110367800D01*
X80435746Y-110368116D01*
X80497699Y-110372547D01*
X80497700Y-110372547D01*
X80497701Y-110372547D01*
X80559654Y-110368116D01*
X80568500Y-110367800D01*
X80619511Y-110367800D01*
X80619513Y-110367800D01*
X80681824Y-110359596D01*
X80689120Y-110358855D01*
X80762868Y-110353582D01*
X80812023Y-110342888D01*
X80822191Y-110341117D01*
X80861053Y-110336001D01*
X80933166Y-110316677D01*
X80938847Y-110315298D01*
X81022637Y-110297072D01*
X81058706Y-110283618D01*
X81069906Y-110280038D01*
X81096377Y-110272946D01*
X81176262Y-110239855D01*
X81180360Y-110238244D01*
X81271721Y-110204169D01*
X81295114Y-110191394D01*
X81307079Y-110185669D01*
X81321457Y-110179715D01*
X81406564Y-110130577D01*
X81409096Y-110129155D01*
X81505047Y-110076763D01*
X81516905Y-110067886D01*
X81529220Y-110059762D01*
X81532443Y-110057902D01*
X81581123Y-110020547D01*
X81619853Y-109990830D01*
X81620949Y-109989999D01*
X81717867Y-109917448D01*
X81721371Y-109913943D01*
X81721394Y-109913923D01*
X81841718Y-109793600D01*
X116155235Y-109793600D01*
X116173865Y-110030314D01*
X116229295Y-110261195D01*
X116229295Y-110261197D01*
X116320157Y-110480559D01*
X116320159Y-110480562D01*
X116444220Y-110683010D01*
X116444221Y-110683013D01*
X116460069Y-110701568D01*
X116598431Y-110863569D01*
X116648840Y-110906622D01*
X116778986Y-111017778D01*
X116778989Y-111017779D01*
X116981437Y-111141840D01*
X116981440Y-111141842D01*
X117200803Y-111232704D01*
X117200804Y-111232704D01*
X117200806Y-111232705D01*
X117431689Y-111288135D01*
X117668400Y-111306765D01*
X117905111Y-111288135D01*
X118135994Y-111232705D01*
X118135996Y-111232704D01*
X118135997Y-111232704D01*
X118355359Y-111141842D01*
X118355360Y-111141841D01*
X118355363Y-111141840D01*
X118557816Y-111017776D01*
X118738369Y-110863569D01*
X118844111Y-110739760D01*
X118902616Y-110701568D01*
X118972484Y-110701069D01*
X119031531Y-110738423D01*
X119032600Y-110739657D01*
X119138430Y-110863568D01*
X119138431Y-110863569D01*
X119318986Y-111017778D01*
X119318989Y-111017779D01*
X119521437Y-111141840D01*
X119521440Y-111141842D01*
X119740803Y-111232704D01*
X119740804Y-111232704D01*
X119740806Y-111232705D01*
X119971689Y-111288135D01*
X120208400Y-111306765D01*
X120445111Y-111288135D01*
X120675994Y-111232705D01*
X120675996Y-111232704D01*
X120675997Y-111232704D01*
X120895359Y-111141842D01*
X120895360Y-111141841D01*
X120895363Y-111141840D01*
X121097816Y-111017776D01*
X121278369Y-110863569D01*
X121384111Y-110739760D01*
X121442616Y-110701568D01*
X121512484Y-110701069D01*
X121571531Y-110738423D01*
X121572600Y-110739657D01*
X121678430Y-110863568D01*
X121678431Y-110863569D01*
X121858986Y-111017778D01*
X121858989Y-111017779D01*
X122061437Y-111141840D01*
X122061440Y-111141842D01*
X122280803Y-111232704D01*
X122280804Y-111232704D01*
X122280806Y-111232705D01*
X122511689Y-111288135D01*
X122748400Y-111306765D01*
X122985111Y-111288135D01*
X123215994Y-111232705D01*
X123215996Y-111232704D01*
X123215997Y-111232704D01*
X123435359Y-111141842D01*
X123435360Y-111141841D01*
X123435363Y-111141840D01*
X123637816Y-111017776D01*
X123818369Y-110863569D01*
X123924111Y-110739760D01*
X123982616Y-110701568D01*
X124052484Y-110701069D01*
X124111531Y-110738423D01*
X124112600Y-110739657D01*
X124218430Y-110863568D01*
X124218431Y-110863569D01*
X124398986Y-111017778D01*
X124398989Y-111017779D01*
X124601437Y-111141840D01*
X124601440Y-111141842D01*
X124820803Y-111232704D01*
X124820804Y-111232704D01*
X124820806Y-111232705D01*
X125051689Y-111288135D01*
X125288400Y-111306765D01*
X125525111Y-111288135D01*
X125755994Y-111232705D01*
X125755996Y-111232704D01*
X125755997Y-111232704D01*
X125975359Y-111141842D01*
X125975360Y-111141841D01*
X125975363Y-111141840D01*
X126177816Y-111017776D01*
X126358369Y-110863569D01*
X126464111Y-110739760D01*
X126522616Y-110701568D01*
X126592484Y-110701069D01*
X126651531Y-110738423D01*
X126652600Y-110739657D01*
X126758430Y-110863568D01*
X126758431Y-110863569D01*
X126938986Y-111017778D01*
X126938989Y-111017779D01*
X127141437Y-111141840D01*
X127141440Y-111141842D01*
X127360803Y-111232704D01*
X127360804Y-111232704D01*
X127360806Y-111232705D01*
X127591689Y-111288135D01*
X127828400Y-111306765D01*
X128065111Y-111288135D01*
X128295994Y-111232705D01*
X128295996Y-111232704D01*
X128295997Y-111232704D01*
X128515359Y-111141842D01*
X128515360Y-111141841D01*
X128515363Y-111141840D01*
X128717816Y-111017776D01*
X128898369Y-110863569D01*
X129004111Y-110739760D01*
X129062616Y-110701568D01*
X129132484Y-110701069D01*
X129191531Y-110738423D01*
X129192600Y-110739657D01*
X129298430Y-110863568D01*
X129298431Y-110863569D01*
X129478986Y-111017778D01*
X129478989Y-111017779D01*
X129681437Y-111141840D01*
X129681440Y-111141842D01*
X129900803Y-111232704D01*
X129900804Y-111232704D01*
X129900806Y-111232705D01*
X130131689Y-111288135D01*
X130368400Y-111306765D01*
X130605111Y-111288135D01*
X130835994Y-111232705D01*
X130835996Y-111232704D01*
X130835997Y-111232704D01*
X131055359Y-111141842D01*
X131055360Y-111141841D01*
X131055363Y-111141840D01*
X131257816Y-111017776D01*
X131438369Y-110863569D01*
X131544111Y-110739760D01*
X131602616Y-110701568D01*
X131672484Y-110701069D01*
X131731531Y-110738423D01*
X131732600Y-110739657D01*
X131838430Y-110863568D01*
X131838431Y-110863569D01*
X132018986Y-111017778D01*
X132018989Y-111017779D01*
X132221437Y-111141840D01*
X132221440Y-111141842D01*
X132440803Y-111232704D01*
X132440804Y-111232704D01*
X132440806Y-111232705D01*
X132671689Y-111288135D01*
X132908400Y-111306765D01*
X133145111Y-111288135D01*
X133375994Y-111232705D01*
X133375996Y-111232704D01*
X133375997Y-111232704D01*
X133595359Y-111141842D01*
X133595360Y-111141841D01*
X133595363Y-111141840D01*
X133797816Y-111017776D01*
X133978369Y-110863569D01*
X134132576Y-110683016D01*
X134256640Y-110480563D01*
X134301382Y-110372547D01*
X134347504Y-110261197D01*
X134347504Y-110261196D01*
X134347505Y-110261194D01*
X134402935Y-110030311D01*
X134421565Y-109793600D01*
X134402935Y-109556889D01*
X134347505Y-109326006D01*
X134347504Y-109326003D01*
X134347504Y-109326002D01*
X134256642Y-109106640D01*
X134256640Y-109106637D01*
X134132579Y-108904189D01*
X134132578Y-108904186D01*
X133978369Y-108723631D01*
X133951553Y-108700728D01*
X133854560Y-108617888D01*
X133816368Y-108559384D01*
X133816010Y-108509301D01*
X136634453Y-108509301D01*
X136638884Y-108571253D01*
X136639200Y-108580099D01*
X136639200Y-108631115D01*
X136647398Y-108693392D01*
X136648143Y-108700728D01*
X136653418Y-108774469D01*
X136653419Y-108774479D01*
X136664107Y-108823610D01*
X136665880Y-108833778D01*
X136670998Y-108872649D01*
X136671001Y-108872661D01*
X136690319Y-108944760D01*
X136691710Y-108950493D01*
X136709928Y-109034238D01*
X136723371Y-109070281D01*
X136726963Y-109081516D01*
X136734055Y-109107980D01*
X136767126Y-109187821D01*
X136768746Y-109191940D01*
X136802825Y-109283309D01*
X136802827Y-109283313D01*
X136802829Y-109283316D01*
X136802831Y-109283321D01*
X136815607Y-109306718D01*
X136821330Y-109318680D01*
X136824751Y-109326940D01*
X136827285Y-109333057D01*
X136827286Y-109333058D01*
X136876410Y-109418145D01*
X136877854Y-109420716D01*
X136930237Y-109516647D01*
X136930240Y-109516651D01*
X136939120Y-109528515D01*
X136947229Y-109540806D01*
X136949100Y-109544046D01*
X136949100Y-109544047D01*
X137016108Y-109631374D01*
X137016998Y-109632549D01*
X137089543Y-109729456D01*
X137089561Y-109729477D01*
X137094666Y-109734582D01*
X137094680Y-109734597D01*
X137272761Y-109912679D01*
X137272800Y-109912715D01*
X137277530Y-109917445D01*
X137277532Y-109917447D01*
X137277540Y-109917454D01*
X137374449Y-109989999D01*
X137375546Y-109990830D01*
X137462957Y-110057902D01*
X137462965Y-110057906D01*
X137462967Y-110057908D01*
X137466178Y-110059762D01*
X137478489Y-110067882D01*
X137485082Y-110072817D01*
X137490353Y-110076763D01*
X137490357Y-110076765D01*
X137490363Y-110076769D01*
X137586281Y-110129144D01*
X137588828Y-110130573D01*
X137673943Y-110179715D01*
X137673954Y-110179719D01*
X137673955Y-110179720D01*
X137688304Y-110185663D01*
X137700283Y-110191393D01*
X137723679Y-110204169D01*
X137815039Y-110238244D01*
X137819158Y-110239865D01*
X137899024Y-110272947D01*
X137920720Y-110278759D01*
X137925477Y-110280033D01*
X137936707Y-110283623D01*
X137972763Y-110297072D01*
X137972768Y-110297073D01*
X138056493Y-110315286D01*
X138062229Y-110316677D01*
X138095165Y-110325501D01*
X138134347Y-110336001D01*
X138173212Y-110341117D01*
X138183371Y-110342887D01*
X138232532Y-110353582D01*
X138306278Y-110358855D01*
X138313578Y-110359596D01*
X138375887Y-110367800D01*
X138426900Y-110367800D01*
X138435746Y-110368116D01*
X138497699Y-110372547D01*
X138497700Y-110372547D01*
X138497701Y-110372547D01*
X138559654Y-110368116D01*
X138568500Y-110367800D01*
X138619511Y-110367800D01*
X138619513Y-110367800D01*
X138681824Y-110359596D01*
X138689120Y-110358855D01*
X138762868Y-110353582D01*
X138812023Y-110342888D01*
X138822191Y-110341117D01*
X138861053Y-110336001D01*
X138933166Y-110316677D01*
X138938847Y-110315298D01*
X139022637Y-110297072D01*
X139058706Y-110283618D01*
X139069906Y-110280038D01*
X139096377Y-110272946D01*
X139176262Y-110239855D01*
X139180360Y-110238244D01*
X139271721Y-110204169D01*
X139295114Y-110191394D01*
X139307079Y-110185669D01*
X139321457Y-110179715D01*
X139406564Y-110130577D01*
X139409096Y-110129155D01*
X139505047Y-110076763D01*
X139516905Y-110067886D01*
X139529220Y-110059762D01*
X139532443Y-110057902D01*
X139581123Y-110020547D01*
X139619853Y-109990830D01*
X139620949Y-109989999D01*
X139717867Y-109917448D01*
X139721371Y-109913943D01*
X139721394Y-109913923D01*
X139902324Y-109732994D01*
X139902344Y-109732969D01*
X139905848Y-109729467D01*
X139978410Y-109632534D01*
X139979230Y-109631453D01*
X140046297Y-109544049D01*
X140046302Y-109544043D01*
X140048162Y-109540820D01*
X140056286Y-109528505D01*
X140065158Y-109516654D01*
X140065159Y-109516652D01*
X140065160Y-109516651D01*
X140065163Y-109516647D01*
X140117555Y-109420696D01*
X140118979Y-109418162D01*
X140118989Y-109418145D01*
X140168115Y-109333057D01*
X140174069Y-109318679D01*
X140179800Y-109306703D01*
X140192569Y-109283321D01*
X140226652Y-109191940D01*
X140228265Y-109187839D01*
X140261346Y-109107977D01*
X140268438Y-109081506D01*
X140272018Y-109070306D01*
X140285472Y-109034237D01*
X140303698Y-108950447D01*
X140305082Y-108944747D01*
X140315951Y-108904189D01*
X140324401Y-108872653D01*
X140329519Y-108833778D01*
X140331290Y-108823615D01*
X140331291Y-108823610D01*
X140341982Y-108774468D01*
X140347255Y-108700720D01*
X140347996Y-108693424D01*
X140356200Y-108631113D01*
X140356200Y-108580099D01*
X140356516Y-108571253D01*
X140360947Y-108509301D01*
X140360947Y-108509298D01*
X140356516Y-108447345D01*
X140356200Y-108438499D01*
X140356200Y-108387487D01*
X140348305Y-108327524D01*
X140347996Y-108325178D01*
X140347255Y-108317870D01*
X140341982Y-108244132D01*
X140331287Y-108194971D01*
X140329517Y-108184809D01*
X140324401Y-108145949D01*
X140324401Y-108145947D01*
X140315853Y-108114049D01*
X140305077Y-108073829D01*
X140303686Y-108068093D01*
X140285473Y-107984368D01*
X140285472Y-107984363D01*
X140272023Y-107948307D01*
X140268433Y-107937074D01*
X140261347Y-107910624D01*
X140228265Y-107830758D01*
X140226644Y-107826639D01*
X140195101Y-107742068D01*
X140192569Y-107735279D01*
X140179793Y-107711883D01*
X140174063Y-107699904D01*
X140168120Y-107685555D01*
X140168118Y-107685551D01*
X140168115Y-107685543D01*
X140118973Y-107600428D01*
X140117544Y-107597881D01*
X140065169Y-107501963D01*
X140065162Y-107501952D01*
X140056282Y-107490089D01*
X140048162Y-107477778D01*
X140046308Y-107474567D01*
X140046306Y-107474565D01*
X140046302Y-107474557D01*
X139979266Y-107387194D01*
X139978399Y-107386049D01*
X139905854Y-107289140D01*
X139905847Y-107289132D01*
X139905845Y-107289130D01*
X139901115Y-107284400D01*
X139901079Y-107284361D01*
X139723011Y-107106294D01*
X139722982Y-107106266D01*
X139717877Y-107101161D01*
X139717856Y-107101143D01*
X139620949Y-107028598D01*
X139619774Y-107027708D01*
X139532446Y-106960700D01*
X139529206Y-106958829D01*
X139516915Y-106950720D01*
X139505051Y-106941840D01*
X139505047Y-106941837D01*
X139409116Y-106889454D01*
X139406545Y-106888010D01*
X139383955Y-106874968D01*
X139321457Y-106838885D01*
X139307080Y-106832930D01*
X139295118Y-106827207D01*
X139271721Y-106814431D01*
X139271718Y-106814430D01*
X139271713Y-106814427D01*
X139271709Y-106814425D01*
X139180340Y-106780346D01*
X139176221Y-106778726D01*
X139096380Y-106745655D01*
X139096378Y-106745654D01*
X139096377Y-106745654D01*
X139089496Y-106743810D01*
X139069916Y-106738563D01*
X139058681Y-106734971D01*
X139022638Y-106721528D01*
X139022638Y-106721527D01*
X138938893Y-106703310D01*
X138933160Y-106701919D01*
X138861061Y-106682601D01*
X138861049Y-106682598D01*
X138822178Y-106677480D01*
X138812010Y-106675707D01*
X138762879Y-106665019D01*
X138762869Y-106665018D01*
X138689128Y-106659743D01*
X138681792Y-106658998D01*
X138619515Y-106650800D01*
X138619513Y-106650800D01*
X138568500Y-106650800D01*
X138559654Y-106650484D01*
X138497701Y-106646053D01*
X138497699Y-106646053D01*
X138435746Y-106650484D01*
X138426900Y-106650800D01*
X138375884Y-106650800D01*
X138313605Y-106658998D01*
X138306270Y-106659743D01*
X138232535Y-106665017D01*
X138232525Y-106665019D01*
X138183379Y-106675709D01*
X138173214Y-106677481D01*
X138134344Y-106682599D01*
X138062247Y-106701917D01*
X138056514Y-106703308D01*
X137972766Y-106721526D01*
X137972763Y-106721527D01*
X137936713Y-106734973D01*
X137925479Y-106738564D01*
X137899028Y-106745652D01*
X137899024Y-106745653D01*
X137819176Y-106778727D01*
X137815060Y-106780346D01*
X137723676Y-106814431D01*
X137723675Y-106814432D01*
X137700285Y-106827204D01*
X137688319Y-106832929D01*
X137673951Y-106838881D01*
X137673941Y-106838885D01*
X137588855Y-106888008D01*
X137586287Y-106889450D01*
X137490359Y-106941832D01*
X137490345Y-106941841D01*
X137478479Y-106950724D01*
X137466190Y-106958831D01*
X137462958Y-106960697D01*
X137462947Y-106960704D01*
X137375610Y-107027718D01*
X137374438Y-107028607D01*
X137277530Y-107101153D01*
X137271140Y-107107542D01*
X137095928Y-107282754D01*
X137089553Y-107289130D01*
X137017007Y-107386038D01*
X137016118Y-107387210D01*
X136949104Y-107474547D01*
X136949097Y-107474558D01*
X136947231Y-107477790D01*
X136939124Y-107490079D01*
X136930241Y-107501945D01*
X136930232Y-107501959D01*
X136877850Y-107597887D01*
X136876408Y-107600455D01*
X136827285Y-107685541D01*
X136827281Y-107685551D01*
X136821329Y-107699919D01*
X136815604Y-107711885D01*
X136802832Y-107735275D01*
X136802831Y-107735276D01*
X136768746Y-107826660D01*
X136767127Y-107830776D01*
X136734053Y-107910624D01*
X136734052Y-107910628D01*
X136726964Y-107937079D01*
X136723373Y-107948313D01*
X136709927Y-107984363D01*
X136709926Y-107984366D01*
X136691708Y-108068114D01*
X136690317Y-108073847D01*
X136670999Y-108145944D01*
X136665881Y-108184814D01*
X136664109Y-108194979D01*
X136653419Y-108244125D01*
X136653417Y-108244135D01*
X136648143Y-108317870D01*
X136647398Y-108325205D01*
X136639200Y-108387483D01*
X136639200Y-108438499D01*
X136638884Y-108447345D01*
X136634453Y-108509298D01*
X136634453Y-108509301D01*
X133816010Y-108509301D01*
X133815869Y-108489516D01*
X133853223Y-108430469D01*
X133854457Y-108429399D01*
X133978369Y-108323569D01*
X134132576Y-108143016D01*
X134256640Y-107940563D01*
X134258086Y-107937074D01*
X134347504Y-107721197D01*
X134347504Y-107721196D01*
X134347505Y-107721194D01*
X134402935Y-107490311D01*
X134421565Y-107253600D01*
X134402935Y-107016889D01*
X134347505Y-106786006D01*
X134347504Y-106786003D01*
X134347504Y-106786002D01*
X134256642Y-106566640D01*
X134256640Y-106566637D01*
X134132579Y-106364189D01*
X134132578Y-106364186D01*
X133978369Y-106183631D01*
X133854560Y-106077888D01*
X133816368Y-106019384D01*
X133815869Y-105949516D01*
X133853223Y-105890469D01*
X133854457Y-105889399D01*
X133978369Y-105783569D01*
X134132576Y-105603016D01*
X134256640Y-105400563D01*
X134280731Y-105342403D01*
X134347504Y-105181197D01*
X134347504Y-105181196D01*
X134347505Y-105181194D01*
X134402935Y-104950311D01*
X134421565Y-104713600D01*
X134402935Y-104476889D01*
X134347505Y-104246006D01*
X134347504Y-104246003D01*
X134347504Y-104246002D01*
X134256642Y-104026640D01*
X134256640Y-104026637D01*
X134132579Y-103824189D01*
X134132578Y-103824186D01*
X133978369Y-103643631D01*
X133943256Y-103613642D01*
X133854560Y-103537888D01*
X133816368Y-103479384D01*
X133815869Y-103409516D01*
X133853223Y-103350469D01*
X133854457Y-103349399D01*
X133978369Y-103243569D01*
X134132576Y-103063016D01*
X134256640Y-102860563D01*
X134280735Y-102802394D01*
X134347504Y-102641197D01*
X134347504Y-102641196D01*
X134347505Y-102641194D01*
X134402935Y-102410311D01*
X134421565Y-102173600D01*
X134402935Y-101936889D01*
X134347505Y-101706006D01*
X134347504Y-101706003D01*
X134347504Y-101706002D01*
X134256642Y-101486640D01*
X134256640Y-101486637D01*
X134132579Y-101284189D01*
X134132578Y-101284186D01*
X134061358Y-101200799D01*
X133978369Y-101103631D01*
X133824808Y-100972477D01*
X133797813Y-100949421D01*
X133797810Y-100949420D01*
X133595363Y-100825360D01*
X133585850Y-100821419D01*
X133531448Y-100777576D01*
X133509385Y-100711281D01*
X133526666Y-100643583D01*
X133574289Y-100597804D01*
X133731628Y-100512657D01*
X133731631Y-100512655D01*
X133778456Y-100476209D01*
X133037809Y-99735562D01*
X133101393Y-99718525D01*
X133215407Y-99652699D01*
X133308499Y-99559607D01*
X133374325Y-99445593D01*
X133391362Y-99382010D01*
X134131834Y-100122482D01*
X134232131Y-99968969D01*
X134331987Y-99741317D01*
X134393012Y-99500338D01*
X134393014Y-99500329D01*
X134413541Y-99252605D01*
X134413541Y-99252594D01*
X134393014Y-99004870D01*
X134393012Y-99004861D01*
X134331987Y-98763882D01*
X134232131Y-98536230D01*
X134131834Y-98382716D01*
X133391362Y-99123189D01*
X133374325Y-99059607D01*
X133308499Y-98945593D01*
X133215407Y-98852501D01*
X133101393Y-98786675D01*
X133037810Y-98769637D01*
X133778456Y-98028990D01*
X133777830Y-98018898D01*
X133793322Y-97950768D01*
X133821058Y-97916925D01*
X133978369Y-97782569D01*
X134132576Y-97602016D01*
X134256640Y-97399563D01*
X134275361Y-97354368D01*
X134347504Y-97180197D01*
X134347504Y-97180196D01*
X134347505Y-97180194D01*
X134402935Y-96949311D01*
X134421565Y-96712600D01*
X134402935Y-96475889D01*
X134347505Y-96245006D01*
X134347504Y-96245003D01*
X134347504Y-96245002D01*
X134256642Y-96025640D01*
X134256640Y-96025637D01*
X134132579Y-95823189D01*
X134132578Y-95823186D01*
X134063336Y-95742115D01*
X133978369Y-95642631D01*
X133839063Y-95523652D01*
X133797813Y-95488421D01*
X133797810Y-95488420D01*
X133595362Y-95364359D01*
X133595359Y-95364357D01*
X133375996Y-95273495D01*
X133145114Y-95218065D01*
X132908400Y-95199435D01*
X132671685Y-95218065D01*
X132440804Y-95273495D01*
X132440802Y-95273495D01*
X132221440Y-95364357D01*
X132221437Y-95364359D01*
X132018989Y-95488420D01*
X132018986Y-95488421D01*
X131934754Y-95560363D01*
X131838431Y-95642631D01*
X131763825Y-95729984D01*
X131732690Y-95766438D01*
X131674183Y-95804631D01*
X131604315Y-95805129D01*
X131545269Y-95767776D01*
X131544110Y-95766438D01*
X131523336Y-95742115D01*
X131438369Y-95642631D01*
X131299063Y-95523652D01*
X131257813Y-95488421D01*
X131257810Y-95488420D01*
X131055362Y-95364359D01*
X131055359Y-95364357D01*
X130835996Y-95273495D01*
X130605114Y-95218065D01*
X130368400Y-95199435D01*
X130131685Y-95218065D01*
X129900804Y-95273495D01*
X129900802Y-95273495D01*
X129681440Y-95364357D01*
X129681437Y-95364359D01*
X129478989Y-95488420D01*
X129478986Y-95488421D01*
X129394754Y-95560363D01*
X129298431Y-95642631D01*
X129223825Y-95729984D01*
X129192690Y-95766438D01*
X129134183Y-95804631D01*
X129064315Y-95805129D01*
X129005269Y-95767776D01*
X129004110Y-95766438D01*
X128983336Y-95742115D01*
X128898369Y-95642631D01*
X128759063Y-95523652D01*
X128717813Y-95488421D01*
X128717810Y-95488420D01*
X128515362Y-95364359D01*
X128515359Y-95364357D01*
X128295996Y-95273495D01*
X128065114Y-95218065D01*
X127828400Y-95199435D01*
X127591685Y-95218065D01*
X127360804Y-95273495D01*
X127360802Y-95273495D01*
X127141440Y-95364357D01*
X127141437Y-95364359D01*
X126938989Y-95488420D01*
X126938986Y-95488421D01*
X126854754Y-95560363D01*
X126758431Y-95642631D01*
X126683825Y-95729984D01*
X126652690Y-95766438D01*
X126594183Y-95804631D01*
X126524315Y-95805129D01*
X126465269Y-95767776D01*
X126464110Y-95766438D01*
X126443336Y-95742115D01*
X126358369Y-95642631D01*
X126219063Y-95523652D01*
X126177813Y-95488421D01*
X126177810Y-95488420D01*
X125975362Y-95364359D01*
X125975359Y-95364357D01*
X125755996Y-95273495D01*
X125525114Y-95218065D01*
X125288400Y-95199435D01*
X125051685Y-95218065D01*
X124820804Y-95273495D01*
X124820802Y-95273495D01*
X124601440Y-95364357D01*
X124601437Y-95364359D01*
X124398989Y-95488420D01*
X124398986Y-95488421D01*
X124314754Y-95560363D01*
X124218431Y-95642631D01*
X124143825Y-95729984D01*
X124112690Y-95766438D01*
X124054183Y-95804631D01*
X123984315Y-95805129D01*
X123925269Y-95767776D01*
X123924110Y-95766438D01*
X123903336Y-95742115D01*
X123818369Y-95642631D01*
X123679063Y-95523652D01*
X123637813Y-95488421D01*
X123637810Y-95488420D01*
X123435362Y-95364359D01*
X123435359Y-95364357D01*
X123215996Y-95273495D01*
X122985114Y-95218065D01*
X122748400Y-95199435D01*
X122511685Y-95218065D01*
X122280804Y-95273495D01*
X122280802Y-95273495D01*
X122061440Y-95364357D01*
X122061437Y-95364359D01*
X121858989Y-95488420D01*
X121858986Y-95488421D01*
X121774754Y-95560363D01*
X121678431Y-95642631D01*
X121603825Y-95729984D01*
X121572690Y-95766438D01*
X121514183Y-95804631D01*
X121444315Y-95805129D01*
X121385269Y-95767776D01*
X121384110Y-95766438D01*
X121363336Y-95742115D01*
X121278369Y-95642631D01*
X121139063Y-95523652D01*
X121097813Y-95488421D01*
X121097810Y-95488420D01*
X120895362Y-95364359D01*
X120895359Y-95364357D01*
X120675996Y-95273495D01*
X120445114Y-95218065D01*
X120208400Y-95199435D01*
X119971685Y-95218065D01*
X119740804Y-95273495D01*
X119740802Y-95273495D01*
X119521440Y-95364357D01*
X119521437Y-95364359D01*
X119318989Y-95488420D01*
X119318986Y-95488421D01*
X119234754Y-95560363D01*
X119138431Y-95642631D01*
X119063825Y-95729984D01*
X119032690Y-95766438D01*
X118974183Y-95804631D01*
X118904315Y-95805129D01*
X118845269Y-95767776D01*
X118844110Y-95766438D01*
X118823336Y-95742115D01*
X118738369Y-95642631D01*
X118599063Y-95523652D01*
X118557813Y-95488421D01*
X118557810Y-95488420D01*
X118355362Y-95364359D01*
X118355359Y-95364357D01*
X118135996Y-95273495D01*
X117905114Y-95218065D01*
X117668400Y-95199435D01*
X117431685Y-95218065D01*
X117200804Y-95273495D01*
X117200802Y-95273495D01*
X116981440Y-95364357D01*
X116981437Y-95364359D01*
X116778989Y-95488420D01*
X116778986Y-95488421D01*
X116598431Y-95642631D01*
X116444221Y-95823186D01*
X116444220Y-95823189D01*
X116320159Y-96025637D01*
X116320157Y-96025640D01*
X116229295Y-96245002D01*
X116229295Y-96245004D01*
X116173865Y-96475885D01*
X116155235Y-96712600D01*
X116173865Y-96949314D01*
X116229295Y-97180195D01*
X116229295Y-97180197D01*
X116320157Y-97399559D01*
X116320159Y-97399562D01*
X116444220Y-97602010D01*
X116444221Y-97602013D01*
X116460069Y-97620568D01*
X116595204Y-97778791D01*
X116598433Y-97782571D01*
X116755738Y-97916922D01*
X116793932Y-97975428D01*
X116798969Y-98018897D01*
X116798342Y-98028990D01*
X117538990Y-98769637D01*
X117475407Y-98786675D01*
X117361393Y-98852501D01*
X117268301Y-98945593D01*
X117202475Y-99059607D01*
X117185437Y-99123189D01*
X116444964Y-98382716D01*
X116344667Y-98536232D01*
X116244812Y-98763882D01*
X116183787Y-99004861D01*
X116183785Y-99004870D01*
X116163259Y-99252594D01*
X116163259Y-99252605D01*
X116183785Y-99500329D01*
X116183787Y-99500338D01*
X116244812Y-99741317D01*
X116344666Y-99968964D01*
X116444964Y-100122482D01*
X117185437Y-99382009D01*
X117202475Y-99445593D01*
X117268301Y-99559607D01*
X117361393Y-99652699D01*
X117475407Y-99718525D01*
X117538990Y-99735562D01*
X116798342Y-100476209D01*
X116845168Y-100512655D01*
X116845170Y-100512656D01*
X117002510Y-100597804D01*
X117052101Y-100647023D01*
X117067209Y-100715240D01*
X117043039Y-100780796D01*
X116990952Y-100821418D01*
X116981435Y-100825360D01*
X116778989Y-100949420D01*
X116778986Y-100949421D01*
X116598431Y-101103631D01*
X116444221Y-101284186D01*
X116444220Y-101284189D01*
X116320159Y-101486637D01*
X116320157Y-101486640D01*
X116229295Y-101706002D01*
X116229295Y-101706004D01*
X116173865Y-101936885D01*
X116155235Y-102173600D01*
X116173865Y-102410314D01*
X116229295Y-102641195D01*
X116229295Y-102641197D01*
X116320157Y-102860559D01*
X116320159Y-102860562D01*
X116444220Y-103063010D01*
X116444221Y-103063013D01*
X116460069Y-103081568D01*
X116598431Y-103243569D01*
X116722238Y-103349310D01*
X116760431Y-103407817D01*
X116760929Y-103477685D01*
X116723576Y-103536731D01*
X116722261Y-103537869D01*
X116633544Y-103613642D01*
X116598431Y-103643631D01*
X116444221Y-103824186D01*
X116444220Y-103824189D01*
X116320159Y-104026637D01*
X116320157Y-104026640D01*
X116229295Y-104246002D01*
X116229295Y-104246004D01*
X116173865Y-104476885D01*
X116155235Y-104713600D01*
X116173865Y-104950314D01*
X116229295Y-105181195D01*
X116229295Y-105181197D01*
X116320157Y-105400559D01*
X116320159Y-105400562D01*
X116444220Y-105603010D01*
X116444221Y-105603013D01*
X116460069Y-105621568D01*
X116598431Y-105783569D01*
X116722238Y-105889310D01*
X116760431Y-105947817D01*
X116760929Y-106017685D01*
X116723576Y-106076731D01*
X116722261Y-106077869D01*
X116598431Y-106183631D01*
X116444221Y-106364186D01*
X116444220Y-106364189D01*
X116320159Y-106566637D01*
X116320157Y-106566640D01*
X116229295Y-106786002D01*
X116229295Y-106786004D01*
X116173865Y-107016885D01*
X116155235Y-107253600D01*
X116173865Y-107490314D01*
X116229295Y-107721195D01*
X116229295Y-107721197D01*
X116320157Y-107940559D01*
X116320159Y-107940562D01*
X116444220Y-108143010D01*
X116444221Y-108143013D01*
X116479923Y-108184814D01*
X116598431Y-108323569D01*
X116722238Y-108429310D01*
X116760431Y-108487817D01*
X116760929Y-108557685D01*
X116723576Y-108616731D01*
X116722261Y-108617869D01*
X116625247Y-108700728D01*
X116598431Y-108723631D01*
X116444221Y-108904186D01*
X116444220Y-108904189D01*
X116320159Y-109106637D01*
X116320157Y-109106640D01*
X116229295Y-109326002D01*
X116229295Y-109326004D01*
X116173865Y-109556885D01*
X116155235Y-109793600D01*
X81841718Y-109793600D01*
X81902324Y-109732994D01*
X81902344Y-109732969D01*
X81905848Y-109729467D01*
X81978410Y-109632534D01*
X81979230Y-109631453D01*
X82046297Y-109544049D01*
X82046302Y-109544043D01*
X82048162Y-109540820D01*
X82056286Y-109528505D01*
X82065158Y-109516654D01*
X82065159Y-109516652D01*
X82065160Y-109516651D01*
X82065163Y-109516647D01*
X82117555Y-109420696D01*
X82118979Y-109418162D01*
X82118989Y-109418145D01*
X82168115Y-109333057D01*
X82174069Y-109318679D01*
X82179800Y-109306703D01*
X82192569Y-109283321D01*
X82226652Y-109191940D01*
X82228265Y-109187839D01*
X82261346Y-109107977D01*
X82268438Y-109081506D01*
X82272018Y-109070306D01*
X82285472Y-109034237D01*
X82303698Y-108950447D01*
X82305082Y-108944747D01*
X82315951Y-108904189D01*
X82324401Y-108872653D01*
X82329519Y-108833778D01*
X82331290Y-108823615D01*
X82331291Y-108823610D01*
X82341982Y-108774468D01*
X82347255Y-108700720D01*
X82347996Y-108693424D01*
X82356200Y-108631113D01*
X82356200Y-108580099D01*
X82356516Y-108571253D01*
X82360947Y-108509301D01*
X82360947Y-108509298D01*
X82356516Y-108447345D01*
X82356200Y-108438499D01*
X82356200Y-108387487D01*
X82348305Y-108327524D01*
X82347996Y-108325178D01*
X82347255Y-108317870D01*
X82341982Y-108244132D01*
X82331287Y-108194971D01*
X82329517Y-108184809D01*
X82324401Y-108145949D01*
X82324401Y-108145947D01*
X82315853Y-108114049D01*
X82305077Y-108073829D01*
X82303686Y-108068093D01*
X82285473Y-107984368D01*
X82285472Y-107984363D01*
X82272023Y-107948307D01*
X82268433Y-107937074D01*
X82261347Y-107910624D01*
X82228265Y-107830758D01*
X82226644Y-107826639D01*
X82195101Y-107742068D01*
X82192569Y-107735279D01*
X82179793Y-107711883D01*
X82174063Y-107699904D01*
X82168120Y-107685555D01*
X82168118Y-107685551D01*
X82168115Y-107685543D01*
X82118973Y-107600428D01*
X82117544Y-107597881D01*
X82065169Y-107501963D01*
X82065162Y-107501952D01*
X82056282Y-107490089D01*
X82048162Y-107477778D01*
X82046308Y-107474567D01*
X82046306Y-107474565D01*
X82046302Y-107474557D01*
X81979266Y-107387194D01*
X81978399Y-107386049D01*
X81905854Y-107289140D01*
X81905847Y-107289132D01*
X81905845Y-107289130D01*
X81901115Y-107284400D01*
X81901079Y-107284361D01*
X81723011Y-107106294D01*
X81722982Y-107106266D01*
X81717877Y-107101161D01*
X81717856Y-107101143D01*
X81620949Y-107028598D01*
X81619774Y-107027708D01*
X81532446Y-106960700D01*
X81529206Y-106958829D01*
X81516915Y-106950720D01*
X81505051Y-106941840D01*
X81505047Y-106941837D01*
X81409116Y-106889454D01*
X81406545Y-106888010D01*
X81383955Y-106874968D01*
X81321457Y-106838885D01*
X81307080Y-106832930D01*
X81295118Y-106827207D01*
X81271721Y-106814431D01*
X81271718Y-106814430D01*
X81271713Y-106814427D01*
X81271709Y-106814425D01*
X81180340Y-106780346D01*
X81176221Y-106778726D01*
X81096380Y-106745655D01*
X81096378Y-106745654D01*
X81096377Y-106745654D01*
X81089496Y-106743810D01*
X81069916Y-106738563D01*
X81058681Y-106734971D01*
X81022638Y-106721528D01*
X81022638Y-106721527D01*
X80938893Y-106703310D01*
X80933160Y-106701919D01*
X80861061Y-106682601D01*
X80861049Y-106682598D01*
X80822178Y-106677480D01*
X80812010Y-106675707D01*
X80762879Y-106665019D01*
X80762869Y-106665018D01*
X80689128Y-106659743D01*
X80681792Y-106658998D01*
X80619515Y-106650800D01*
X80619513Y-106650800D01*
X80568500Y-106650800D01*
X80559654Y-106650484D01*
X80497701Y-106646053D01*
X80497699Y-106646053D01*
X80435746Y-106650484D01*
X80426900Y-106650800D01*
X80375884Y-106650800D01*
X80313605Y-106658998D01*
X80306270Y-106659743D01*
X80232535Y-106665017D01*
X80232525Y-106665019D01*
X80183379Y-106675709D01*
X80173214Y-106677481D01*
X80134344Y-106682599D01*
X80062247Y-106701917D01*
X80056514Y-106703308D01*
X79972766Y-106721526D01*
X79972763Y-106721527D01*
X79936713Y-106734973D01*
X79925479Y-106738564D01*
X79899028Y-106745652D01*
X79899024Y-106745653D01*
X79819176Y-106778727D01*
X79815060Y-106780346D01*
X79723676Y-106814431D01*
X79723675Y-106814432D01*
X79700285Y-106827204D01*
X79688319Y-106832929D01*
X79673951Y-106838881D01*
X79673941Y-106838885D01*
X79588855Y-106888008D01*
X79586287Y-106889450D01*
X79490359Y-106941832D01*
X79490345Y-106941841D01*
X79478479Y-106950724D01*
X79466190Y-106958831D01*
X79462958Y-106960697D01*
X79462947Y-106960704D01*
X79375610Y-107027718D01*
X79374438Y-107028607D01*
X79277530Y-107101153D01*
X79271140Y-107107542D01*
X79095928Y-107282754D01*
X79089553Y-107289130D01*
X79017007Y-107386038D01*
X79016118Y-107387210D01*
X78949104Y-107474547D01*
X78949097Y-107474558D01*
X78947231Y-107477790D01*
X78939124Y-107490079D01*
X78930241Y-107501945D01*
X78930232Y-107501959D01*
X78877850Y-107597887D01*
X78876408Y-107600455D01*
X78827285Y-107685541D01*
X78827281Y-107685551D01*
X78821329Y-107699919D01*
X78815604Y-107711885D01*
X78802832Y-107735275D01*
X78802831Y-107735276D01*
X78768746Y-107826660D01*
X78767127Y-107830776D01*
X78734053Y-107910624D01*
X78734052Y-107910628D01*
X78726964Y-107937079D01*
X78723373Y-107948313D01*
X78709927Y-107984363D01*
X78709926Y-107984366D01*
X78691708Y-108068114D01*
X78690317Y-108073847D01*
X78670999Y-108145944D01*
X78665881Y-108184814D01*
X78664109Y-108194979D01*
X78653419Y-108244125D01*
X78653417Y-108244135D01*
X78648143Y-108317870D01*
X78647398Y-108325205D01*
X78639200Y-108387483D01*
X78639200Y-108438499D01*
X78638884Y-108447345D01*
X78634453Y-108509298D01*
X78634453Y-108509301D01*
X77025500Y-108509301D01*
X77025500Y-95100537D01*
X77541500Y-95100537D01*
X77541501Y-95100553D01*
X77552113Y-95204427D01*
X77575000Y-95273495D01*
X77607885Y-95372738D01*
X77700970Y-95523652D01*
X77826348Y-95649030D01*
X77957597Y-95729985D01*
X78004321Y-95781932D01*
X78016500Y-95835523D01*
X78016500Y-101822398D01*
X78040843Y-101944777D01*
X78040845Y-101944785D01*
X78088598Y-102060072D01*
X78088603Y-102060081D01*
X78157928Y-102163832D01*
X78157931Y-102163836D01*
X78596163Y-102602069D01*
X78596167Y-102602072D01*
X78699921Y-102671399D01*
X78699923Y-102671399D01*
X78699925Y-102671401D01*
X78815215Y-102719155D01*
X78815217Y-102719155D01*
X78815222Y-102719157D01*
X78937601Y-102743499D01*
X78937605Y-102743500D01*
X78937606Y-102743500D01*
X84647500Y-102743500D01*
X84714539Y-102763185D01*
X84760294Y-102815989D01*
X84771500Y-102867500D01*
X84771500Y-102958654D01*
X84778011Y-103019202D01*
X84778011Y-103019204D01*
X84824496Y-103143832D01*
X84829111Y-103156204D01*
X84916739Y-103273261D01*
X85033796Y-103360889D01*
X85132693Y-103397776D01*
X85170793Y-103411987D01*
X85170799Y-103411989D01*
X85185499Y-103413569D01*
X85250048Y-103440305D01*
X85289897Y-103497696D01*
X85292393Y-103567521D01*
X85256742Y-103627611D01*
X85243377Y-103638425D01*
X85235700Y-103643802D01*
X85235696Y-103643805D01*
X85073806Y-103805695D01*
X85073803Y-103805698D01*
X85073802Y-103805700D01*
X85013024Y-103892500D01*
X84942476Y-103993252D01*
X84942475Y-103993254D01*
X84845718Y-104200750D01*
X84845714Y-104200761D01*
X84786457Y-104421910D01*
X84786456Y-104421918D01*
X84766502Y-104649998D01*
X84766502Y-104650001D01*
X84786456Y-104878081D01*
X84786457Y-104878089D01*
X84845714Y-105099238D01*
X84845718Y-105099249D01*
X84940815Y-105303185D01*
X84942477Y-105306749D01*
X85073802Y-105494300D01*
X85235700Y-105656198D01*
X85367521Y-105748500D01*
X85423251Y-105787523D01*
X85466345Y-105807618D01*
X85518784Y-105853791D01*
X85537936Y-105920984D01*
X85517720Y-105987865D01*
X85466345Y-106032382D01*
X85423251Y-106052476D01*
X85298126Y-106140090D01*
X85235700Y-106183802D01*
X85235698Y-106183803D01*
X85235695Y-106183806D01*
X85073806Y-106345695D01*
X85073803Y-106345698D01*
X85073802Y-106345700D01*
X85060858Y-106364186D01*
X84942476Y-106533252D01*
X84942475Y-106533254D01*
X84845718Y-106740750D01*
X84845714Y-106740761D01*
X84786457Y-106961910D01*
X84786456Y-106961918D01*
X84766502Y-107189998D01*
X84766502Y-107190001D01*
X84786456Y-107418081D01*
X84786457Y-107418089D01*
X84845714Y-107639238D01*
X84845718Y-107639249D01*
X84933109Y-107826660D01*
X84942477Y-107846749D01*
X85073802Y-108034300D01*
X85235700Y-108196198D01*
X85423251Y-108327523D01*
X85548091Y-108385736D01*
X85630750Y-108424281D01*
X85630752Y-108424281D01*
X85630757Y-108424284D01*
X85851913Y-108483543D01*
X86014832Y-108497796D01*
X86079998Y-108503498D01*
X86080000Y-108503498D01*
X86080002Y-108503498D01*
X86137021Y-108498509D01*
X86308087Y-108483543D01*
X86529243Y-108424284D01*
X86736749Y-108327523D01*
X86924300Y-108196198D01*
X87086198Y-108034300D01*
X87217523Y-107846749D01*
X87314284Y-107639243D01*
X87373543Y-107418087D01*
X87393498Y-107190000D01*
X87373543Y-106961913D01*
X87314284Y-106740757D01*
X87313261Y-106738564D01*
X87233091Y-106566637D01*
X87217523Y-106533251D01*
X87086198Y-106345700D01*
X86924300Y-106183802D01*
X86736749Y-106052477D01*
X86693655Y-106032382D01*
X86641215Y-105986210D01*
X86622063Y-105919017D01*
X86642278Y-105852136D01*
X86693655Y-105807618D01*
X86696882Y-105806112D01*
X86736749Y-105787523D01*
X86924300Y-105656198D01*
X87086198Y-105494300D01*
X87196779Y-105336374D01*
X87251354Y-105292751D01*
X87298352Y-105283500D01*
X88282395Y-105283500D01*
X88282396Y-105283499D01*
X88404785Y-105259155D01*
X88520075Y-105211400D01*
X88623833Y-105142071D01*
X89032071Y-104733833D01*
X89101400Y-104630075D01*
X89149155Y-104514785D01*
X89173500Y-104392394D01*
X89173500Y-104267607D01*
X89173500Y-97337606D01*
X89149155Y-97215215D01*
X89134650Y-97180197D01*
X89113858Y-97129999D01*
X89101404Y-97099932D01*
X89101403Y-97099931D01*
X89101401Y-97099925D01*
X89101397Y-97099919D01*
X89032072Y-96996166D01*
X89032069Y-96996163D01*
X88673836Y-96637931D01*
X88673832Y-96637928D01*
X88570081Y-96568603D01*
X88570072Y-96568598D01*
X88454785Y-96520845D01*
X88454777Y-96520843D01*
X88332398Y-96496500D01*
X88332394Y-96496500D01*
X85545956Y-96496500D01*
X85478917Y-96476815D01*
X85442148Y-96440322D01*
X85345723Y-96292734D01*
X85345715Y-96292723D01*
X85200510Y-96134991D01*
X85169587Y-96072337D01*
X85177447Y-96002911D01*
X85221594Y-95948755D01*
X85248405Y-95934827D01*
X85347243Y-95897961D01*
X85366204Y-95890889D01*
X85483261Y-95803261D01*
X85570889Y-95686204D01*
X85621989Y-95549201D01*
X85625591Y-95515692D01*
X85628499Y-95488654D01*
X85628500Y-95488637D01*
X85628500Y-93691362D01*
X85628499Y-93691345D01*
X85622939Y-93639637D01*
X85621989Y-93630799D01*
X85608487Y-93594600D01*
X85590844Y-93547297D01*
X85570889Y-93493796D01*
X85483261Y-93376739D01*
X85366204Y-93289111D01*
X85229203Y-93238011D01*
X85168654Y-93231500D01*
X85168638Y-93231500D01*
X83371362Y-93231500D01*
X83371345Y-93231500D01*
X83310797Y-93238011D01*
X83310795Y-93238011D01*
X83173795Y-93289111D01*
X83056739Y-93376739D01*
X82969111Y-93493795D01*
X82918011Y-93630795D01*
X82918011Y-93630797D01*
X82911500Y-93691345D01*
X82911500Y-93842500D01*
X82891815Y-93909539D01*
X82839011Y-93955294D01*
X82787500Y-93966500D01*
X81827795Y-93966500D01*
X81760756Y-93946815D01*
X81715001Y-93894011D01*
X81710089Y-93881503D01*
X81692117Y-93827266D01*
X81692113Y-93827259D01*
X81599030Y-93676348D01*
X81473652Y-93550970D01*
X81379898Y-93493142D01*
X81322740Y-93457886D01*
X81322735Y-93457884D01*
X81154427Y-93402113D01*
X81050546Y-93391500D01*
X80249462Y-93391500D01*
X80249446Y-93391501D01*
X80145572Y-93402113D01*
X79977264Y-93457884D01*
X79977259Y-93457886D01*
X79826346Y-93550971D01*
X79737681Y-93639637D01*
X79676358Y-93673122D01*
X79606666Y-93668138D01*
X79562319Y-93639637D01*
X79473653Y-93550971D01*
X79473652Y-93550970D01*
X79379898Y-93493142D01*
X79322740Y-93457886D01*
X79322735Y-93457884D01*
X79154427Y-93402113D01*
X79050546Y-93391500D01*
X78249462Y-93391500D01*
X78249446Y-93391501D01*
X78145572Y-93402113D01*
X77977264Y-93457884D01*
X77977259Y-93457886D01*
X77826346Y-93550971D01*
X77700971Y-93676346D01*
X77607886Y-93827259D01*
X77607884Y-93827264D01*
X77552113Y-93995572D01*
X77541500Y-94099447D01*
X77541500Y-95100537D01*
X77025500Y-95100537D01*
X77025500Y-75000537D01*
X77591500Y-75000537D01*
X77591501Y-75000553D01*
X77602113Y-75104427D01*
X77623441Y-75168791D01*
X77657885Y-75272738D01*
X77750970Y-75423652D01*
X77876348Y-75549030D01*
X78027262Y-75642115D01*
X78195574Y-75697887D01*
X78299455Y-75708500D01*
X79100544Y-75708499D01*
X79204426Y-75697887D01*
X79372738Y-75642115D01*
X79523652Y-75549030D01*
X79612319Y-75460363D01*
X79673642Y-75426878D01*
X79743334Y-75431862D01*
X79787681Y-75460363D01*
X79876348Y-75549030D01*
X80027262Y-75642115D01*
X80195574Y-75697887D01*
X80299455Y-75708500D01*
X81100544Y-75708499D01*
X81204426Y-75697887D01*
X81372738Y-75642115D01*
X81523652Y-75549030D01*
X81649030Y-75423652D01*
X81742115Y-75272738D01*
X81742117Y-75272733D01*
X81760089Y-75218497D01*
X81799861Y-75161052D01*
X81864376Y-75134228D01*
X81877795Y-75133500D01*
X83010978Y-75133500D01*
X83078017Y-75153185D01*
X83114784Y-75189675D01*
X83224278Y-75357268D01*
X83224283Y-75357273D01*
X83224284Y-75357276D01*
X83376756Y-75522902D01*
X83376760Y-75522906D01*
X83554424Y-75661189D01*
X83554429Y-75661191D01*
X83554431Y-75661193D01*
X83590930Y-75680946D01*
X83640520Y-75730165D01*
X83655628Y-75798382D01*
X83631457Y-75863937D01*
X83590930Y-75899054D01*
X83554431Y-75918806D01*
X83554422Y-75918812D01*
X83376761Y-76057092D01*
X83376756Y-76057097D01*
X83224284Y-76222723D01*
X83224276Y-76222734D01*
X83101140Y-76411207D01*
X83010703Y-76617385D01*
X82955436Y-76835628D01*
X82955434Y-76835640D01*
X82936844Y-77059994D01*
X82936844Y-77060005D01*
X82955434Y-77284359D01*
X82955436Y-77284371D01*
X83010703Y-77502614D01*
X83101140Y-77708792D01*
X83224276Y-77897265D01*
X83224284Y-77897276D01*
X83376756Y-78062902D01*
X83376760Y-78062906D01*
X83554424Y-78201189D01*
X83597693Y-78224605D01*
X83597695Y-78224606D01*
X83647286Y-78273825D01*
X83662394Y-78342042D01*
X83638224Y-78407597D01*
X83609802Y-78435236D01*
X83428922Y-78561890D01*
X83428920Y-78561891D01*
X83261891Y-78728920D01*
X83261886Y-78728926D01*
X83126400Y-78922420D01*
X83126399Y-78922422D01*
X83026570Y-79136507D01*
X83026567Y-79136513D01*
X82969364Y-79349999D01*
X82969364Y-79350000D01*
X83866988Y-79350000D01*
X83834075Y-79407007D01*
X83800000Y-79534174D01*
X83800000Y-79665826D01*
X83834075Y-79792993D01*
X83866988Y-79850000D01*
X82969364Y-79850000D01*
X83026567Y-80063486D01*
X83026570Y-80063492D01*
X83126399Y-80277578D01*
X83261894Y-80471082D01*
X83428917Y-80638105D01*
X83622421Y-80773600D01*
X83836507Y-80873429D01*
X83836516Y-80873433D01*
X84050000Y-80930634D01*
X84050000Y-80033012D01*
X84107007Y-80065925D01*
X84234174Y-80100000D01*
X84365826Y-80100000D01*
X84492993Y-80065925D01*
X84550000Y-80033012D01*
X84550000Y-80930633D01*
X84763483Y-80873433D01*
X84763492Y-80873429D01*
X84977578Y-80773600D01*
X85171082Y-80638105D01*
X85338105Y-80471082D01*
X85473600Y-80277578D01*
X85573429Y-80063492D01*
X85573432Y-80063486D01*
X85630636Y-79850000D01*
X84733012Y-79850000D01*
X84765925Y-79792993D01*
X84800000Y-79665826D01*
X84800000Y-79534174D01*
X84765925Y-79407007D01*
X84733012Y-79350000D01*
X85630636Y-79350000D01*
X85630635Y-79349999D01*
X85573432Y-79136513D01*
X85573429Y-79136507D01*
X85473600Y-78922422D01*
X85473599Y-78922420D01*
X85338113Y-78728926D01*
X85338108Y-78728920D01*
X85171082Y-78561894D01*
X84990197Y-78435236D01*
X84946572Y-78380659D01*
X84939380Y-78311160D01*
X84970902Y-78248806D01*
X85002300Y-78224608D01*
X85045576Y-78201189D01*
X85223240Y-78062906D01*
X85375722Y-77897268D01*
X85498860Y-77708791D01*
X85589296Y-77502616D01*
X85644564Y-77284368D01*
X85663156Y-77060000D01*
X85644564Y-76835632D01*
X85589296Y-76617384D01*
X85498860Y-76411209D01*
X85375722Y-76222732D01*
X85375719Y-76222729D01*
X85375715Y-76222723D01*
X85223243Y-76057097D01*
X85223238Y-76057092D01*
X85045577Y-75918812D01*
X85045578Y-75918812D01*
X85045576Y-75918811D01*
X85009070Y-75899055D01*
X84959479Y-75849836D01*
X84944371Y-75781619D01*
X84968541Y-75716064D01*
X85009070Y-75680945D01*
X85009084Y-75680936D01*
X85045576Y-75661189D01*
X85223240Y-75522906D01*
X85375722Y-75357268D01*
X85498860Y-75168791D01*
X85589296Y-74962616D01*
X85644564Y-74744368D01*
X85663156Y-74520000D01*
X85644564Y-74295632D01*
X85589296Y-74077384D01*
X85498860Y-73871209D01*
X85492451Y-73861400D01*
X85375723Y-73682734D01*
X85375715Y-73682723D01*
X85223243Y-73517097D01*
X85223238Y-73517092D01*
X85045577Y-73378812D01*
X85045578Y-73378812D01*
X85045576Y-73378811D01*
X85009070Y-73359055D01*
X84959479Y-73309836D01*
X84944371Y-73241619D01*
X84968541Y-73176064D01*
X85009070Y-73140945D01*
X85009084Y-73140936D01*
X85045576Y-73121189D01*
X85223240Y-72982906D01*
X85375722Y-72817268D01*
X85498860Y-72628791D01*
X85589296Y-72422616D01*
X85644564Y-72204368D01*
X85663156Y-71980000D01*
X85644564Y-71755632D01*
X85589296Y-71537384D01*
X85498860Y-71331209D01*
X85375722Y-71142732D01*
X85375719Y-71142729D01*
X85375715Y-71142723D01*
X85223243Y-70977097D01*
X85223238Y-70977092D01*
X85070082Y-70857885D01*
X85045576Y-70838811D01*
X85009070Y-70819055D01*
X84959479Y-70769836D01*
X84944371Y-70701619D01*
X84968541Y-70636064D01*
X85009070Y-70600945D01*
X85009084Y-70600936D01*
X85045576Y-70581189D01*
X85223240Y-70442906D01*
X85375722Y-70277268D01*
X85498860Y-70088791D01*
X85589296Y-69882616D01*
X85644564Y-69664368D01*
X85663156Y-69440000D01*
X85644564Y-69215632D01*
X85589296Y-68997384D01*
X85498860Y-68791209D01*
X85457079Y-68727259D01*
X85375723Y-68602734D01*
X85375715Y-68602723D01*
X85230510Y-68444991D01*
X85199587Y-68382337D01*
X85207447Y-68312911D01*
X85251594Y-68258755D01*
X85278405Y-68244827D01*
X85358584Y-68214920D01*
X85396204Y-68200889D01*
X85513261Y-68113261D01*
X85600889Y-67996204D01*
X85651989Y-67859201D01*
X85655591Y-67825692D01*
X85658499Y-67798654D01*
X85658500Y-67798637D01*
X85658500Y-66001362D01*
X85658499Y-66001345D01*
X85655157Y-65970270D01*
X85651989Y-65940799D01*
X85637133Y-65900970D01*
X85601152Y-65804502D01*
X85600889Y-65803796D01*
X85513261Y-65686739D01*
X85396204Y-65599111D01*
X85259203Y-65548011D01*
X85198654Y-65541500D01*
X85198638Y-65541500D01*
X83860091Y-65541500D01*
X83793052Y-65521815D01*
X83747297Y-65469011D01*
X83742160Y-65455818D01*
X83684529Y-65278450D01*
X83684528Y-65278449D01*
X83684527Y-65278444D01*
X83589040Y-65113056D01*
X83461253Y-64971134D01*
X83306752Y-64858882D01*
X83132288Y-64781206D01*
X83132286Y-64781205D01*
X82945487Y-64741500D01*
X82754513Y-64741500D01*
X82567714Y-64781205D01*
X82393246Y-64858883D01*
X82238745Y-64971135D01*
X82234840Y-64975473D01*
X82175354Y-65012121D01*
X82142691Y-65016500D01*
X78887601Y-65016500D01*
X78765222Y-65040843D01*
X78765214Y-65040845D01*
X78649927Y-65088598D01*
X78649918Y-65088603D01*
X78546167Y-65157928D01*
X78546163Y-65157931D01*
X78296167Y-65407929D01*
X78252047Y-65452049D01*
X78207927Y-65496168D01*
X78138603Y-65599918D01*
X78138598Y-65599927D01*
X78090844Y-65715216D01*
X78090843Y-65715220D01*
X78089263Y-65723163D01*
X78056874Y-65785072D01*
X78032745Y-65804502D01*
X77876348Y-65900969D01*
X77750971Y-66026346D01*
X77657886Y-66177259D01*
X77657884Y-66177264D01*
X77602113Y-66345572D01*
X77591500Y-66449447D01*
X77591500Y-67450537D01*
X77591501Y-67450553D01*
X77599975Y-67533500D01*
X77602113Y-67554426D01*
X77657885Y-67722738D01*
X77750970Y-67873652D01*
X77876348Y-67999030D01*
X78027262Y-68092115D01*
X78027264Y-68092115D01*
X78032378Y-68095270D01*
X78079103Y-68147218D01*
X78090324Y-68216181D01*
X78088898Y-68225001D01*
X78077928Y-68280148D01*
X78045542Y-68342059D01*
X78021409Y-68361494D01*
X77876348Y-68450969D01*
X77750971Y-68576346D01*
X77657886Y-68727259D01*
X77657884Y-68727264D01*
X77602113Y-68895572D01*
X77591500Y-68999447D01*
X77591500Y-70000537D01*
X77591501Y-70000553D01*
X77602113Y-70104427D01*
X77657884Y-70272735D01*
X77657886Y-70272740D01*
X77750971Y-70423653D01*
X77876347Y-70549029D01*
X77876351Y-70549032D01*
X78031066Y-70644462D01*
X78077791Y-70696410D01*
X78089012Y-70765372D01*
X78061169Y-70829454D01*
X78031066Y-70855538D01*
X77876351Y-70950967D01*
X77876347Y-70950970D01*
X77750971Y-71076346D01*
X77657886Y-71227259D01*
X77657884Y-71227264D01*
X77602113Y-71395572D01*
X77591500Y-71499447D01*
X77591500Y-72500537D01*
X77591501Y-72500553D01*
X77602113Y-72604427D01*
X77622682Y-72666500D01*
X77657885Y-72772738D01*
X77747241Y-72917607D01*
X77750971Y-72923653D01*
X77876347Y-73049029D01*
X77876351Y-73049032D01*
X78031066Y-73144462D01*
X78077791Y-73196410D01*
X78089012Y-73265372D01*
X78061169Y-73329454D01*
X78031066Y-73355538D01*
X77876351Y-73450967D01*
X77876347Y-73450970D01*
X77750971Y-73576346D01*
X77657886Y-73727259D01*
X77657884Y-73727264D01*
X77602113Y-73895572D01*
X77591500Y-73999447D01*
X77591500Y-75000537D01*
X77025500Y-75000537D01*
X77025500Y-62484000D01*
X86036500Y-62484000D01*
X86036500Y-83573660D01*
G37*
G04 #@! TD.AperFunction*
G04 #@! TA.AperFunction,Conductor*
G36*
X102474011Y-62515294D02*
G01*
X102422500Y-62526500D01*
X87547601Y-62526500D01*
X87451691Y-62545578D01*
X87382099Y-62539351D01*
X87326922Y-62496488D01*
X87322517Y-62484000D01*
X102510126Y-62484000D01*
X102474011Y-62515294D01*
G37*
G04 #@! TD.AperFunction*
G04 #@! TA.AperFunction,Conductor*
G36*
X85979539Y-61995685D02*
G01*
X86025294Y-62048489D01*
X86036500Y-62100000D01*
X86036500Y-62484000D01*
X77025500Y-62484000D01*
X77025500Y-61976000D01*
X83820000Y-61976000D01*
X85912500Y-61976000D01*
X85979539Y-61995685D01*
G37*
G04 #@! TD.AperFunction*
G04 #@! TA.AperFunction,Conductor*
G36*
X102489539Y-61995685D02*
G01*
X102535294Y-62048489D01*
X102546500Y-62100000D01*
X102546500Y-62402500D01*
X102526815Y-62469539D01*
X102510126Y-62484000D01*
X87322517Y-62484000D01*
X87303678Y-62430598D01*
X87303500Y-62423961D01*
X87303500Y-62100000D01*
X87323185Y-62032961D01*
X87375989Y-61987206D01*
X87427500Y-61976000D01*
X102422500Y-61976000D01*
X102489539Y-61995685D01*
G37*
G04 #@! TD.AperFunction*
G04 #@! TA.AperFunction,Conductor*
G36*
X106465773Y-61995685D02*
G01*
X106486415Y-62012319D01*
X106958096Y-62484000D01*
X105356567Y-62484000D01*
X105343542Y-62360072D01*
X105284527Y-62178444D01*
X105275031Y-62161997D01*
X105258561Y-62094099D01*
X105281413Y-62028072D01*
X105336335Y-61984882D01*
X105382420Y-61976000D01*
X106398734Y-61976000D01*
X106465773Y-61995685D01*
G37*
G04 #@! TD.AperFunction*
G04 #@! TA.AperFunction,Conductor*
G36*
X111359539Y-61995685D02*
G01*
X111405294Y-62048489D01*
X111416500Y-62100000D01*
X111416500Y-62484000D01*
X110406567Y-62484000D01*
X110393542Y-62360072D01*
X110334527Y-62178444D01*
X110325031Y-62161997D01*
X110308561Y-62094099D01*
X110331413Y-62028072D01*
X110386335Y-61984882D01*
X110432420Y-61976000D01*
X111292500Y-61976000D01*
X111359539Y-61995685D01*
G37*
G04 #@! TD.AperFunction*
G04 #@! TA.AperFunction,Conductor*
G36*
X130429539Y-61995685D02*
G01*
X130475294Y-62048489D01*
X130486500Y-62100000D01*
X130486500Y-62484000D01*
X112683500Y-62484000D01*
X112683500Y-62100000D01*
X112703185Y-62032961D01*
X112755989Y-61987206D01*
X112807500Y-61976000D01*
X130362500Y-61976000D01*
X130429539Y-61995685D01*
G37*
G04 #@! TD.AperFunction*
G04 #@! TA.AperFunction,Conductor*
G36*
X141974500Y-62484000D02*
G01*
X131753500Y-62484000D01*
X131753500Y-62100000D01*
X131773185Y-62032961D01*
X131825989Y-61987206D01*
X131877500Y-61976000D01*
X135128000Y-61976000D01*
X141974500Y-61976000D01*
X141974500Y-62484000D01*
G37*
G04 #@! TD.AperFunction*
G04 #@! TA.AperFunction,Conductor*
G36*
X139003243Y-55525669D02*
G01*
X139213818Y-55536706D01*
X139304433Y-55541455D01*
X139317340Y-55542812D01*
X139376810Y-55552231D01*
X139612022Y-55589484D01*
X139624690Y-55592176D01*
X139912901Y-55669402D01*
X139925228Y-55673407D01*
X140203781Y-55780334D01*
X140215617Y-55785603D01*
X140481477Y-55921065D01*
X140492683Y-55927535D01*
X140742923Y-56090044D01*
X140753414Y-56097666D01*
X140985282Y-56285429D01*
X140994927Y-56294114D01*
X141205885Y-56505072D01*
X141214570Y-56514717D01*
X141402333Y-56746585D01*
X141409958Y-56757079D01*
X141572460Y-57007310D01*
X141578937Y-57018529D01*
X141689220Y-57234971D01*
X141714391Y-57284372D01*
X141719669Y-57296227D01*
X141754901Y-57388008D01*
X141826589Y-57574762D01*
X141830600Y-57587107D01*
X141907819Y-57875293D01*
X141910517Y-57887989D01*
X141957187Y-58182659D01*
X141958544Y-58195566D01*
X141974330Y-58496756D01*
X141974500Y-58503246D01*
X141974500Y-62484000D01*
X135128000Y-62484000D01*
X135128000Y-59009301D01*
X136634453Y-59009301D01*
X136638884Y-59071253D01*
X136639200Y-59080099D01*
X136639200Y-59131115D01*
X136647398Y-59193392D01*
X136648143Y-59200728D01*
X136653418Y-59274469D01*
X136653419Y-59274479D01*
X136664107Y-59323610D01*
X136665880Y-59333778D01*
X136670998Y-59372649D01*
X136671001Y-59372661D01*
X136690319Y-59444760D01*
X136691710Y-59450493D01*
X136709928Y-59534238D01*
X136723371Y-59570281D01*
X136726963Y-59581516D01*
X136734055Y-59607980D01*
X136767126Y-59687821D01*
X136768746Y-59691940D01*
X136802825Y-59783309D01*
X136802827Y-59783313D01*
X136802829Y-59783316D01*
X136802831Y-59783321D01*
X136815607Y-59806718D01*
X136821330Y-59818680D01*
X136827285Y-59833057D01*
X136827286Y-59833058D01*
X136876410Y-59918145D01*
X136877854Y-59920716D01*
X136930237Y-60016647D01*
X136930240Y-60016651D01*
X136939120Y-60028515D01*
X136947229Y-60040806D01*
X136949100Y-60044046D01*
X136949100Y-60044047D01*
X137016108Y-60131374D01*
X137016998Y-60132549D01*
X137089543Y-60229456D01*
X137089561Y-60229477D01*
X137094666Y-60234582D01*
X137094680Y-60234597D01*
X137272761Y-60412679D01*
X137272800Y-60412715D01*
X137277530Y-60417445D01*
X137277532Y-60417447D01*
X137277540Y-60417454D01*
X137374449Y-60489999D01*
X137375546Y-60490830D01*
X137462957Y-60557902D01*
X137462965Y-60557906D01*
X137462967Y-60557908D01*
X137466178Y-60559762D01*
X137478489Y-60567882D01*
X137485082Y-60572817D01*
X137490353Y-60576763D01*
X137490357Y-60576765D01*
X137490363Y-60576769D01*
X137586281Y-60629144D01*
X137588828Y-60630573D01*
X137673943Y-60679715D01*
X137673954Y-60679719D01*
X137673955Y-60679720D01*
X137688304Y-60685663D01*
X137700283Y-60691393D01*
X137723679Y-60704169D01*
X137815039Y-60738244D01*
X137819158Y-60739865D01*
X137899024Y-60772947D01*
X137920720Y-60778759D01*
X137925477Y-60780033D01*
X137936707Y-60783623D01*
X137972763Y-60797072D01*
X137972768Y-60797073D01*
X138056493Y-60815286D01*
X138062229Y-60816677D01*
X138095165Y-60825501D01*
X138134347Y-60836001D01*
X138173212Y-60841117D01*
X138183371Y-60842887D01*
X138232532Y-60853582D01*
X138306278Y-60858855D01*
X138313578Y-60859596D01*
X138375887Y-60867800D01*
X138426900Y-60867800D01*
X138435746Y-60868116D01*
X138497699Y-60872547D01*
X138497700Y-60872547D01*
X138497701Y-60872547D01*
X138559654Y-60868116D01*
X138568500Y-60867800D01*
X138619511Y-60867800D01*
X138619513Y-60867800D01*
X138681824Y-60859596D01*
X138689120Y-60858855D01*
X138762868Y-60853582D01*
X138812023Y-60842888D01*
X138822191Y-60841117D01*
X138861053Y-60836001D01*
X138933166Y-60816677D01*
X138938847Y-60815298D01*
X139022637Y-60797072D01*
X139058706Y-60783618D01*
X139069906Y-60780038D01*
X139096377Y-60772946D01*
X139176262Y-60739855D01*
X139180360Y-60738244D01*
X139271721Y-60704169D01*
X139295114Y-60691394D01*
X139307079Y-60685669D01*
X139321457Y-60679715D01*
X139406564Y-60630577D01*
X139409096Y-60629155D01*
X139505047Y-60576763D01*
X139516905Y-60567886D01*
X139529220Y-60559762D01*
X139532443Y-60557902D01*
X139581123Y-60520547D01*
X139619853Y-60490830D01*
X139620949Y-60489999D01*
X139717867Y-60417448D01*
X139721371Y-60413943D01*
X139721394Y-60413923D01*
X139902324Y-60232994D01*
X139902344Y-60232969D01*
X139905848Y-60229467D01*
X139978410Y-60132534D01*
X139979230Y-60131453D01*
X140046297Y-60044049D01*
X140046302Y-60044043D01*
X140048162Y-60040820D01*
X140056286Y-60028505D01*
X140065158Y-60016654D01*
X140065159Y-60016652D01*
X140065160Y-60016651D01*
X140065163Y-60016647D01*
X140117555Y-59920696D01*
X140118979Y-59918162D01*
X140118989Y-59918145D01*
X140168115Y-59833057D01*
X140174069Y-59818679D01*
X140179800Y-59806703D01*
X140192569Y-59783321D01*
X140226652Y-59691940D01*
X140228265Y-59687839D01*
X140261346Y-59607977D01*
X140268438Y-59581506D01*
X140272018Y-59570306D01*
X140285472Y-59534237D01*
X140303698Y-59450447D01*
X140305082Y-59444747D01*
X140324399Y-59372661D01*
X140324401Y-59372653D01*
X140329519Y-59333778D01*
X140331290Y-59323615D01*
X140331291Y-59323610D01*
X140341982Y-59274468D01*
X140347255Y-59200720D01*
X140347996Y-59193424D01*
X140356200Y-59131113D01*
X140356200Y-59080099D01*
X140356516Y-59071253D01*
X140360947Y-59009301D01*
X140360947Y-59009298D01*
X140356516Y-58947345D01*
X140356200Y-58938499D01*
X140356200Y-58887487D01*
X140356199Y-58887483D01*
X140347996Y-58825178D01*
X140347255Y-58817870D01*
X140341982Y-58744132D01*
X140331287Y-58694971D01*
X140329517Y-58684809D01*
X140324401Y-58645949D01*
X140324401Y-58645947D01*
X140315853Y-58614049D01*
X140305077Y-58573829D01*
X140303686Y-58568093D01*
X140289580Y-58503246D01*
X140285472Y-58484363D01*
X140272023Y-58448307D01*
X140268433Y-58437074D01*
X140261347Y-58410624D01*
X140228265Y-58330758D01*
X140226644Y-58326639D01*
X140192569Y-58235279D01*
X140179793Y-58211883D01*
X140174063Y-58199904D01*
X140168120Y-58185555D01*
X140168118Y-58185551D01*
X140168115Y-58185543D01*
X140118973Y-58100428D01*
X140117544Y-58097881D01*
X140065169Y-58001963D01*
X140065162Y-58001952D01*
X140056282Y-57990089D01*
X140048162Y-57977778D01*
X140046308Y-57974567D01*
X140046306Y-57974565D01*
X140046302Y-57974557D01*
X139979266Y-57887194D01*
X139978399Y-57886049D01*
X139905854Y-57789140D01*
X139905847Y-57789132D01*
X139905845Y-57789130D01*
X139901115Y-57784400D01*
X139901079Y-57784361D01*
X139723011Y-57606294D01*
X139722982Y-57606266D01*
X139717877Y-57601161D01*
X139717856Y-57601143D01*
X139620949Y-57528598D01*
X139619774Y-57527708D01*
X139532446Y-57460700D01*
X139529206Y-57458829D01*
X139516915Y-57450720D01*
X139505051Y-57441840D01*
X139505047Y-57441837D01*
X139409116Y-57389454D01*
X139406545Y-57388010D01*
X139383955Y-57374968D01*
X139321457Y-57338885D01*
X139307080Y-57332930D01*
X139295118Y-57327207D01*
X139271721Y-57314431D01*
X139271718Y-57314430D01*
X139271713Y-57314427D01*
X139271709Y-57314425D01*
X139180340Y-57280346D01*
X139176221Y-57278726D01*
X139096380Y-57245655D01*
X139096378Y-57245654D01*
X139096377Y-57245654D01*
X139089496Y-57243810D01*
X139069916Y-57238563D01*
X139058681Y-57234971D01*
X139022638Y-57221528D01*
X139022638Y-57221527D01*
X138938893Y-57203310D01*
X138933160Y-57201919D01*
X138861061Y-57182601D01*
X138861049Y-57182598D01*
X138822178Y-57177480D01*
X138812010Y-57175707D01*
X138762879Y-57165019D01*
X138762869Y-57165018D01*
X138689128Y-57159743D01*
X138681792Y-57158998D01*
X138619515Y-57150800D01*
X138619513Y-57150800D01*
X138568500Y-57150800D01*
X138559654Y-57150484D01*
X138497701Y-57146053D01*
X138497699Y-57146053D01*
X138435746Y-57150484D01*
X138426900Y-57150800D01*
X138375884Y-57150800D01*
X138313605Y-57158998D01*
X138306270Y-57159743D01*
X138232535Y-57165017D01*
X138232525Y-57165019D01*
X138183379Y-57175709D01*
X138173214Y-57177481D01*
X138134344Y-57182599D01*
X138062247Y-57201917D01*
X138056514Y-57203308D01*
X137972766Y-57221526D01*
X137972763Y-57221527D01*
X137936713Y-57234973D01*
X137925479Y-57238564D01*
X137899028Y-57245652D01*
X137899024Y-57245653D01*
X137819176Y-57278727D01*
X137815060Y-57280346D01*
X137723676Y-57314431D01*
X137723675Y-57314432D01*
X137700285Y-57327204D01*
X137688319Y-57332929D01*
X137673951Y-57338881D01*
X137673941Y-57338885D01*
X137588855Y-57388008D01*
X137586287Y-57389450D01*
X137490359Y-57441832D01*
X137490345Y-57441841D01*
X137478479Y-57450724D01*
X137466190Y-57458831D01*
X137462958Y-57460697D01*
X137462947Y-57460704D01*
X137375610Y-57527718D01*
X137374438Y-57528607D01*
X137277530Y-57601153D01*
X137271140Y-57607542D01*
X137095928Y-57782754D01*
X137089553Y-57789130D01*
X137017007Y-57886038D01*
X137016118Y-57887210D01*
X136949104Y-57974547D01*
X136949097Y-57974558D01*
X136947231Y-57977790D01*
X136939124Y-57990079D01*
X136930241Y-58001945D01*
X136930232Y-58001959D01*
X136877850Y-58097887D01*
X136876408Y-58100455D01*
X136827285Y-58185541D01*
X136827281Y-58185551D01*
X136821329Y-58199919D01*
X136815604Y-58211885D01*
X136802832Y-58235275D01*
X136802831Y-58235276D01*
X136768746Y-58326660D01*
X136767127Y-58330776D01*
X136734053Y-58410624D01*
X136734052Y-58410628D01*
X136726964Y-58437079D01*
X136723373Y-58448313D01*
X136709927Y-58484363D01*
X136709926Y-58484366D01*
X136691708Y-58568114D01*
X136690317Y-58573847D01*
X136670999Y-58645944D01*
X136665881Y-58684814D01*
X136664109Y-58694979D01*
X136653419Y-58744125D01*
X136653417Y-58744135D01*
X136648143Y-58817870D01*
X136647398Y-58825205D01*
X136639200Y-58887483D01*
X136639200Y-58938499D01*
X136638884Y-58947345D01*
X136634453Y-59009298D01*
X136634453Y-59009301D01*
X135128000Y-59009301D01*
X135128000Y-55649500D01*
X135147685Y-55582461D01*
X135200489Y-55536706D01*
X135252000Y-55525500D01*
X138991715Y-55525500D01*
X138996754Y-55525500D01*
X139003243Y-55525669D01*
G37*
G04 #@! TD.AperFunction*
G04 #@! TA.AperFunction,Conductor*
G36*
X83763039Y-55545185D02*
G01*
X83808794Y-55597989D01*
X83820000Y-55649500D01*
X83820000Y-62484000D01*
X77025500Y-62484000D01*
X77025500Y-59009301D01*
X78634453Y-59009301D01*
X78638884Y-59071253D01*
X78639200Y-59080099D01*
X78639200Y-59131115D01*
X78647398Y-59193392D01*
X78648143Y-59200728D01*
X78653418Y-59274469D01*
X78653419Y-59274479D01*
X78664107Y-59323610D01*
X78665880Y-59333778D01*
X78670998Y-59372649D01*
X78671001Y-59372661D01*
X78690319Y-59444760D01*
X78691710Y-59450493D01*
X78709928Y-59534238D01*
X78723371Y-59570281D01*
X78726963Y-59581516D01*
X78734055Y-59607980D01*
X78767126Y-59687821D01*
X78768746Y-59691940D01*
X78802825Y-59783309D01*
X78802827Y-59783313D01*
X78802829Y-59783316D01*
X78802831Y-59783321D01*
X78815607Y-59806718D01*
X78821330Y-59818680D01*
X78827285Y-59833057D01*
X78827286Y-59833058D01*
X78876410Y-59918145D01*
X78877854Y-59920716D01*
X78930237Y-60016647D01*
X78930240Y-60016651D01*
X78939120Y-60028515D01*
X78947229Y-60040806D01*
X78949100Y-60044046D01*
X78949100Y-60044047D01*
X79016108Y-60131374D01*
X79016998Y-60132549D01*
X79089543Y-60229456D01*
X79089561Y-60229477D01*
X79094666Y-60234582D01*
X79094680Y-60234597D01*
X79272761Y-60412679D01*
X79272800Y-60412715D01*
X79277530Y-60417445D01*
X79277532Y-60417447D01*
X79277540Y-60417454D01*
X79374449Y-60489999D01*
X79375546Y-60490830D01*
X79462957Y-60557902D01*
X79462965Y-60557906D01*
X79462967Y-60557908D01*
X79466178Y-60559762D01*
X79478489Y-60567882D01*
X79485082Y-60572817D01*
X79490353Y-60576763D01*
X79490357Y-60576765D01*
X79490363Y-60576769D01*
X79586281Y-60629144D01*
X79588828Y-60630573D01*
X79673943Y-60679715D01*
X79673954Y-60679719D01*
X79673955Y-60679720D01*
X79688304Y-60685663D01*
X79700283Y-60691393D01*
X79723679Y-60704169D01*
X79815039Y-60738244D01*
X79819158Y-60739865D01*
X79899024Y-60772947D01*
X79920720Y-60778759D01*
X79925477Y-60780033D01*
X79936707Y-60783623D01*
X79972763Y-60797072D01*
X79972768Y-60797073D01*
X80056493Y-60815286D01*
X80062229Y-60816677D01*
X80095165Y-60825501D01*
X80134347Y-60836001D01*
X80173212Y-60841117D01*
X80183371Y-60842887D01*
X80232532Y-60853582D01*
X80306278Y-60858855D01*
X80313578Y-60859596D01*
X80375887Y-60867800D01*
X80426900Y-60867800D01*
X80435746Y-60868116D01*
X80497699Y-60872547D01*
X80497700Y-60872547D01*
X80497701Y-60872547D01*
X80559654Y-60868116D01*
X80568500Y-60867800D01*
X80619511Y-60867800D01*
X80619513Y-60867800D01*
X80681824Y-60859596D01*
X80689120Y-60858855D01*
X80762868Y-60853582D01*
X80812023Y-60842888D01*
X80822191Y-60841117D01*
X80861053Y-60836001D01*
X80933166Y-60816677D01*
X80938847Y-60815298D01*
X81022637Y-60797072D01*
X81058706Y-60783618D01*
X81069906Y-60780038D01*
X81096377Y-60772946D01*
X81176262Y-60739855D01*
X81180360Y-60738244D01*
X81271721Y-60704169D01*
X81295114Y-60691394D01*
X81307079Y-60685669D01*
X81321457Y-60679715D01*
X81406564Y-60630577D01*
X81409096Y-60629155D01*
X81505047Y-60576763D01*
X81516905Y-60567886D01*
X81529220Y-60559762D01*
X81532443Y-60557902D01*
X81581123Y-60520547D01*
X81619853Y-60490830D01*
X81620949Y-60489999D01*
X81717867Y-60417448D01*
X81721371Y-60413943D01*
X81721394Y-60413923D01*
X81902324Y-60232994D01*
X81902344Y-60232969D01*
X81905848Y-60229467D01*
X81978410Y-60132534D01*
X81979230Y-60131453D01*
X82046297Y-60044049D01*
X82046302Y-60044043D01*
X82048162Y-60040820D01*
X82056286Y-60028505D01*
X82065158Y-60016654D01*
X82065159Y-60016652D01*
X82065160Y-60016651D01*
X82065163Y-60016647D01*
X82117555Y-59920696D01*
X82118979Y-59918162D01*
X82118989Y-59918145D01*
X82168115Y-59833057D01*
X82174069Y-59818679D01*
X82179800Y-59806703D01*
X82192569Y-59783321D01*
X82226652Y-59691940D01*
X82228265Y-59687839D01*
X82261346Y-59607977D01*
X82268438Y-59581506D01*
X82272018Y-59570306D01*
X82285472Y-59534237D01*
X82303698Y-59450447D01*
X82305082Y-59444747D01*
X82324399Y-59372661D01*
X82324401Y-59372653D01*
X82329519Y-59333778D01*
X82331290Y-59323615D01*
X82331291Y-59323610D01*
X82341982Y-59274468D01*
X82347255Y-59200720D01*
X82347996Y-59193424D01*
X82356200Y-59131113D01*
X82356200Y-59080099D01*
X82356516Y-59071253D01*
X82360947Y-59009301D01*
X82360947Y-59009298D01*
X82356516Y-58947345D01*
X82356200Y-58938499D01*
X82356200Y-58887487D01*
X82356199Y-58887483D01*
X82347996Y-58825178D01*
X82347255Y-58817870D01*
X82341982Y-58744132D01*
X82331287Y-58694971D01*
X82329517Y-58684809D01*
X82324401Y-58645949D01*
X82324401Y-58645947D01*
X82315853Y-58614049D01*
X82305077Y-58573829D01*
X82303686Y-58568093D01*
X82289580Y-58503246D01*
X82285472Y-58484363D01*
X82272023Y-58448307D01*
X82268433Y-58437074D01*
X82261347Y-58410624D01*
X82228265Y-58330758D01*
X82226644Y-58326639D01*
X82192569Y-58235279D01*
X82179793Y-58211883D01*
X82174063Y-58199904D01*
X82168120Y-58185555D01*
X82168118Y-58185551D01*
X82168115Y-58185543D01*
X82118973Y-58100428D01*
X82117544Y-58097881D01*
X82065169Y-58001963D01*
X82065162Y-58001952D01*
X82056282Y-57990089D01*
X82048162Y-57977778D01*
X82046308Y-57974567D01*
X82046306Y-57974565D01*
X82046302Y-57974557D01*
X81979266Y-57887194D01*
X81978399Y-57886049D01*
X81905854Y-57789140D01*
X81905847Y-57789132D01*
X81905845Y-57789130D01*
X81901115Y-57784400D01*
X81901079Y-57784361D01*
X81723011Y-57606294D01*
X81722982Y-57606266D01*
X81717877Y-57601161D01*
X81717856Y-57601143D01*
X81620949Y-57528598D01*
X81619774Y-57527708D01*
X81532446Y-57460700D01*
X81529206Y-57458829D01*
X81516915Y-57450720D01*
X81505051Y-57441840D01*
X81505047Y-57441837D01*
X81409116Y-57389454D01*
X81406545Y-57388010D01*
X81383955Y-57374968D01*
X81321457Y-57338885D01*
X81307080Y-57332930D01*
X81295118Y-57327207D01*
X81271721Y-57314431D01*
X81271718Y-57314430D01*
X81271713Y-57314427D01*
X81271709Y-57314425D01*
X81180340Y-57280346D01*
X81176221Y-57278726D01*
X81096380Y-57245655D01*
X81096378Y-57245654D01*
X81096377Y-57245654D01*
X81089496Y-57243810D01*
X81069916Y-57238563D01*
X81058681Y-57234971D01*
X81022638Y-57221528D01*
X81022638Y-57221527D01*
X80938893Y-57203310D01*
X80933160Y-57201919D01*
X80861061Y-57182601D01*
X80861049Y-57182598D01*
X80822178Y-57177480D01*
X80812010Y-57175707D01*
X80762879Y-57165019D01*
X80762869Y-57165018D01*
X80689128Y-57159743D01*
X80681792Y-57158998D01*
X80619515Y-57150800D01*
X80619513Y-57150800D01*
X80568500Y-57150800D01*
X80559654Y-57150484D01*
X80497701Y-57146053D01*
X80497699Y-57146053D01*
X80435746Y-57150484D01*
X80426900Y-57150800D01*
X80375884Y-57150800D01*
X80313605Y-57158998D01*
X80306270Y-57159743D01*
X80232535Y-57165017D01*
X80232525Y-57165019D01*
X80183379Y-57175709D01*
X80173214Y-57177481D01*
X80134344Y-57182599D01*
X80062247Y-57201917D01*
X80056514Y-57203308D01*
X79972766Y-57221526D01*
X79972763Y-57221527D01*
X79936713Y-57234973D01*
X79925479Y-57238564D01*
X79899028Y-57245652D01*
X79899024Y-57245653D01*
X79819176Y-57278727D01*
X79815060Y-57280346D01*
X79723676Y-57314431D01*
X79723675Y-57314432D01*
X79700285Y-57327204D01*
X79688319Y-57332929D01*
X79673951Y-57338881D01*
X79673941Y-57338885D01*
X79588855Y-57388008D01*
X79586287Y-57389450D01*
X79490359Y-57441832D01*
X79490345Y-57441841D01*
X79478479Y-57450724D01*
X79466190Y-57458831D01*
X79462958Y-57460697D01*
X79462947Y-57460704D01*
X79375610Y-57527718D01*
X79374438Y-57528607D01*
X79277530Y-57601153D01*
X79271140Y-57607542D01*
X79095928Y-57782754D01*
X79089553Y-57789130D01*
X79017007Y-57886038D01*
X79016118Y-57887210D01*
X78949104Y-57974547D01*
X78949097Y-57974558D01*
X78947231Y-57977790D01*
X78939124Y-57990079D01*
X78930241Y-58001945D01*
X78930232Y-58001959D01*
X78877850Y-58097887D01*
X78876408Y-58100455D01*
X78827285Y-58185541D01*
X78827281Y-58185551D01*
X78821329Y-58199919D01*
X78815604Y-58211885D01*
X78802832Y-58235275D01*
X78802831Y-58235276D01*
X78768746Y-58326660D01*
X78767127Y-58330776D01*
X78734053Y-58410624D01*
X78734052Y-58410628D01*
X78726964Y-58437079D01*
X78723373Y-58448313D01*
X78709927Y-58484363D01*
X78709926Y-58484366D01*
X78691708Y-58568114D01*
X78690317Y-58573847D01*
X78670999Y-58645944D01*
X78665881Y-58684814D01*
X78664109Y-58694979D01*
X78653419Y-58744125D01*
X78653417Y-58744135D01*
X78648143Y-58817870D01*
X78647398Y-58825205D01*
X78639200Y-58887483D01*
X78639200Y-58938499D01*
X78638884Y-58947345D01*
X78634453Y-59009298D01*
X78634453Y-59009301D01*
X77025500Y-59009301D01*
X77025500Y-58503246D01*
X77025670Y-58496756D01*
X77041455Y-58195566D01*
X77042812Y-58182659D01*
X77071431Y-58001963D01*
X77089485Y-57887973D01*
X77092175Y-57875312D01*
X77169403Y-57587092D01*
X77173404Y-57574777D01*
X77280336Y-57296211D01*
X77285600Y-57284389D01*
X77421069Y-57018514D01*
X77427530Y-57007324D01*
X77590050Y-56757066D01*
X77597659Y-56746594D01*
X77785437Y-56514707D01*
X77794104Y-56505082D01*
X78005082Y-56294104D01*
X78014707Y-56285437D01*
X78246594Y-56097659D01*
X78257066Y-56090050D01*
X78507324Y-55927530D01*
X78518514Y-55921069D01*
X78784389Y-55785600D01*
X78796211Y-55780336D01*
X79074777Y-55673404D01*
X79087092Y-55669403D01*
X79375312Y-55592175D01*
X79387973Y-55589485D01*
X79682659Y-55542812D01*
X79695564Y-55541455D01*
X79996756Y-55525669D01*
X80003246Y-55525500D01*
X83696000Y-55525500D01*
X83763039Y-55545185D01*
G37*
G04 #@! TD.AperFunction*
M02*
