%TF.GenerationSoftware,KiCad,Pcbnew,8.0.1*%
%TF.CreationDate,2025-07-27T10:09:20+02:00*%
%TF.ProjectId,SVXLink_PiHat_v2,5356584c-696e-46b5-9f50-694861745f76,rev?*%
%TF.SameCoordinates,Original*%
%TF.FileFunction,Drillmap*%
%TF.FilePolarity,Positive*%
%FSLAX45Y45*%
G04 Gerber Fmt 4.5, Leading zero omitted, Abs format (unit mm)*
G04 Created by KiCad (PCBNEW 8.0.1) date 2025-07-27 10:09:20*
%MOMM*%
%LPD*%
G01*
G04 APERTURE LIST*
%ADD10C,0.050000*%
%ADD11C,0.200000*%
G04 APERTURE END LIST*
D10*
X8100000Y-11200000D02*
X13900000Y-11200000D01*
X8100000Y-5550000D02*
X13900000Y-5550000D01*
X13900000Y-5550000D02*
G75*
G02*
X14200000Y-5850000I0J-300000D01*
G01*
X7700000Y-5850000D02*
G75*
G02*
X8000000Y-5550000I300000J0D01*
G01*
X7700000Y-7450000D02*
X7700000Y-5850000D01*
X7700000Y-10900000D02*
X7700000Y-7450000D01*
X14200000Y-10900000D02*
X14200000Y-5850000D01*
X8000000Y-11200000D02*
X8100000Y-11200000D01*
X8000000Y-5550000D02*
X8100000Y-5550000D01*
X8000000Y-11200000D02*
G75*
G02*
X7700000Y-10900000I0J300000D01*
G01*
X14200000Y-10900000D02*
G75*
G02*
X13900000Y-11200000I-300000J0D01*
G01*
D11*
X7958277Y-11513984D02*
X7958277Y-11313984D01*
X7958277Y-11313984D02*
X8005896Y-11313984D01*
X8005896Y-11313984D02*
X8034467Y-11323508D01*
X8034467Y-11323508D02*
X8053515Y-11342555D01*
X8053515Y-11342555D02*
X8063039Y-11361603D01*
X8063039Y-11361603D02*
X8072562Y-11399698D01*
X8072562Y-11399698D02*
X8072562Y-11428269D01*
X8072562Y-11428269D02*
X8063039Y-11466365D01*
X8063039Y-11466365D02*
X8053515Y-11485412D01*
X8053515Y-11485412D02*
X8034467Y-11504460D01*
X8034467Y-11504460D02*
X8005896Y-11513984D01*
X8005896Y-11513984D02*
X7958277Y-11513984D01*
X8158277Y-11513984D02*
X8158277Y-11380650D01*
X8158277Y-11418746D02*
X8167801Y-11399698D01*
X8167801Y-11399698D02*
X8177324Y-11390174D01*
X8177324Y-11390174D02*
X8196372Y-11380650D01*
X8196372Y-11380650D02*
X8215420Y-11380650D01*
X8282086Y-11513984D02*
X8282086Y-11380650D01*
X8282086Y-11313984D02*
X8272562Y-11323508D01*
X8272562Y-11323508D02*
X8282086Y-11333031D01*
X8282086Y-11333031D02*
X8291610Y-11323508D01*
X8291610Y-11323508D02*
X8282086Y-11313984D01*
X8282086Y-11313984D02*
X8282086Y-11333031D01*
X8405896Y-11513984D02*
X8386848Y-11504460D01*
X8386848Y-11504460D02*
X8377324Y-11485412D01*
X8377324Y-11485412D02*
X8377324Y-11313984D01*
X8510658Y-11513984D02*
X8491610Y-11504460D01*
X8491610Y-11504460D02*
X8482086Y-11485412D01*
X8482086Y-11485412D02*
X8482086Y-11313984D01*
X8739229Y-11513984D02*
X8739229Y-11313984D01*
X8739229Y-11313984D02*
X8805896Y-11456841D01*
X8805896Y-11456841D02*
X8872563Y-11313984D01*
X8872563Y-11313984D02*
X8872563Y-11513984D01*
X9053515Y-11513984D02*
X9053515Y-11409222D01*
X9053515Y-11409222D02*
X9043991Y-11390174D01*
X9043991Y-11390174D02*
X9024944Y-11380650D01*
X9024944Y-11380650D02*
X8986848Y-11380650D01*
X8986848Y-11380650D02*
X8967801Y-11390174D01*
X9053515Y-11504460D02*
X9034467Y-11513984D01*
X9034467Y-11513984D02*
X8986848Y-11513984D01*
X8986848Y-11513984D02*
X8967801Y-11504460D01*
X8967801Y-11504460D02*
X8958277Y-11485412D01*
X8958277Y-11485412D02*
X8958277Y-11466365D01*
X8958277Y-11466365D02*
X8967801Y-11447317D01*
X8967801Y-11447317D02*
X8986848Y-11437793D01*
X8986848Y-11437793D02*
X9034467Y-11437793D01*
X9034467Y-11437793D02*
X9053515Y-11428269D01*
X9148753Y-11380650D02*
X9148753Y-11580650D01*
X9148753Y-11390174D02*
X9167801Y-11380650D01*
X9167801Y-11380650D02*
X9205896Y-11380650D01*
X9205896Y-11380650D02*
X9224944Y-11390174D01*
X9224944Y-11390174D02*
X9234467Y-11399698D01*
X9234467Y-11399698D02*
X9243991Y-11418746D01*
X9243991Y-11418746D02*
X9243991Y-11475888D01*
X9243991Y-11475888D02*
X9234467Y-11494936D01*
X9234467Y-11494936D02*
X9224944Y-11504460D01*
X9224944Y-11504460D02*
X9205896Y-11513984D01*
X9205896Y-11513984D02*
X9167801Y-11513984D01*
X9167801Y-11513984D02*
X9148753Y-11504460D01*
X9329705Y-11494936D02*
X9339229Y-11504460D01*
X9339229Y-11504460D02*
X9329705Y-11513984D01*
X9329705Y-11513984D02*
X9320182Y-11504460D01*
X9320182Y-11504460D02*
X9329705Y-11494936D01*
X9329705Y-11494936D02*
X9329705Y-11513984D01*
X9329705Y-11390174D02*
X9339229Y-11399698D01*
X9339229Y-11399698D02*
X9329705Y-11409222D01*
X9329705Y-11409222D02*
X9320182Y-11399698D01*
X9320182Y-11399698D02*
X9329705Y-11390174D01*
X9329705Y-11390174D02*
X9329705Y-11409222D01*
M02*
