G04 #@! TF.GenerationSoftware,KiCad,Pcbnew,8.0.1*
G04 #@! TF.CreationDate,2025-07-27T10:09:23+02:00*
G04 #@! TF.ProjectId,SVXLink_PiHat_v2,5356584c-696e-46b5-9f50-694861745f76,rev?*
G04 #@! TF.SameCoordinates,Original*
G04 #@! TF.FileFunction,Legend,Bot*
G04 #@! TF.FilePolarity,Positive*
%FSLAX46Y46*%
G04 Gerber Fmt 4.6, Leading zero omitted, Abs format (unit mm)*
G04 Created by KiCad (PCBNEW 8.0.1) date 2025-07-27 10:09:23*
%MOMM*%
%LPD*%
G01*
G04 APERTURE LIST*
%ADD10C,0.200000*%
%ADD11C,0.300000*%
%ADD12C,0.150000*%
%ADD13C,0.120000*%
%ADD14C,0.000000*%
G04 APERTURE END LIST*
D10*
X113177945Y-111241283D02*
X113177945Y-110441283D01*
X113177945Y-110746045D02*
X113101755Y-110707949D01*
X113101755Y-110707949D02*
X112949374Y-110707949D01*
X112949374Y-110707949D02*
X112873183Y-110746045D01*
X112873183Y-110746045D02*
X112835088Y-110784140D01*
X112835088Y-110784140D02*
X112796993Y-110860330D01*
X112796993Y-110860330D02*
X112796993Y-111088902D01*
X112796993Y-111088902D02*
X112835088Y-111165092D01*
X112835088Y-111165092D02*
X112873183Y-111203188D01*
X112873183Y-111203188D02*
X112949374Y-111241283D01*
X112949374Y-111241283D02*
X113101755Y-111241283D01*
X113101755Y-111241283D02*
X113177945Y-111203188D01*
X112530326Y-110707949D02*
X112339850Y-111241283D01*
X112149373Y-110707949D02*
X112339850Y-111241283D01*
X112339850Y-111241283D02*
X112416040Y-111431759D01*
X112416040Y-111431759D02*
X112454135Y-111469854D01*
X112454135Y-111469854D02*
X112530326Y-111507949D01*
X111082706Y-110441283D02*
X110930325Y-110441283D01*
X110930325Y-110441283D02*
X110854135Y-110479378D01*
X110854135Y-110479378D02*
X110777944Y-110555568D01*
X110777944Y-110555568D02*
X110739849Y-110707949D01*
X110739849Y-110707949D02*
X110739849Y-110974616D01*
X110739849Y-110974616D02*
X110777944Y-111126997D01*
X110777944Y-111126997D02*
X110854135Y-111203188D01*
X110854135Y-111203188D02*
X110930325Y-111241283D01*
X110930325Y-111241283D02*
X111082706Y-111241283D01*
X111082706Y-111241283D02*
X111158897Y-111203188D01*
X111158897Y-111203188D02*
X111235087Y-111126997D01*
X111235087Y-111126997D02*
X111273183Y-110974616D01*
X111273183Y-110974616D02*
X111273183Y-110707949D01*
X111273183Y-110707949D02*
X111235087Y-110555568D01*
X111235087Y-110555568D02*
X111158897Y-110479378D01*
X111158897Y-110479378D02*
X111082706Y-110441283D01*
X110396992Y-110822235D02*
X110130326Y-110822235D01*
X110016040Y-111241283D02*
X110396992Y-111241283D01*
X110396992Y-111241283D02*
X110396992Y-110441283D01*
X110396992Y-110441283D02*
X110016040Y-110441283D01*
X109635087Y-111241283D02*
X109482706Y-111241283D01*
X109482706Y-111241283D02*
X109406516Y-111203188D01*
X109406516Y-111203188D02*
X109368420Y-111165092D01*
X109368420Y-111165092D02*
X109292230Y-111050807D01*
X109292230Y-111050807D02*
X109254135Y-110898426D01*
X109254135Y-110898426D02*
X109254135Y-110593664D01*
X109254135Y-110593664D02*
X109292230Y-110517473D01*
X109292230Y-110517473D02*
X109330325Y-110479378D01*
X109330325Y-110479378D02*
X109406516Y-110441283D01*
X109406516Y-110441283D02*
X109558897Y-110441283D01*
X109558897Y-110441283D02*
X109635087Y-110479378D01*
X109635087Y-110479378D02*
X109673182Y-110517473D01*
X109673182Y-110517473D02*
X109711278Y-110593664D01*
X109711278Y-110593664D02*
X109711278Y-110784140D01*
X109711278Y-110784140D02*
X109673182Y-110860330D01*
X109673182Y-110860330D02*
X109635087Y-110898426D01*
X109635087Y-110898426D02*
X109558897Y-110936521D01*
X109558897Y-110936521D02*
X109406516Y-110936521D01*
X109406516Y-110936521D02*
X109330325Y-110898426D01*
X109330325Y-110898426D02*
X109292230Y-110860330D01*
X109292230Y-110860330D02*
X109254135Y-110784140D01*
X108949373Y-111203188D02*
X108835087Y-111241283D01*
X108835087Y-111241283D02*
X108644611Y-111241283D01*
X108644611Y-111241283D02*
X108568420Y-111203188D01*
X108568420Y-111203188D02*
X108530325Y-111165092D01*
X108530325Y-111165092D02*
X108492230Y-111088902D01*
X108492230Y-111088902D02*
X108492230Y-111012711D01*
X108492230Y-111012711D02*
X108530325Y-110936521D01*
X108530325Y-110936521D02*
X108568420Y-110898426D01*
X108568420Y-110898426D02*
X108644611Y-110860330D01*
X108644611Y-110860330D02*
X108796992Y-110822235D01*
X108796992Y-110822235D02*
X108873182Y-110784140D01*
X108873182Y-110784140D02*
X108911277Y-110746045D01*
X108911277Y-110746045D02*
X108949373Y-110669854D01*
X108949373Y-110669854D02*
X108949373Y-110593664D01*
X108949373Y-110593664D02*
X108911277Y-110517473D01*
X108911277Y-110517473D02*
X108873182Y-110479378D01*
X108873182Y-110479378D02*
X108796992Y-110441283D01*
X108796992Y-110441283D02*
X108606515Y-110441283D01*
X108606515Y-110441283D02*
X108492230Y-110479378D01*
X108187468Y-111012711D02*
X107806515Y-111012711D01*
X108263658Y-111241283D02*
X107996991Y-110441283D01*
X107996991Y-110441283D02*
X107730325Y-111241283D01*
X107463658Y-110441283D02*
X107463658Y-111088902D01*
X107463658Y-111088902D02*
X107425563Y-111165092D01*
X107425563Y-111165092D02*
X107387468Y-111203188D01*
X107387468Y-111203188D02*
X107311277Y-111241283D01*
X107311277Y-111241283D02*
X107158896Y-111241283D01*
X107158896Y-111241283D02*
X107082706Y-111203188D01*
X107082706Y-111203188D02*
X107044611Y-111165092D01*
X107044611Y-111165092D02*
X107006515Y-111088902D01*
X107006515Y-111088902D02*
X107006515Y-110441283D01*
X105863658Y-110441283D02*
X105787468Y-110441283D01*
X105787468Y-110441283D02*
X105711277Y-110479378D01*
X105711277Y-110479378D02*
X105673182Y-110517473D01*
X105673182Y-110517473D02*
X105635087Y-110593664D01*
X105635087Y-110593664D02*
X105596992Y-110746045D01*
X105596992Y-110746045D02*
X105596992Y-110936521D01*
X105596992Y-110936521D02*
X105635087Y-111088902D01*
X105635087Y-111088902D02*
X105673182Y-111165092D01*
X105673182Y-111165092D02*
X105711277Y-111203188D01*
X105711277Y-111203188D02*
X105787468Y-111241283D01*
X105787468Y-111241283D02*
X105863658Y-111241283D01*
X105863658Y-111241283D02*
X105939849Y-111203188D01*
X105939849Y-111203188D02*
X105977944Y-111165092D01*
X105977944Y-111165092D02*
X106016039Y-111088902D01*
X106016039Y-111088902D02*
X106054135Y-110936521D01*
X106054135Y-110936521D02*
X106054135Y-110746045D01*
X106054135Y-110746045D02*
X106016039Y-110593664D01*
X106016039Y-110593664D02*
X105977944Y-110517473D01*
X105977944Y-110517473D02*
X105939849Y-110479378D01*
X105939849Y-110479378D02*
X105863658Y-110441283D01*
X105330325Y-110441283D02*
X104796991Y-110441283D01*
X104796991Y-110441283D02*
X105139849Y-111241283D01*
X103920801Y-110403188D02*
X104606515Y-111431759D01*
X103692230Y-110517473D02*
X103654134Y-110479378D01*
X103654134Y-110479378D02*
X103577944Y-110441283D01*
X103577944Y-110441283D02*
X103387468Y-110441283D01*
X103387468Y-110441283D02*
X103311277Y-110479378D01*
X103311277Y-110479378D02*
X103273182Y-110517473D01*
X103273182Y-110517473D02*
X103235087Y-110593664D01*
X103235087Y-110593664D02*
X103235087Y-110669854D01*
X103235087Y-110669854D02*
X103273182Y-110784140D01*
X103273182Y-110784140D02*
X103730325Y-111241283D01*
X103730325Y-111241283D02*
X103235087Y-111241283D01*
X102739848Y-110441283D02*
X102663658Y-110441283D01*
X102663658Y-110441283D02*
X102587467Y-110479378D01*
X102587467Y-110479378D02*
X102549372Y-110517473D01*
X102549372Y-110517473D02*
X102511277Y-110593664D01*
X102511277Y-110593664D02*
X102473182Y-110746045D01*
X102473182Y-110746045D02*
X102473182Y-110936521D01*
X102473182Y-110936521D02*
X102511277Y-111088902D01*
X102511277Y-111088902D02*
X102549372Y-111165092D01*
X102549372Y-111165092D02*
X102587467Y-111203188D01*
X102587467Y-111203188D02*
X102663658Y-111241283D01*
X102663658Y-111241283D02*
X102739848Y-111241283D01*
X102739848Y-111241283D02*
X102816039Y-111203188D01*
X102816039Y-111203188D02*
X102854134Y-111165092D01*
X102854134Y-111165092D02*
X102892229Y-111088902D01*
X102892229Y-111088902D02*
X102930325Y-110936521D01*
X102930325Y-110936521D02*
X102930325Y-110746045D01*
X102930325Y-110746045D02*
X102892229Y-110593664D01*
X102892229Y-110593664D02*
X102854134Y-110517473D01*
X102854134Y-110517473D02*
X102816039Y-110479378D01*
X102816039Y-110479378D02*
X102739848Y-110441283D01*
X102168420Y-110517473D02*
X102130324Y-110479378D01*
X102130324Y-110479378D02*
X102054134Y-110441283D01*
X102054134Y-110441283D02*
X101863658Y-110441283D01*
X101863658Y-110441283D02*
X101787467Y-110479378D01*
X101787467Y-110479378D02*
X101749372Y-110517473D01*
X101749372Y-110517473D02*
X101711277Y-110593664D01*
X101711277Y-110593664D02*
X101711277Y-110669854D01*
X101711277Y-110669854D02*
X101749372Y-110784140D01*
X101749372Y-110784140D02*
X102206515Y-111241283D01*
X102206515Y-111241283D02*
X101711277Y-111241283D01*
X100987467Y-110441283D02*
X101368419Y-110441283D01*
X101368419Y-110441283D02*
X101406515Y-110822235D01*
X101406515Y-110822235D02*
X101368419Y-110784140D01*
X101368419Y-110784140D02*
X101292229Y-110746045D01*
X101292229Y-110746045D02*
X101101753Y-110746045D01*
X101101753Y-110746045D02*
X101025562Y-110784140D01*
X101025562Y-110784140D02*
X100987467Y-110822235D01*
X100987467Y-110822235D02*
X100949372Y-110898426D01*
X100949372Y-110898426D02*
X100949372Y-111088902D01*
X100949372Y-111088902D02*
X100987467Y-111165092D01*
X100987467Y-111165092D02*
X101025562Y-111203188D01*
X101025562Y-111203188D02*
X101101753Y-111241283D01*
X101101753Y-111241283D02*
X101292229Y-111241283D01*
X101292229Y-111241283D02*
X101368419Y-111203188D01*
X101368419Y-111203188D02*
X101406515Y-111165092D01*
X100073181Y-110707949D02*
X99882705Y-111241283D01*
X99882705Y-111241283D02*
X99692228Y-110707949D01*
X99425562Y-110517473D02*
X99387466Y-110479378D01*
X99387466Y-110479378D02*
X99311276Y-110441283D01*
X99311276Y-110441283D02*
X99120800Y-110441283D01*
X99120800Y-110441283D02*
X99044609Y-110479378D01*
X99044609Y-110479378D02*
X99006514Y-110517473D01*
X99006514Y-110517473D02*
X98968419Y-110593664D01*
X98968419Y-110593664D02*
X98968419Y-110669854D01*
X98968419Y-110669854D02*
X99006514Y-110784140D01*
X99006514Y-110784140D02*
X99463657Y-111241283D01*
X99463657Y-111241283D02*
X98968419Y-111241283D01*
X136558898Y-98879790D02*
X136635088Y-98841695D01*
X136635088Y-98841695D02*
X136749374Y-98841695D01*
X136749374Y-98841695D02*
X136863660Y-98879790D01*
X136863660Y-98879790D02*
X136939850Y-98955980D01*
X136939850Y-98955980D02*
X136977945Y-99032171D01*
X136977945Y-99032171D02*
X137016041Y-99184552D01*
X137016041Y-99184552D02*
X137016041Y-99298838D01*
X137016041Y-99298838D02*
X136977945Y-99451219D01*
X136977945Y-99451219D02*
X136939850Y-99527409D01*
X136939850Y-99527409D02*
X136863660Y-99603600D01*
X136863660Y-99603600D02*
X136749374Y-99641695D01*
X136749374Y-99641695D02*
X136673183Y-99641695D01*
X136673183Y-99641695D02*
X136558898Y-99603600D01*
X136558898Y-99603600D02*
X136520802Y-99565504D01*
X136520802Y-99565504D02*
X136520802Y-99298838D01*
X136520802Y-99298838D02*
X136673183Y-99298838D01*
X136177945Y-99641695D02*
X136177945Y-98841695D01*
X136177945Y-98841695D02*
X135720802Y-99641695D01*
X135720802Y-99641695D02*
X135720802Y-98841695D01*
X135339850Y-99641695D02*
X135339850Y-98841695D01*
X135339850Y-98841695D02*
X135149374Y-98841695D01*
X135149374Y-98841695D02*
X135035088Y-98879790D01*
X135035088Y-98879790D02*
X134958898Y-98955980D01*
X134958898Y-98955980D02*
X134920803Y-99032171D01*
X134920803Y-99032171D02*
X134882707Y-99184552D01*
X134882707Y-99184552D02*
X134882707Y-99298838D01*
X134882707Y-99298838D02*
X134920803Y-99451219D01*
X134920803Y-99451219D02*
X134958898Y-99527409D01*
X134958898Y-99527409D02*
X135035088Y-99603600D01*
X135035088Y-99603600D02*
X135149374Y-99641695D01*
X135149374Y-99641695D02*
X135339850Y-99641695D01*
X135896993Y-96291695D02*
X136277945Y-96291695D01*
X136277945Y-96291695D02*
X136316041Y-96672647D01*
X136316041Y-96672647D02*
X136277945Y-96634552D01*
X136277945Y-96634552D02*
X136201755Y-96596457D01*
X136201755Y-96596457D02*
X136011279Y-96596457D01*
X136011279Y-96596457D02*
X135935088Y-96634552D01*
X135935088Y-96634552D02*
X135896993Y-96672647D01*
X135896993Y-96672647D02*
X135858898Y-96748838D01*
X135858898Y-96748838D02*
X135858898Y-96939314D01*
X135858898Y-96939314D02*
X135896993Y-97015504D01*
X135896993Y-97015504D02*
X135935088Y-97053600D01*
X135935088Y-97053600D02*
X136011279Y-97091695D01*
X136011279Y-97091695D02*
X136201755Y-97091695D01*
X136201755Y-97091695D02*
X136277945Y-97053600D01*
X136277945Y-97053600D02*
X136316041Y-97015504D01*
X135630326Y-96291695D02*
X135363659Y-97091695D01*
X135363659Y-97091695D02*
X135096993Y-96291695D01*
D11*
X113826917Y-109729400D02*
X113612632Y-109800828D01*
X113612632Y-109800828D02*
X113255489Y-109800828D01*
X113255489Y-109800828D02*
X113112632Y-109729400D01*
X113112632Y-109729400D02*
X113041203Y-109657971D01*
X113041203Y-109657971D02*
X112969774Y-109515114D01*
X112969774Y-109515114D02*
X112969774Y-109372257D01*
X112969774Y-109372257D02*
X113041203Y-109229400D01*
X113041203Y-109229400D02*
X113112632Y-109157971D01*
X113112632Y-109157971D02*
X113255489Y-109086542D01*
X113255489Y-109086542D02*
X113541203Y-109015114D01*
X113541203Y-109015114D02*
X113684060Y-108943685D01*
X113684060Y-108943685D02*
X113755489Y-108872257D01*
X113755489Y-108872257D02*
X113826917Y-108729400D01*
X113826917Y-108729400D02*
X113826917Y-108586542D01*
X113826917Y-108586542D02*
X113755489Y-108443685D01*
X113755489Y-108443685D02*
X113684060Y-108372257D01*
X113684060Y-108372257D02*
X113541203Y-108300828D01*
X113541203Y-108300828D02*
X113184060Y-108300828D01*
X113184060Y-108300828D02*
X112969774Y-108372257D01*
X112541203Y-108300828D02*
X112041203Y-109800828D01*
X112041203Y-109800828D02*
X111541203Y-108300828D01*
X111184061Y-108300828D02*
X110184061Y-109800828D01*
X110184061Y-108300828D02*
X111184061Y-109800828D01*
X108898347Y-109800828D02*
X109612633Y-109800828D01*
X109612633Y-109800828D02*
X109612633Y-108300828D01*
X108398347Y-109800828D02*
X108398347Y-108800828D01*
X108398347Y-108300828D02*
X108469775Y-108372257D01*
X108469775Y-108372257D02*
X108398347Y-108443685D01*
X108398347Y-108443685D02*
X108326918Y-108372257D01*
X108326918Y-108372257D02*
X108398347Y-108300828D01*
X108398347Y-108300828D02*
X108398347Y-108443685D01*
X107684061Y-108800828D02*
X107684061Y-109800828D01*
X107684061Y-108943685D02*
X107612632Y-108872257D01*
X107612632Y-108872257D02*
X107469775Y-108800828D01*
X107469775Y-108800828D02*
X107255489Y-108800828D01*
X107255489Y-108800828D02*
X107112632Y-108872257D01*
X107112632Y-108872257D02*
X107041204Y-109015114D01*
X107041204Y-109015114D02*
X107041204Y-109800828D01*
X106326918Y-109800828D02*
X106326918Y-108300828D01*
X106184061Y-109229400D02*
X105755489Y-109800828D01*
X105755489Y-108800828D02*
X106326918Y-109372257D01*
X105469775Y-109943685D02*
X104326917Y-109943685D01*
X103969775Y-109800828D02*
X103969775Y-108300828D01*
X103969775Y-108300828D02*
X103398346Y-108300828D01*
X103398346Y-108300828D02*
X103255489Y-108372257D01*
X103255489Y-108372257D02*
X103184060Y-108443685D01*
X103184060Y-108443685D02*
X103112632Y-108586542D01*
X103112632Y-108586542D02*
X103112632Y-108800828D01*
X103112632Y-108800828D02*
X103184060Y-108943685D01*
X103184060Y-108943685D02*
X103255489Y-109015114D01*
X103255489Y-109015114D02*
X103398346Y-109086542D01*
X103398346Y-109086542D02*
X103969775Y-109086542D01*
X102469775Y-109800828D02*
X102469775Y-108800828D01*
X102469775Y-108300828D02*
X102541203Y-108372257D01*
X102541203Y-108372257D02*
X102469775Y-108443685D01*
X102469775Y-108443685D02*
X102398346Y-108372257D01*
X102398346Y-108372257D02*
X102469775Y-108300828D01*
X102469775Y-108300828D02*
X102469775Y-108443685D01*
X101755489Y-109800828D02*
X101755489Y-108300828D01*
X101755489Y-109015114D02*
X100898346Y-109015114D01*
X100898346Y-109800828D02*
X100898346Y-108300828D01*
X99541203Y-109800828D02*
X99541203Y-109015114D01*
X99541203Y-109015114D02*
X99612631Y-108872257D01*
X99612631Y-108872257D02*
X99755488Y-108800828D01*
X99755488Y-108800828D02*
X100041203Y-108800828D01*
X100041203Y-108800828D02*
X100184060Y-108872257D01*
X99541203Y-109729400D02*
X99684060Y-109800828D01*
X99684060Y-109800828D02*
X100041203Y-109800828D01*
X100041203Y-109800828D02*
X100184060Y-109729400D01*
X100184060Y-109729400D02*
X100255488Y-109586542D01*
X100255488Y-109586542D02*
X100255488Y-109443685D01*
X100255488Y-109443685D02*
X100184060Y-109300828D01*
X100184060Y-109300828D02*
X100041203Y-109229400D01*
X100041203Y-109229400D02*
X99684060Y-109229400D01*
X99684060Y-109229400D02*
X99541203Y-109157971D01*
X99041202Y-108800828D02*
X98469774Y-108800828D01*
X98826917Y-108300828D02*
X98826917Y-109586542D01*
X98826917Y-109586542D02*
X98755488Y-109729400D01*
X98755488Y-109729400D02*
X98612631Y-109800828D01*
X98612631Y-109800828D02*
X98469774Y-109800828D01*
D12*
X120533494Y-82739419D02*
X120533494Y-81739419D01*
X120533494Y-81739419D02*
X120295399Y-81739419D01*
X120295399Y-81739419D02*
X120152542Y-81787038D01*
X120152542Y-81787038D02*
X120057304Y-81882276D01*
X120057304Y-81882276D02*
X120009685Y-81977514D01*
X120009685Y-81977514D02*
X119962066Y-82167990D01*
X119962066Y-82167990D02*
X119962066Y-82310847D01*
X119962066Y-82310847D02*
X120009685Y-82501323D01*
X120009685Y-82501323D02*
X120057304Y-82596561D01*
X120057304Y-82596561D02*
X120152542Y-82691800D01*
X120152542Y-82691800D02*
X120295399Y-82739419D01*
X120295399Y-82739419D02*
X120533494Y-82739419D01*
X119009685Y-82739419D02*
X119581113Y-82739419D01*
X119295399Y-82739419D02*
X119295399Y-81739419D01*
X119295399Y-81739419D02*
X119390637Y-81882276D01*
X119390637Y-81882276D02*
X119485875Y-81977514D01*
X119485875Y-81977514D02*
X119581113Y-82025133D01*
D13*
X118795400Y-87157500D02*
X118795400Y-83147500D01*
X120795400Y-83147500D02*
X118795400Y-83147500D01*
X120795400Y-87157500D02*
X120795400Y-83147500D01*
D14*
G36*
X106236594Y-107368197D02*
G01*
X106236594Y-107486493D01*
X106008450Y-107486493D01*
X105780306Y-107486493D01*
X105780306Y-107368197D01*
X105780306Y-107249900D01*
X106008450Y-107249900D01*
X106236594Y-107249900D01*
X106236594Y-107368197D01*
G37*
G36*
X106659082Y-106371124D02*
G01*
X106659082Y-106506717D01*
X106004225Y-106502294D01*
X105349368Y-106497871D01*
X105349368Y-106371124D01*
X105349368Y-106244378D01*
X106004225Y-106239954D01*
X106659082Y-106235531D01*
X106659082Y-106371124D01*
G37*
G36*
X106422636Y-106780643D02*
G01*
X106423303Y-106798624D01*
X106427217Y-106848922D01*
X106433439Y-106907684D01*
X106444096Y-106996407D01*
X106010064Y-106996407D01*
X105576031Y-106996407D01*
X105580996Y-106873885D01*
X105585962Y-106751364D01*
X106004225Y-106746843D01*
X106422489Y-106742323D01*
X106422636Y-106780643D01*
G37*
G36*
X106892364Y-105853796D02*
G01*
X106893695Y-105897782D01*
X106892613Y-105947780D01*
X106888611Y-105976470D01*
X106888179Y-105977331D01*
X106880007Y-105982432D01*
X106860746Y-105986654D01*
X106827874Y-105990052D01*
X106778867Y-105992679D01*
X106711202Y-105994589D01*
X106622356Y-105995836D01*
X106509805Y-105996473D01*
X106371027Y-105996554D01*
X106203499Y-105996132D01*
X106004697Y-105995262D01*
X105129674Y-105990885D01*
X105129674Y-105872588D01*
X105129674Y-105754291D01*
X106008450Y-105754291D01*
X106887226Y-105754291D01*
X106892364Y-105853796D01*
G37*
G36*
X110103891Y-97770104D02*
G01*
X110175590Y-97771634D01*
X110228363Y-97774692D01*
X110267442Y-97779771D01*
X110298062Y-97787365D01*
X110325454Y-97797967D01*
X110354851Y-97812069D01*
X110441818Y-97872610D01*
X110508088Y-97954869D01*
X110547101Y-98051219D01*
X110547124Y-98051319D01*
X110548677Y-98075226D01*
X110550181Y-98131365D01*
X110551627Y-98218192D01*
X110553009Y-98334160D01*
X110554320Y-98477725D01*
X110555553Y-98647342D01*
X110556701Y-98841466D01*
X110557758Y-99058551D01*
X110558717Y-99297054D01*
X110559571Y-99555428D01*
X110560312Y-99832129D01*
X110560935Y-100125612D01*
X110561432Y-100434332D01*
X110561796Y-100756743D01*
X110562021Y-101091301D01*
X110562100Y-101436460D01*
X110562101Y-101593567D01*
X110562088Y-101974910D01*
X110562044Y-102324426D01*
X110561956Y-102643534D01*
X110561811Y-102933654D01*
X110561595Y-103196206D01*
X110561296Y-103432609D01*
X110560900Y-103644284D01*
X110560394Y-103832649D01*
X110559765Y-103999126D01*
X110559001Y-104145133D01*
X110558086Y-104272090D01*
X110557009Y-104381417D01*
X110555757Y-104474534D01*
X110554315Y-104552861D01*
X110552672Y-104617816D01*
X110550814Y-104670821D01*
X110548727Y-104713295D01*
X110546398Y-104746657D01*
X110543815Y-104772328D01*
X110540965Y-104791727D01*
X110537833Y-104806273D01*
X110534407Y-104817387D01*
X110530674Y-104826489D01*
X110495450Y-104884166D01*
X110424853Y-104946261D01*
X110332264Y-104983999D01*
X110321176Y-104985938D01*
X110273118Y-104990111D01*
X110199625Y-104993450D01*
X110106605Y-104995786D01*
X109999962Y-104996951D01*
X109885604Y-104996775D01*
X109504075Y-104993812D01*
X109434909Y-104948003D01*
X109418939Y-104936706D01*
X109363700Y-104889434D01*
X109318242Y-104839918D01*
X109304382Y-104820963D01*
X109288518Y-104793556D01*
X109277630Y-104761502D01*
X109270154Y-104717519D01*
X109264529Y-104654324D01*
X109259192Y-104564636D01*
X109257974Y-104534242D01*
X109256296Y-104463963D01*
X109254747Y-104364937D01*
X109253326Y-104239182D01*
X109252032Y-104088715D01*
X109250865Y-103915555D01*
X109249822Y-103721718D01*
X109248902Y-103509223D01*
X109248106Y-103280086D01*
X109247430Y-103036326D01*
X109246875Y-102779960D01*
X109246440Y-102513005D01*
X109246122Y-102237480D01*
X109245921Y-101955402D01*
X109245836Y-101668788D01*
X109245866Y-101379656D01*
X109246009Y-101090024D01*
X109246265Y-100801909D01*
X109246632Y-100517329D01*
X109247109Y-100238302D01*
X109247695Y-99966845D01*
X109248390Y-99704975D01*
X109249191Y-99454711D01*
X109250097Y-99218070D01*
X109251109Y-98997069D01*
X109252224Y-98793726D01*
X109253441Y-98610059D01*
X109254759Y-98448085D01*
X109256177Y-98309822D01*
X109257695Y-98197288D01*
X109259310Y-98112500D01*
X109261022Y-98057476D01*
X109262829Y-98034233D01*
X109287591Y-97977728D01*
X109338624Y-97907302D01*
X109403610Y-97844731D01*
X109472855Y-97800790D01*
X109493287Y-97792494D01*
X109523317Y-97784121D01*
X109562080Y-97778054D01*
X109614586Y-97773934D01*
X109685850Y-97771398D01*
X109780883Y-97770085D01*
X109904699Y-97769632D01*
X110008034Y-97769609D01*
X110103891Y-97770104D01*
G37*
G36*
X101988845Y-97788338D02*
G01*
X102132202Y-97789690D01*
X102195891Y-97790318D01*
X102326249Y-97791731D01*
X102428313Y-97793272D01*
X102505964Y-97795258D01*
X102563086Y-97798009D01*
X102603560Y-97801844D01*
X102631271Y-97807080D01*
X102650099Y-97814038D01*
X102663929Y-97823036D01*
X102676642Y-97834393D01*
X102686358Y-97844930D01*
X102717204Y-97896370D01*
X102739765Y-97960888D01*
X102742170Y-97977091D01*
X102744570Y-98008350D01*
X102746772Y-98055017D01*
X102748783Y-98118240D01*
X102750609Y-98199168D01*
X102752259Y-98298953D01*
X102753738Y-98418742D01*
X102755055Y-98559686D01*
X102756215Y-98722933D01*
X102757227Y-98909635D01*
X102758097Y-99120939D01*
X102758832Y-99357996D01*
X102759440Y-99621954D01*
X102759926Y-99913964D01*
X102760300Y-100235176D01*
X102760567Y-100586737D01*
X102760734Y-100969799D01*
X102760810Y-101385510D01*
X102760824Y-101653466D01*
X102760816Y-102027741D01*
X102760764Y-102370565D01*
X102760655Y-102683346D01*
X102760478Y-102967491D01*
X102760221Y-103224410D01*
X102759871Y-103455510D01*
X102759417Y-103662199D01*
X102758847Y-103845886D01*
X102758149Y-104007979D01*
X102757312Y-104149885D01*
X102756322Y-104273013D01*
X102755169Y-104378771D01*
X102753840Y-104468567D01*
X102752324Y-104543809D01*
X102750608Y-104605906D01*
X102748681Y-104656265D01*
X102746531Y-104696295D01*
X102744146Y-104727403D01*
X102741513Y-104750999D01*
X102738622Y-104768489D01*
X102735460Y-104781282D01*
X102732015Y-104790787D01*
X102704114Y-104845492D01*
X102643636Y-104918201D01*
X102560945Y-104970895D01*
X102546913Y-104977097D01*
X102521618Y-104985686D01*
X102490629Y-104991968D01*
X102449264Y-104996215D01*
X102392839Y-104998696D01*
X102316672Y-104999680D01*
X102216078Y-104999438D01*
X102086376Y-104998240D01*
X101679405Y-104993812D01*
X101597820Y-104943113D01*
X101596925Y-104942556D01*
X101528468Y-104887791D01*
X101481764Y-104825748D01*
X101479779Y-104821877D01*
X101475894Y-104813576D01*
X101472334Y-104803793D01*
X101469088Y-104791123D01*
X101466144Y-104774162D01*
X101463489Y-104751504D01*
X101461110Y-104721744D01*
X101458997Y-104683476D01*
X101457136Y-104635297D01*
X101455515Y-104575800D01*
X101454123Y-104503580D01*
X101452947Y-104417233D01*
X101451975Y-104315354D01*
X101451194Y-104196536D01*
X101450593Y-104059376D01*
X101450159Y-103902468D01*
X101449880Y-103724407D01*
X101449744Y-103523787D01*
X101449739Y-103299205D01*
X101449852Y-103049253D01*
X101450071Y-102772529D01*
X101450385Y-102467625D01*
X101450780Y-102133138D01*
X101451245Y-101767663D01*
X101451768Y-101369793D01*
X101452245Y-100984455D01*
X101452664Y-100611600D01*
X101453044Y-100269858D01*
X101453433Y-99957851D01*
X101453876Y-99674204D01*
X101454421Y-99417540D01*
X101455113Y-99186484D01*
X101456000Y-98979659D01*
X101457127Y-98795690D01*
X101458542Y-98633199D01*
X101460291Y-98490812D01*
X101462420Y-98367152D01*
X101464976Y-98260842D01*
X101468005Y-98170507D01*
X101471555Y-98094770D01*
X101475670Y-98032256D01*
X101480399Y-97981588D01*
X101485787Y-97941391D01*
X101491881Y-97910287D01*
X101498727Y-97886902D01*
X101506373Y-97869858D01*
X101514864Y-97857780D01*
X101524247Y-97849292D01*
X101534568Y-97843017D01*
X101545875Y-97837579D01*
X101558213Y-97831603D01*
X101571629Y-97823712D01*
X101578773Y-97818986D01*
X101595727Y-97808858D01*
X101614484Y-97801015D01*
X101639043Y-97795213D01*
X101673404Y-97791211D01*
X101721565Y-97788765D01*
X101787526Y-97787633D01*
X101875286Y-97787571D01*
X101988845Y-97788338D01*
G37*
G36*
X106049320Y-92533134D02*
G01*
X106230577Y-92537260D01*
X106409123Y-92544112D01*
X106577451Y-92553508D01*
X106728054Y-92565268D01*
X106853427Y-92579212D01*
X107295126Y-92652357D01*
X107782891Y-92764369D01*
X108268175Y-92909084D01*
X108752965Y-93087033D01*
X108915148Y-93153736D01*
X109165198Y-93262755D01*
X109407065Y-93375517D01*
X109634601Y-93489021D01*
X109841659Y-93600268D01*
X110022089Y-93706258D01*
X110115597Y-93767401D01*
X110298453Y-93903114D01*
X110483774Y-94059953D01*
X110664495Y-94231410D01*
X110833550Y-94410978D01*
X110983875Y-94592149D01*
X111084657Y-94731628D01*
X111195111Y-94904288D01*
X111298058Y-95085510D01*
X111389264Y-95267320D01*
X111464494Y-95441742D01*
X111519511Y-95600801D01*
X111523797Y-95615423D01*
X111541922Y-95676990D01*
X111557524Y-95731168D01*
X111570805Y-95780901D01*
X111581968Y-95829130D01*
X111591215Y-95878796D01*
X111598750Y-95932842D01*
X111604776Y-95994209D01*
X111609494Y-96065839D01*
X111613108Y-96150674D01*
X111615820Y-96251656D01*
X111617834Y-96371726D01*
X111619352Y-96513827D01*
X111620576Y-96680900D01*
X111621710Y-96875887D01*
X111622956Y-97101730D01*
X111629359Y-98233998D01*
X111815474Y-98349845D01*
X112008855Y-98479713D01*
X112260054Y-98678070D01*
X112493095Y-98896895D01*
X112700570Y-99129660D01*
X112742442Y-99182385D01*
X112941379Y-99464036D01*
X113110307Y-99758618D01*
X113249186Y-100064017D01*
X113357978Y-100378123D01*
X113436643Y-100698823D01*
X113485142Y-101024006D01*
X113503435Y-101351560D01*
X113491485Y-101679373D01*
X113449250Y-102005333D01*
X113376692Y-102327328D01*
X113273772Y-102643247D01*
X113140450Y-102950978D01*
X112976687Y-103248408D01*
X112782444Y-103533427D01*
X112782384Y-103533507D01*
X112595161Y-103761802D01*
X112389296Y-103973094D01*
X112159776Y-104172107D01*
X111901588Y-104363565D01*
X111737392Y-104476897D01*
X111193133Y-104477637D01*
X110648874Y-104478376D01*
X110643291Y-100299966D01*
X110637707Y-96121557D01*
X110601245Y-96003260D01*
X110584221Y-95949925D01*
X110513877Y-95762818D01*
X110428977Y-95586298D01*
X110326306Y-95415393D01*
X110202648Y-95245126D01*
X110054788Y-95070524D01*
X109879511Y-94886612D01*
X109848752Y-94855995D01*
X109711857Y-94724716D01*
X109581811Y-94609868D01*
X109453648Y-94508418D01*
X109322403Y-94417334D01*
X109183108Y-94333583D01*
X109030799Y-94254131D01*
X108860508Y-94175947D01*
X108667270Y-94095998D01*
X108446119Y-94011250D01*
X108183471Y-93916623D01*
X107837783Y-93803207D01*
X107509973Y-93709841D01*
X107195361Y-93635578D01*
X106889268Y-93579468D01*
X106587014Y-93540564D01*
X106283918Y-93517917D01*
X105975302Y-93510578D01*
X105915634Y-93510829D01*
X105685852Y-93517101D01*
X105464231Y-93532585D01*
X105243023Y-93558316D01*
X105014479Y-93595332D01*
X104770852Y-93644669D01*
X104504392Y-93707363D01*
X104466786Y-93716946D01*
X104330021Y-93754785D01*
X104175382Y-93801326D01*
X104008474Y-93854592D01*
X103834899Y-93912606D01*
X103660261Y-93973392D01*
X103490161Y-94034972D01*
X103330204Y-94095369D01*
X103185992Y-94152608D01*
X103063128Y-94204711D01*
X102967214Y-94249701D01*
X102744785Y-94376534D01*
X102514979Y-94536541D01*
X102288801Y-94722986D01*
X102070859Y-94932361D01*
X101994681Y-95013024D01*
X101825082Y-95209784D01*
X101683585Y-95402575D01*
X101567296Y-95596010D01*
X101473318Y-95794700D01*
X101398759Y-96003260D01*
X101362551Y-96121557D01*
X101356725Y-100299966D01*
X101350899Y-104478376D01*
X100812828Y-104478376D01*
X100274757Y-104478376D01*
X100125037Y-104379780D01*
X99957639Y-104263041D01*
X99686266Y-104042377D01*
X99439869Y-103799609D01*
X99219356Y-103535766D01*
X99025638Y-103251876D01*
X98859625Y-102948968D01*
X98811294Y-102846723D01*
X98729624Y-102654333D01*
X98663253Y-102465656D01*
X98607005Y-102266711D01*
X98590887Y-102200489D01*
X98529013Y-101862902D01*
X98499946Y-101524324D01*
X98503048Y-101186962D01*
X98537682Y-100853020D01*
X98603211Y-100524702D01*
X98698998Y-100204215D01*
X98824407Y-99893762D01*
X98978800Y-99595548D01*
X99161540Y-99311779D01*
X99371991Y-99044660D01*
X99609516Y-98796394D01*
X99697029Y-98716320D01*
X99822728Y-98609578D01*
X99952739Y-98507304D01*
X100080261Y-98414597D01*
X100198493Y-98336557D01*
X100300632Y-98278282D01*
X100372455Y-98241761D01*
X100372455Y-97195556D01*
X100372457Y-97178243D01*
X100372813Y-96948397D01*
X100373770Y-96738917D01*
X100375299Y-96551721D01*
X100377371Y-96388727D01*
X100379955Y-96251855D01*
X100383024Y-96143024D01*
X100386546Y-96064152D01*
X100390494Y-96017157D01*
X100411470Y-95888609D01*
X100482029Y-95604772D01*
X100585001Y-95323754D01*
X100719431Y-95047390D01*
X100884364Y-94777517D01*
X101078847Y-94515971D01*
X101301923Y-94264586D01*
X101328635Y-94237150D01*
X101492356Y-94079834D01*
X101663963Y-93934146D01*
X101847709Y-93797277D01*
X102047843Y-93666417D01*
X102268617Y-93538757D01*
X102514282Y-93411488D01*
X102789089Y-93281801D01*
X102963390Y-93204500D01*
X103390427Y-93030595D01*
X103807062Y-92884075D01*
X104218019Y-92763641D01*
X104628024Y-92667993D01*
X105041804Y-92595829D01*
X105464084Y-92545851D01*
X105564349Y-92538905D01*
X105708700Y-92533776D01*
X105872859Y-92531912D01*
X106049320Y-92533134D01*
G37*
G36*
X106951619Y-95380831D02*
G01*
X106899767Y-95476137D01*
X106837602Y-95590160D01*
X106767344Y-95718835D01*
X106691212Y-95858095D01*
X106611425Y-96003875D01*
X106530202Y-96152108D01*
X106152096Y-96841741D01*
X106152096Y-97861377D01*
X106152015Y-98039372D01*
X106151859Y-98227466D01*
X106151916Y-98386246D01*
X106152480Y-98518177D01*
X106153843Y-98625720D01*
X106156300Y-98711340D01*
X106160143Y-98777499D01*
X106165666Y-98826660D01*
X106173162Y-98861287D01*
X106182924Y-98883842D01*
X106195246Y-98896788D01*
X106210421Y-98902590D01*
X106228743Y-98903709D01*
X106250505Y-98902608D01*
X106276000Y-98901752D01*
X106293967Y-98902224D01*
X106380849Y-98911572D01*
X106484065Y-98930775D01*
X106591863Y-98957050D01*
X106692491Y-98987616D01*
X106774195Y-99019691D01*
X106859765Y-99064967D01*
X106952889Y-99134925D01*
X107016535Y-99215223D01*
X107053023Y-99309054D01*
X107064671Y-99419609D01*
X107064588Y-99431224D01*
X107058643Y-99501941D01*
X107040310Y-99561804D01*
X107005404Y-99617808D01*
X106949734Y-99676946D01*
X106869113Y-99746215D01*
X106868722Y-99746533D01*
X106815656Y-99790058D01*
X106785431Y-99817799D01*
X106774655Y-99835225D01*
X106777877Y-99842905D01*
X106779932Y-99847803D01*
X106797869Y-99861002D01*
X106813465Y-99872122D01*
X106862377Y-99912830D01*
X106917657Y-99964593D01*
X106971197Y-100019268D01*
X107014889Y-100068712D01*
X107040624Y-100104783D01*
X107041902Y-100107294D01*
X107058481Y-100165291D01*
X107063830Y-100238651D01*
X107057939Y-100311743D01*
X107040797Y-100368936D01*
X107022862Y-100395688D01*
X106980471Y-100444563D01*
X106924730Y-100500360D01*
X106863531Y-100555300D01*
X106804766Y-100601601D01*
X106756106Y-100636503D01*
X106776843Y-100652795D01*
X106861656Y-100719428D01*
X106887188Y-100739927D01*
X106969801Y-100815942D01*
X107024713Y-100887067D01*
X107055233Y-100958452D01*
X107064671Y-101035244D01*
X107058014Y-101099259D01*
X107025361Y-101184536D01*
X106963563Y-101268071D01*
X106870496Y-101353346D01*
X106867015Y-101356130D01*
X106821748Y-101393552D01*
X106789674Y-101422275D01*
X106777543Y-101436280D01*
X106777583Y-101436338D01*
X106781332Y-101441818D01*
X106804779Y-101466279D01*
X106844887Y-101504775D01*
X106896116Y-101551906D01*
X106920993Y-101574944D01*
X106973995Y-101627791D01*
X107016101Y-101674814D01*
X107039896Y-101707964D01*
X107056682Y-101756029D01*
X107066000Y-101831567D01*
X107061435Y-101908072D01*
X107042811Y-101969733D01*
X107036777Y-101980150D01*
X106998141Y-102030497D01*
X106942446Y-102089005D01*
X106878397Y-102147039D01*
X106814699Y-102195965D01*
X106763409Y-102231073D01*
X106759072Y-102234042D01*
X106831599Y-102280126D01*
X106849001Y-102291725D01*
X106929175Y-102358950D01*
X106997460Y-102437713D01*
X107043802Y-102516801D01*
X107059718Y-102570332D01*
X107068119Y-102662095D01*
X107059682Y-102757768D01*
X107034814Y-102842594D01*
X107003491Y-102900920D01*
X106924104Y-102993745D01*
X106816209Y-103069092D01*
X106680191Y-103126773D01*
X106516432Y-103166603D01*
X106325316Y-103188392D01*
X106152096Y-103199148D01*
X106152096Y-104219002D01*
X106152096Y-105238855D01*
X106633733Y-105238855D01*
X107115370Y-105238855D01*
X107115370Y-105365602D01*
X107115370Y-105492348D01*
X106000000Y-105492348D01*
X104884631Y-105492348D01*
X104884631Y-105365602D01*
X104884631Y-105238855D01*
X105383167Y-105238855D01*
X105881704Y-105238855D01*
X105881704Y-104091418D01*
X105881704Y-102943981D01*
X106114072Y-102932640D01*
X106205365Y-102927656D01*
X106329198Y-102918225D01*
X106428571Y-102906268D01*
X106509245Y-102890828D01*
X106576984Y-102870946D01*
X106637550Y-102845666D01*
X106686887Y-102817259D01*
X106749057Y-102763097D01*
X106789904Y-102702238D01*
X106805892Y-102640613D01*
X106793486Y-102584147D01*
X106781448Y-102567336D01*
X106736960Y-102527956D01*
X106673723Y-102487078D01*
X106600923Y-102450270D01*
X106527745Y-102423098D01*
X106509582Y-102417894D01*
X106476891Y-102410130D01*
X106445636Y-102407152D01*
X106408978Y-102409667D01*
X106360079Y-102418384D01*
X106292101Y-102434013D01*
X106198204Y-102457262D01*
X105959022Y-102511353D01*
X105742290Y-102547829D01*
X105552196Y-102565494D01*
X105388034Y-102564382D01*
X105249098Y-102544524D01*
X105134679Y-102505954D01*
X105056748Y-102463009D01*
X104993443Y-102407418D01*
X104955962Y-102340785D01*
X104940015Y-102257636D01*
X104940363Y-102235927D01*
X105207438Y-102235927D01*
X105221633Y-102259743D01*
X105268064Y-102280263D01*
X105285563Y-102284353D01*
X105345393Y-102292158D01*
X105420663Y-102295946D01*
X105505903Y-102296131D01*
X105595642Y-102293123D01*
X105684408Y-102287334D01*
X105766730Y-102279176D01*
X105837139Y-102269059D01*
X105890163Y-102257395D01*
X105920331Y-102244596D01*
X105922172Y-102231073D01*
X105912703Y-102225038D01*
X105869853Y-102212267D01*
X105803049Y-102201242D01*
X105719127Y-102192359D01*
X105624921Y-102186014D01*
X105527265Y-102182604D01*
X105432995Y-102182525D01*
X105348946Y-102186173D01*
X105281952Y-102193945D01*
X105272974Y-102195682D01*
X105224783Y-102213134D01*
X105207438Y-102235927D01*
X104940363Y-102235927D01*
X104940900Y-102202494D01*
X104966669Y-102113637D01*
X105022657Y-102038230D01*
X105107919Y-101977365D01*
X105221513Y-101932135D01*
X105257469Y-101922986D01*
X105307724Y-101915025D01*
X105368425Y-101911335D01*
X105447310Y-101911520D01*
X105552115Y-101915183D01*
X105624560Y-101919237D01*
X105779832Y-101934801D01*
X105935229Y-101960909D01*
X106100623Y-101999403D01*
X106285881Y-102052124D01*
X106428116Y-102095443D01*
X106522475Y-102052268D01*
X106565741Y-102031537D01*
X106645607Y-101988434D01*
X106714991Y-101944981D01*
X106767001Y-101905664D01*
X106794748Y-101874970D01*
X106801959Y-101854194D01*
X106800909Y-101818052D01*
X106799978Y-101816039D01*
X106776962Y-101791029D01*
X106732555Y-101756010D01*
X106674440Y-101716030D01*
X106610300Y-101676138D01*
X106547818Y-101641384D01*
X106494678Y-101616816D01*
X106493003Y-101616167D01*
X106462686Y-101605317D01*
X106435632Y-101599872D01*
X106404701Y-101600646D01*
X106362751Y-101608452D01*
X106302640Y-101624104D01*
X106217226Y-101648415D01*
X106059696Y-101690072D01*
X105857746Y-101731921D01*
X105670240Y-101757334D01*
X105499408Y-101766448D01*
X105347478Y-101759399D01*
X105216680Y-101736323D01*
X105109240Y-101697357D01*
X105027389Y-101642638D01*
X104973354Y-101572300D01*
X104970433Y-101566383D01*
X104940577Y-101473226D01*
X104940580Y-101429276D01*
X105206090Y-101429276D01*
X105214187Y-101450821D01*
X105252196Y-101472521D01*
X105276191Y-101478537D01*
X105331159Y-101486136D01*
X105403714Y-101492325D01*
X105484564Y-101496159D01*
X105558645Y-101497259D01*
X105670684Y-101494496D01*
X105764579Y-101486462D01*
X105836450Y-101473718D01*
X105882418Y-101456823D01*
X105898603Y-101436338D01*
X105886028Y-101425306D01*
X105844430Y-101411316D01*
X105778607Y-101396778D01*
X105693591Y-101382782D01*
X105594411Y-101370417D01*
X105568778Y-101367992D01*
X105478733Y-101364336D01*
X105395363Y-101367768D01*
X105322541Y-101377134D01*
X105264140Y-101391278D01*
X105224032Y-101409044D01*
X105206090Y-101429276D01*
X104940580Y-101429276D01*
X104940584Y-101383347D01*
X104970519Y-101302898D01*
X104988702Y-101275057D01*
X105033395Y-101224047D01*
X105091071Y-101183571D01*
X105171923Y-101145673D01*
X105180166Y-101142341D01*
X105223147Y-101127187D01*
X105266803Y-101117255D01*
X105319408Y-101111578D01*
X105389238Y-101109189D01*
X105484564Y-101109121D01*
X105572297Y-101111057D01*
X105773511Y-101127328D01*
X105971034Y-101161791D01*
X106179254Y-101216674D01*
X106183291Y-101217888D01*
X106293749Y-101247818D01*
X106381718Y-101263111D01*
X106454877Y-101263874D01*
X106520903Y-101250209D01*
X106587473Y-101222222D01*
X106646689Y-101188629D01*
X106708423Y-101146554D01*
X106760962Y-101104009D01*
X106797487Y-101066555D01*
X106811178Y-101039755D01*
X106810592Y-101034263D01*
X106790503Y-101000262D01*
X106746999Y-100959976D01*
X106687157Y-100917602D01*
X106618051Y-100877337D01*
X106546757Y-100843380D01*
X106480348Y-100819928D01*
X106425901Y-100811177D01*
X106399336Y-100813313D01*
X106339580Y-100823366D01*
X106264597Y-100839783D01*
X106184601Y-100860477D01*
X105941552Y-100921118D01*
X105720892Y-100960389D01*
X105525626Y-100977452D01*
X105355774Y-100972307D01*
X105211358Y-100944954D01*
X105092399Y-100895392D01*
X105069826Y-100881293D01*
X104997530Y-100813764D01*
X104951486Y-100729908D01*
X104935694Y-100637854D01*
X105208256Y-100637854D01*
X105219717Y-100660906D01*
X105264328Y-100685293D01*
X105272166Y-100688183D01*
X105328147Y-100699486D01*
X105407028Y-100706110D01*
X105500031Y-100708047D01*
X105598380Y-100705290D01*
X105693296Y-100697834D01*
X105776001Y-100685672D01*
X105814508Y-100677794D01*
X105866077Y-100664736D01*
X105889039Y-100652795D01*
X105886616Y-100639622D01*
X105862027Y-100622865D01*
X105859891Y-100621792D01*
X105823603Y-100612779D01*
X105762008Y-100605185D01*
X105682480Y-100599194D01*
X105592392Y-100594991D01*
X105499115Y-100592761D01*
X105410023Y-100592691D01*
X105332487Y-100594964D01*
X105273881Y-100599767D01*
X105241576Y-100607283D01*
X105229436Y-100614393D01*
X105208256Y-100637854D01*
X104935694Y-100637854D01*
X104935330Y-100635735D01*
X104939345Y-100590666D01*
X104970586Y-100507898D01*
X105030631Y-100436786D01*
X105116910Y-100379293D01*
X105226854Y-100337383D01*
X105357894Y-100313016D01*
X105379851Y-100311060D01*
X105496664Y-100309349D01*
X105635303Y-100318587D01*
X105787865Y-100337628D01*
X105946448Y-100365330D01*
X106103148Y-100400549D01*
X106250064Y-100442140D01*
X106300674Y-100457940D01*
X106360770Y-100474555D01*
X106403192Y-100481682D01*
X106436625Y-100480508D01*
X106469758Y-100472225D01*
X106494586Y-100463472D01*
X106563896Y-100432254D01*
X106635364Y-100392275D01*
X106702409Y-100348091D01*
X106758448Y-100304259D01*
X106796898Y-100265335D01*
X106811178Y-100235876D01*
X106808004Y-100223642D01*
X106781454Y-100189718D01*
X106733720Y-100149394D01*
X106671789Y-100106905D01*
X106602651Y-100066486D01*
X106533296Y-100032373D01*
X106470713Y-100008799D01*
X106421891Y-100000000D01*
X106403055Y-100001589D01*
X106349829Y-100011482D01*
X106280321Y-100028425D01*
X106204668Y-100050080D01*
X106133450Y-100071469D01*
X105988539Y-100110119D01*
X105856516Y-100136992D01*
X105725303Y-100154307D01*
X105582820Y-100164283D01*
X105531563Y-100166159D01*
X105373654Y-100163874D01*
X105243384Y-100147442D01*
X105138064Y-100116144D01*
X105055005Y-100069260D01*
X104991518Y-100006070D01*
X104980846Y-99991567D01*
X104957826Y-99950661D01*
X104946931Y-99904883D01*
X104944268Y-99844489D01*
X105208531Y-99844489D01*
X105231903Y-99868206D01*
X105281952Y-99884697D01*
X105322914Y-99889131D01*
X105391349Y-99892621D01*
X105474775Y-99894610D01*
X105563444Y-99895056D01*
X105647605Y-99893918D01*
X105717509Y-99891155D01*
X105763407Y-99886727D01*
X105834425Y-99872573D01*
X105888991Y-99857160D01*
X105916938Y-99842905D01*
X105914778Y-99831091D01*
X105885951Y-99820717D01*
X105824239Y-99808549D01*
X105742179Y-99798250D01*
X105647366Y-99790203D01*
X105547395Y-99784795D01*
X105449862Y-99782411D01*
X105362362Y-99783436D01*
X105292490Y-99788255D01*
X105247842Y-99797254D01*
X105213890Y-99818812D01*
X105208531Y-99844489D01*
X104944268Y-99844489D01*
X104944065Y-99839884D01*
X104944334Y-99810561D01*
X104949414Y-99755802D01*
X104964131Y-99714243D01*
X104992670Y-99671382D01*
X104997053Y-99665831D01*
X105057367Y-99610194D01*
X105136316Y-99563778D01*
X105182658Y-99545878D01*
X105299747Y-99520114D01*
X105441127Y-99509927D01*
X105603049Y-99515112D01*
X105781762Y-99535462D01*
X105973517Y-99570772D01*
X106174565Y-99620835D01*
X106178807Y-99622023D01*
X106260438Y-99644034D01*
X106332771Y-99662041D01*
X106388091Y-99674216D01*
X106418686Y-99678730D01*
X106446873Y-99673620D01*
X106501841Y-99653374D01*
X106568859Y-99621993D01*
X106638978Y-99584077D01*
X106703248Y-99544227D01*
X106752717Y-99507043D01*
X106758154Y-99502234D01*
X106793041Y-99466778D01*
X106806417Y-99437386D01*
X106804027Y-99402333D01*
X106794778Y-99370609D01*
X106758688Y-99314428D01*
X106697268Y-99268416D01*
X106607818Y-99230845D01*
X106487639Y-99199988D01*
X106472583Y-99197026D01*
X106387517Y-99183332D01*
X106290724Y-99171403D01*
X106200347Y-99163542D01*
X106174053Y-99161857D01*
X106090247Y-99156007D01*
X106012049Y-99149924D01*
X105953527Y-99144685D01*
X105864804Y-99135691D01*
X105864804Y-97995971D01*
X105864804Y-96856252D01*
X105381047Y-95976997D01*
X105298415Y-95826310D01*
X105216566Y-95676004D01*
X105141439Y-95536972D01*
X105074416Y-95411824D01*
X105037195Y-95341535D01*
X105340918Y-95341535D01*
X105342205Y-95344387D01*
X105356280Y-95370583D01*
X105384240Y-95421086D01*
X105424050Y-95492268D01*
X105473677Y-95580500D01*
X105531088Y-95682153D01*
X105594248Y-95793598D01*
X105847578Y-96239853D01*
X105847741Y-95787791D01*
X105847813Y-95588055D01*
X106154881Y-95588055D01*
X106155113Y-95696296D01*
X106156028Y-95815201D01*
X106160546Y-96251870D01*
X106409814Y-95803254D01*
X106434705Y-95758410D01*
X106494911Y-95649532D01*
X106548666Y-95551744D01*
X106593966Y-95468731D01*
X106628805Y-95404177D01*
X106651179Y-95361767D01*
X106659082Y-95345184D01*
X106656047Y-95343701D01*
X106627451Y-95340556D01*
X106573539Y-95338026D01*
X106500246Y-95336341D01*
X106413508Y-95335728D01*
X106350677Y-95335993D01*
X106264626Y-95337870D01*
X106206567Y-95341812D01*
X106172825Y-95348128D01*
X106159722Y-95357130D01*
X106157899Y-95374772D01*
X106156312Y-95422547D01*
X106155293Y-95495223D01*
X106154881Y-95588055D01*
X105847813Y-95588055D01*
X105847904Y-95335728D01*
X105594411Y-95335728D01*
X105548996Y-95335822D01*
X105466725Y-95336524D01*
X105400727Y-95337799D01*
X105356844Y-95339514D01*
X105340918Y-95341535D01*
X105037195Y-95341535D01*
X105016881Y-95303173D01*
X104970215Y-95213630D01*
X104935801Y-95145806D01*
X104915022Y-95102314D01*
X104909260Y-95085763D01*
X104910770Y-95085119D01*
X104937084Y-95082363D01*
X104992755Y-95079758D01*
X105074163Y-95077324D01*
X105177688Y-95075085D01*
X105299710Y-95073062D01*
X105436609Y-95071278D01*
X105584766Y-95069754D01*
X105740559Y-95068512D01*
X105900370Y-95067576D01*
X106060577Y-95066965D01*
X106217562Y-95066704D01*
X106367704Y-95066814D01*
X106507383Y-95067316D01*
X106632978Y-95068233D01*
X106740871Y-95069588D01*
X106827441Y-95071401D01*
X106889068Y-95073695D01*
X107110603Y-95085442D01*
X107009455Y-95273959D01*
X106990940Y-95308309D01*
X106970947Y-95345184D01*
X106951619Y-95380831D01*
G37*
M02*
