G04 #@! TF.GenerationSoftware,KiCad,Pcbnew,8.0.1*
G04 #@! TF.CreationDate,2025-07-27T10:09:23+02:00*
G04 #@! TF.ProjectId,SVXLink_PiHat_v2,5356584c-696e-46b5-9f50-694861745f76,rev?*
G04 #@! TF.SameCoordinates,Original*
G04 #@! TF.FileFunction,Copper,L2,Bot*
G04 #@! TF.FilePolarity,Positive*
%FSLAX46Y46*%
G04 Gerber Fmt 4.6, Leading zero omitted, Abs format (unit mm)*
G04 Created by KiCad (PCBNEW 8.0.1) date 2025-07-27 10:09:23*
%MOMM*%
%LPD*%
G01*
G04 APERTURE LIST*
G04 Aperture macros list*
%AMRoundRect*
0 Rectangle with rounded corners*
0 $1 Rounding radius*
0 $2 $3 $4 $5 $6 $7 $8 $9 X,Y pos of 4 corners*
0 Add a 4 corners polygon primitive as box body*
4,1,4,$2,$3,$4,$5,$6,$7,$8,$9,$2,$3,0*
0 Add four circle primitives for the rounded corners*
1,1,$1+$1,$2,$3*
1,1,$1+$1,$4,$5*
1,1,$1+$1,$6,$7*
1,1,$1+$1,$8,$9*
0 Add four rect primitives between the rounded corners*
20,1,$1+$1,$2,$3,$4,$5,0*
20,1,$1+$1,$4,$5,$6,$7,0*
20,1,$1+$1,$6,$7,$8,$9,0*
20,1,$1+$1,$8,$9,$2,$3,0*%
G04 Aperture macros list end*
G04 #@! TA.AperFunction,ComponentPad*
%ADD10R,1.700000X1.700000*%
G04 #@! TD*
G04 #@! TA.AperFunction,ComponentPad*
%ADD11O,1.700000X1.700000*%
G04 #@! TD*
G04 #@! TA.AperFunction,ComponentPad*
%ADD12C,2.000000*%
G04 #@! TD*
G04 #@! TA.AperFunction,ComponentPad*
%ADD13C,2.700000*%
G04 #@! TD*
G04 #@! TA.AperFunction,ComponentPad*
%ADD14R,1.600000X1.600000*%
G04 #@! TD*
G04 #@! TA.AperFunction,ComponentPad*
%ADD15O,1.600000X1.600000*%
G04 #@! TD*
G04 #@! TA.AperFunction,SMDPad,CuDef*
%ADD16RoundRect,0.225000X-0.375000X0.225000X-0.375000X-0.225000X0.375000X-0.225000X0.375000X0.225000X0*%
G04 #@! TD*
G04 #@! TA.AperFunction,ViaPad*
%ADD17C,0.800000*%
G04 #@! TD*
G04 #@! TA.AperFunction,Conductor*
%ADD18C,0.250000*%
G04 #@! TD*
G04 APERTURE END LIST*
D10*
X85400000Y-60350000D03*
D11*
X85400000Y-57810000D03*
X87940000Y-60350000D03*
X87940000Y-57810000D03*
X90480000Y-60350000D03*
X90480000Y-57810000D03*
X93020000Y-60350000D03*
X93020000Y-57810000D03*
X95560000Y-60350000D03*
X95560000Y-57810000D03*
X98100000Y-60350000D03*
X98100000Y-57810000D03*
X100640000Y-60350000D03*
X100640000Y-57810000D03*
X103180000Y-60350000D03*
X103180000Y-57810000D03*
X105720000Y-60350000D03*
X105720000Y-57810000D03*
X108260000Y-60350000D03*
X108260000Y-57810000D03*
X110800000Y-60350000D03*
X110800000Y-57810000D03*
X113340000Y-60350000D03*
X113340000Y-57810000D03*
X115880000Y-60350000D03*
X115880000Y-57810000D03*
X118420000Y-60350000D03*
X118420000Y-57810000D03*
X120960000Y-60350000D03*
X120960000Y-57810000D03*
X123500000Y-60350000D03*
X123500000Y-57810000D03*
X126040000Y-60350000D03*
X126040000Y-57810000D03*
X128580000Y-60350000D03*
X128580000Y-57810000D03*
X131120000Y-60350000D03*
X131120000Y-57810000D03*
X133660000Y-60350000D03*
X133660000Y-57810000D03*
D12*
X122748400Y-107253600D03*
X122748400Y-109793600D03*
X132908400Y-104713600D03*
X127828400Y-96712600D03*
D13*
X80497700Y-59009300D03*
D12*
X130368400Y-104713600D03*
X117668400Y-107253600D03*
X130368400Y-96712600D03*
X125288400Y-99252600D03*
X125288400Y-102173600D03*
D14*
X86080000Y-102110000D03*
D15*
X86080000Y-104650000D03*
X86080000Y-107190000D03*
X93700000Y-107190000D03*
X93700000Y-104650000D03*
X93700000Y-102110000D03*
D12*
X122748400Y-102173600D03*
X117668400Y-102173600D03*
X125288400Y-104713600D03*
X127828400Y-102173600D03*
D10*
X123650000Y-84210000D03*
D11*
X123650000Y-86750000D03*
D12*
X127828400Y-99252600D03*
X117668400Y-109793600D03*
X122748400Y-99252600D03*
D13*
X80497700Y-108509300D03*
D12*
X117668400Y-99252600D03*
X130368400Y-109793600D03*
X127828400Y-109793600D03*
D13*
X138497700Y-108509300D03*
D12*
X125288400Y-107253600D03*
X120208400Y-109793600D03*
X122748400Y-96712600D03*
X125288400Y-96712600D03*
D10*
X84300000Y-66900000D03*
D11*
X84300000Y-69440000D03*
X84300000Y-71980000D03*
X84300000Y-74520000D03*
X84300000Y-77060000D03*
X84300000Y-79600000D03*
D12*
X132908400Y-102173600D03*
X132908400Y-107253600D03*
X120208400Y-102173600D03*
X127828400Y-107253600D03*
D13*
X138497700Y-59009300D03*
D12*
X127828400Y-104713600D03*
X125288400Y-109793600D03*
X132908400Y-96712600D03*
X130368400Y-107253600D03*
X120208400Y-96712600D03*
X117668400Y-104713600D03*
X130368400Y-102173600D03*
X120208400Y-104713600D03*
X120208400Y-107253600D03*
D10*
X84270000Y-94590000D03*
D11*
X84270000Y-97130000D03*
D10*
X123700000Y-66900000D03*
D11*
X123700000Y-69440000D03*
X123700000Y-71980000D03*
X123700000Y-74520000D03*
X123700000Y-77060000D03*
X123700000Y-79600000D03*
D12*
X122748400Y-104713600D03*
D10*
X84300000Y-84600000D03*
D11*
X84300000Y-87140000D03*
X84300000Y-89680000D03*
D12*
X117668400Y-96712600D03*
X130368400Y-99252600D03*
X120208400Y-99252600D03*
X132908400Y-99252600D03*
X132908400Y-109793600D03*
D16*
X119795400Y-83857500D03*
X119795400Y-87157500D03*
D17*
X110100000Y-71850000D03*
X127750000Y-73300000D03*
X82850000Y-73250000D03*
X91760000Y-62560000D03*
X84530000Y-64030000D03*
X80910000Y-98200000D03*
X133550000Y-75700000D03*
X103140000Y-65250000D03*
X106500000Y-68750000D03*
X126500000Y-63750000D03*
X86050000Y-84600000D03*
X104450000Y-62550000D03*
X82850000Y-68200000D03*
X109500000Y-62550000D03*
X82850000Y-70800000D03*
X82850000Y-65650000D03*
D18*
X82850000Y-73350000D02*
X82855000Y-73345000D01*
X127700000Y-73250000D02*
X82850000Y-73250000D01*
X127750000Y-73300000D02*
X127700000Y-73250000D01*
X129620000Y-71980000D02*
X129850000Y-71750000D01*
X123700000Y-71980000D02*
X129620000Y-71980000D01*
X129850000Y-71750000D02*
X129850000Y-59080000D01*
X129850000Y-59080000D02*
X128580000Y-57810000D01*
X135150000Y-58200000D02*
X134760000Y-57810000D01*
X123700000Y-77060000D02*
X134890000Y-77060000D01*
X134760000Y-57810000D02*
X133660000Y-57810000D01*
X135150000Y-76800000D02*
X135150000Y-58200000D01*
X134890000Y-77060000D02*
X135150000Y-76800000D01*
X117668400Y-84231600D02*
X118042500Y-83857500D01*
X86342500Y-83857500D02*
X86050000Y-84150000D01*
X119802900Y-83850000D02*
X123290000Y-83850000D01*
X119795400Y-83857500D02*
X119802900Y-83850000D01*
X118042500Y-83857500D02*
X119795400Y-83857500D01*
X123290000Y-83850000D02*
X123650000Y-84210000D01*
X117668400Y-96712600D02*
X117668400Y-84231600D01*
X119795400Y-83857500D02*
X86342500Y-83857500D01*
X86050000Y-84150000D02*
X86050000Y-84600000D01*
X104450000Y-67850000D02*
X104450000Y-62550000D01*
X82850000Y-68200000D02*
X104100000Y-68200000D01*
X104100000Y-68200000D02*
X104450000Y-67850000D01*
X109500000Y-62700000D02*
X109500000Y-70395000D01*
X109500000Y-70395000D02*
X109195000Y-70700000D01*
X109195000Y-70700000D02*
X82855000Y-70700000D01*
X82855000Y-70805000D02*
X82850000Y-70800000D01*
X132350000Y-58650000D02*
X131510000Y-57810000D01*
X132130000Y-74520000D02*
X132350000Y-74300000D01*
X123700000Y-74520000D02*
X132130000Y-74520000D01*
X131510000Y-57810000D02*
X131120000Y-57810000D01*
X132350000Y-74300000D02*
X132350000Y-58650000D01*
X82900000Y-65700000D02*
X82850000Y-65650000D01*
X82850000Y-65650000D02*
X82800000Y-65700000D01*
X101815000Y-65435000D02*
X101550000Y-65700000D01*
X101550000Y-65700000D02*
X82900000Y-65700000D01*
X103180000Y-57810000D02*
X101815000Y-59175000D01*
X101815000Y-59175000D02*
X101815000Y-65435000D01*
X123700000Y-69440000D02*
X122490000Y-69440000D01*
X122200000Y-59110000D02*
X123500000Y-57810000D01*
X122490000Y-69440000D02*
X122200000Y-69150000D01*
X122200000Y-69150000D02*
X122200000Y-59110000D01*
X119795400Y-87157500D02*
X123242500Y-87157500D01*
X123242500Y-87157500D02*
X123650000Y-86750000D01*
X84300000Y-77060000D02*
X82410000Y-77060000D01*
X82125000Y-63085000D02*
X82310000Y-62900000D01*
X82410000Y-77060000D02*
X82125000Y-76775000D01*
X90480000Y-62680000D02*
X90480000Y-60350000D01*
X82125000Y-76775000D02*
X82125000Y-63085000D01*
X82310000Y-62900000D02*
X90260000Y-62900000D01*
X90260000Y-62900000D02*
X90480000Y-62680000D01*
G04 #@! TA.AperFunction,Conductor*
G36*
X119742475Y-99445593D02*
G01*
X119808301Y-99559607D01*
X119901393Y-99652699D01*
X120015407Y-99718525D01*
X120078990Y-99735562D01*
X119338342Y-100476209D01*
X119385168Y-100512655D01*
X119385170Y-100512656D01*
X119542510Y-100597804D01*
X119592101Y-100647023D01*
X119607209Y-100715240D01*
X119583039Y-100780796D01*
X119530952Y-100821418D01*
X119521435Y-100825360D01*
X119318989Y-100949420D01*
X119318986Y-100949421D01*
X119138431Y-101103631D01*
X119055444Y-101200797D01*
X119032690Y-101227438D01*
X118974183Y-101265631D01*
X118904315Y-101266129D01*
X118845269Y-101228776D01*
X118844110Y-101227438D01*
X118821358Y-101200799D01*
X118738369Y-101103631D01*
X118584808Y-100972477D01*
X118557813Y-100949421D01*
X118557810Y-100949420D01*
X118355363Y-100825360D01*
X118345850Y-100821419D01*
X118291448Y-100777576D01*
X118269385Y-100711281D01*
X118286666Y-100643583D01*
X118334289Y-100597804D01*
X118491628Y-100512657D01*
X118491631Y-100512655D01*
X118538456Y-100476209D01*
X117797809Y-99735562D01*
X117861393Y-99718525D01*
X117975407Y-99652699D01*
X118068499Y-99559607D01*
X118134325Y-99445593D01*
X118151362Y-99382010D01*
X118891833Y-100122481D01*
X118925611Y-100118979D01*
X118951194Y-100118980D01*
X118984964Y-100122482D01*
X119725437Y-99382009D01*
X119742475Y-99445593D01*
G37*
G04 #@! TD.AperFunction*
G04 #@! TA.AperFunction,Conductor*
G36*
X122282475Y-99445593D02*
G01*
X122348301Y-99559607D01*
X122441393Y-99652699D01*
X122555407Y-99718525D01*
X122618990Y-99735562D01*
X121878342Y-100476209D01*
X121925168Y-100512655D01*
X121925170Y-100512656D01*
X122082510Y-100597804D01*
X122132101Y-100647023D01*
X122147209Y-100715240D01*
X122123039Y-100780796D01*
X122070952Y-100821418D01*
X122061435Y-100825360D01*
X121858989Y-100949420D01*
X121858986Y-100949421D01*
X121678431Y-101103631D01*
X121595444Y-101200797D01*
X121572690Y-101227438D01*
X121514183Y-101265631D01*
X121444315Y-101266129D01*
X121385269Y-101228776D01*
X121384110Y-101227438D01*
X121361358Y-101200799D01*
X121278369Y-101103631D01*
X121124808Y-100972477D01*
X121097813Y-100949421D01*
X121097810Y-100949420D01*
X120895363Y-100825360D01*
X120885850Y-100821419D01*
X120831448Y-100777576D01*
X120809385Y-100711281D01*
X120826666Y-100643583D01*
X120874289Y-100597804D01*
X121031628Y-100512657D01*
X121031631Y-100512655D01*
X121078456Y-100476209D01*
X120337809Y-99735562D01*
X120401393Y-99718525D01*
X120515407Y-99652699D01*
X120608499Y-99559607D01*
X120674325Y-99445593D01*
X120691362Y-99382010D01*
X121431833Y-100122481D01*
X121465611Y-100118979D01*
X121491194Y-100118980D01*
X121524964Y-100122482D01*
X122265437Y-99382009D01*
X122282475Y-99445593D01*
G37*
G04 #@! TD.AperFunction*
G04 #@! TA.AperFunction,Conductor*
G36*
X124822475Y-99445593D02*
G01*
X124888301Y-99559607D01*
X124981393Y-99652699D01*
X125095407Y-99718525D01*
X125158990Y-99735562D01*
X124418342Y-100476209D01*
X124465168Y-100512655D01*
X124465170Y-100512656D01*
X124622510Y-100597804D01*
X124672101Y-100647023D01*
X124687209Y-100715240D01*
X124663039Y-100780796D01*
X124610952Y-100821418D01*
X124601435Y-100825360D01*
X124398989Y-100949420D01*
X124398986Y-100949421D01*
X124218431Y-101103631D01*
X124135444Y-101200797D01*
X124112690Y-101227438D01*
X124054183Y-101265631D01*
X123984315Y-101266129D01*
X123925269Y-101228776D01*
X123924110Y-101227438D01*
X123901358Y-101200799D01*
X123818369Y-101103631D01*
X123664808Y-100972477D01*
X123637813Y-100949421D01*
X123637810Y-100949420D01*
X123435363Y-100825360D01*
X123425850Y-100821419D01*
X123371448Y-100777576D01*
X123349385Y-100711281D01*
X123366666Y-100643583D01*
X123414289Y-100597804D01*
X123571628Y-100512657D01*
X123571631Y-100512655D01*
X123618456Y-100476209D01*
X122877809Y-99735562D01*
X122941393Y-99718525D01*
X123055407Y-99652699D01*
X123148499Y-99559607D01*
X123214325Y-99445593D01*
X123231362Y-99382010D01*
X123971833Y-100122481D01*
X124005611Y-100118979D01*
X124031194Y-100118980D01*
X124064964Y-100122482D01*
X124805437Y-99382009D01*
X124822475Y-99445593D01*
G37*
G04 #@! TD.AperFunction*
G04 #@! TA.AperFunction,Conductor*
G36*
X127362475Y-99445593D02*
G01*
X127428301Y-99559607D01*
X127521393Y-99652699D01*
X127635407Y-99718525D01*
X127698990Y-99735562D01*
X126958342Y-100476209D01*
X127005168Y-100512655D01*
X127005170Y-100512656D01*
X127162510Y-100597804D01*
X127212101Y-100647023D01*
X127227209Y-100715240D01*
X127203039Y-100780796D01*
X127150952Y-100821418D01*
X127141435Y-100825360D01*
X126938989Y-100949420D01*
X126938986Y-100949421D01*
X126758431Y-101103631D01*
X126675444Y-101200797D01*
X126652690Y-101227438D01*
X126594183Y-101265631D01*
X126524315Y-101266129D01*
X126465269Y-101228776D01*
X126464110Y-101227438D01*
X126441358Y-101200799D01*
X126358369Y-101103631D01*
X126204808Y-100972477D01*
X126177813Y-100949421D01*
X126177810Y-100949420D01*
X125975363Y-100825360D01*
X125965850Y-100821419D01*
X125911448Y-100777576D01*
X125889385Y-100711281D01*
X125906666Y-100643583D01*
X125954289Y-100597804D01*
X126111628Y-100512657D01*
X126111631Y-100512655D01*
X126158456Y-100476209D01*
X125417809Y-99735562D01*
X125481393Y-99718525D01*
X125595407Y-99652699D01*
X125688499Y-99559607D01*
X125754325Y-99445593D01*
X125771362Y-99382010D01*
X126511833Y-100122481D01*
X126545611Y-100118979D01*
X126571194Y-100118980D01*
X126604964Y-100122482D01*
X127345437Y-99382009D01*
X127362475Y-99445593D01*
G37*
G04 #@! TD.AperFunction*
G04 #@! TA.AperFunction,Conductor*
G36*
X129902475Y-99445593D02*
G01*
X129968301Y-99559607D01*
X130061393Y-99652699D01*
X130175407Y-99718525D01*
X130238990Y-99735562D01*
X129498342Y-100476209D01*
X129545168Y-100512655D01*
X129545170Y-100512656D01*
X129702510Y-100597804D01*
X129752101Y-100647023D01*
X129767209Y-100715240D01*
X129743039Y-100780796D01*
X129690952Y-100821418D01*
X129681435Y-100825360D01*
X129478989Y-100949420D01*
X129478986Y-100949421D01*
X129298431Y-101103631D01*
X129215444Y-101200797D01*
X129192690Y-101227438D01*
X129134183Y-101265631D01*
X129064315Y-101266129D01*
X129005269Y-101228776D01*
X129004110Y-101227438D01*
X128981358Y-101200799D01*
X128898369Y-101103631D01*
X128744808Y-100972477D01*
X128717813Y-100949421D01*
X128717810Y-100949420D01*
X128515363Y-100825360D01*
X128505850Y-100821419D01*
X128451448Y-100777576D01*
X128429385Y-100711281D01*
X128446666Y-100643583D01*
X128494289Y-100597804D01*
X128651628Y-100512657D01*
X128651631Y-100512655D01*
X128698456Y-100476209D01*
X127957809Y-99735562D01*
X128021393Y-99718525D01*
X128135407Y-99652699D01*
X128228499Y-99559607D01*
X128294325Y-99445593D01*
X128311362Y-99382010D01*
X129051833Y-100122481D01*
X129085611Y-100118979D01*
X129111194Y-100118980D01*
X129144964Y-100122482D01*
X129885437Y-99382009D01*
X129902475Y-99445593D01*
G37*
G04 #@! TD.AperFunction*
G04 #@! TA.AperFunction,Conductor*
G36*
X132442475Y-99445593D02*
G01*
X132508301Y-99559607D01*
X132601393Y-99652699D01*
X132715407Y-99718525D01*
X132778990Y-99735562D01*
X132038342Y-100476209D01*
X132085168Y-100512655D01*
X132085170Y-100512656D01*
X132242510Y-100597804D01*
X132292101Y-100647023D01*
X132307209Y-100715240D01*
X132283039Y-100780796D01*
X132230952Y-100821418D01*
X132221435Y-100825360D01*
X132018989Y-100949420D01*
X132018986Y-100949421D01*
X131838431Y-101103631D01*
X131755444Y-101200797D01*
X131732690Y-101227438D01*
X131674183Y-101265631D01*
X131604315Y-101266129D01*
X131545269Y-101228776D01*
X131544110Y-101227438D01*
X131521358Y-101200799D01*
X131438369Y-101103631D01*
X131284808Y-100972477D01*
X131257813Y-100949421D01*
X131257810Y-100949420D01*
X131055363Y-100825360D01*
X131045850Y-100821419D01*
X130991448Y-100777576D01*
X130969385Y-100711281D01*
X130986666Y-100643583D01*
X131034289Y-100597804D01*
X131191628Y-100512657D01*
X131191631Y-100512655D01*
X131238456Y-100476209D01*
X130497809Y-99735562D01*
X130561393Y-99718525D01*
X130675407Y-99652699D01*
X130768499Y-99559607D01*
X130834325Y-99445593D01*
X130851362Y-99382010D01*
X131591833Y-100122481D01*
X131625611Y-100118979D01*
X131651194Y-100118980D01*
X131684964Y-100122482D01*
X132425437Y-99382009D01*
X132442475Y-99445593D01*
G37*
G04 #@! TD.AperFunction*
G04 #@! TA.AperFunction,Conductor*
G36*
X119031531Y-97657423D02*
G01*
X119032600Y-97658657D01*
X119138431Y-97782569D01*
X119138434Y-97782572D01*
X119295738Y-97916922D01*
X119333932Y-97975428D01*
X119338969Y-98018897D01*
X119338342Y-98028990D01*
X120078990Y-98769637D01*
X120015407Y-98786675D01*
X119901393Y-98852501D01*
X119808301Y-98945593D01*
X119742475Y-99059607D01*
X119725437Y-99123190D01*
X118984962Y-98382715D01*
X118951194Y-98386218D01*
X118925611Y-98386218D01*
X118891835Y-98382715D01*
X118151362Y-99123189D01*
X118134325Y-99059607D01*
X118068499Y-98945593D01*
X117975407Y-98852501D01*
X117861393Y-98786675D01*
X117797810Y-98769637D01*
X118538456Y-98028990D01*
X118537830Y-98018898D01*
X118553322Y-97950768D01*
X118581058Y-97916925D01*
X118738369Y-97782569D01*
X118844111Y-97658760D01*
X118902616Y-97620568D01*
X118972484Y-97620069D01*
X119031531Y-97657423D01*
G37*
G04 #@! TD.AperFunction*
G04 #@! TA.AperFunction,Conductor*
G36*
X121571531Y-97657423D02*
G01*
X121572600Y-97658657D01*
X121678431Y-97782569D01*
X121678434Y-97782572D01*
X121835738Y-97916922D01*
X121873932Y-97975428D01*
X121878969Y-98018897D01*
X121878342Y-98028990D01*
X122618990Y-98769637D01*
X122555407Y-98786675D01*
X122441393Y-98852501D01*
X122348301Y-98945593D01*
X122282475Y-99059607D01*
X122265437Y-99123190D01*
X121524962Y-98382715D01*
X121491194Y-98386218D01*
X121465611Y-98386218D01*
X121431835Y-98382715D01*
X120691362Y-99123189D01*
X120674325Y-99059607D01*
X120608499Y-98945593D01*
X120515407Y-98852501D01*
X120401393Y-98786675D01*
X120337810Y-98769637D01*
X121078456Y-98028990D01*
X121077830Y-98018898D01*
X121093322Y-97950768D01*
X121121058Y-97916925D01*
X121278369Y-97782569D01*
X121384111Y-97658760D01*
X121442616Y-97620568D01*
X121512484Y-97620069D01*
X121571531Y-97657423D01*
G37*
G04 #@! TD.AperFunction*
G04 #@! TA.AperFunction,Conductor*
G36*
X124111531Y-97657423D02*
G01*
X124112600Y-97658657D01*
X124218431Y-97782569D01*
X124218434Y-97782572D01*
X124375738Y-97916922D01*
X124413932Y-97975428D01*
X124418969Y-98018897D01*
X124418342Y-98028990D01*
X125158990Y-98769637D01*
X125095407Y-98786675D01*
X124981393Y-98852501D01*
X124888301Y-98945593D01*
X124822475Y-99059607D01*
X124805437Y-99123190D01*
X124064962Y-98382715D01*
X124031194Y-98386218D01*
X124005611Y-98386218D01*
X123971835Y-98382715D01*
X123231362Y-99123189D01*
X123214325Y-99059607D01*
X123148499Y-98945593D01*
X123055407Y-98852501D01*
X122941393Y-98786675D01*
X122877810Y-98769637D01*
X123618456Y-98028990D01*
X123617830Y-98018898D01*
X123633322Y-97950768D01*
X123661058Y-97916925D01*
X123818369Y-97782569D01*
X123924111Y-97658760D01*
X123982616Y-97620568D01*
X124052484Y-97620069D01*
X124111531Y-97657423D01*
G37*
G04 #@! TD.AperFunction*
G04 #@! TA.AperFunction,Conductor*
G36*
X126651531Y-97657423D02*
G01*
X126652600Y-97658657D01*
X126758431Y-97782569D01*
X126758434Y-97782572D01*
X126915738Y-97916922D01*
X126953932Y-97975428D01*
X126958969Y-98018897D01*
X126958342Y-98028990D01*
X127698990Y-98769637D01*
X127635407Y-98786675D01*
X127521393Y-98852501D01*
X127428301Y-98945593D01*
X127362475Y-99059607D01*
X127345437Y-99123190D01*
X126604962Y-98382715D01*
X126571194Y-98386218D01*
X126545611Y-98386218D01*
X126511835Y-98382715D01*
X125771362Y-99123189D01*
X125754325Y-99059607D01*
X125688499Y-98945593D01*
X125595407Y-98852501D01*
X125481393Y-98786675D01*
X125417810Y-98769637D01*
X126158456Y-98028990D01*
X126157830Y-98018898D01*
X126173322Y-97950768D01*
X126201058Y-97916925D01*
X126358369Y-97782569D01*
X126464111Y-97658760D01*
X126522616Y-97620568D01*
X126592484Y-97620069D01*
X126651531Y-97657423D01*
G37*
G04 #@! TD.AperFunction*
G04 #@! TA.AperFunction,Conductor*
G36*
X129191531Y-97657423D02*
G01*
X129192600Y-97658657D01*
X129298431Y-97782569D01*
X129298434Y-97782572D01*
X129455738Y-97916922D01*
X129493932Y-97975428D01*
X129498969Y-98018897D01*
X129498342Y-98028990D01*
X130238990Y-98769637D01*
X130175407Y-98786675D01*
X130061393Y-98852501D01*
X129968301Y-98945593D01*
X129902475Y-99059607D01*
X129885437Y-99123190D01*
X129144962Y-98382715D01*
X129111194Y-98386218D01*
X129085611Y-98386218D01*
X129051835Y-98382715D01*
X128311362Y-99123189D01*
X128294325Y-99059607D01*
X128228499Y-98945593D01*
X128135407Y-98852501D01*
X128021393Y-98786675D01*
X127957810Y-98769637D01*
X128698456Y-98028990D01*
X128697830Y-98018898D01*
X128713322Y-97950768D01*
X128741058Y-97916925D01*
X128898369Y-97782569D01*
X129004111Y-97658760D01*
X129062616Y-97620568D01*
X129132484Y-97620069D01*
X129191531Y-97657423D01*
G37*
G04 #@! TD.AperFunction*
G04 #@! TA.AperFunction,Conductor*
G36*
X131731531Y-97657423D02*
G01*
X131732600Y-97658657D01*
X131838431Y-97782569D01*
X131838434Y-97782572D01*
X131995738Y-97916922D01*
X132033932Y-97975428D01*
X132038969Y-98018897D01*
X132038342Y-98028990D01*
X132778990Y-98769637D01*
X132715407Y-98786675D01*
X132601393Y-98852501D01*
X132508301Y-98945593D01*
X132442475Y-99059607D01*
X132425437Y-99123190D01*
X131684962Y-98382715D01*
X131651194Y-98386218D01*
X131625611Y-98386218D01*
X131591835Y-98382715D01*
X130851362Y-99123189D01*
X130834325Y-99059607D01*
X130768499Y-98945593D01*
X130675407Y-98852501D01*
X130561393Y-98786675D01*
X130497810Y-98769637D01*
X131238456Y-98028990D01*
X131237830Y-98018898D01*
X131253322Y-97950768D01*
X131281058Y-97916925D01*
X131438369Y-97782569D01*
X131544111Y-97658760D01*
X131602616Y-97620568D01*
X131672484Y-97620069D01*
X131731531Y-97657423D01*
G37*
G04 #@! TD.AperFunction*
G04 #@! TA.AperFunction,Conductor*
G36*
X89789539Y-61995685D02*
G01*
X89835294Y-62048489D01*
X89846500Y-62100000D01*
X89846500Y-62142500D01*
X89826815Y-62209539D01*
X89774011Y-62255294D01*
X89722500Y-62266500D01*
X82247601Y-62266500D01*
X82125221Y-62290843D01*
X82125210Y-62290846D01*
X82112372Y-62296165D01*
X82112367Y-62296167D01*
X82009931Y-62338595D01*
X82009919Y-62338602D01*
X81906168Y-62407926D01*
X81813668Y-62500426D01*
X81721167Y-62592929D01*
X81696490Y-62617606D01*
X81632927Y-62681168D01*
X81563603Y-62784918D01*
X81563598Y-62784927D01*
X81515845Y-62900214D01*
X81515843Y-62900222D01*
X81491500Y-63022601D01*
X81491500Y-76837398D01*
X81515843Y-76959777D01*
X81515845Y-76959785D01*
X81563598Y-77075072D01*
X81563603Y-77075081D01*
X81632928Y-77178832D01*
X81632931Y-77178836D01*
X82006163Y-77552068D01*
X82006167Y-77552071D01*
X82109918Y-77621396D01*
X82109924Y-77621399D01*
X82109925Y-77621400D01*
X82225215Y-77669155D01*
X82347601Y-77693499D01*
X82347605Y-77693500D01*
X82347606Y-77693500D01*
X82472394Y-77693500D01*
X83024044Y-77693500D01*
X83091083Y-77713185D01*
X83127852Y-77749678D01*
X83224276Y-77897265D01*
X83224284Y-77897276D01*
X83376756Y-78062902D01*
X83376760Y-78062906D01*
X83554424Y-78201189D01*
X83597693Y-78224605D01*
X83597695Y-78224606D01*
X83647286Y-78273825D01*
X83662394Y-78342042D01*
X83638224Y-78407597D01*
X83609802Y-78435236D01*
X83428922Y-78561890D01*
X83428920Y-78561891D01*
X83261891Y-78728920D01*
X83261886Y-78728926D01*
X83126400Y-78922420D01*
X83126399Y-78922422D01*
X83026570Y-79136507D01*
X83026567Y-79136513D01*
X82969364Y-79349999D01*
X82969364Y-79350000D01*
X83866988Y-79350000D01*
X83834075Y-79407007D01*
X83800000Y-79534174D01*
X83800000Y-79665826D01*
X83834075Y-79792993D01*
X83866988Y-79850000D01*
X82969364Y-79850000D01*
X83026567Y-80063486D01*
X83026570Y-80063492D01*
X83126399Y-80277578D01*
X83261894Y-80471082D01*
X83428917Y-80638105D01*
X83622421Y-80773600D01*
X83836507Y-80873429D01*
X83836516Y-80873433D01*
X84050000Y-80930634D01*
X84050000Y-80033012D01*
X84107007Y-80065925D01*
X84234174Y-80100000D01*
X84365826Y-80100000D01*
X84492993Y-80065925D01*
X84550000Y-80033012D01*
X84550000Y-80930633D01*
X84763483Y-80873433D01*
X84763492Y-80873429D01*
X84977578Y-80773600D01*
X85171082Y-80638105D01*
X85338105Y-80471082D01*
X85473600Y-80277578D01*
X85573429Y-80063492D01*
X85573432Y-80063486D01*
X85630636Y-79850000D01*
X84733012Y-79850000D01*
X84765925Y-79792993D01*
X84800000Y-79665826D01*
X84800000Y-79534174D01*
X84765925Y-79407007D01*
X84733012Y-79350000D01*
X85630636Y-79350000D01*
X85630635Y-79349999D01*
X85573432Y-79136513D01*
X85573429Y-79136507D01*
X85473600Y-78922422D01*
X85473599Y-78922420D01*
X85338113Y-78728926D01*
X85338108Y-78728920D01*
X85171082Y-78561894D01*
X84990197Y-78435236D01*
X84946572Y-78380659D01*
X84939380Y-78311160D01*
X84970902Y-78248806D01*
X85002300Y-78224608D01*
X85045576Y-78201189D01*
X85223240Y-78062906D01*
X85375722Y-77897268D01*
X85498860Y-77708791D01*
X85589296Y-77502616D01*
X85644564Y-77284368D01*
X85644565Y-77284359D01*
X85663156Y-77060005D01*
X85663156Y-77059994D01*
X85644565Y-76835640D01*
X85644563Y-76835628D01*
X85641876Y-76825018D01*
X85589296Y-76617384D01*
X85498860Y-76411209D01*
X85495989Y-76406815D01*
X85375723Y-76222734D01*
X85375715Y-76222723D01*
X85223243Y-76057097D01*
X85223238Y-76057092D01*
X85045577Y-75918812D01*
X85045578Y-75918812D01*
X85045576Y-75918811D01*
X85009070Y-75899055D01*
X84959479Y-75849836D01*
X84944371Y-75781619D01*
X84968541Y-75716064D01*
X85009070Y-75680945D01*
X85009084Y-75680936D01*
X85045576Y-75661189D01*
X85223240Y-75522906D01*
X85375722Y-75357268D01*
X85498860Y-75168791D01*
X85589296Y-74962616D01*
X85644564Y-74744368D01*
X85647923Y-74703832D01*
X85663156Y-74520005D01*
X85663156Y-74519994D01*
X85644565Y-74295640D01*
X85644563Y-74295628D01*
X85609837Y-74158500D01*
X85589296Y-74077384D01*
X85580490Y-74057308D01*
X85571589Y-73988008D01*
X85601567Y-73924896D01*
X85660907Y-73888011D01*
X85694047Y-73883500D01*
X122305953Y-73883500D01*
X122372992Y-73903185D01*
X122418747Y-73955989D01*
X122428691Y-74025147D01*
X122419510Y-74057308D01*
X122410703Y-74077386D01*
X122355436Y-74295628D01*
X122355434Y-74295640D01*
X122336844Y-74519994D01*
X122336844Y-74520005D01*
X122355434Y-74744359D01*
X122355436Y-74744371D01*
X122410703Y-74962614D01*
X122501140Y-75168792D01*
X122624276Y-75357265D01*
X122624284Y-75357276D01*
X122776756Y-75522902D01*
X122776760Y-75522906D01*
X122954424Y-75661189D01*
X122954429Y-75661191D01*
X122954431Y-75661193D01*
X122990930Y-75680946D01*
X123040520Y-75730165D01*
X123055628Y-75798382D01*
X123031457Y-75863937D01*
X122990930Y-75899054D01*
X122954431Y-75918806D01*
X122954422Y-75918812D01*
X122776761Y-76057092D01*
X122776756Y-76057097D01*
X122624284Y-76222723D01*
X122624276Y-76222734D01*
X122501140Y-76411207D01*
X122410703Y-76617385D01*
X122355436Y-76835628D01*
X122355434Y-76835640D01*
X122336844Y-77059994D01*
X122336844Y-77060005D01*
X122355434Y-77284359D01*
X122355436Y-77284371D01*
X122410703Y-77502614D01*
X122501140Y-77708792D01*
X122624276Y-77897265D01*
X122624284Y-77897276D01*
X122776756Y-78062902D01*
X122776760Y-78062906D01*
X122954424Y-78201189D01*
X122997693Y-78224605D01*
X122997695Y-78224606D01*
X123047286Y-78273825D01*
X123062394Y-78342042D01*
X123038224Y-78407597D01*
X123009802Y-78435236D01*
X122828922Y-78561890D01*
X122828920Y-78561891D01*
X122661891Y-78728920D01*
X122661886Y-78728926D01*
X122526400Y-78922420D01*
X122526399Y-78922422D01*
X122426570Y-79136507D01*
X122426567Y-79136513D01*
X122369364Y-79349999D01*
X122369364Y-79350000D01*
X123266988Y-79350000D01*
X123234075Y-79407007D01*
X123200000Y-79534174D01*
X123200000Y-79665826D01*
X123234075Y-79792993D01*
X123266988Y-79850000D01*
X122369364Y-79850000D01*
X122426567Y-80063486D01*
X122426570Y-80063492D01*
X122526399Y-80277578D01*
X122661894Y-80471082D01*
X122828917Y-80638105D01*
X123022421Y-80773600D01*
X123236507Y-80873429D01*
X123236516Y-80873433D01*
X123450000Y-80930634D01*
X123450000Y-80033012D01*
X123507007Y-80065925D01*
X123634174Y-80100000D01*
X123765826Y-80100000D01*
X123892993Y-80065925D01*
X123950000Y-80033012D01*
X123950000Y-80930633D01*
X124163483Y-80873433D01*
X124163492Y-80873429D01*
X124377578Y-80773600D01*
X124571082Y-80638105D01*
X124738105Y-80471082D01*
X124873600Y-80277578D01*
X124973429Y-80063492D01*
X124973432Y-80063486D01*
X125030636Y-79850000D01*
X124133012Y-79850000D01*
X124165925Y-79792993D01*
X124200000Y-79665826D01*
X124200000Y-79534174D01*
X124165925Y-79407007D01*
X124133012Y-79350000D01*
X125030636Y-79350000D01*
X125030635Y-79349999D01*
X124973432Y-79136513D01*
X124973429Y-79136507D01*
X124873600Y-78922422D01*
X124873599Y-78922420D01*
X124738113Y-78728926D01*
X124738108Y-78728920D01*
X124571082Y-78561894D01*
X124390197Y-78435236D01*
X124346572Y-78380659D01*
X124339380Y-78311160D01*
X124370902Y-78248806D01*
X124402300Y-78224608D01*
X124445576Y-78201189D01*
X124623240Y-78062906D01*
X124775722Y-77897268D01*
X124829123Y-77815531D01*
X124872148Y-77749678D01*
X124925294Y-77704321D01*
X124975956Y-77693500D01*
X134952395Y-77693500D01*
X134952396Y-77693499D01*
X135074785Y-77669155D01*
X135190075Y-77621400D01*
X135293833Y-77552071D01*
X135642072Y-77203833D01*
X135711401Y-77100075D01*
X135759155Y-76984784D01*
X135763952Y-76960671D01*
X135783500Y-76862394D01*
X135783500Y-61976000D01*
X141974500Y-61976000D01*
X141974500Y-108996753D01*
X141974330Y-109003243D01*
X141958544Y-109304433D01*
X141957187Y-109317340D01*
X141910517Y-109612010D01*
X141907819Y-109624706D01*
X141830600Y-109912892D01*
X141826589Y-109925237D01*
X141719670Y-110203770D01*
X141714391Y-110215627D01*
X141578941Y-110481464D01*
X141572455Y-110492697D01*
X141497422Y-110608238D01*
X141409962Y-110742914D01*
X141402333Y-110753414D01*
X141214570Y-110985282D01*
X141205885Y-110994927D01*
X140994927Y-111205885D01*
X140985282Y-111214570D01*
X140753414Y-111402333D01*
X140742914Y-111409962D01*
X140492697Y-111572455D01*
X140481464Y-111578941D01*
X140215627Y-111714391D01*
X140203770Y-111719670D01*
X139925237Y-111826589D01*
X139912892Y-111830600D01*
X139624706Y-111907819D01*
X139612010Y-111910517D01*
X139317340Y-111957187D01*
X139304433Y-111958544D01*
X139003244Y-111974330D01*
X138996754Y-111974500D01*
X80003246Y-111974500D01*
X79996756Y-111974330D01*
X79695566Y-111958544D01*
X79682659Y-111957187D01*
X79387989Y-111910517D01*
X79375293Y-111907819D01*
X79087107Y-111830600D01*
X79074762Y-111826589D01*
X78796229Y-111719670D01*
X78784372Y-111714391D01*
X78755029Y-111699440D01*
X78518529Y-111578937D01*
X78507310Y-111572460D01*
X78257079Y-111409958D01*
X78246585Y-111402333D01*
X78014717Y-111214570D01*
X78005072Y-111205885D01*
X77794114Y-110994927D01*
X77785429Y-110985282D01*
X77597666Y-110753414D01*
X77590044Y-110742923D01*
X77427535Y-110492683D01*
X77421065Y-110481477D01*
X77285603Y-110215617D01*
X77280334Y-110203781D01*
X77173407Y-109925228D01*
X77169402Y-109912901D01*
X77092176Y-109624690D01*
X77089484Y-109612022D01*
X77045300Y-109333051D01*
X77042812Y-109317340D01*
X77041455Y-109304433D01*
X77025670Y-109003243D01*
X77025500Y-108996753D01*
X77025500Y-108509301D01*
X78634453Y-108509301D01*
X78638884Y-108571253D01*
X78639200Y-108580099D01*
X78639200Y-108631115D01*
X78647398Y-108693392D01*
X78648143Y-108700728D01*
X78653418Y-108774469D01*
X78653419Y-108774479D01*
X78664107Y-108823610D01*
X78665880Y-108833778D01*
X78670998Y-108872649D01*
X78671001Y-108872661D01*
X78690319Y-108944760D01*
X78691710Y-108950493D01*
X78709928Y-109034238D01*
X78723371Y-109070281D01*
X78726963Y-109081516D01*
X78734055Y-109107980D01*
X78767126Y-109187821D01*
X78768746Y-109191940D01*
X78802825Y-109283309D01*
X78802827Y-109283313D01*
X78802829Y-109283316D01*
X78802831Y-109283321D01*
X78815607Y-109306718D01*
X78821330Y-109318680D01*
X78824751Y-109326940D01*
X78827285Y-109333057D01*
X78827286Y-109333058D01*
X78876410Y-109418145D01*
X78877854Y-109420716D01*
X78930237Y-109516647D01*
X78930240Y-109516651D01*
X78939120Y-109528515D01*
X78947229Y-109540806D01*
X78949100Y-109544046D01*
X78949100Y-109544047D01*
X79016108Y-109631374D01*
X79016998Y-109632549D01*
X79089543Y-109729456D01*
X79089561Y-109729477D01*
X79094666Y-109734582D01*
X79094680Y-109734597D01*
X79272761Y-109912679D01*
X79272800Y-109912715D01*
X79277530Y-109917445D01*
X79277532Y-109917447D01*
X79277540Y-109917454D01*
X79374449Y-109989999D01*
X79375546Y-109990830D01*
X79462957Y-110057902D01*
X79462965Y-110057906D01*
X79462967Y-110057908D01*
X79466178Y-110059762D01*
X79478489Y-110067882D01*
X79485082Y-110072817D01*
X79490353Y-110076763D01*
X79490357Y-110076765D01*
X79490363Y-110076769D01*
X79586281Y-110129144D01*
X79588828Y-110130573D01*
X79673943Y-110179715D01*
X79673954Y-110179719D01*
X79673955Y-110179720D01*
X79688304Y-110185663D01*
X79700283Y-110191393D01*
X79723679Y-110204169D01*
X79815039Y-110238244D01*
X79819158Y-110239865D01*
X79899024Y-110272947D01*
X79920720Y-110278759D01*
X79925477Y-110280033D01*
X79936707Y-110283623D01*
X79972763Y-110297072D01*
X79972768Y-110297073D01*
X80056493Y-110315286D01*
X80062229Y-110316677D01*
X80095165Y-110325501D01*
X80134347Y-110336001D01*
X80173212Y-110341117D01*
X80183371Y-110342887D01*
X80232532Y-110353582D01*
X80306278Y-110358855D01*
X80313578Y-110359596D01*
X80375887Y-110367800D01*
X80426900Y-110367800D01*
X80435746Y-110368116D01*
X80497699Y-110372547D01*
X80497700Y-110372547D01*
X80497701Y-110372547D01*
X80559654Y-110368116D01*
X80568500Y-110367800D01*
X80619511Y-110367800D01*
X80619513Y-110367800D01*
X80681824Y-110359596D01*
X80689120Y-110358855D01*
X80762868Y-110353582D01*
X80812023Y-110342888D01*
X80822191Y-110341117D01*
X80861053Y-110336001D01*
X80933166Y-110316677D01*
X80938847Y-110315298D01*
X81022637Y-110297072D01*
X81058706Y-110283618D01*
X81069906Y-110280038D01*
X81096377Y-110272946D01*
X81176262Y-110239855D01*
X81180360Y-110238244D01*
X81271721Y-110204169D01*
X81295114Y-110191394D01*
X81307079Y-110185669D01*
X81321457Y-110179715D01*
X81406564Y-110130577D01*
X81409096Y-110129155D01*
X81505047Y-110076763D01*
X81516905Y-110067886D01*
X81529220Y-110059762D01*
X81532443Y-110057902D01*
X81581123Y-110020547D01*
X81619853Y-109990830D01*
X81620949Y-109989999D01*
X81717867Y-109917448D01*
X81721371Y-109913943D01*
X81721394Y-109913923D01*
X81902324Y-109732994D01*
X81902344Y-109732969D01*
X81905848Y-109729467D01*
X81978410Y-109632534D01*
X81979230Y-109631453D01*
X82046297Y-109544049D01*
X82046302Y-109544043D01*
X82048162Y-109540820D01*
X82056286Y-109528505D01*
X82065158Y-109516654D01*
X82065159Y-109516652D01*
X82065160Y-109516651D01*
X82065163Y-109516647D01*
X82117555Y-109420696D01*
X82118979Y-109418162D01*
X82118989Y-109418145D01*
X82168115Y-109333057D01*
X82174069Y-109318679D01*
X82179800Y-109306703D01*
X82192569Y-109283321D01*
X82226652Y-109191940D01*
X82228265Y-109187839D01*
X82261346Y-109107977D01*
X82268438Y-109081506D01*
X82272018Y-109070306D01*
X82285472Y-109034237D01*
X82303698Y-108950447D01*
X82305082Y-108944747D01*
X82315951Y-108904189D01*
X82324401Y-108872653D01*
X82329519Y-108833778D01*
X82331290Y-108823615D01*
X82331291Y-108823610D01*
X82341982Y-108774468D01*
X82347255Y-108700720D01*
X82347996Y-108693424D01*
X82356200Y-108631113D01*
X82356200Y-108580099D01*
X82356516Y-108571253D01*
X82360947Y-108509301D01*
X82360947Y-108509298D01*
X82356516Y-108447345D01*
X82356200Y-108438499D01*
X82356200Y-108387487D01*
X82348305Y-108327524D01*
X82347996Y-108325178D01*
X82347255Y-108317870D01*
X82341982Y-108244132D01*
X82331287Y-108194971D01*
X82329517Y-108184809D01*
X82324401Y-108145949D01*
X82324401Y-108145947D01*
X82315853Y-108114049D01*
X82305077Y-108073829D01*
X82303686Y-108068093D01*
X82285473Y-107984368D01*
X82285472Y-107984363D01*
X82272023Y-107948307D01*
X82268433Y-107937074D01*
X82261347Y-107910624D01*
X82228265Y-107830758D01*
X82226644Y-107826639D01*
X82192569Y-107735279D01*
X82179793Y-107711883D01*
X82174063Y-107699904D01*
X82168120Y-107685555D01*
X82168118Y-107685551D01*
X82168115Y-107685543D01*
X82118973Y-107600428D01*
X82117544Y-107597881D01*
X82065169Y-107501963D01*
X82065162Y-107501952D01*
X82056282Y-107490089D01*
X82048162Y-107477778D01*
X82046308Y-107474567D01*
X82046306Y-107474565D01*
X82046302Y-107474557D01*
X81979266Y-107387194D01*
X81978399Y-107386049D01*
X81905854Y-107289140D01*
X81905847Y-107289132D01*
X81905845Y-107289130D01*
X81901115Y-107284400D01*
X81901079Y-107284361D01*
X81806718Y-107190001D01*
X84766502Y-107190001D01*
X84786456Y-107418081D01*
X84786457Y-107418089D01*
X84845714Y-107639238D01*
X84845718Y-107639249D01*
X84933109Y-107826660D01*
X84942477Y-107846749D01*
X85073802Y-108034300D01*
X85235700Y-108196198D01*
X85423251Y-108327523D01*
X85548091Y-108385736D01*
X85630750Y-108424281D01*
X85630752Y-108424281D01*
X85630757Y-108424284D01*
X85851913Y-108483543D01*
X86014832Y-108497796D01*
X86079998Y-108503498D01*
X86080000Y-108503498D01*
X86080002Y-108503498D01*
X86137021Y-108498509D01*
X86308087Y-108483543D01*
X86529243Y-108424284D01*
X86736749Y-108327523D01*
X86924300Y-108196198D01*
X87086198Y-108034300D01*
X87217523Y-107846749D01*
X87314284Y-107639243D01*
X87373543Y-107418087D01*
X87393498Y-107190001D01*
X92386502Y-107190001D01*
X92406456Y-107418081D01*
X92406457Y-107418089D01*
X92465714Y-107639238D01*
X92465718Y-107639249D01*
X92553109Y-107826660D01*
X92562477Y-107846749D01*
X92693802Y-108034300D01*
X92855700Y-108196198D01*
X93043251Y-108327523D01*
X93168091Y-108385736D01*
X93250750Y-108424281D01*
X93250752Y-108424281D01*
X93250757Y-108424284D01*
X93471913Y-108483543D01*
X93634832Y-108497796D01*
X93699998Y-108503498D01*
X93700000Y-108503498D01*
X93700002Y-108503498D01*
X93757021Y-108498509D01*
X93928087Y-108483543D01*
X94149243Y-108424284D01*
X94356749Y-108327523D01*
X94544300Y-108196198D01*
X94706198Y-108034300D01*
X94837523Y-107846749D01*
X94934284Y-107639243D01*
X94993543Y-107418087D01*
X95013498Y-107190000D01*
X94993543Y-106961913D01*
X94934284Y-106740757D01*
X94933261Y-106738564D01*
X94837524Y-106533254D01*
X94837523Y-106533252D01*
X94837523Y-106533251D01*
X94706198Y-106345700D01*
X94544300Y-106183802D01*
X94356749Y-106052477D01*
X94313655Y-106032382D01*
X94261215Y-105986210D01*
X94242063Y-105919017D01*
X94262278Y-105852136D01*
X94313655Y-105807618D01*
X94316882Y-105806112D01*
X94356749Y-105787523D01*
X94544300Y-105656198D01*
X94706198Y-105494300D01*
X94837523Y-105306749D01*
X94934284Y-105099243D01*
X94993543Y-104878087D01*
X95013498Y-104650000D01*
X94993543Y-104421913D01*
X94934284Y-104200757D01*
X94837523Y-103993251D01*
X94706198Y-103805700D01*
X94544300Y-103643802D01*
X94356749Y-103512477D01*
X94313655Y-103492382D01*
X94261215Y-103446210D01*
X94242063Y-103379017D01*
X94262278Y-103312136D01*
X94313655Y-103267618D01*
X94316882Y-103266112D01*
X94356749Y-103247523D01*
X94544300Y-103116198D01*
X94706198Y-102954300D01*
X94837523Y-102766749D01*
X94934284Y-102559243D01*
X94993543Y-102338087D01*
X95013498Y-102110000D01*
X94993543Y-101881913D01*
X94934284Y-101660757D01*
X94837523Y-101453251D01*
X94706198Y-101265700D01*
X94544300Y-101103802D01*
X94356749Y-100972477D01*
X94356745Y-100972475D01*
X94149249Y-100875718D01*
X94149238Y-100875714D01*
X93928089Y-100816457D01*
X93928081Y-100816456D01*
X93700002Y-100796502D01*
X93699998Y-100796502D01*
X93471918Y-100816456D01*
X93471910Y-100816457D01*
X93250761Y-100875714D01*
X93250750Y-100875718D01*
X93043254Y-100972475D01*
X93043252Y-100972476D01*
X93043251Y-100972477D01*
X92855700Y-101103802D01*
X92855698Y-101103803D01*
X92855695Y-101103806D01*
X92693806Y-101265695D01*
X92693803Y-101265698D01*
X92693802Y-101265700D01*
X92680858Y-101284186D01*
X92562476Y-101453252D01*
X92562475Y-101453254D01*
X92465718Y-101660750D01*
X92465714Y-101660761D01*
X92406457Y-101881910D01*
X92406456Y-101881918D01*
X92386502Y-102109998D01*
X92386502Y-102110001D01*
X92406456Y-102338081D01*
X92406457Y-102338089D01*
X92465714Y-102559238D01*
X92465718Y-102559249D01*
X92562475Y-102766745D01*
X92562477Y-102766749D01*
X92693802Y-102954300D01*
X92855700Y-103116198D01*
X93037603Y-103243568D01*
X93043251Y-103247523D01*
X93086345Y-103267618D01*
X93138784Y-103313791D01*
X93157936Y-103380984D01*
X93137720Y-103447865D01*
X93086345Y-103492382D01*
X93043251Y-103512476D01*
X92964640Y-103567521D01*
X92855700Y-103643802D01*
X92855698Y-103643803D01*
X92855695Y-103643806D01*
X92693806Y-103805695D01*
X92693803Y-103805698D01*
X92693802Y-103805700D01*
X92680858Y-103824186D01*
X92562476Y-103993252D01*
X92562475Y-103993254D01*
X92465718Y-104200750D01*
X92465714Y-104200761D01*
X92406457Y-104421910D01*
X92406456Y-104421918D01*
X92386502Y-104649998D01*
X92386502Y-104650001D01*
X92406456Y-104878081D01*
X92406457Y-104878089D01*
X92465714Y-105099238D01*
X92465718Y-105099249D01*
X92562475Y-105306745D01*
X92562477Y-105306749D01*
X92693802Y-105494300D01*
X92855700Y-105656198D01*
X93037603Y-105783568D01*
X93043251Y-105787523D01*
X93086345Y-105807618D01*
X93138784Y-105853791D01*
X93157936Y-105920984D01*
X93137720Y-105987865D01*
X93086345Y-106032382D01*
X93043251Y-106052476D01*
X92918126Y-106140090D01*
X92855700Y-106183802D01*
X92855698Y-106183803D01*
X92855695Y-106183806D01*
X92693806Y-106345695D01*
X92693803Y-106345698D01*
X92693802Y-106345700D01*
X92680858Y-106364186D01*
X92562476Y-106533252D01*
X92562475Y-106533254D01*
X92465718Y-106740750D01*
X92465714Y-106740761D01*
X92406457Y-106961910D01*
X92406456Y-106961918D01*
X92386502Y-107189998D01*
X92386502Y-107190001D01*
X87393498Y-107190001D01*
X87393498Y-107190000D01*
X87373543Y-106961913D01*
X87314284Y-106740757D01*
X87313261Y-106738564D01*
X87217524Y-106533254D01*
X87217523Y-106533252D01*
X87217523Y-106533251D01*
X87086198Y-106345700D01*
X86924300Y-106183802D01*
X86736749Y-106052477D01*
X86693655Y-106032382D01*
X86641215Y-105986210D01*
X86622063Y-105919017D01*
X86642278Y-105852136D01*
X86693655Y-105807618D01*
X86696882Y-105806112D01*
X86736749Y-105787523D01*
X86924300Y-105656198D01*
X87086198Y-105494300D01*
X87217523Y-105306749D01*
X87314284Y-105099243D01*
X87373543Y-104878087D01*
X87393498Y-104650000D01*
X87373543Y-104421913D01*
X87314284Y-104200757D01*
X87217523Y-103993251D01*
X87086198Y-103805700D01*
X86924300Y-103643802D01*
X86916627Y-103638429D01*
X86873006Y-103583853D01*
X86865814Y-103514355D01*
X86897338Y-103452001D01*
X86957568Y-103416588D01*
X86974489Y-103413570D01*
X86989201Y-103411989D01*
X87126204Y-103360889D01*
X87243261Y-103273261D01*
X87330889Y-103156204D01*
X87381989Y-103019201D01*
X87385591Y-102985692D01*
X87388499Y-102958654D01*
X87388500Y-102958637D01*
X87388500Y-101261362D01*
X87388499Y-101261345D01*
X87384853Y-101227438D01*
X87381989Y-101200799D01*
X87330889Y-101063796D01*
X87243261Y-100946739D01*
X87126204Y-100859111D01*
X86989203Y-100808011D01*
X86928654Y-100801500D01*
X86928638Y-100801500D01*
X85231362Y-100801500D01*
X85231345Y-100801500D01*
X85170797Y-100808011D01*
X85170795Y-100808011D01*
X85033795Y-100859111D01*
X84916739Y-100946739D01*
X84829111Y-101063795D01*
X84778011Y-101200795D01*
X84778011Y-101200797D01*
X84771500Y-101261345D01*
X84771500Y-102958654D01*
X84778011Y-103019202D01*
X84778011Y-103019204D01*
X84829111Y-103156204D01*
X84916739Y-103273261D01*
X85033796Y-103360889D01*
X85132693Y-103397776D01*
X85170793Y-103411987D01*
X85170799Y-103411989D01*
X85185499Y-103413569D01*
X85250048Y-103440305D01*
X85289897Y-103497696D01*
X85292393Y-103567521D01*
X85256742Y-103627611D01*
X85243377Y-103638425D01*
X85235700Y-103643802D01*
X85235696Y-103643805D01*
X85073806Y-103805695D01*
X85073803Y-103805698D01*
X85073802Y-103805700D01*
X85060858Y-103824186D01*
X84942476Y-103993252D01*
X84942475Y-103993254D01*
X84845718Y-104200750D01*
X84845714Y-104200761D01*
X84786457Y-104421910D01*
X84786456Y-104421918D01*
X84766502Y-104649998D01*
X84766502Y-104650001D01*
X84786456Y-104878081D01*
X84786457Y-104878089D01*
X84845714Y-105099238D01*
X84845718Y-105099249D01*
X84942475Y-105306745D01*
X84942477Y-105306749D01*
X85073802Y-105494300D01*
X85235700Y-105656198D01*
X85417603Y-105783568D01*
X85423251Y-105787523D01*
X85466345Y-105807618D01*
X85518784Y-105853791D01*
X85537936Y-105920984D01*
X85517720Y-105987865D01*
X85466345Y-106032382D01*
X85423251Y-106052476D01*
X85298126Y-106140090D01*
X85235700Y-106183802D01*
X85235698Y-106183803D01*
X85235695Y-106183806D01*
X85073806Y-106345695D01*
X85073803Y-106345698D01*
X85073802Y-106345700D01*
X85060858Y-106364186D01*
X84942476Y-106533252D01*
X84942475Y-106533254D01*
X84845718Y-106740750D01*
X84845714Y-106740761D01*
X84786457Y-106961910D01*
X84786456Y-106961918D01*
X84766502Y-107189998D01*
X84766502Y-107190001D01*
X81806718Y-107190001D01*
X81723011Y-107106294D01*
X81722982Y-107106266D01*
X81717877Y-107101161D01*
X81717856Y-107101143D01*
X81620949Y-107028598D01*
X81619774Y-107027708D01*
X81532446Y-106960700D01*
X81529206Y-106958829D01*
X81516915Y-106950720D01*
X81505051Y-106941840D01*
X81505047Y-106941837D01*
X81409116Y-106889454D01*
X81406545Y-106888010D01*
X81383955Y-106874968D01*
X81321457Y-106838885D01*
X81307080Y-106832930D01*
X81295118Y-106827207D01*
X81271721Y-106814431D01*
X81271718Y-106814430D01*
X81271713Y-106814427D01*
X81271709Y-106814425D01*
X81180340Y-106780346D01*
X81176221Y-106778726D01*
X81096380Y-106745655D01*
X81096378Y-106745654D01*
X81096377Y-106745654D01*
X81089496Y-106743810D01*
X81069916Y-106738563D01*
X81058681Y-106734971D01*
X81022638Y-106721528D01*
X81022638Y-106721527D01*
X80938893Y-106703310D01*
X80933160Y-106701919D01*
X80861061Y-106682601D01*
X80861049Y-106682598D01*
X80822178Y-106677480D01*
X80812010Y-106675707D01*
X80762879Y-106665019D01*
X80762869Y-106665018D01*
X80689128Y-106659743D01*
X80681792Y-106658998D01*
X80619515Y-106650800D01*
X80619513Y-106650800D01*
X80568500Y-106650800D01*
X80559654Y-106650484D01*
X80497701Y-106646053D01*
X80497699Y-106646053D01*
X80435746Y-106650484D01*
X80426900Y-106650800D01*
X80375884Y-106650800D01*
X80313605Y-106658998D01*
X80306270Y-106659743D01*
X80232535Y-106665017D01*
X80232525Y-106665019D01*
X80183379Y-106675709D01*
X80173214Y-106677481D01*
X80134344Y-106682599D01*
X80062247Y-106701917D01*
X80056514Y-106703308D01*
X79972766Y-106721526D01*
X79972763Y-106721527D01*
X79936713Y-106734973D01*
X79925479Y-106738564D01*
X79899028Y-106745652D01*
X79899024Y-106745653D01*
X79819176Y-106778727D01*
X79815060Y-106780346D01*
X79723676Y-106814431D01*
X79723675Y-106814432D01*
X79700285Y-106827204D01*
X79688319Y-106832929D01*
X79673951Y-106838881D01*
X79673941Y-106838885D01*
X79588855Y-106888008D01*
X79586287Y-106889450D01*
X79490359Y-106941832D01*
X79490345Y-106941841D01*
X79478479Y-106950724D01*
X79466190Y-106958831D01*
X79462958Y-106960697D01*
X79462947Y-106960704D01*
X79375610Y-107027718D01*
X79374438Y-107028607D01*
X79277530Y-107101153D01*
X79271140Y-107107542D01*
X79095928Y-107282754D01*
X79089553Y-107289130D01*
X79017007Y-107386038D01*
X79016118Y-107387210D01*
X78949104Y-107474547D01*
X78949097Y-107474558D01*
X78947231Y-107477790D01*
X78939124Y-107490079D01*
X78930241Y-107501945D01*
X78930232Y-107501959D01*
X78877850Y-107597887D01*
X78876408Y-107600455D01*
X78827285Y-107685541D01*
X78827281Y-107685551D01*
X78821329Y-107699919D01*
X78815604Y-107711885D01*
X78802832Y-107735275D01*
X78802831Y-107735276D01*
X78768746Y-107826660D01*
X78767127Y-107830776D01*
X78734053Y-107910624D01*
X78734052Y-107910628D01*
X78726964Y-107937079D01*
X78723373Y-107948313D01*
X78709927Y-107984363D01*
X78709926Y-107984366D01*
X78691708Y-108068114D01*
X78690317Y-108073847D01*
X78670999Y-108145944D01*
X78665881Y-108184814D01*
X78664109Y-108194979D01*
X78653419Y-108244125D01*
X78653417Y-108244135D01*
X78648143Y-108317870D01*
X78647398Y-108325205D01*
X78639200Y-108387483D01*
X78639200Y-108438499D01*
X78638884Y-108447345D01*
X78634453Y-108509298D01*
X78634453Y-108509301D01*
X77025500Y-108509301D01*
X77025500Y-97130005D01*
X82906844Y-97130005D01*
X82925434Y-97354359D01*
X82925436Y-97354371D01*
X82980703Y-97572614D01*
X83071140Y-97778792D01*
X83194276Y-97967265D01*
X83194284Y-97967276D01*
X83346756Y-98132902D01*
X83346760Y-98132906D01*
X83524424Y-98271189D01*
X83524425Y-98271189D01*
X83524427Y-98271191D01*
X83651135Y-98339761D01*
X83722426Y-98378342D01*
X83935365Y-98451444D01*
X84157431Y-98488500D01*
X84382569Y-98488500D01*
X84604635Y-98451444D01*
X84817574Y-98378342D01*
X85015576Y-98271189D01*
X85193240Y-98132906D01*
X85345722Y-97967268D01*
X85468860Y-97778791D01*
X85559296Y-97572616D01*
X85614564Y-97354368D01*
X85614565Y-97354359D01*
X85633156Y-97130005D01*
X85633156Y-97129994D01*
X85614565Y-96905640D01*
X85614563Y-96905628D01*
X85611876Y-96895018D01*
X85559296Y-96687384D01*
X85468860Y-96481209D01*
X85465384Y-96475889D01*
X85345723Y-96292734D01*
X85345715Y-96292723D01*
X85200510Y-96134991D01*
X85169587Y-96072337D01*
X85177447Y-96002911D01*
X85221594Y-95948755D01*
X85248405Y-95934827D01*
X85347243Y-95897961D01*
X85366204Y-95890889D01*
X85483261Y-95803261D01*
X85570889Y-95686204D01*
X85621989Y-95549201D01*
X85625591Y-95515692D01*
X85628499Y-95488654D01*
X85628500Y-95488637D01*
X85628500Y-93691362D01*
X85628499Y-93691345D01*
X85625157Y-93660270D01*
X85621989Y-93630799D01*
X85570889Y-93493796D01*
X85483261Y-93376739D01*
X85366204Y-93289111D01*
X85229203Y-93238011D01*
X85168654Y-93231500D01*
X85168638Y-93231500D01*
X83371362Y-93231500D01*
X83371345Y-93231500D01*
X83310797Y-93238011D01*
X83310795Y-93238011D01*
X83173795Y-93289111D01*
X83056739Y-93376739D01*
X82969111Y-93493795D01*
X82918011Y-93630795D01*
X82918011Y-93630797D01*
X82911500Y-93691345D01*
X82911500Y-95488654D01*
X82918011Y-95549202D01*
X82918011Y-95549204D01*
X82952859Y-95642631D01*
X82969111Y-95686204D01*
X83056739Y-95803261D01*
X83173796Y-95890889D01*
X83225737Y-95910262D01*
X83291595Y-95934827D01*
X83347528Y-95976699D01*
X83371944Y-96042163D01*
X83357092Y-96110436D01*
X83339490Y-96134991D01*
X83194279Y-96292730D01*
X83194276Y-96292734D01*
X83071140Y-96481207D01*
X82980703Y-96687385D01*
X82925436Y-96905628D01*
X82925434Y-96905640D01*
X82906844Y-97129994D01*
X82906844Y-97130005D01*
X77025500Y-97130005D01*
X77025500Y-87140005D01*
X82936844Y-87140005D01*
X82955434Y-87364359D01*
X82955436Y-87364371D01*
X83010703Y-87582614D01*
X83101140Y-87788792D01*
X83224276Y-87977265D01*
X83224284Y-87977276D01*
X83351990Y-88115999D01*
X83376760Y-88142906D01*
X83554424Y-88281189D01*
X83597693Y-88304605D01*
X83597695Y-88304606D01*
X83647286Y-88353825D01*
X83662394Y-88422042D01*
X83638224Y-88487597D01*
X83609802Y-88515236D01*
X83428922Y-88641890D01*
X83428920Y-88641891D01*
X83261891Y-88808920D01*
X83261886Y-88808926D01*
X83126400Y-89002420D01*
X83126399Y-89002422D01*
X83026570Y-89216507D01*
X83026567Y-89216513D01*
X82969364Y-89429999D01*
X82969364Y-89430000D01*
X83866988Y-89430000D01*
X83834075Y-89487007D01*
X83800000Y-89614174D01*
X83800000Y-89745826D01*
X83834075Y-89872993D01*
X83866988Y-89930000D01*
X82969364Y-89930000D01*
X83026567Y-90143486D01*
X83026570Y-90143492D01*
X83126399Y-90357578D01*
X83261894Y-90551082D01*
X83428917Y-90718105D01*
X83622421Y-90853600D01*
X83836507Y-90953429D01*
X83836516Y-90953433D01*
X84050000Y-91010634D01*
X84050000Y-90113012D01*
X84107007Y-90145925D01*
X84234174Y-90180000D01*
X84365826Y-90180000D01*
X84492993Y-90145925D01*
X84550000Y-90113012D01*
X84550000Y-91010633D01*
X84763483Y-90953433D01*
X84763492Y-90953429D01*
X84977578Y-90853600D01*
X85171082Y-90718105D01*
X85338105Y-90551082D01*
X85473600Y-90357578D01*
X85573429Y-90143492D01*
X85573432Y-90143486D01*
X85630636Y-89930000D01*
X84733012Y-89930000D01*
X84765925Y-89872993D01*
X84800000Y-89745826D01*
X84800000Y-89614174D01*
X84765925Y-89487007D01*
X84733012Y-89430000D01*
X85630636Y-89430000D01*
X85630635Y-89429999D01*
X85573432Y-89216513D01*
X85573429Y-89216507D01*
X85473600Y-89002422D01*
X85473599Y-89002420D01*
X85338113Y-88808926D01*
X85338108Y-88808920D01*
X85171082Y-88641894D01*
X84990197Y-88515236D01*
X84946572Y-88460659D01*
X84939380Y-88391160D01*
X84970902Y-88328806D01*
X85002300Y-88304608D01*
X85045576Y-88281189D01*
X85223240Y-88142906D01*
X85375722Y-87977268D01*
X85498860Y-87788791D01*
X85589296Y-87582616D01*
X85644564Y-87364368D01*
X85658796Y-87192616D01*
X85663156Y-87140005D01*
X85663156Y-87139994D01*
X85644565Y-86915640D01*
X85644563Y-86915628D01*
X85602620Y-86750000D01*
X85589296Y-86697384D01*
X85498860Y-86491209D01*
X85487919Y-86474463D01*
X85375723Y-86302734D01*
X85375715Y-86302723D01*
X85230510Y-86144991D01*
X85199587Y-86082337D01*
X85207447Y-86012911D01*
X85251594Y-85958755D01*
X85278405Y-85944827D01*
X85358584Y-85914920D01*
X85396204Y-85900889D01*
X85513261Y-85813261D01*
X85600889Y-85696204D01*
X85651989Y-85559201D01*
X85651989Y-85559198D01*
X85654364Y-85552832D01*
X85696236Y-85496898D01*
X85761701Y-85472482D01*
X85796324Y-85474875D01*
X85954513Y-85508500D01*
X86145487Y-85508500D01*
X86332288Y-85468794D01*
X86506752Y-85391118D01*
X86661253Y-85278866D01*
X86789040Y-85136944D01*
X86884527Y-84971556D01*
X86943542Y-84789928D01*
X86963289Y-84602036D01*
X86989873Y-84537424D01*
X87047171Y-84497439D01*
X87086610Y-84491000D01*
X116910900Y-84491000D01*
X116977939Y-84510685D01*
X117023694Y-84563489D01*
X117034900Y-84615000D01*
X117034900Y-95262154D01*
X117015215Y-95329193D01*
X116975690Y-95367881D01*
X116778989Y-95488420D01*
X116778986Y-95488421D01*
X116598431Y-95642631D01*
X116444221Y-95823186D01*
X116444220Y-95823189D01*
X116320159Y-96025637D01*
X116320157Y-96025640D01*
X116229295Y-96245002D01*
X116229295Y-96245004D01*
X116173865Y-96475885D01*
X116155235Y-96712600D01*
X116173865Y-96949314D01*
X116229295Y-97180195D01*
X116229295Y-97180197D01*
X116320157Y-97399559D01*
X116320159Y-97399562D01*
X116444220Y-97602010D01*
X116444221Y-97602013D01*
X116460069Y-97620568D01*
X116595204Y-97778791D01*
X116598433Y-97782571D01*
X116755738Y-97916922D01*
X116793932Y-97975428D01*
X116798969Y-98018897D01*
X116798342Y-98028990D01*
X117538990Y-98769637D01*
X117475407Y-98786675D01*
X117361393Y-98852501D01*
X117268301Y-98945593D01*
X117202475Y-99059607D01*
X117185437Y-99123189D01*
X116444964Y-98382716D01*
X116344667Y-98536232D01*
X116244812Y-98763882D01*
X116183787Y-99004861D01*
X116183785Y-99004870D01*
X116163259Y-99252594D01*
X116163259Y-99252605D01*
X116183785Y-99500329D01*
X116183787Y-99500338D01*
X116244812Y-99741317D01*
X116344666Y-99968964D01*
X116444964Y-100122482D01*
X117185437Y-99382009D01*
X117202475Y-99445593D01*
X117268301Y-99559607D01*
X117361393Y-99652699D01*
X117475407Y-99718525D01*
X117538990Y-99735562D01*
X116798342Y-100476209D01*
X116845168Y-100512655D01*
X116845170Y-100512656D01*
X117002510Y-100597804D01*
X117052101Y-100647023D01*
X117067209Y-100715240D01*
X117043039Y-100780796D01*
X116990952Y-100821418D01*
X116981435Y-100825360D01*
X116778989Y-100949420D01*
X116778986Y-100949421D01*
X116598431Y-101103631D01*
X116444221Y-101284186D01*
X116444220Y-101284189D01*
X116320159Y-101486637D01*
X116320157Y-101486640D01*
X116229295Y-101706002D01*
X116229295Y-101706004D01*
X116173865Y-101936885D01*
X116155235Y-102173600D01*
X116173865Y-102410314D01*
X116229295Y-102641195D01*
X116229295Y-102641197D01*
X116320157Y-102860559D01*
X116320159Y-102860562D01*
X116444220Y-103063010D01*
X116444221Y-103063013D01*
X116460069Y-103081568D01*
X116598431Y-103243569D01*
X116722238Y-103349310D01*
X116760431Y-103407817D01*
X116760929Y-103477685D01*
X116723576Y-103536731D01*
X116722261Y-103537869D01*
X116668422Y-103583853D01*
X116598431Y-103643631D01*
X116444221Y-103824186D01*
X116444220Y-103824189D01*
X116320159Y-104026637D01*
X116320157Y-104026640D01*
X116229295Y-104246002D01*
X116229295Y-104246004D01*
X116173865Y-104476885D01*
X116155235Y-104713600D01*
X116173865Y-104950314D01*
X116229295Y-105181195D01*
X116229295Y-105181197D01*
X116320157Y-105400559D01*
X116320159Y-105400562D01*
X116444220Y-105603010D01*
X116444221Y-105603013D01*
X116460069Y-105621568D01*
X116598431Y-105783569D01*
X116722238Y-105889310D01*
X116760431Y-105947817D01*
X116760929Y-106017685D01*
X116723576Y-106076731D01*
X116722261Y-106077869D01*
X116598431Y-106183631D01*
X116444221Y-106364186D01*
X116444220Y-106364189D01*
X116320159Y-106566637D01*
X116320157Y-106566640D01*
X116229295Y-106786002D01*
X116229295Y-106786004D01*
X116173865Y-107016885D01*
X116155235Y-107253600D01*
X116173865Y-107490314D01*
X116229295Y-107721195D01*
X116229295Y-107721197D01*
X116320157Y-107940559D01*
X116320159Y-107940562D01*
X116444220Y-108143010D01*
X116444221Y-108143013D01*
X116479923Y-108184814D01*
X116598431Y-108323569D01*
X116722238Y-108429310D01*
X116760431Y-108487817D01*
X116760929Y-108557685D01*
X116723576Y-108616731D01*
X116722261Y-108617869D01*
X116625247Y-108700728D01*
X116598431Y-108723631D01*
X116444221Y-108904186D01*
X116444220Y-108904189D01*
X116320159Y-109106637D01*
X116320157Y-109106640D01*
X116229295Y-109326002D01*
X116229295Y-109326004D01*
X116173865Y-109556885D01*
X116155235Y-109793600D01*
X116173865Y-110030314D01*
X116229295Y-110261195D01*
X116229295Y-110261197D01*
X116320157Y-110480559D01*
X116320159Y-110480562D01*
X116444220Y-110683010D01*
X116444221Y-110683013D01*
X116460069Y-110701568D01*
X116598431Y-110863569D01*
X116648840Y-110906622D01*
X116778986Y-111017778D01*
X116778989Y-111017779D01*
X116981437Y-111141840D01*
X116981440Y-111141842D01*
X117200803Y-111232704D01*
X117200804Y-111232704D01*
X117200806Y-111232705D01*
X117431689Y-111288135D01*
X117668400Y-111306765D01*
X117905111Y-111288135D01*
X118135994Y-111232705D01*
X118135996Y-111232704D01*
X118135997Y-111232704D01*
X118355359Y-111141842D01*
X118355360Y-111141841D01*
X118355363Y-111141840D01*
X118557816Y-111017776D01*
X118738369Y-110863569D01*
X118844111Y-110739760D01*
X118902616Y-110701568D01*
X118972484Y-110701069D01*
X119031531Y-110738423D01*
X119032600Y-110739657D01*
X119138430Y-110863568D01*
X119138431Y-110863569D01*
X119318986Y-111017778D01*
X119318989Y-111017779D01*
X119521437Y-111141840D01*
X119521440Y-111141842D01*
X119740803Y-111232704D01*
X119740804Y-111232704D01*
X119740806Y-111232705D01*
X119971689Y-111288135D01*
X120208400Y-111306765D01*
X120445111Y-111288135D01*
X120675994Y-111232705D01*
X120675996Y-111232704D01*
X120675997Y-111232704D01*
X120895359Y-111141842D01*
X120895360Y-111141841D01*
X120895363Y-111141840D01*
X121097816Y-111017776D01*
X121278369Y-110863569D01*
X121384111Y-110739760D01*
X121442616Y-110701568D01*
X121512484Y-110701069D01*
X121571531Y-110738423D01*
X121572600Y-110739657D01*
X121678430Y-110863568D01*
X121678431Y-110863569D01*
X121858986Y-111017778D01*
X121858989Y-111017779D01*
X122061437Y-111141840D01*
X122061440Y-111141842D01*
X122280803Y-111232704D01*
X122280804Y-111232704D01*
X122280806Y-111232705D01*
X122511689Y-111288135D01*
X122748400Y-111306765D01*
X122985111Y-111288135D01*
X123215994Y-111232705D01*
X123215996Y-111232704D01*
X123215997Y-111232704D01*
X123435359Y-111141842D01*
X123435360Y-111141841D01*
X123435363Y-111141840D01*
X123637816Y-111017776D01*
X123818369Y-110863569D01*
X123924111Y-110739760D01*
X123982616Y-110701568D01*
X124052484Y-110701069D01*
X124111531Y-110738423D01*
X124112600Y-110739657D01*
X124218430Y-110863568D01*
X124218431Y-110863569D01*
X124398986Y-111017778D01*
X124398989Y-111017779D01*
X124601437Y-111141840D01*
X124601440Y-111141842D01*
X124820803Y-111232704D01*
X124820804Y-111232704D01*
X124820806Y-111232705D01*
X125051689Y-111288135D01*
X125288400Y-111306765D01*
X125525111Y-111288135D01*
X125755994Y-111232705D01*
X125755996Y-111232704D01*
X125755997Y-111232704D01*
X125975359Y-111141842D01*
X125975360Y-111141841D01*
X125975363Y-111141840D01*
X126177816Y-111017776D01*
X126358369Y-110863569D01*
X126464111Y-110739760D01*
X126522616Y-110701568D01*
X126592484Y-110701069D01*
X126651531Y-110738423D01*
X126652600Y-110739657D01*
X126758430Y-110863568D01*
X126758431Y-110863569D01*
X126938986Y-111017778D01*
X126938989Y-111017779D01*
X127141437Y-111141840D01*
X127141440Y-111141842D01*
X127360803Y-111232704D01*
X127360804Y-111232704D01*
X127360806Y-111232705D01*
X127591689Y-111288135D01*
X127828400Y-111306765D01*
X128065111Y-111288135D01*
X128295994Y-111232705D01*
X128295996Y-111232704D01*
X128295997Y-111232704D01*
X128515359Y-111141842D01*
X128515360Y-111141841D01*
X128515363Y-111141840D01*
X128717816Y-111017776D01*
X128898369Y-110863569D01*
X129004111Y-110739760D01*
X129062616Y-110701568D01*
X129132484Y-110701069D01*
X129191531Y-110738423D01*
X129192600Y-110739657D01*
X129298430Y-110863568D01*
X129298431Y-110863569D01*
X129478986Y-111017778D01*
X129478989Y-111017779D01*
X129681437Y-111141840D01*
X129681440Y-111141842D01*
X129900803Y-111232704D01*
X129900804Y-111232704D01*
X129900806Y-111232705D01*
X130131689Y-111288135D01*
X130368400Y-111306765D01*
X130605111Y-111288135D01*
X130835994Y-111232705D01*
X130835996Y-111232704D01*
X130835997Y-111232704D01*
X131055359Y-111141842D01*
X131055360Y-111141841D01*
X131055363Y-111141840D01*
X131257816Y-111017776D01*
X131438369Y-110863569D01*
X131544111Y-110739760D01*
X131602616Y-110701568D01*
X131672484Y-110701069D01*
X131731531Y-110738423D01*
X131732600Y-110739657D01*
X131838430Y-110863568D01*
X131838431Y-110863569D01*
X132018986Y-111017778D01*
X132018989Y-111017779D01*
X132221437Y-111141840D01*
X132221440Y-111141842D01*
X132440803Y-111232704D01*
X132440804Y-111232704D01*
X132440806Y-111232705D01*
X132671689Y-111288135D01*
X132908400Y-111306765D01*
X133145111Y-111288135D01*
X133375994Y-111232705D01*
X133375996Y-111232704D01*
X133375997Y-111232704D01*
X133595359Y-111141842D01*
X133595360Y-111141841D01*
X133595363Y-111141840D01*
X133797816Y-111017776D01*
X133978369Y-110863569D01*
X134132576Y-110683016D01*
X134256640Y-110480563D01*
X134301382Y-110372547D01*
X134347504Y-110261197D01*
X134347504Y-110261196D01*
X134347505Y-110261194D01*
X134402935Y-110030311D01*
X134421565Y-109793600D01*
X134402935Y-109556889D01*
X134347505Y-109326006D01*
X134347504Y-109326003D01*
X134347504Y-109326002D01*
X134256642Y-109106640D01*
X134256640Y-109106637D01*
X134132579Y-108904189D01*
X134132578Y-108904186D01*
X133978369Y-108723631D01*
X133951553Y-108700728D01*
X133854560Y-108617888D01*
X133816368Y-108559384D01*
X133816010Y-108509301D01*
X136634453Y-108509301D01*
X136638884Y-108571253D01*
X136639200Y-108580099D01*
X136639200Y-108631115D01*
X136647398Y-108693392D01*
X136648143Y-108700728D01*
X136653418Y-108774469D01*
X136653419Y-108774479D01*
X136664107Y-108823610D01*
X136665880Y-108833778D01*
X136670998Y-108872649D01*
X136671001Y-108872661D01*
X136690319Y-108944760D01*
X136691710Y-108950493D01*
X136709928Y-109034238D01*
X136723371Y-109070281D01*
X136726963Y-109081516D01*
X136734055Y-109107980D01*
X136767126Y-109187821D01*
X136768746Y-109191940D01*
X136802825Y-109283309D01*
X136802827Y-109283313D01*
X136802829Y-109283316D01*
X136802831Y-109283321D01*
X136815607Y-109306718D01*
X136821330Y-109318680D01*
X136824751Y-109326940D01*
X136827285Y-109333057D01*
X136827286Y-109333058D01*
X136876410Y-109418145D01*
X136877854Y-109420716D01*
X136930237Y-109516647D01*
X136930240Y-109516651D01*
X136939120Y-109528515D01*
X136947229Y-109540806D01*
X136949100Y-109544046D01*
X136949100Y-109544047D01*
X137016108Y-109631374D01*
X137016998Y-109632549D01*
X137089543Y-109729456D01*
X137089561Y-109729477D01*
X137094666Y-109734582D01*
X137094680Y-109734597D01*
X137272761Y-109912679D01*
X137272800Y-109912715D01*
X137277530Y-109917445D01*
X137277532Y-109917447D01*
X137277540Y-109917454D01*
X137374449Y-109989999D01*
X137375546Y-109990830D01*
X137462957Y-110057902D01*
X137462965Y-110057906D01*
X137462967Y-110057908D01*
X137466178Y-110059762D01*
X137478489Y-110067882D01*
X137485082Y-110072817D01*
X137490353Y-110076763D01*
X137490357Y-110076765D01*
X137490363Y-110076769D01*
X137586281Y-110129144D01*
X137588828Y-110130573D01*
X137673943Y-110179715D01*
X137673954Y-110179719D01*
X137673955Y-110179720D01*
X137688304Y-110185663D01*
X137700283Y-110191393D01*
X137723679Y-110204169D01*
X137815039Y-110238244D01*
X137819158Y-110239865D01*
X137899024Y-110272947D01*
X137920720Y-110278759D01*
X137925477Y-110280033D01*
X137936707Y-110283623D01*
X137972763Y-110297072D01*
X137972768Y-110297073D01*
X138056493Y-110315286D01*
X138062229Y-110316677D01*
X138095165Y-110325501D01*
X138134347Y-110336001D01*
X138173212Y-110341117D01*
X138183371Y-110342887D01*
X138232532Y-110353582D01*
X138306278Y-110358855D01*
X138313578Y-110359596D01*
X138375887Y-110367800D01*
X138426900Y-110367800D01*
X138435746Y-110368116D01*
X138497699Y-110372547D01*
X138497700Y-110372547D01*
X138497701Y-110372547D01*
X138559654Y-110368116D01*
X138568500Y-110367800D01*
X138619511Y-110367800D01*
X138619513Y-110367800D01*
X138681824Y-110359596D01*
X138689120Y-110358855D01*
X138762868Y-110353582D01*
X138812023Y-110342888D01*
X138822191Y-110341117D01*
X138861053Y-110336001D01*
X138933166Y-110316677D01*
X138938847Y-110315298D01*
X139022637Y-110297072D01*
X139058706Y-110283618D01*
X139069906Y-110280038D01*
X139096377Y-110272946D01*
X139176262Y-110239855D01*
X139180360Y-110238244D01*
X139271721Y-110204169D01*
X139295114Y-110191394D01*
X139307079Y-110185669D01*
X139321457Y-110179715D01*
X139406564Y-110130577D01*
X139409096Y-110129155D01*
X139505047Y-110076763D01*
X139516905Y-110067886D01*
X139529220Y-110059762D01*
X139532443Y-110057902D01*
X139581123Y-110020547D01*
X139619853Y-109990830D01*
X139620949Y-109989999D01*
X139717867Y-109917448D01*
X139721371Y-109913943D01*
X139721394Y-109913923D01*
X139902324Y-109732994D01*
X139902344Y-109732969D01*
X139905848Y-109729467D01*
X139978410Y-109632534D01*
X139979230Y-109631453D01*
X140046297Y-109544049D01*
X140046302Y-109544043D01*
X140048162Y-109540820D01*
X140056286Y-109528505D01*
X140065158Y-109516654D01*
X140065159Y-109516652D01*
X140065160Y-109516651D01*
X140065163Y-109516647D01*
X140117555Y-109420696D01*
X140118979Y-109418162D01*
X140118989Y-109418145D01*
X140168115Y-109333057D01*
X140174069Y-109318679D01*
X140179800Y-109306703D01*
X140192569Y-109283321D01*
X140226652Y-109191940D01*
X140228265Y-109187839D01*
X140261346Y-109107977D01*
X140268438Y-109081506D01*
X140272018Y-109070306D01*
X140285472Y-109034237D01*
X140303698Y-108950447D01*
X140305082Y-108944747D01*
X140315951Y-108904189D01*
X140324401Y-108872653D01*
X140329519Y-108833778D01*
X140331290Y-108823615D01*
X140331291Y-108823610D01*
X140341982Y-108774468D01*
X140347255Y-108700720D01*
X140347996Y-108693424D01*
X140356200Y-108631113D01*
X140356200Y-108580099D01*
X140356516Y-108571253D01*
X140360947Y-108509301D01*
X140360947Y-108509298D01*
X140356516Y-108447345D01*
X140356200Y-108438499D01*
X140356200Y-108387487D01*
X140348305Y-108327524D01*
X140347996Y-108325178D01*
X140347255Y-108317870D01*
X140341982Y-108244132D01*
X140331287Y-108194971D01*
X140329517Y-108184809D01*
X140324401Y-108145949D01*
X140324401Y-108145947D01*
X140315853Y-108114049D01*
X140305077Y-108073829D01*
X140303686Y-108068093D01*
X140285473Y-107984368D01*
X140285472Y-107984363D01*
X140272023Y-107948307D01*
X140268433Y-107937074D01*
X140261347Y-107910624D01*
X140228265Y-107830758D01*
X140226644Y-107826639D01*
X140192569Y-107735279D01*
X140179793Y-107711883D01*
X140174063Y-107699904D01*
X140168120Y-107685555D01*
X140168118Y-107685551D01*
X140168115Y-107685543D01*
X140118973Y-107600428D01*
X140117544Y-107597881D01*
X140065169Y-107501963D01*
X140065162Y-107501952D01*
X140056282Y-107490089D01*
X140048162Y-107477778D01*
X140046308Y-107474567D01*
X140046306Y-107474565D01*
X140046302Y-107474557D01*
X139979266Y-107387194D01*
X139978399Y-107386049D01*
X139905854Y-107289140D01*
X139905847Y-107289132D01*
X139905845Y-107289130D01*
X139901115Y-107284400D01*
X139901079Y-107284361D01*
X139723011Y-107106294D01*
X139722982Y-107106266D01*
X139717877Y-107101161D01*
X139717856Y-107101143D01*
X139620949Y-107028598D01*
X139619774Y-107027708D01*
X139532446Y-106960700D01*
X139529206Y-106958829D01*
X139516915Y-106950720D01*
X139505051Y-106941840D01*
X139505047Y-106941837D01*
X139409116Y-106889454D01*
X139406545Y-106888010D01*
X139383955Y-106874968D01*
X139321457Y-106838885D01*
X139307080Y-106832930D01*
X139295118Y-106827207D01*
X139271721Y-106814431D01*
X139271718Y-106814430D01*
X139271713Y-106814427D01*
X139271709Y-106814425D01*
X139180340Y-106780346D01*
X139176221Y-106778726D01*
X139096380Y-106745655D01*
X139096378Y-106745654D01*
X139096377Y-106745654D01*
X139089496Y-106743810D01*
X139069916Y-106738563D01*
X139058681Y-106734971D01*
X139022638Y-106721528D01*
X139022638Y-106721527D01*
X138938893Y-106703310D01*
X138933160Y-106701919D01*
X138861061Y-106682601D01*
X138861049Y-106682598D01*
X138822178Y-106677480D01*
X138812010Y-106675707D01*
X138762879Y-106665019D01*
X138762869Y-106665018D01*
X138689128Y-106659743D01*
X138681792Y-106658998D01*
X138619515Y-106650800D01*
X138619513Y-106650800D01*
X138568500Y-106650800D01*
X138559654Y-106650484D01*
X138497701Y-106646053D01*
X138497699Y-106646053D01*
X138435746Y-106650484D01*
X138426900Y-106650800D01*
X138375884Y-106650800D01*
X138313605Y-106658998D01*
X138306270Y-106659743D01*
X138232535Y-106665017D01*
X138232525Y-106665019D01*
X138183379Y-106675709D01*
X138173214Y-106677481D01*
X138134344Y-106682599D01*
X138062247Y-106701917D01*
X138056514Y-106703308D01*
X137972766Y-106721526D01*
X137972763Y-106721527D01*
X137936713Y-106734973D01*
X137925479Y-106738564D01*
X137899028Y-106745652D01*
X137899024Y-106745653D01*
X137819176Y-106778727D01*
X137815060Y-106780346D01*
X137723676Y-106814431D01*
X137723675Y-106814432D01*
X137700285Y-106827204D01*
X137688319Y-106832929D01*
X137673951Y-106838881D01*
X137673941Y-106838885D01*
X137588855Y-106888008D01*
X137586287Y-106889450D01*
X137490359Y-106941832D01*
X137490345Y-106941841D01*
X137478479Y-106950724D01*
X137466190Y-106958831D01*
X137462958Y-106960697D01*
X137462947Y-106960704D01*
X137375610Y-107027718D01*
X137374438Y-107028607D01*
X137277530Y-107101153D01*
X137271140Y-107107542D01*
X137095928Y-107282754D01*
X137089553Y-107289130D01*
X137017007Y-107386038D01*
X137016118Y-107387210D01*
X136949104Y-107474547D01*
X136949097Y-107474558D01*
X136947231Y-107477790D01*
X136939124Y-107490079D01*
X136930241Y-107501945D01*
X136930232Y-107501959D01*
X136877850Y-107597887D01*
X136876408Y-107600455D01*
X136827285Y-107685541D01*
X136827281Y-107685551D01*
X136821329Y-107699919D01*
X136815604Y-107711885D01*
X136802832Y-107735275D01*
X136802831Y-107735276D01*
X136768746Y-107826660D01*
X136767127Y-107830776D01*
X136734053Y-107910624D01*
X136734052Y-107910628D01*
X136726964Y-107937079D01*
X136723373Y-107948313D01*
X136709927Y-107984363D01*
X136709926Y-107984366D01*
X136691708Y-108068114D01*
X136690317Y-108073847D01*
X136670999Y-108145944D01*
X136665881Y-108184814D01*
X136664109Y-108194979D01*
X136653419Y-108244125D01*
X136653417Y-108244135D01*
X136648143Y-108317870D01*
X136647398Y-108325205D01*
X136639200Y-108387483D01*
X136639200Y-108438499D01*
X136638884Y-108447345D01*
X136634453Y-108509298D01*
X136634453Y-108509301D01*
X133816010Y-108509301D01*
X133815869Y-108489516D01*
X133853223Y-108430469D01*
X133854457Y-108429399D01*
X133978369Y-108323569D01*
X134132576Y-108143016D01*
X134256640Y-107940563D01*
X134258086Y-107937074D01*
X134347504Y-107721197D01*
X134347504Y-107721196D01*
X134347505Y-107721194D01*
X134402935Y-107490311D01*
X134421565Y-107253600D01*
X134402935Y-107016889D01*
X134347505Y-106786006D01*
X134347504Y-106786003D01*
X134347504Y-106786002D01*
X134256642Y-106566640D01*
X134256640Y-106566637D01*
X134132579Y-106364189D01*
X134132578Y-106364186D01*
X133978369Y-106183631D01*
X133854560Y-106077888D01*
X133816368Y-106019384D01*
X133815869Y-105949516D01*
X133853223Y-105890469D01*
X133854457Y-105889399D01*
X133978369Y-105783569D01*
X134132576Y-105603016D01*
X134256640Y-105400563D01*
X134295501Y-105306745D01*
X134347504Y-105181197D01*
X134347504Y-105181196D01*
X134347505Y-105181194D01*
X134402935Y-104950311D01*
X134421565Y-104713600D01*
X134402935Y-104476889D01*
X134347505Y-104246006D01*
X134347504Y-104246003D01*
X134347504Y-104246002D01*
X134256642Y-104026640D01*
X134256640Y-104026637D01*
X134132579Y-103824189D01*
X134132578Y-103824186D01*
X133978369Y-103643631D01*
X133959612Y-103627611D01*
X133854560Y-103537888D01*
X133816368Y-103479384D01*
X133815869Y-103409516D01*
X133853223Y-103350469D01*
X133854457Y-103349399D01*
X133978369Y-103243569D01*
X134132576Y-103063016D01*
X134256640Y-102860563D01*
X134295501Y-102766745D01*
X134347504Y-102641197D01*
X134347504Y-102641196D01*
X134347505Y-102641194D01*
X134402935Y-102410311D01*
X134421565Y-102173600D01*
X134402935Y-101936889D01*
X134347505Y-101706006D01*
X134347504Y-101706003D01*
X134347504Y-101706002D01*
X134256642Y-101486640D01*
X134256640Y-101486637D01*
X134132579Y-101284189D01*
X134132578Y-101284186D01*
X134061358Y-101200799D01*
X133978369Y-101103631D01*
X133824808Y-100972477D01*
X133797813Y-100949421D01*
X133797810Y-100949420D01*
X133595363Y-100825360D01*
X133585850Y-100821419D01*
X133531448Y-100777576D01*
X133509385Y-100711281D01*
X133526666Y-100643583D01*
X133574289Y-100597804D01*
X133731628Y-100512657D01*
X133731631Y-100512655D01*
X133778456Y-100476209D01*
X133037809Y-99735562D01*
X133101393Y-99718525D01*
X133215407Y-99652699D01*
X133308499Y-99559607D01*
X133374325Y-99445593D01*
X133391362Y-99382010D01*
X134131834Y-100122482D01*
X134232131Y-99968969D01*
X134331987Y-99741317D01*
X134393012Y-99500338D01*
X134393014Y-99500329D01*
X134413541Y-99252605D01*
X134413541Y-99252594D01*
X134393014Y-99004870D01*
X134393012Y-99004861D01*
X134331987Y-98763882D01*
X134232131Y-98536230D01*
X134131834Y-98382716D01*
X133391362Y-99123189D01*
X133374325Y-99059607D01*
X133308499Y-98945593D01*
X133215407Y-98852501D01*
X133101393Y-98786675D01*
X133037810Y-98769637D01*
X133778456Y-98028990D01*
X133777830Y-98018898D01*
X133793322Y-97950768D01*
X133821058Y-97916925D01*
X133978369Y-97782569D01*
X134132576Y-97602016D01*
X134256640Y-97399563D01*
X134275361Y-97354368D01*
X134347504Y-97180197D01*
X134347504Y-97180196D01*
X134347505Y-97180194D01*
X134402935Y-96949311D01*
X134421565Y-96712600D01*
X134402935Y-96475889D01*
X134347505Y-96245006D01*
X134347504Y-96245003D01*
X134347504Y-96245002D01*
X134256642Y-96025640D01*
X134256640Y-96025637D01*
X134132579Y-95823189D01*
X134132578Y-95823186D01*
X134084110Y-95766438D01*
X133978369Y-95642631D01*
X133858996Y-95540676D01*
X133797813Y-95488421D01*
X133797810Y-95488420D01*
X133595362Y-95364359D01*
X133595359Y-95364357D01*
X133375996Y-95273495D01*
X133145114Y-95218065D01*
X132908400Y-95199435D01*
X132671685Y-95218065D01*
X132440804Y-95273495D01*
X132440802Y-95273495D01*
X132221440Y-95364357D01*
X132221437Y-95364359D01*
X132018989Y-95488420D01*
X132018986Y-95488421D01*
X131838431Y-95642631D01*
X131732690Y-95766438D01*
X131674183Y-95804631D01*
X131604315Y-95805129D01*
X131545269Y-95767776D01*
X131544110Y-95766438D01*
X131438369Y-95642631D01*
X131318996Y-95540676D01*
X131257813Y-95488421D01*
X131257810Y-95488420D01*
X131055362Y-95364359D01*
X131055359Y-95364357D01*
X130835996Y-95273495D01*
X130605114Y-95218065D01*
X130368400Y-95199435D01*
X130131685Y-95218065D01*
X129900804Y-95273495D01*
X129900802Y-95273495D01*
X129681440Y-95364357D01*
X129681437Y-95364359D01*
X129478989Y-95488420D01*
X129478986Y-95488421D01*
X129298431Y-95642631D01*
X129192690Y-95766438D01*
X129134183Y-95804631D01*
X129064315Y-95805129D01*
X129005269Y-95767776D01*
X129004110Y-95766438D01*
X128898369Y-95642631D01*
X128778996Y-95540676D01*
X128717813Y-95488421D01*
X128717810Y-95488420D01*
X128515362Y-95364359D01*
X128515359Y-95364357D01*
X128295996Y-95273495D01*
X128065114Y-95218065D01*
X127828400Y-95199435D01*
X127591685Y-95218065D01*
X127360804Y-95273495D01*
X127360802Y-95273495D01*
X127141440Y-95364357D01*
X127141437Y-95364359D01*
X126938989Y-95488420D01*
X126938986Y-95488421D01*
X126758431Y-95642631D01*
X126652690Y-95766438D01*
X126594183Y-95804631D01*
X126524315Y-95805129D01*
X126465269Y-95767776D01*
X126464110Y-95766438D01*
X126358369Y-95642631D01*
X126238996Y-95540676D01*
X126177813Y-95488421D01*
X126177810Y-95488420D01*
X125975362Y-95364359D01*
X125975359Y-95364357D01*
X125755996Y-95273495D01*
X125525114Y-95218065D01*
X125288400Y-95199435D01*
X125051685Y-95218065D01*
X124820804Y-95273495D01*
X124820802Y-95273495D01*
X124601440Y-95364357D01*
X124601437Y-95364359D01*
X124398989Y-95488420D01*
X124398986Y-95488421D01*
X124218431Y-95642631D01*
X124112690Y-95766438D01*
X124054183Y-95804631D01*
X123984315Y-95805129D01*
X123925269Y-95767776D01*
X123924110Y-95766438D01*
X123818369Y-95642631D01*
X123698996Y-95540676D01*
X123637813Y-95488421D01*
X123637810Y-95488420D01*
X123435362Y-95364359D01*
X123435359Y-95364357D01*
X123215996Y-95273495D01*
X122985114Y-95218065D01*
X122748400Y-95199435D01*
X122511685Y-95218065D01*
X122280804Y-95273495D01*
X122280802Y-95273495D01*
X122061440Y-95364357D01*
X122061437Y-95364359D01*
X121858989Y-95488420D01*
X121858986Y-95488421D01*
X121678431Y-95642631D01*
X121572690Y-95766438D01*
X121514183Y-95804631D01*
X121444315Y-95805129D01*
X121385269Y-95767776D01*
X121384110Y-95766438D01*
X121278369Y-95642631D01*
X121158996Y-95540676D01*
X121097813Y-95488421D01*
X121097810Y-95488420D01*
X120895362Y-95364359D01*
X120895359Y-95364357D01*
X120675996Y-95273495D01*
X120445114Y-95218065D01*
X120208400Y-95199435D01*
X119971685Y-95218065D01*
X119740804Y-95273495D01*
X119740802Y-95273495D01*
X119521440Y-95364357D01*
X119521437Y-95364359D01*
X119318989Y-95488420D01*
X119318986Y-95488421D01*
X119138431Y-95642631D01*
X119032690Y-95766438D01*
X118974183Y-95804631D01*
X118904315Y-95805129D01*
X118845269Y-95767776D01*
X118844110Y-95766438D01*
X118738369Y-95642631D01*
X118618996Y-95540676D01*
X118557813Y-95488421D01*
X118557810Y-95488420D01*
X118361110Y-95367881D01*
X118314235Y-95316069D01*
X118301900Y-95262154D01*
X118301900Y-84615000D01*
X118321585Y-84547961D01*
X118374389Y-84502206D01*
X118425900Y-84491000D01*
X118741911Y-84491000D01*
X118808950Y-84510685D01*
X118839177Y-84538089D01*
X118841115Y-84540540D01*
X118962359Y-84661784D01*
X118962363Y-84661787D01*
X119108290Y-84751797D01*
X119108293Y-84751798D01*
X119108299Y-84751802D01*
X119271064Y-84805736D01*
X119371528Y-84816000D01*
X119371533Y-84816000D01*
X120219267Y-84816000D01*
X120219272Y-84816000D01*
X120319736Y-84805736D01*
X120482501Y-84751802D01*
X120628440Y-84661785D01*
X120749685Y-84540540D01*
X120749688Y-84540534D01*
X120754166Y-84534873D01*
X120755626Y-84536027D01*
X120800476Y-84495682D01*
X120854074Y-84483500D01*
X122167500Y-84483500D01*
X122234539Y-84503185D01*
X122280294Y-84555989D01*
X122291500Y-84607500D01*
X122291500Y-85108654D01*
X122298011Y-85169202D01*
X122298011Y-85169204D01*
X122338914Y-85278866D01*
X122349111Y-85306204D01*
X122436739Y-85423261D01*
X122553796Y-85510889D01*
X122605737Y-85530262D01*
X122671595Y-85554827D01*
X122727528Y-85596699D01*
X122751944Y-85662163D01*
X122737092Y-85730436D01*
X122719490Y-85754991D01*
X122574279Y-85912730D01*
X122574276Y-85912734D01*
X122451140Y-86101207D01*
X122360703Y-86307385D01*
X122329542Y-86430440D01*
X122294002Y-86490596D01*
X122231582Y-86521988D01*
X122209336Y-86524000D01*
X120848889Y-86524000D01*
X120781850Y-86504315D01*
X120751623Y-86476911D01*
X120749684Y-86474459D01*
X120628440Y-86353215D01*
X120628436Y-86353212D01*
X120482509Y-86263202D01*
X120482503Y-86263199D01*
X120482501Y-86263198D01*
X120319736Y-86209264D01*
X120219279Y-86199000D01*
X120219272Y-86199000D01*
X119371528Y-86199000D01*
X119371520Y-86199000D01*
X119271063Y-86209264D01*
X119108301Y-86263197D01*
X119108290Y-86263202D01*
X118962363Y-86353212D01*
X118962359Y-86353215D01*
X118841115Y-86474459D01*
X118841112Y-86474463D01*
X118751102Y-86620390D01*
X118751097Y-86620401D01*
X118697164Y-86783163D01*
X118686900Y-86883620D01*
X118686900Y-87431379D01*
X118697164Y-87531836D01*
X118751097Y-87694598D01*
X118751102Y-87694609D01*
X118841112Y-87840536D01*
X118841115Y-87840540D01*
X118962359Y-87961784D01*
X118962363Y-87961787D01*
X119108290Y-88051797D01*
X119108293Y-88051798D01*
X119108299Y-88051802D01*
X119271064Y-88105736D01*
X119371528Y-88116000D01*
X119371533Y-88116000D01*
X120219267Y-88116000D01*
X120219272Y-88116000D01*
X120319736Y-88105736D01*
X120482501Y-88051802D01*
X120628440Y-87961785D01*
X120749685Y-87840540D01*
X120749688Y-87840534D01*
X120751623Y-87838089D01*
X120753380Y-87836844D01*
X120754792Y-87835433D01*
X120755033Y-87835674D01*
X120808645Y-87797712D01*
X120848889Y-87791000D01*
X122733133Y-87791000D01*
X122800172Y-87810685D01*
X122809296Y-87817147D01*
X122904424Y-87891189D01*
X122904425Y-87891189D01*
X122904427Y-87891191D01*
X123031135Y-87959761D01*
X123102426Y-87998342D01*
X123315365Y-88071444D01*
X123537431Y-88108500D01*
X123762569Y-88108500D01*
X123984635Y-88071444D01*
X124197574Y-87998342D01*
X124395576Y-87891189D01*
X124573240Y-87752906D01*
X124725722Y-87587268D01*
X124848860Y-87398791D01*
X124939296Y-87192616D01*
X124994564Y-86974368D01*
X124994565Y-86974359D01*
X125013156Y-86750005D01*
X125013156Y-86749994D01*
X124994565Y-86525640D01*
X124994563Y-86525628D01*
X124939296Y-86307385D01*
X124937254Y-86302730D01*
X124848860Y-86101209D01*
X124836530Y-86082337D01*
X124751370Y-85951989D01*
X124725722Y-85912732D01*
X124725719Y-85912729D01*
X124725715Y-85912723D01*
X124580510Y-85754991D01*
X124549587Y-85692337D01*
X124557447Y-85622911D01*
X124601594Y-85568755D01*
X124628405Y-85554827D01*
X124708584Y-85524920D01*
X124746204Y-85510889D01*
X124863261Y-85423261D01*
X124950889Y-85306204D01*
X125001989Y-85169201D01*
X125005591Y-85135692D01*
X125008499Y-85108654D01*
X125008500Y-85108637D01*
X125008500Y-83311362D01*
X125008499Y-83311345D01*
X125005157Y-83280270D01*
X125001989Y-83250799D01*
X125000949Y-83248011D01*
X124979522Y-83190564D01*
X124950889Y-83113796D01*
X124863261Y-82996739D01*
X124746204Y-82909111D01*
X124719096Y-82899000D01*
X124609203Y-82858011D01*
X124548654Y-82851500D01*
X124548638Y-82851500D01*
X122751362Y-82851500D01*
X122751345Y-82851500D01*
X122690797Y-82858011D01*
X122690795Y-82858011D01*
X122553795Y-82909111D01*
X122436739Y-82996739D01*
X122349112Y-83113793D01*
X122349111Y-83113796D01*
X122340890Y-83135836D01*
X122299020Y-83191767D01*
X122233556Y-83216184D01*
X122224710Y-83216500D01*
X120842959Y-83216500D01*
X120775920Y-83196815D01*
X120755794Y-83178564D01*
X120754792Y-83179567D01*
X120711059Y-83135834D01*
X120628440Y-83053215D01*
X120628437Y-83053213D01*
X120628436Y-83053212D01*
X120482509Y-82963202D01*
X120482503Y-82963199D01*
X120482501Y-82963198D01*
X120319736Y-82909264D01*
X120219279Y-82899000D01*
X120219272Y-82899000D01*
X119371528Y-82899000D01*
X119371520Y-82899000D01*
X119271063Y-82909264D01*
X119108301Y-82963197D01*
X119108290Y-82963202D01*
X118962363Y-83053212D01*
X118962359Y-83053215D01*
X118841115Y-83174459D01*
X118839177Y-83176911D01*
X118837419Y-83178155D01*
X118836008Y-83179567D01*
X118835766Y-83179325D01*
X118782155Y-83217288D01*
X118741911Y-83224000D01*
X86280101Y-83224000D01*
X86157722Y-83248343D01*
X86157714Y-83248345D01*
X86042427Y-83296098D01*
X86042418Y-83296103D01*
X85938667Y-83365428D01*
X85787448Y-83516647D01*
X85726125Y-83550131D01*
X85656433Y-83545147D01*
X85600500Y-83503276D01*
X85582053Y-83478635D01*
X85513261Y-83386739D01*
X85396204Y-83299111D01*
X85388126Y-83296098D01*
X85259203Y-83248011D01*
X85198654Y-83241500D01*
X85198638Y-83241500D01*
X83401362Y-83241500D01*
X83401345Y-83241500D01*
X83340797Y-83248011D01*
X83340795Y-83248011D01*
X83203795Y-83299111D01*
X83086739Y-83386739D01*
X82999111Y-83503795D01*
X82948011Y-83640795D01*
X82948011Y-83640797D01*
X82941500Y-83701345D01*
X82941500Y-85498654D01*
X82948011Y-85559202D01*
X82948011Y-85559204D01*
X82986414Y-85662163D01*
X82999111Y-85696204D01*
X83086739Y-85813261D01*
X83203796Y-85900889D01*
X83255737Y-85920262D01*
X83321595Y-85944827D01*
X83377528Y-85986699D01*
X83401944Y-86052163D01*
X83387092Y-86120436D01*
X83369490Y-86144991D01*
X83224279Y-86302730D01*
X83224276Y-86302734D01*
X83101140Y-86491207D01*
X83010703Y-86697385D01*
X82955436Y-86915628D01*
X82955434Y-86915640D01*
X82936844Y-87139994D01*
X82936844Y-87140005D01*
X77025500Y-87140005D01*
X77025500Y-61976000D01*
X83820000Y-61976000D01*
X89722500Y-61976000D01*
X89789539Y-61995685D01*
G37*
G04 #@! TD.AperFunction*
G04 #@! TA.AperFunction,Conductor*
G36*
X134459539Y-61995685D02*
G01*
X134505294Y-62048489D01*
X134516500Y-62100000D01*
X134516500Y-76302500D01*
X134496815Y-76369539D01*
X134444011Y-76415294D01*
X134392500Y-76426500D01*
X124975956Y-76426500D01*
X124908917Y-76406815D01*
X124872148Y-76370322D01*
X124775723Y-76222734D01*
X124775715Y-76222723D01*
X124623243Y-76057097D01*
X124623238Y-76057092D01*
X124445577Y-75918812D01*
X124445578Y-75918812D01*
X124445576Y-75918811D01*
X124409070Y-75899055D01*
X124359479Y-75849836D01*
X124344371Y-75781619D01*
X124368541Y-75716064D01*
X124409070Y-75680945D01*
X124409084Y-75680936D01*
X124445576Y-75661189D01*
X124623240Y-75522906D01*
X124775722Y-75357268D01*
X124829123Y-75275531D01*
X124872148Y-75209678D01*
X124925294Y-75164321D01*
X124975956Y-75153500D01*
X132192395Y-75153500D01*
X132192396Y-75153499D01*
X132314785Y-75129155D01*
X132430075Y-75081400D01*
X132533833Y-75012071D01*
X132842071Y-74703833D01*
X132911400Y-74600075D01*
X132959155Y-74484785D01*
X132983500Y-74362394D01*
X132983500Y-74237606D01*
X132983500Y-62100000D01*
X133003185Y-62032961D01*
X133055989Y-61987206D01*
X133107500Y-61976000D01*
X134392500Y-61976000D01*
X134459539Y-61995685D01*
G37*
G04 #@! TD.AperFunction*
G04 #@! TA.AperFunction,Conductor*
G36*
X121509539Y-61995685D02*
G01*
X121555294Y-62048489D01*
X121566500Y-62100000D01*
X121566500Y-69212398D01*
X121590843Y-69334777D01*
X121590845Y-69334785D01*
X121638598Y-69450072D01*
X121638603Y-69450081D01*
X121707928Y-69553832D01*
X121707931Y-69553836D01*
X122086163Y-69932068D01*
X122086167Y-69932071D01*
X122189918Y-70001396D01*
X122189924Y-70001399D01*
X122189925Y-70001400D01*
X122305215Y-70049155D01*
X122427606Y-70073500D01*
X122427611Y-70073500D01*
X122433667Y-70074097D01*
X122433453Y-70076263D01*
X122491083Y-70093185D01*
X122527852Y-70129678D01*
X122624276Y-70277265D01*
X122624284Y-70277276D01*
X122776756Y-70442902D01*
X122776760Y-70442906D01*
X122954424Y-70581189D01*
X122954429Y-70581191D01*
X122954431Y-70581193D01*
X122990930Y-70600946D01*
X123040520Y-70650165D01*
X123055628Y-70718382D01*
X123031457Y-70783937D01*
X122990930Y-70819054D01*
X122954431Y-70838806D01*
X122954422Y-70838812D01*
X122776761Y-70977092D01*
X122776756Y-70977097D01*
X122624284Y-71142723D01*
X122624276Y-71142734D01*
X122501140Y-71331207D01*
X122410703Y-71537385D01*
X122355436Y-71755628D01*
X122355434Y-71755640D01*
X122336844Y-71979994D01*
X122336844Y-71980005D01*
X122355434Y-72204359D01*
X122355436Y-72204371D01*
X122410703Y-72422613D01*
X122419510Y-72442692D01*
X122428411Y-72511992D01*
X122398433Y-72575104D01*
X122339093Y-72611989D01*
X122305953Y-72616500D01*
X85694047Y-72616500D01*
X85627008Y-72596815D01*
X85581253Y-72544011D01*
X85571309Y-72474853D01*
X85580490Y-72442692D01*
X85581157Y-72441170D01*
X85589296Y-72422616D01*
X85644564Y-72204368D01*
X85644565Y-72204359D01*
X85663156Y-71980005D01*
X85663156Y-71979994D01*
X85644565Y-71755640D01*
X85644563Y-71755628D01*
X85643186Y-71750191D01*
X85589296Y-71537384D01*
X85576103Y-71507308D01*
X85567201Y-71438010D01*
X85597178Y-71374898D01*
X85656517Y-71338011D01*
X85689660Y-71333500D01*
X109257395Y-71333500D01*
X109257396Y-71333499D01*
X109379785Y-71309155D01*
X109495075Y-71261400D01*
X109598833Y-71192071D01*
X109992071Y-70798833D01*
X110061400Y-70695075D01*
X110109155Y-70579785D01*
X110133500Y-70457394D01*
X110133500Y-70332606D01*
X110133500Y-63251756D01*
X110153185Y-63184717D01*
X110165346Y-63168788D01*
X110239040Y-63086944D01*
X110334527Y-62921556D01*
X110393542Y-62739928D01*
X110413504Y-62550000D01*
X110393542Y-62360072D01*
X110334527Y-62178444D01*
X110325031Y-62161997D01*
X110308561Y-62094099D01*
X110331413Y-62028072D01*
X110386335Y-61984882D01*
X110432420Y-61976000D01*
X121442500Y-61976000D01*
X121509539Y-61995685D01*
G37*
G04 #@! TD.AperFunction*
G04 #@! TA.AperFunction,Conductor*
G36*
X129159539Y-61995685D02*
G01*
X129205294Y-62048489D01*
X129216500Y-62100000D01*
X129216500Y-71222500D01*
X129196815Y-71289539D01*
X129144011Y-71335294D01*
X129092500Y-71346500D01*
X124975956Y-71346500D01*
X124908917Y-71326815D01*
X124872148Y-71290322D01*
X124775723Y-71142734D01*
X124775715Y-71142723D01*
X124623243Y-70977097D01*
X124623238Y-70977092D01*
X124445577Y-70838812D01*
X124445578Y-70838812D01*
X124445576Y-70838811D01*
X124409070Y-70819055D01*
X124359479Y-70769836D01*
X124344371Y-70701619D01*
X124368541Y-70636064D01*
X124409070Y-70600945D01*
X124409084Y-70600936D01*
X124445576Y-70581189D01*
X124623240Y-70442906D01*
X124775722Y-70277268D01*
X124898860Y-70088791D01*
X124989296Y-69882616D01*
X125044564Y-69664368D01*
X125053723Y-69553836D01*
X125063156Y-69440005D01*
X125063156Y-69439994D01*
X125044565Y-69215640D01*
X125044563Y-69215628D01*
X124989296Y-68997385D01*
X124958853Y-68927982D01*
X124898860Y-68791209D01*
X124879385Y-68761401D01*
X124775723Y-68602734D01*
X124775715Y-68602723D01*
X124630510Y-68444991D01*
X124599587Y-68382337D01*
X124607447Y-68312911D01*
X124651594Y-68258755D01*
X124678405Y-68244827D01*
X124758584Y-68214920D01*
X124796204Y-68200889D01*
X124913261Y-68113261D01*
X125000889Y-67996204D01*
X125051989Y-67859201D01*
X125055591Y-67825692D01*
X125058499Y-67798654D01*
X125058500Y-67798637D01*
X125058500Y-66001362D01*
X125058499Y-66001345D01*
X125055157Y-65970270D01*
X125051989Y-65940799D01*
X125000889Y-65803796D01*
X124913261Y-65686739D01*
X124796204Y-65599111D01*
X124659204Y-65548011D01*
X124659202Y-65548011D01*
X124598654Y-65541500D01*
X124598638Y-65541500D01*
X122957500Y-65541500D01*
X122890461Y-65521815D01*
X122844706Y-65469011D01*
X122833500Y-65417500D01*
X122833500Y-62100000D01*
X122853185Y-62032961D01*
X122905989Y-61987206D01*
X122957500Y-61976000D01*
X129092500Y-61976000D01*
X129159539Y-61995685D01*
G37*
G04 #@! TD.AperFunction*
G04 #@! TA.AperFunction,Conductor*
G36*
X108634619Y-61995685D02*
G01*
X108680374Y-62048489D01*
X108690318Y-62117647D01*
X108674968Y-62161999D01*
X108665472Y-62178446D01*
X108665470Y-62178450D01*
X108627222Y-62296167D01*
X108606458Y-62360072D01*
X108586496Y-62550000D01*
X108606458Y-62739928D01*
X108606459Y-62739931D01*
X108665470Y-62921549D01*
X108665473Y-62921556D01*
X108759165Y-63083836D01*
X108760960Y-63086944D01*
X108834649Y-63168784D01*
X108864880Y-63231775D01*
X108866500Y-63251756D01*
X108866500Y-69942500D01*
X108846815Y-70009539D01*
X108794011Y-70055294D01*
X108742500Y-70066500D01*
X85698433Y-70066500D01*
X85631394Y-70046815D01*
X85585639Y-69994011D01*
X85575695Y-69924853D01*
X85584877Y-69892691D01*
X85585681Y-69890857D01*
X85589296Y-69882616D01*
X85644564Y-69664368D01*
X85653723Y-69553836D01*
X85663156Y-69440005D01*
X85663156Y-69439994D01*
X85644565Y-69215640D01*
X85644563Y-69215628D01*
X85588037Y-68992412D01*
X85589175Y-68992123D01*
X85586271Y-68927982D01*
X85621349Y-68867556D01*
X85683526Y-68835686D01*
X85706707Y-68833500D01*
X104162395Y-68833500D01*
X104162396Y-68833499D01*
X104284785Y-68809155D01*
X104400075Y-68761400D01*
X104503833Y-68692071D01*
X104942072Y-68253833D01*
X105011401Y-68150075D01*
X105059155Y-68034785D01*
X105083500Y-67912394D01*
X105083500Y-67787606D01*
X105083500Y-63251756D01*
X105103185Y-63184717D01*
X105115346Y-63168788D01*
X105189040Y-63086944D01*
X105284527Y-62921556D01*
X105343542Y-62739928D01*
X105363504Y-62550000D01*
X105343542Y-62360072D01*
X105284527Y-62178444D01*
X105275031Y-62161997D01*
X105258561Y-62094099D01*
X105281413Y-62028072D01*
X105336335Y-61984882D01*
X105382420Y-61976000D01*
X108567580Y-61976000D01*
X108634619Y-61995685D01*
G37*
G04 #@! TD.AperFunction*
G04 #@! TA.AperFunction,Conductor*
G36*
X103584619Y-61995685D02*
G01*
X103630374Y-62048489D01*
X103640318Y-62117647D01*
X103624968Y-62161999D01*
X103615472Y-62178446D01*
X103615470Y-62178450D01*
X103577222Y-62296167D01*
X103556458Y-62360072D01*
X103536496Y-62550000D01*
X103556458Y-62739928D01*
X103556459Y-62739931D01*
X103615470Y-62921549D01*
X103615473Y-62921556D01*
X103709165Y-63083836D01*
X103710960Y-63086944D01*
X103784649Y-63168784D01*
X103814880Y-63231775D01*
X103816500Y-63251756D01*
X103816500Y-67442500D01*
X103796815Y-67509539D01*
X103744011Y-67555294D01*
X103692500Y-67566500D01*
X85782500Y-67566500D01*
X85715461Y-67546815D01*
X85669706Y-67494011D01*
X85658500Y-67442500D01*
X85658500Y-66457500D01*
X85678185Y-66390461D01*
X85730989Y-66344706D01*
X85782500Y-66333500D01*
X101612395Y-66333500D01*
X101612396Y-66333499D01*
X101734785Y-66309155D01*
X101850075Y-66261400D01*
X101953833Y-66192071D01*
X102307072Y-65838833D01*
X102376401Y-65735075D01*
X102424155Y-65619784D01*
X102428268Y-65599111D01*
X102438432Y-65548011D01*
X102438432Y-65548010D01*
X102439727Y-65541500D01*
X102448500Y-65497394D01*
X102448500Y-62100000D01*
X102468185Y-62032961D01*
X102520989Y-61987206D01*
X102572500Y-61976000D01*
X103517580Y-61976000D01*
X103584619Y-61995685D01*
G37*
G04 #@! TD.AperFunction*
G04 #@! TA.AperFunction,Conductor*
G36*
X101124539Y-61995685D02*
G01*
X101170294Y-62048489D01*
X101181500Y-62100000D01*
X101181500Y-64942500D01*
X101161815Y-65009539D01*
X101109011Y-65055294D01*
X101057500Y-65066500D01*
X83602330Y-65066500D01*
X83535291Y-65046815D01*
X83510180Y-65025472D01*
X83461258Y-64971138D01*
X83461255Y-64971136D01*
X83461254Y-64971135D01*
X83461253Y-64971134D01*
X83306752Y-64858882D01*
X83132288Y-64781206D01*
X83132286Y-64781205D01*
X82945487Y-64741500D01*
X82882500Y-64741500D01*
X82815461Y-64721815D01*
X82769706Y-64669011D01*
X82758500Y-64617500D01*
X82758500Y-63657500D01*
X82778185Y-63590461D01*
X82830989Y-63544706D01*
X82882500Y-63533500D01*
X90322395Y-63533500D01*
X90322396Y-63533499D01*
X90444785Y-63509155D01*
X90560075Y-63461400D01*
X90663833Y-63392071D01*
X90972071Y-63083833D01*
X91041400Y-62980075D01*
X91089155Y-62864785D01*
X91113500Y-62742394D01*
X91113500Y-62617606D01*
X91113500Y-62100000D01*
X91133185Y-62032961D01*
X91185989Y-61987206D01*
X91237500Y-61976000D01*
X101057500Y-61976000D01*
X101124539Y-61995685D01*
G37*
G04 #@! TD.AperFunction*
G04 #@! TA.AperFunction,Conductor*
G36*
X139003243Y-55525669D02*
G01*
X139213818Y-55536706D01*
X139304433Y-55541455D01*
X139317340Y-55542812D01*
X139376810Y-55552231D01*
X139612022Y-55589484D01*
X139624690Y-55592176D01*
X139912901Y-55669402D01*
X139925228Y-55673407D01*
X140203781Y-55780334D01*
X140215617Y-55785603D01*
X140481477Y-55921065D01*
X140492683Y-55927535D01*
X140742923Y-56090044D01*
X140753414Y-56097666D01*
X140985282Y-56285429D01*
X140994927Y-56294114D01*
X141205885Y-56505072D01*
X141214570Y-56514717D01*
X141402333Y-56746585D01*
X141409958Y-56757079D01*
X141572460Y-57007310D01*
X141578937Y-57018529D01*
X141687061Y-57230733D01*
X141714391Y-57284372D01*
X141719669Y-57296227D01*
X141754901Y-57388008D01*
X141826589Y-57574762D01*
X141830600Y-57587107D01*
X141907819Y-57875293D01*
X141910517Y-57887989D01*
X141957187Y-58182659D01*
X141958544Y-58195566D01*
X141974330Y-58496756D01*
X141974500Y-58503246D01*
X141974500Y-62484000D01*
X135783500Y-62484000D01*
X135783500Y-59009301D01*
X136634453Y-59009301D01*
X136638884Y-59071253D01*
X136639200Y-59080099D01*
X136639200Y-59131115D01*
X136647398Y-59193392D01*
X136648143Y-59200728D01*
X136653418Y-59274469D01*
X136653419Y-59274479D01*
X136664107Y-59323610D01*
X136665880Y-59333778D01*
X136670998Y-59372649D01*
X136671001Y-59372661D01*
X136690319Y-59444760D01*
X136691710Y-59450493D01*
X136709928Y-59534238D01*
X136723371Y-59570281D01*
X136726963Y-59581516D01*
X136734055Y-59607980D01*
X136767126Y-59687821D01*
X136768746Y-59691940D01*
X136802825Y-59783309D01*
X136802827Y-59783313D01*
X136802829Y-59783316D01*
X136802831Y-59783321D01*
X136815607Y-59806718D01*
X136821330Y-59818680D01*
X136827285Y-59833057D01*
X136827286Y-59833058D01*
X136876410Y-59918145D01*
X136877854Y-59920716D01*
X136930237Y-60016647D01*
X136930240Y-60016651D01*
X136939120Y-60028515D01*
X136947229Y-60040806D01*
X136949100Y-60044046D01*
X136949100Y-60044047D01*
X137016108Y-60131374D01*
X137016998Y-60132549D01*
X137089543Y-60229456D01*
X137089561Y-60229477D01*
X137094666Y-60234582D01*
X137094680Y-60234597D01*
X137272761Y-60412679D01*
X137272800Y-60412715D01*
X137277530Y-60417445D01*
X137277532Y-60417447D01*
X137277540Y-60417454D01*
X137374449Y-60489999D01*
X137375546Y-60490830D01*
X137462957Y-60557902D01*
X137462965Y-60557906D01*
X137462967Y-60557908D01*
X137466178Y-60559762D01*
X137478489Y-60567882D01*
X137485082Y-60572817D01*
X137490353Y-60576763D01*
X137490357Y-60576765D01*
X137490363Y-60576769D01*
X137586281Y-60629144D01*
X137588828Y-60630573D01*
X137673943Y-60679715D01*
X137673954Y-60679719D01*
X137673955Y-60679720D01*
X137688304Y-60685663D01*
X137700283Y-60691393D01*
X137723679Y-60704169D01*
X137815039Y-60738244D01*
X137819158Y-60739865D01*
X137899024Y-60772947D01*
X137920720Y-60778759D01*
X137925477Y-60780033D01*
X137936707Y-60783623D01*
X137972763Y-60797072D01*
X137972768Y-60797073D01*
X138056493Y-60815286D01*
X138062229Y-60816677D01*
X138095165Y-60825501D01*
X138134347Y-60836001D01*
X138173212Y-60841117D01*
X138183371Y-60842887D01*
X138232532Y-60853582D01*
X138306278Y-60858855D01*
X138313578Y-60859596D01*
X138375887Y-60867800D01*
X138426900Y-60867800D01*
X138435746Y-60868116D01*
X138497699Y-60872547D01*
X138497700Y-60872547D01*
X138497701Y-60872547D01*
X138559654Y-60868116D01*
X138568500Y-60867800D01*
X138619511Y-60867800D01*
X138619513Y-60867800D01*
X138681824Y-60859596D01*
X138689120Y-60858855D01*
X138762868Y-60853582D01*
X138812023Y-60842888D01*
X138822191Y-60841117D01*
X138861053Y-60836001D01*
X138933166Y-60816677D01*
X138938847Y-60815298D01*
X139022637Y-60797072D01*
X139058706Y-60783618D01*
X139069906Y-60780038D01*
X139096377Y-60772946D01*
X139176262Y-60739855D01*
X139180360Y-60738244D01*
X139271721Y-60704169D01*
X139295114Y-60691394D01*
X139307079Y-60685669D01*
X139321457Y-60679715D01*
X139406564Y-60630577D01*
X139409096Y-60629155D01*
X139505047Y-60576763D01*
X139516905Y-60567886D01*
X139529220Y-60559762D01*
X139532443Y-60557902D01*
X139581123Y-60520547D01*
X139619853Y-60490830D01*
X139620949Y-60489999D01*
X139717867Y-60417448D01*
X139721371Y-60413943D01*
X139721394Y-60413923D01*
X139902324Y-60232994D01*
X139902344Y-60232969D01*
X139905848Y-60229467D01*
X139978410Y-60132534D01*
X139979230Y-60131453D01*
X140046297Y-60044049D01*
X140046302Y-60044043D01*
X140048162Y-60040820D01*
X140056286Y-60028505D01*
X140065158Y-60016654D01*
X140065159Y-60016652D01*
X140065160Y-60016651D01*
X140065163Y-60016647D01*
X140117555Y-59920696D01*
X140118979Y-59918162D01*
X140118989Y-59918145D01*
X140168115Y-59833057D01*
X140174069Y-59818679D01*
X140179800Y-59806703D01*
X140192569Y-59783321D01*
X140226652Y-59691940D01*
X140228265Y-59687839D01*
X140261346Y-59607977D01*
X140268438Y-59581506D01*
X140272018Y-59570306D01*
X140285472Y-59534237D01*
X140303698Y-59450447D01*
X140305082Y-59444747D01*
X140324399Y-59372661D01*
X140324401Y-59372653D01*
X140329519Y-59333778D01*
X140331290Y-59323615D01*
X140331291Y-59323610D01*
X140341982Y-59274468D01*
X140347255Y-59200720D01*
X140347996Y-59193424D01*
X140356200Y-59131113D01*
X140356200Y-59080099D01*
X140356516Y-59071253D01*
X140360947Y-59009301D01*
X140360947Y-59009298D01*
X140356516Y-58947345D01*
X140356200Y-58938499D01*
X140356200Y-58887487D01*
X140356199Y-58887483D01*
X140347996Y-58825178D01*
X140347255Y-58817870D01*
X140341982Y-58744132D01*
X140331287Y-58694971D01*
X140329517Y-58684809D01*
X140324401Y-58645949D01*
X140324401Y-58645947D01*
X140315853Y-58614049D01*
X140305077Y-58573829D01*
X140303686Y-58568093D01*
X140289580Y-58503246D01*
X140285472Y-58484363D01*
X140272023Y-58448307D01*
X140268433Y-58437074D01*
X140261347Y-58410624D01*
X140228265Y-58330758D01*
X140226644Y-58326639D01*
X140217481Y-58302071D01*
X140192569Y-58235279D01*
X140179793Y-58211883D01*
X140174063Y-58199904D01*
X140168120Y-58185555D01*
X140168118Y-58185551D01*
X140168115Y-58185543D01*
X140118973Y-58100428D01*
X140117544Y-58097881D01*
X140065169Y-58001963D01*
X140065162Y-58001952D01*
X140056282Y-57990089D01*
X140048162Y-57977778D01*
X140046308Y-57974567D01*
X140046306Y-57974565D01*
X140046302Y-57974557D01*
X139979266Y-57887194D01*
X139978399Y-57886049D01*
X139905854Y-57789140D01*
X139905847Y-57789132D01*
X139905845Y-57789130D01*
X139901115Y-57784400D01*
X139901079Y-57784361D01*
X139723011Y-57606294D01*
X139722982Y-57606266D01*
X139717877Y-57601161D01*
X139717856Y-57601143D01*
X139620949Y-57528598D01*
X139619774Y-57527708D01*
X139532446Y-57460700D01*
X139529206Y-57458829D01*
X139516915Y-57450720D01*
X139505051Y-57441840D01*
X139505047Y-57441837D01*
X139409116Y-57389454D01*
X139406545Y-57388010D01*
X139383955Y-57374968D01*
X139321457Y-57338885D01*
X139307080Y-57332930D01*
X139295118Y-57327207D01*
X139271721Y-57314431D01*
X139271718Y-57314430D01*
X139271713Y-57314427D01*
X139271709Y-57314425D01*
X139180340Y-57280346D01*
X139176221Y-57278726D01*
X139096380Y-57245655D01*
X139096378Y-57245654D01*
X139096377Y-57245654D01*
X139089496Y-57243810D01*
X139069916Y-57238563D01*
X139058681Y-57234971D01*
X139022638Y-57221528D01*
X139022638Y-57221527D01*
X138938893Y-57203310D01*
X138933160Y-57201919D01*
X138861061Y-57182601D01*
X138861049Y-57182598D01*
X138822178Y-57177480D01*
X138812010Y-57175707D01*
X138762879Y-57165019D01*
X138762869Y-57165018D01*
X138689128Y-57159743D01*
X138681792Y-57158998D01*
X138619515Y-57150800D01*
X138619513Y-57150800D01*
X138568500Y-57150800D01*
X138559654Y-57150484D01*
X138497701Y-57146053D01*
X138497699Y-57146053D01*
X138435746Y-57150484D01*
X138426900Y-57150800D01*
X138375884Y-57150800D01*
X138313605Y-57158998D01*
X138306270Y-57159743D01*
X138232535Y-57165017D01*
X138232525Y-57165019D01*
X138183379Y-57175709D01*
X138173214Y-57177481D01*
X138134344Y-57182599D01*
X138062247Y-57201917D01*
X138056514Y-57203308D01*
X137972766Y-57221526D01*
X137972763Y-57221527D01*
X137936713Y-57234973D01*
X137925479Y-57238564D01*
X137899028Y-57245652D01*
X137899024Y-57245653D01*
X137819176Y-57278727D01*
X137815060Y-57280346D01*
X137723676Y-57314431D01*
X137723675Y-57314432D01*
X137700285Y-57327204D01*
X137688319Y-57332929D01*
X137673951Y-57338881D01*
X137673941Y-57338885D01*
X137588855Y-57388008D01*
X137586287Y-57389450D01*
X137490359Y-57441832D01*
X137490345Y-57441841D01*
X137478479Y-57450724D01*
X137466190Y-57458831D01*
X137462958Y-57460697D01*
X137462947Y-57460704D01*
X137375610Y-57527718D01*
X137374438Y-57528607D01*
X137277530Y-57601153D01*
X137271140Y-57607542D01*
X137095928Y-57782754D01*
X137089553Y-57789130D01*
X137017007Y-57886038D01*
X137016118Y-57887210D01*
X136949104Y-57974547D01*
X136949097Y-57974558D01*
X136947231Y-57977790D01*
X136939124Y-57990079D01*
X136930241Y-58001945D01*
X136930232Y-58001959D01*
X136877850Y-58097887D01*
X136876408Y-58100455D01*
X136827285Y-58185541D01*
X136827281Y-58185551D01*
X136821329Y-58199919D01*
X136815604Y-58211885D01*
X136802832Y-58235275D01*
X136802831Y-58235276D01*
X136768746Y-58326660D01*
X136767127Y-58330776D01*
X136734053Y-58410624D01*
X136734052Y-58410628D01*
X136726964Y-58437079D01*
X136723373Y-58448313D01*
X136709927Y-58484363D01*
X136709926Y-58484366D01*
X136691708Y-58568114D01*
X136690317Y-58573847D01*
X136670999Y-58645944D01*
X136665881Y-58684814D01*
X136664109Y-58694979D01*
X136653419Y-58744125D01*
X136653417Y-58744135D01*
X136648143Y-58817870D01*
X136647398Y-58825205D01*
X136639200Y-58887483D01*
X136639200Y-58938499D01*
X136638884Y-58947345D01*
X136634453Y-59009298D01*
X136634453Y-59009301D01*
X135783500Y-59009301D01*
X135783500Y-58137605D01*
X135783499Y-58137601D01*
X135775598Y-58097881D01*
X135759155Y-58015215D01*
X135711400Y-57899925D01*
X135711399Y-57899924D01*
X135711396Y-57899918D01*
X135642072Y-57796168D01*
X135627180Y-57781276D01*
X135553833Y-57707929D01*
X135373612Y-57527708D01*
X135164319Y-57318414D01*
X135130834Y-57257091D01*
X135128000Y-57230733D01*
X135128000Y-55649500D01*
X135147685Y-55582461D01*
X135200489Y-55536706D01*
X135252000Y-55525500D01*
X138991715Y-55525500D01*
X138996754Y-55525500D01*
X139003243Y-55525669D01*
G37*
G04 #@! TD.AperFunction*
G04 #@! TA.AperFunction,Conductor*
G36*
X83763039Y-55545185D02*
G01*
X83808794Y-55597989D01*
X83820000Y-55649500D01*
X83820000Y-62266500D01*
X82247602Y-62266500D01*
X82125219Y-62290843D01*
X82125214Y-62290845D01*
X82091448Y-62304829D01*
X82091449Y-62304830D01*
X82009926Y-62338598D01*
X82009922Y-62338600D01*
X81906171Y-62407924D01*
X81906169Y-62407926D01*
X81906167Y-62407927D01*
X81906167Y-62407928D01*
X81830095Y-62484000D01*
X77025500Y-62484000D01*
X77025500Y-59009301D01*
X78634453Y-59009301D01*
X78638884Y-59071253D01*
X78639200Y-59080099D01*
X78639200Y-59131115D01*
X78647398Y-59193392D01*
X78648143Y-59200728D01*
X78653418Y-59274469D01*
X78653419Y-59274479D01*
X78664107Y-59323610D01*
X78665880Y-59333778D01*
X78670998Y-59372649D01*
X78671001Y-59372661D01*
X78690319Y-59444760D01*
X78691710Y-59450493D01*
X78709928Y-59534238D01*
X78723371Y-59570281D01*
X78726963Y-59581516D01*
X78734055Y-59607980D01*
X78767126Y-59687821D01*
X78768746Y-59691940D01*
X78802825Y-59783309D01*
X78802827Y-59783313D01*
X78802829Y-59783316D01*
X78802831Y-59783321D01*
X78815607Y-59806718D01*
X78821330Y-59818680D01*
X78827285Y-59833057D01*
X78827286Y-59833058D01*
X78876410Y-59918145D01*
X78877854Y-59920716D01*
X78930237Y-60016647D01*
X78930240Y-60016651D01*
X78939120Y-60028515D01*
X78947229Y-60040806D01*
X78949100Y-60044046D01*
X78949100Y-60044047D01*
X79016108Y-60131374D01*
X79016998Y-60132549D01*
X79089543Y-60229456D01*
X79089561Y-60229477D01*
X79094666Y-60234582D01*
X79094680Y-60234597D01*
X79272761Y-60412679D01*
X79272800Y-60412715D01*
X79277530Y-60417445D01*
X79277532Y-60417447D01*
X79277540Y-60417454D01*
X79374449Y-60489999D01*
X79375546Y-60490830D01*
X79462957Y-60557902D01*
X79462965Y-60557906D01*
X79462967Y-60557908D01*
X79466178Y-60559762D01*
X79478489Y-60567882D01*
X79485082Y-60572817D01*
X79490353Y-60576763D01*
X79490357Y-60576765D01*
X79490363Y-60576769D01*
X79586281Y-60629144D01*
X79588828Y-60630573D01*
X79673943Y-60679715D01*
X79673954Y-60679719D01*
X79673955Y-60679720D01*
X79688304Y-60685663D01*
X79700283Y-60691393D01*
X79723679Y-60704169D01*
X79815039Y-60738244D01*
X79819158Y-60739865D01*
X79899024Y-60772947D01*
X79920720Y-60778759D01*
X79925477Y-60780033D01*
X79936707Y-60783623D01*
X79972763Y-60797072D01*
X79972768Y-60797073D01*
X80056493Y-60815286D01*
X80062229Y-60816677D01*
X80095165Y-60825501D01*
X80134347Y-60836001D01*
X80173212Y-60841117D01*
X80183371Y-60842887D01*
X80232532Y-60853582D01*
X80306278Y-60858855D01*
X80313578Y-60859596D01*
X80375887Y-60867800D01*
X80426900Y-60867800D01*
X80435746Y-60868116D01*
X80497699Y-60872547D01*
X80497700Y-60872547D01*
X80497701Y-60872547D01*
X80559654Y-60868116D01*
X80568500Y-60867800D01*
X80619511Y-60867800D01*
X80619513Y-60867800D01*
X80681824Y-60859596D01*
X80689120Y-60858855D01*
X80762868Y-60853582D01*
X80812023Y-60842888D01*
X80822191Y-60841117D01*
X80861053Y-60836001D01*
X80933166Y-60816677D01*
X80938847Y-60815298D01*
X81022637Y-60797072D01*
X81058706Y-60783618D01*
X81069906Y-60780038D01*
X81096377Y-60772946D01*
X81176262Y-60739855D01*
X81180360Y-60738244D01*
X81271721Y-60704169D01*
X81295114Y-60691394D01*
X81307079Y-60685669D01*
X81321457Y-60679715D01*
X81406564Y-60630577D01*
X81409096Y-60629155D01*
X81505047Y-60576763D01*
X81516905Y-60567886D01*
X81529220Y-60559762D01*
X81532443Y-60557902D01*
X81581123Y-60520547D01*
X81619853Y-60490830D01*
X81620949Y-60489999D01*
X81717867Y-60417448D01*
X81721371Y-60413943D01*
X81721394Y-60413923D01*
X81902324Y-60232994D01*
X81902344Y-60232969D01*
X81905848Y-60229467D01*
X81978410Y-60132534D01*
X81979230Y-60131453D01*
X82046297Y-60044049D01*
X82046302Y-60044043D01*
X82048162Y-60040820D01*
X82056286Y-60028505D01*
X82065158Y-60016654D01*
X82065159Y-60016652D01*
X82065160Y-60016651D01*
X82065163Y-60016647D01*
X82117555Y-59920696D01*
X82118979Y-59918162D01*
X82118989Y-59918145D01*
X82168115Y-59833057D01*
X82174069Y-59818679D01*
X82179800Y-59806703D01*
X82192569Y-59783321D01*
X82226652Y-59691940D01*
X82228265Y-59687839D01*
X82261346Y-59607977D01*
X82268438Y-59581506D01*
X82272018Y-59570306D01*
X82285472Y-59534237D01*
X82303698Y-59450447D01*
X82305082Y-59444747D01*
X82324399Y-59372661D01*
X82324401Y-59372653D01*
X82329519Y-59333778D01*
X82331290Y-59323615D01*
X82331291Y-59323610D01*
X82341982Y-59274468D01*
X82347255Y-59200720D01*
X82347996Y-59193424D01*
X82356200Y-59131113D01*
X82356200Y-59080099D01*
X82356516Y-59071253D01*
X82360947Y-59009301D01*
X82360947Y-59009298D01*
X82356516Y-58947345D01*
X82356200Y-58938499D01*
X82356200Y-58887487D01*
X82356199Y-58887483D01*
X82347996Y-58825178D01*
X82347255Y-58817870D01*
X82341982Y-58744132D01*
X82331287Y-58694971D01*
X82329517Y-58684809D01*
X82324401Y-58645949D01*
X82324401Y-58645947D01*
X82315853Y-58614049D01*
X82305077Y-58573829D01*
X82303686Y-58568093D01*
X82289580Y-58503246D01*
X82285472Y-58484363D01*
X82272023Y-58448307D01*
X82268433Y-58437074D01*
X82261347Y-58410624D01*
X82228265Y-58330758D01*
X82226644Y-58326639D01*
X82192569Y-58235279D01*
X82179793Y-58211883D01*
X82174063Y-58199904D01*
X82168120Y-58185555D01*
X82168118Y-58185551D01*
X82168115Y-58185543D01*
X82118973Y-58100428D01*
X82117544Y-58097881D01*
X82065169Y-58001963D01*
X82065162Y-58001952D01*
X82056282Y-57990089D01*
X82048162Y-57977778D01*
X82046308Y-57974567D01*
X82046306Y-57974565D01*
X82046302Y-57974557D01*
X81979266Y-57887194D01*
X81978399Y-57886049D01*
X81905854Y-57789140D01*
X81905847Y-57789132D01*
X81905845Y-57789130D01*
X81901115Y-57784400D01*
X81901079Y-57784361D01*
X81723011Y-57606294D01*
X81722982Y-57606266D01*
X81717877Y-57601161D01*
X81717856Y-57601143D01*
X81620949Y-57528598D01*
X81619774Y-57527708D01*
X81532446Y-57460700D01*
X81529206Y-57458829D01*
X81516915Y-57450720D01*
X81505051Y-57441840D01*
X81505047Y-57441837D01*
X81409116Y-57389454D01*
X81406545Y-57388010D01*
X81383955Y-57374968D01*
X81321457Y-57338885D01*
X81307080Y-57332930D01*
X81295118Y-57327207D01*
X81271721Y-57314431D01*
X81271718Y-57314430D01*
X81271713Y-57314427D01*
X81271709Y-57314425D01*
X81180340Y-57280346D01*
X81176221Y-57278726D01*
X81096380Y-57245655D01*
X81096378Y-57245654D01*
X81096377Y-57245654D01*
X81089496Y-57243810D01*
X81069916Y-57238563D01*
X81058681Y-57234971D01*
X81022638Y-57221528D01*
X81022638Y-57221527D01*
X80938893Y-57203310D01*
X80933160Y-57201919D01*
X80861061Y-57182601D01*
X80861049Y-57182598D01*
X80822178Y-57177480D01*
X80812010Y-57175707D01*
X80762879Y-57165019D01*
X80762869Y-57165018D01*
X80689128Y-57159743D01*
X80681792Y-57158998D01*
X80619515Y-57150800D01*
X80619513Y-57150800D01*
X80568500Y-57150800D01*
X80559654Y-57150484D01*
X80497701Y-57146053D01*
X80497699Y-57146053D01*
X80435746Y-57150484D01*
X80426900Y-57150800D01*
X80375884Y-57150800D01*
X80313605Y-57158998D01*
X80306270Y-57159743D01*
X80232535Y-57165017D01*
X80232525Y-57165019D01*
X80183379Y-57175709D01*
X80173214Y-57177481D01*
X80134344Y-57182599D01*
X80062247Y-57201917D01*
X80056514Y-57203308D01*
X79972766Y-57221526D01*
X79972763Y-57221527D01*
X79936713Y-57234973D01*
X79925479Y-57238564D01*
X79899028Y-57245652D01*
X79899024Y-57245653D01*
X79819176Y-57278727D01*
X79815060Y-57280346D01*
X79723676Y-57314431D01*
X79723675Y-57314432D01*
X79700285Y-57327204D01*
X79688319Y-57332929D01*
X79673951Y-57338881D01*
X79673941Y-57338885D01*
X79588855Y-57388008D01*
X79586287Y-57389450D01*
X79490359Y-57441832D01*
X79490345Y-57441841D01*
X79478479Y-57450724D01*
X79466190Y-57458831D01*
X79462958Y-57460697D01*
X79462947Y-57460704D01*
X79375610Y-57527718D01*
X79374438Y-57528607D01*
X79277530Y-57601153D01*
X79271140Y-57607542D01*
X79095928Y-57782754D01*
X79089553Y-57789130D01*
X79017007Y-57886038D01*
X79016118Y-57887210D01*
X78949104Y-57974547D01*
X78949097Y-57974558D01*
X78947231Y-57977790D01*
X78939124Y-57990079D01*
X78930241Y-58001945D01*
X78930232Y-58001959D01*
X78877850Y-58097887D01*
X78876408Y-58100455D01*
X78827285Y-58185541D01*
X78827281Y-58185551D01*
X78821329Y-58199919D01*
X78815604Y-58211885D01*
X78802832Y-58235275D01*
X78802831Y-58235276D01*
X78768746Y-58326660D01*
X78767127Y-58330776D01*
X78734053Y-58410624D01*
X78734052Y-58410628D01*
X78726964Y-58437079D01*
X78723373Y-58448313D01*
X78709927Y-58484363D01*
X78709926Y-58484366D01*
X78691708Y-58568114D01*
X78690317Y-58573847D01*
X78670999Y-58645944D01*
X78665881Y-58684814D01*
X78664109Y-58694979D01*
X78653419Y-58744125D01*
X78653417Y-58744135D01*
X78648143Y-58817870D01*
X78647398Y-58825205D01*
X78639200Y-58887483D01*
X78639200Y-58938499D01*
X78638884Y-58947345D01*
X78634453Y-59009298D01*
X78634453Y-59009301D01*
X77025500Y-59009301D01*
X77025500Y-58503246D01*
X77025670Y-58496756D01*
X77041455Y-58195566D01*
X77042812Y-58182659D01*
X77071431Y-58001963D01*
X77089485Y-57887973D01*
X77092175Y-57875312D01*
X77169403Y-57587092D01*
X77173404Y-57574777D01*
X77280336Y-57296211D01*
X77285600Y-57284389D01*
X77421069Y-57018514D01*
X77427530Y-57007324D01*
X77590050Y-56757066D01*
X77597659Y-56746594D01*
X77785437Y-56514707D01*
X77794104Y-56505082D01*
X78005082Y-56294104D01*
X78014707Y-56285437D01*
X78246594Y-56097659D01*
X78257066Y-56090050D01*
X78507324Y-55927530D01*
X78518514Y-55921069D01*
X78784389Y-55785600D01*
X78796211Y-55780336D01*
X79074777Y-55673404D01*
X79087092Y-55669403D01*
X79375312Y-55592175D01*
X79387973Y-55589485D01*
X79682659Y-55542812D01*
X79695564Y-55541455D01*
X79996756Y-55525669D01*
X80003246Y-55525500D01*
X83696000Y-55525500D01*
X83763039Y-55545185D01*
G37*
G04 #@! TD.AperFunction*
M02*
