M48
; DRILL file {KiCad 8.0.1} date 2025-07-27T10:09:21+0200
; FORMAT={-:-/ absolute / inch / decimal}
; #@! TF.CreationDate,2025-07-27T10:09:21+02:00
; #@! TF.GenerationSoftware,Kicad,Pcbnew,8.0.1
; #@! TF.FileFunction,Plated,1,2,PTH
FMAT,2
INCH
; #@! TA.AperFunction,Plated,PTH,ViaDrill
T1C0.0157
; #@! TA.AperFunction,Plated,PTH,ComponentDrill
T2C0.0315
; #@! TA.AperFunction,Plated,PTH,ComponentDrill
T3C0.0394
; #@! TA.AperFunction,Plated,PTH,ComponentDrill
T4C0.1063
%
G90
G05
T1
X3.1854Y-3.8661
X3.2618Y-2.5846
X3.2618Y-2.685
X3.2618Y-2.7874
X3.2618Y-2.8839
X3.328Y-2.5209
X3.3878Y-3.3307
X3.6126Y-2.463
X4.0606Y-2.5689
X4.1122Y-2.4626
X4.1929Y-2.7067
X4.311Y-2.4626
X4.3346Y-2.8287
X4.9803Y-2.5098
X5.0295Y-2.8858
X5.2579Y-2.9803
T2
X3.389Y-4.0201
X3.389Y-4.1201
X3.389Y-4.2201
X3.689Y-4.0201
X3.689Y-4.1201
X3.689Y-4.2201
T3
X3.3177Y-3.724
X3.3177Y-3.824
X3.3189Y-2.6339
X3.3189Y-2.7339
X3.3189Y-2.8339
X3.3189Y-2.9339
X3.3189Y-3.0339
X3.3189Y-3.1339
X3.3189Y-3.3307
X3.3189Y-3.4307
X3.3189Y-3.5307
X3.3622Y-2.276
X3.3622Y-2.376
X3.4622Y-2.276
X3.4622Y-2.376
X3.5622Y-2.276
X3.5622Y-2.376
X3.6622Y-2.276
X3.6622Y-2.376
X3.7622Y-2.276
X3.7622Y-2.376
X3.8622Y-2.276
X3.8622Y-2.376
X3.9622Y-2.276
X3.9622Y-2.376
X4.0622Y-2.276
X4.0622Y-2.376
X4.1622Y-2.276
X4.1622Y-2.376
X4.2622Y-2.276
X4.2622Y-2.376
X4.3622Y-2.276
X4.3622Y-2.376
X4.4622Y-2.276
X4.4622Y-2.376
X4.5622Y-2.276
X4.5622Y-2.376
X4.6326Y-3.8076
X4.6326Y-3.9076
X4.6326Y-4.0226
X4.6326Y-4.1226
X4.6326Y-4.2226
X4.6326Y-4.3226
X4.6622Y-2.276
X4.6622Y-2.376
X4.7326Y-3.8076
X4.7326Y-3.9076
X4.7326Y-4.0226
X4.7326Y-4.1226
X4.7326Y-4.2226
X4.7326Y-4.3226
X4.7622Y-2.276
X4.7622Y-2.376
X4.8326Y-3.8076
X4.8326Y-3.9076
X4.8326Y-4.0226
X4.8326Y-4.1226
X4.8326Y-4.2226
X4.8326Y-4.3226
X4.8622Y-2.276
X4.8622Y-2.376
X4.8681Y-3.3154
X4.8681Y-3.4154
X4.8701Y-2.6339
X4.8701Y-2.7339
X4.8701Y-2.8339
X4.8701Y-2.9339
X4.8701Y-3.0339
X4.8701Y-3.1339
X4.9326Y-3.8076
X4.9326Y-3.9076
X4.9326Y-4.0226
X4.9326Y-4.1226
X4.9326Y-4.2226
X4.9326Y-4.3226
X4.9622Y-2.276
X4.9622Y-2.376
X5.0326Y-3.8076
X5.0326Y-3.9076
X5.0326Y-4.0226
X5.0326Y-4.1226
X5.0326Y-4.2226
X5.0326Y-4.3226
X5.0622Y-2.276
X5.0622Y-2.376
X5.1326Y-3.8076
X5.1326Y-3.9076
X5.1326Y-4.0226
X5.1326Y-4.1226
X5.1326Y-4.2226
X5.1326Y-4.3226
X5.1622Y-2.276
X5.1622Y-2.376
X5.2326Y-3.8076
X5.2326Y-3.9076
X5.2326Y-4.0226
X5.2326Y-4.1226
X5.2326Y-4.2226
X5.2326Y-4.3226
X5.2622Y-2.276
X5.2622Y-2.376
T4
X3.1692Y-2.3232
X3.1692Y-4.272
X5.4527Y-2.3232
X5.4527Y-4.272
M30
