%TF.GenerationSoftware,KiCad,Pcbnew,8.0.1*%
%TF.CreationDate,2025-07-27T10:09:20+02:00*%
%TF.ProjectId,SVXLink_PiHat_v2,5356584c-696e-46b5-9f50-694861745f76,rev?*%
%TF.SameCoordinates,Original*%
%TF.FileFunction,Drillmap*%
%TF.FilePolarity,Positive*%
%FSLAX45Y45*%
G04 Gerber Fmt 4.5, Leading zero omitted, Abs format (unit mm)*
G04 Created by KiCad (PCBNEW 8.0.1) date 2025-07-27 10:09:20*
%MOMM*%
%LPD*%
G01*
G04 APERTURE LIST*
%ADD10C,0.050000*%
%ADD11C,0.200000*%
%ADD12C,0.100000*%
%ADD13C,0.270000*%
G04 APERTURE END LIST*
D10*
X8100000Y-11200000D02*
X13900000Y-11200000D01*
X8100000Y-5550000D02*
X13900000Y-5550000D01*
X13900000Y-5550000D02*
G75*
G02*
X14200000Y-5850000I0J-300000D01*
G01*
X7700000Y-5850000D02*
G75*
G02*
X8000000Y-5550000I300000J0D01*
G01*
X7700000Y-7450000D02*
X7700000Y-5850000D01*
X7700000Y-10900000D02*
X7700000Y-7450000D01*
X14200000Y-10900000D02*
X14200000Y-5850000D01*
X8000000Y-11200000D02*
X8100000Y-11200000D01*
X8000000Y-5550000D02*
X8100000Y-5550000D01*
X8000000Y-11200000D02*
G75*
G02*
X7700000Y-10900000I0J300000D01*
G01*
X14200000Y-10900000D02*
G75*
G02*
X13900000Y-11200000I-300000J0D01*
G01*
D11*
D12*
X8071000Y-9800000D02*
X8111000Y-9840000D01*
X8111000Y-9800000D02*
X8071000Y-9840000D01*
X8265000Y-6545000D02*
X8305000Y-6585000D01*
X8305000Y-6545000D02*
X8265000Y-6585000D01*
X8265000Y-6800000D02*
X8305000Y-6840000D01*
X8305000Y-6800000D02*
X8265000Y-6840000D01*
X8265000Y-7060000D02*
X8305000Y-7100000D01*
X8305000Y-7060000D02*
X8265000Y-7100000D01*
X8265000Y-7305000D02*
X8305000Y-7345000D01*
X8305000Y-7305000D02*
X8265000Y-7345000D01*
X8433000Y-6383000D02*
X8473000Y-6423000D01*
X8473000Y-6383000D02*
X8433000Y-6423000D01*
X8585000Y-8440000D02*
X8625000Y-8480000D01*
X8625000Y-8440000D02*
X8585000Y-8480000D01*
X9156000Y-6236000D02*
X9196000Y-6276000D01*
X9196000Y-6236000D02*
X9156000Y-6276000D01*
X10294000Y-6505000D02*
X10334000Y-6545000D01*
X10334000Y-6505000D02*
X10294000Y-6545000D01*
X10425000Y-6235000D02*
X10465000Y-6275000D01*
X10465000Y-6235000D02*
X10425000Y-6275000D01*
X10630000Y-6855000D02*
X10670000Y-6895000D01*
X10670000Y-6855000D02*
X10630000Y-6895000D01*
X10930000Y-6235000D02*
X10970000Y-6275000D01*
X10970000Y-6235000D02*
X10930000Y-6275000D01*
X10990000Y-7165000D02*
X11030000Y-7205000D01*
X11030000Y-7165000D02*
X10990000Y-7205000D01*
X12630000Y-6355000D02*
X12670000Y-6395000D01*
X12670000Y-6355000D02*
X12630000Y-6395000D01*
X12755000Y-7310000D02*
X12795000Y-7350000D01*
X12795000Y-7310000D02*
X12755000Y-7350000D01*
X13335000Y-7550000D02*
X13375000Y-7590000D01*
X13375000Y-7550000D02*
X13335000Y-7590000D01*
X8648000Y-10211000D02*
G75*
G02*
X8568000Y-10211000I-40000J0D01*
G01*
X8568000Y-10211000D02*
G75*
G02*
X8648000Y-10211000I40000J0D01*
G01*
X8648000Y-10465000D02*
G75*
G02*
X8568000Y-10465000I-40000J0D01*
G01*
X8568000Y-10465000D02*
G75*
G02*
X8648000Y-10465000I40000J0D01*
G01*
X8648000Y-10719000D02*
G75*
G02*
X8568000Y-10719000I-40000J0D01*
G01*
X8568000Y-10719000D02*
G75*
G02*
X8648000Y-10719000I40000J0D01*
G01*
X9410000Y-10211000D02*
G75*
G02*
X9330000Y-10211000I-40000J0D01*
G01*
X9330000Y-10211000D02*
G75*
G02*
X9410000Y-10211000I40000J0D01*
G01*
X9410000Y-10465000D02*
G75*
G02*
X9330000Y-10465000I-40000J0D01*
G01*
X9330000Y-10465000D02*
G75*
G02*
X9410000Y-10465000I40000J0D01*
G01*
X9410000Y-10719000D02*
G75*
G02*
X9330000Y-10719000I-40000J0D01*
G01*
X9330000Y-10719000D02*
G75*
G02*
X9410000Y-10719000I40000J0D01*
G01*
X8427000Y-9409000D02*
X8427000Y-9509000D01*
X8377000Y-9459000D02*
X8477000Y-9459000D01*
X8427000Y-9663000D02*
X8427000Y-9763000D01*
X8377000Y-9713000D02*
X8477000Y-9713000D01*
X8430000Y-6640000D02*
X8430000Y-6740000D01*
X8380000Y-6690000D02*
X8480000Y-6690000D01*
X8430000Y-6894000D02*
X8430000Y-6994000D01*
X8380000Y-6944000D02*
X8480000Y-6944000D01*
X8430000Y-7148000D02*
X8430000Y-7248000D01*
X8380000Y-7198000D02*
X8480000Y-7198000D01*
X8430000Y-7402000D02*
X8430000Y-7502000D01*
X8380000Y-7452000D02*
X8480000Y-7452000D01*
X8430000Y-7656000D02*
X8430000Y-7756000D01*
X8380000Y-7706000D02*
X8480000Y-7706000D01*
X8430000Y-7910000D02*
X8430000Y-8010000D01*
X8380000Y-7960000D02*
X8480000Y-7960000D01*
X8430000Y-8410000D02*
X8430000Y-8510000D01*
X8380000Y-8460000D02*
X8480000Y-8460000D01*
X8430000Y-8664000D02*
X8430000Y-8764000D01*
X8380000Y-8714000D02*
X8480000Y-8714000D01*
X8430000Y-8918000D02*
X8430000Y-9018000D01*
X8380000Y-8968000D02*
X8480000Y-8968000D01*
X8540000Y-5731000D02*
X8540000Y-5831000D01*
X8490000Y-5781000D02*
X8590000Y-5781000D01*
X8540000Y-5985000D02*
X8540000Y-6085000D01*
X8490000Y-6035000D02*
X8590000Y-6035000D01*
X8794000Y-5731000D02*
X8794000Y-5831000D01*
X8744000Y-5781000D02*
X8844000Y-5781000D01*
X8794000Y-5985000D02*
X8794000Y-6085000D01*
X8744000Y-6035000D02*
X8844000Y-6035000D01*
X9048000Y-5731000D02*
X9048000Y-5831000D01*
X8998000Y-5781000D02*
X9098000Y-5781000D01*
X9048000Y-5985000D02*
X9048000Y-6085000D01*
X8998000Y-6035000D02*
X9098000Y-6035000D01*
X9302000Y-5731000D02*
X9302000Y-5831000D01*
X9252000Y-5781000D02*
X9352000Y-5781000D01*
X9302000Y-5985000D02*
X9302000Y-6085000D01*
X9252000Y-6035000D02*
X9352000Y-6035000D01*
X9556000Y-5731000D02*
X9556000Y-5831000D01*
X9506000Y-5781000D02*
X9606000Y-5781000D01*
X9556000Y-5985000D02*
X9556000Y-6085000D01*
X9506000Y-6035000D02*
X9606000Y-6035000D01*
X9810000Y-5731000D02*
X9810000Y-5831000D01*
X9760000Y-5781000D02*
X9860000Y-5781000D01*
X9810000Y-5985000D02*
X9810000Y-6085000D01*
X9760000Y-6035000D02*
X9860000Y-6035000D01*
X10064000Y-5731000D02*
X10064000Y-5831000D01*
X10014000Y-5781000D02*
X10114000Y-5781000D01*
X10064000Y-5985000D02*
X10064000Y-6085000D01*
X10014000Y-6035000D02*
X10114000Y-6035000D01*
X10318000Y-5731000D02*
X10318000Y-5831000D01*
X10268000Y-5781000D02*
X10368000Y-5781000D01*
X10318000Y-5985000D02*
X10318000Y-6085000D01*
X10268000Y-6035000D02*
X10368000Y-6035000D01*
X10572000Y-5731000D02*
X10572000Y-5831000D01*
X10522000Y-5781000D02*
X10622000Y-5781000D01*
X10572000Y-5985000D02*
X10572000Y-6085000D01*
X10522000Y-6035000D02*
X10622000Y-6035000D01*
X10826000Y-5731000D02*
X10826000Y-5831000D01*
X10776000Y-5781000D02*
X10876000Y-5781000D01*
X10826000Y-5985000D02*
X10826000Y-6085000D01*
X10776000Y-6035000D02*
X10876000Y-6035000D01*
X11080000Y-5731000D02*
X11080000Y-5831000D01*
X11030000Y-5781000D02*
X11130000Y-5781000D01*
X11080000Y-5985000D02*
X11080000Y-6085000D01*
X11030000Y-6035000D02*
X11130000Y-6035000D01*
X11334000Y-5731000D02*
X11334000Y-5831000D01*
X11284000Y-5781000D02*
X11384000Y-5781000D01*
X11334000Y-5985000D02*
X11334000Y-6085000D01*
X11284000Y-6035000D02*
X11384000Y-6035000D01*
X11588000Y-5731000D02*
X11588000Y-5831000D01*
X11538000Y-5781000D02*
X11638000Y-5781000D01*
X11588000Y-5985000D02*
X11588000Y-6085000D01*
X11538000Y-6035000D02*
X11638000Y-6035000D01*
X11766840Y-9621260D02*
X11766840Y-9721260D01*
X11716840Y-9671260D02*
X11816840Y-9671260D01*
X11766840Y-9875260D02*
X11766840Y-9975260D01*
X11716840Y-9925260D02*
X11816840Y-9925260D01*
X11766840Y-10167360D02*
X11766840Y-10267360D01*
X11716840Y-10217360D02*
X11816840Y-10217360D01*
X11766840Y-10421360D02*
X11766840Y-10521360D01*
X11716840Y-10471360D02*
X11816840Y-10471360D01*
X11766840Y-10675360D02*
X11766840Y-10775360D01*
X11716840Y-10725360D02*
X11816840Y-10725360D01*
X11766840Y-10929360D02*
X11766840Y-11029360D01*
X11716840Y-10979360D02*
X11816840Y-10979360D01*
X11842000Y-5731000D02*
X11842000Y-5831000D01*
X11792000Y-5781000D02*
X11892000Y-5781000D01*
X11842000Y-5985000D02*
X11842000Y-6085000D01*
X11792000Y-6035000D02*
X11892000Y-6035000D01*
X12020840Y-9621260D02*
X12020840Y-9721260D01*
X11970840Y-9671260D02*
X12070840Y-9671260D01*
X12020840Y-9875260D02*
X12020840Y-9975260D01*
X11970840Y-9925260D02*
X12070840Y-9925260D01*
X12020840Y-10167360D02*
X12020840Y-10267360D01*
X11970840Y-10217360D02*
X12070840Y-10217360D01*
X12020840Y-10421360D02*
X12020840Y-10521360D01*
X11970840Y-10471360D02*
X12070840Y-10471360D01*
X12020840Y-10675360D02*
X12020840Y-10775360D01*
X11970840Y-10725360D02*
X12070840Y-10725360D01*
X12020840Y-10929360D02*
X12020840Y-11029360D01*
X11970840Y-10979360D02*
X12070840Y-10979360D01*
X12096000Y-5731000D02*
X12096000Y-5831000D01*
X12046000Y-5781000D02*
X12146000Y-5781000D01*
X12096000Y-5985000D02*
X12096000Y-6085000D01*
X12046000Y-6035000D02*
X12146000Y-6035000D01*
X12274840Y-9621260D02*
X12274840Y-9721260D01*
X12224840Y-9671260D02*
X12324840Y-9671260D01*
X12274840Y-9875260D02*
X12274840Y-9975260D01*
X12224840Y-9925260D02*
X12324840Y-9925260D01*
X12274840Y-10167360D02*
X12274840Y-10267360D01*
X12224840Y-10217360D02*
X12324840Y-10217360D01*
X12274840Y-10421360D02*
X12274840Y-10521360D01*
X12224840Y-10471360D02*
X12324840Y-10471360D01*
X12274840Y-10675360D02*
X12274840Y-10775360D01*
X12224840Y-10725360D02*
X12324840Y-10725360D01*
X12274840Y-10929360D02*
X12274840Y-11029360D01*
X12224840Y-10979360D02*
X12324840Y-10979360D01*
X12350000Y-5731000D02*
X12350000Y-5831000D01*
X12300000Y-5781000D02*
X12400000Y-5781000D01*
X12350000Y-5985000D02*
X12350000Y-6085000D01*
X12300000Y-6035000D02*
X12400000Y-6035000D01*
X12365000Y-8371000D02*
X12365000Y-8471000D01*
X12315000Y-8421000D02*
X12415000Y-8421000D01*
X12365000Y-8625000D02*
X12365000Y-8725000D01*
X12315000Y-8675000D02*
X12415000Y-8675000D01*
X12370000Y-6640000D02*
X12370000Y-6740000D01*
X12320000Y-6690000D02*
X12420000Y-6690000D01*
X12370000Y-6894000D02*
X12370000Y-6994000D01*
X12320000Y-6944000D02*
X12420000Y-6944000D01*
X12370000Y-7148000D02*
X12370000Y-7248000D01*
X12320000Y-7198000D02*
X12420000Y-7198000D01*
X12370000Y-7402000D02*
X12370000Y-7502000D01*
X12320000Y-7452000D02*
X12420000Y-7452000D01*
X12370000Y-7656000D02*
X12370000Y-7756000D01*
X12320000Y-7706000D02*
X12420000Y-7706000D01*
X12370000Y-7910000D02*
X12370000Y-8010000D01*
X12320000Y-7960000D02*
X12420000Y-7960000D01*
X12528840Y-9621260D02*
X12528840Y-9721260D01*
X12478840Y-9671260D02*
X12578840Y-9671260D01*
X12528840Y-9875260D02*
X12528840Y-9975260D01*
X12478840Y-9925260D02*
X12578840Y-9925260D01*
X12528840Y-10167360D02*
X12528840Y-10267360D01*
X12478840Y-10217360D02*
X12578840Y-10217360D01*
X12528840Y-10421360D02*
X12528840Y-10521360D01*
X12478840Y-10471360D02*
X12578840Y-10471360D01*
X12528840Y-10675360D02*
X12528840Y-10775360D01*
X12478840Y-10725360D02*
X12578840Y-10725360D01*
X12528840Y-10929360D02*
X12528840Y-11029360D01*
X12478840Y-10979360D02*
X12578840Y-10979360D01*
X12604000Y-5731000D02*
X12604000Y-5831000D01*
X12554000Y-5781000D02*
X12654000Y-5781000D01*
X12604000Y-5985000D02*
X12604000Y-6085000D01*
X12554000Y-6035000D02*
X12654000Y-6035000D01*
X12782840Y-9621260D02*
X12782840Y-9721260D01*
X12732840Y-9671260D02*
X12832840Y-9671260D01*
X12782840Y-9875260D02*
X12782840Y-9975260D01*
X12732840Y-9925260D02*
X12832840Y-9925260D01*
X12782840Y-10167360D02*
X12782840Y-10267360D01*
X12732840Y-10217360D02*
X12832840Y-10217360D01*
X12782840Y-10421360D02*
X12782840Y-10521360D01*
X12732840Y-10471360D02*
X12832840Y-10471360D01*
X12782840Y-10675360D02*
X12782840Y-10775360D01*
X12732840Y-10725360D02*
X12832840Y-10725360D01*
X12782840Y-10929360D02*
X12782840Y-11029360D01*
X12732840Y-10979360D02*
X12832840Y-10979360D01*
X12858000Y-5731000D02*
X12858000Y-5831000D01*
X12808000Y-5781000D02*
X12908000Y-5781000D01*
X12858000Y-5985000D02*
X12858000Y-6085000D01*
X12808000Y-6035000D02*
X12908000Y-6035000D01*
X13036840Y-9621260D02*
X13036840Y-9721260D01*
X12986840Y-9671260D02*
X13086840Y-9671260D01*
X13036840Y-9875260D02*
X13036840Y-9975260D01*
X12986840Y-9925260D02*
X13086840Y-9925260D01*
X13036840Y-10167360D02*
X13036840Y-10267360D01*
X12986840Y-10217360D02*
X13086840Y-10217360D01*
X13036840Y-10421360D02*
X13036840Y-10521360D01*
X12986840Y-10471360D02*
X13086840Y-10471360D01*
X13036840Y-10675360D02*
X13036840Y-10775360D01*
X12986840Y-10725360D02*
X13086840Y-10725360D01*
X13036840Y-10929360D02*
X13036840Y-11029360D01*
X12986840Y-10979360D02*
X13086840Y-10979360D01*
X13112000Y-5731000D02*
X13112000Y-5831000D01*
X13062000Y-5781000D02*
X13162000Y-5781000D01*
X13112000Y-5985000D02*
X13112000Y-6085000D01*
X13062000Y-6035000D02*
X13162000Y-6035000D01*
X13290840Y-9621260D02*
X13290840Y-9721260D01*
X13240840Y-9671260D02*
X13340840Y-9671260D01*
X13290840Y-9875260D02*
X13290840Y-9975260D01*
X13240840Y-9925260D02*
X13340840Y-9925260D01*
X13290840Y-10167360D02*
X13290840Y-10267360D01*
X13240840Y-10217360D02*
X13340840Y-10217360D01*
X13290840Y-10421360D02*
X13290840Y-10521360D01*
X13240840Y-10471360D02*
X13340840Y-10471360D01*
X13290840Y-10675360D02*
X13290840Y-10775360D01*
X13240840Y-10725360D02*
X13340840Y-10725360D01*
X13290840Y-10929360D02*
X13290840Y-11029360D01*
X13240840Y-10979360D02*
X13340840Y-10979360D01*
X13366000Y-5731000D02*
X13366000Y-5831000D01*
X13316000Y-5781000D02*
X13416000Y-5781000D01*
X13366000Y-5985000D02*
X13366000Y-6085000D01*
X13316000Y-6035000D02*
X13416000Y-6035000D01*
D13*
X8145230Y-5996390D02*
X8145230Y-5805470D01*
X7954310Y-5805470D01*
X7954310Y-5996390D01*
X8145230Y-5996390D01*
X8145230Y-10946390D02*
X8145230Y-10755470D01*
X7954310Y-10755470D01*
X7954310Y-10946390D01*
X8145230Y-10946390D01*
X13945230Y-5996390D02*
X13945230Y-5805470D01*
X13754310Y-5805470D01*
X13754310Y-5996390D01*
X13945230Y-5996390D01*
X13945230Y-10946390D02*
X13945230Y-10755470D01*
X13754310Y-10755470D01*
X13754310Y-10946390D01*
X13945230Y-10946390D01*
D11*
X7958277Y-11513984D02*
X7958277Y-11313984D01*
X7958277Y-11313984D02*
X8005896Y-11313984D01*
X8005896Y-11313984D02*
X8034467Y-11323508D01*
X8034467Y-11323508D02*
X8053515Y-11342555D01*
X8053515Y-11342555D02*
X8063039Y-11361603D01*
X8063039Y-11361603D02*
X8072562Y-11399698D01*
X8072562Y-11399698D02*
X8072562Y-11428269D01*
X8072562Y-11428269D02*
X8063039Y-11466365D01*
X8063039Y-11466365D02*
X8053515Y-11485412D01*
X8053515Y-11485412D02*
X8034467Y-11504460D01*
X8034467Y-11504460D02*
X8005896Y-11513984D01*
X8005896Y-11513984D02*
X7958277Y-11513984D01*
X8158277Y-11513984D02*
X8158277Y-11380650D01*
X8158277Y-11418746D02*
X8167801Y-11399698D01*
X8167801Y-11399698D02*
X8177324Y-11390174D01*
X8177324Y-11390174D02*
X8196372Y-11380650D01*
X8196372Y-11380650D02*
X8215420Y-11380650D01*
X8282086Y-11513984D02*
X8282086Y-11380650D01*
X8282086Y-11313984D02*
X8272562Y-11323508D01*
X8272562Y-11323508D02*
X8282086Y-11333031D01*
X8282086Y-11333031D02*
X8291610Y-11323508D01*
X8291610Y-11323508D02*
X8282086Y-11313984D01*
X8282086Y-11313984D02*
X8282086Y-11333031D01*
X8405896Y-11513984D02*
X8386848Y-11504460D01*
X8386848Y-11504460D02*
X8377324Y-11485412D01*
X8377324Y-11485412D02*
X8377324Y-11313984D01*
X8510658Y-11513984D02*
X8491610Y-11504460D01*
X8491610Y-11504460D02*
X8482086Y-11485412D01*
X8482086Y-11485412D02*
X8482086Y-11313984D01*
X8739229Y-11513984D02*
X8739229Y-11313984D01*
X8739229Y-11313984D02*
X8805896Y-11456841D01*
X8805896Y-11456841D02*
X8872563Y-11313984D01*
X8872563Y-11313984D02*
X8872563Y-11513984D01*
X9053515Y-11513984D02*
X9053515Y-11409222D01*
X9053515Y-11409222D02*
X9043991Y-11390174D01*
X9043991Y-11390174D02*
X9024944Y-11380650D01*
X9024944Y-11380650D02*
X8986848Y-11380650D01*
X8986848Y-11380650D02*
X8967801Y-11390174D01*
X9053515Y-11504460D02*
X9034467Y-11513984D01*
X9034467Y-11513984D02*
X8986848Y-11513984D01*
X8986848Y-11513984D02*
X8967801Y-11504460D01*
X8967801Y-11504460D02*
X8958277Y-11485412D01*
X8958277Y-11485412D02*
X8958277Y-11466365D01*
X8958277Y-11466365D02*
X8967801Y-11447317D01*
X8967801Y-11447317D02*
X8986848Y-11437793D01*
X8986848Y-11437793D02*
X9034467Y-11437793D01*
X9034467Y-11437793D02*
X9053515Y-11428269D01*
X9148753Y-11380650D02*
X9148753Y-11580650D01*
X9148753Y-11390174D02*
X9167801Y-11380650D01*
X9167801Y-11380650D02*
X9205896Y-11380650D01*
X9205896Y-11380650D02*
X9224944Y-11390174D01*
X9224944Y-11390174D02*
X9234467Y-11399698D01*
X9234467Y-11399698D02*
X9243991Y-11418746D01*
X9243991Y-11418746D02*
X9243991Y-11475888D01*
X9243991Y-11475888D02*
X9234467Y-11494936D01*
X9234467Y-11494936D02*
X9224944Y-11504460D01*
X9224944Y-11504460D02*
X9205896Y-11513984D01*
X9205896Y-11513984D02*
X9167801Y-11513984D01*
X9167801Y-11513984D02*
X9148753Y-11504460D01*
X9329705Y-11494936D02*
X9339229Y-11504460D01*
X9339229Y-11504460D02*
X9329705Y-11513984D01*
X9329705Y-11513984D02*
X9320182Y-11504460D01*
X9320182Y-11504460D02*
X9329705Y-11494936D01*
X9329705Y-11494936D02*
X9329705Y-11513984D01*
X9329705Y-11390174D02*
X9339229Y-11399698D01*
X9339229Y-11399698D02*
X9329705Y-11409222D01*
X9329705Y-11409222D02*
X9320182Y-11399698D01*
X9320182Y-11399698D02*
X9329705Y-11390174D01*
X9329705Y-11390174D02*
X9329705Y-11409222D01*
D12*
X7657500Y-11822500D02*
X7697500Y-11862500D01*
X7697500Y-11822500D02*
X7657500Y-11862500D01*
D11*
X7996372Y-11733984D02*
X8015420Y-11733984D01*
X8015420Y-11733984D02*
X8034467Y-11743508D01*
X8034467Y-11743508D02*
X8043991Y-11753031D01*
X8043991Y-11753031D02*
X8053515Y-11772079D01*
X8053515Y-11772079D02*
X8063039Y-11810174D01*
X8063039Y-11810174D02*
X8063039Y-11857793D01*
X8063039Y-11857793D02*
X8053515Y-11895888D01*
X8053515Y-11895888D02*
X8043991Y-11914936D01*
X8043991Y-11914936D02*
X8034467Y-11924460D01*
X8034467Y-11924460D02*
X8015420Y-11933984D01*
X8015420Y-11933984D02*
X7996372Y-11933984D01*
X7996372Y-11933984D02*
X7977324Y-11924460D01*
X7977324Y-11924460D02*
X7967801Y-11914936D01*
X7967801Y-11914936D02*
X7958277Y-11895888D01*
X7958277Y-11895888D02*
X7948753Y-11857793D01*
X7948753Y-11857793D02*
X7948753Y-11810174D01*
X7948753Y-11810174D02*
X7958277Y-11772079D01*
X7958277Y-11772079D02*
X7967801Y-11753031D01*
X7967801Y-11753031D02*
X7977324Y-11743508D01*
X7977324Y-11743508D02*
X7996372Y-11733984D01*
X8148753Y-11914936D02*
X8158277Y-11924460D01*
X8158277Y-11924460D02*
X8148753Y-11933984D01*
X8148753Y-11933984D02*
X8139229Y-11924460D01*
X8139229Y-11924460D02*
X8148753Y-11914936D01*
X8148753Y-11914936D02*
X8148753Y-11933984D01*
X8329705Y-11800650D02*
X8329705Y-11933984D01*
X8282086Y-11724460D02*
X8234467Y-11867317D01*
X8234467Y-11867317D02*
X8358277Y-11867317D01*
X8472563Y-11733984D02*
X8491610Y-11733984D01*
X8491610Y-11733984D02*
X8510658Y-11743508D01*
X8510658Y-11743508D02*
X8520182Y-11753031D01*
X8520182Y-11753031D02*
X8529705Y-11772079D01*
X8529705Y-11772079D02*
X8539229Y-11810174D01*
X8539229Y-11810174D02*
X8539229Y-11857793D01*
X8539229Y-11857793D02*
X8529705Y-11895888D01*
X8529705Y-11895888D02*
X8520182Y-11914936D01*
X8520182Y-11914936D02*
X8510658Y-11924460D01*
X8510658Y-11924460D02*
X8491610Y-11933984D01*
X8491610Y-11933984D02*
X8472563Y-11933984D01*
X8472563Y-11933984D02*
X8453515Y-11924460D01*
X8453515Y-11924460D02*
X8443991Y-11914936D01*
X8443991Y-11914936D02*
X8434467Y-11895888D01*
X8434467Y-11895888D02*
X8424944Y-11857793D01*
X8424944Y-11857793D02*
X8424944Y-11810174D01*
X8424944Y-11810174D02*
X8434467Y-11772079D01*
X8434467Y-11772079D02*
X8443991Y-11753031D01*
X8443991Y-11753031D02*
X8453515Y-11743508D01*
X8453515Y-11743508D02*
X8472563Y-11733984D01*
X8663039Y-11733984D02*
X8682086Y-11733984D01*
X8682086Y-11733984D02*
X8701134Y-11743508D01*
X8701134Y-11743508D02*
X8710658Y-11753031D01*
X8710658Y-11753031D02*
X8720182Y-11772079D01*
X8720182Y-11772079D02*
X8729705Y-11810174D01*
X8729705Y-11810174D02*
X8729705Y-11857793D01*
X8729705Y-11857793D02*
X8720182Y-11895888D01*
X8720182Y-11895888D02*
X8710658Y-11914936D01*
X8710658Y-11914936D02*
X8701134Y-11924460D01*
X8701134Y-11924460D02*
X8682086Y-11933984D01*
X8682086Y-11933984D02*
X8663039Y-11933984D01*
X8663039Y-11933984D02*
X8643991Y-11924460D01*
X8643991Y-11924460D02*
X8634467Y-11914936D01*
X8634467Y-11914936D02*
X8624944Y-11895888D01*
X8624944Y-11895888D02*
X8615420Y-11857793D01*
X8615420Y-11857793D02*
X8615420Y-11810174D01*
X8615420Y-11810174D02*
X8624944Y-11772079D01*
X8624944Y-11772079D02*
X8634467Y-11753031D01*
X8634467Y-11753031D02*
X8643991Y-11743508D01*
X8643991Y-11743508D02*
X8663039Y-11733984D01*
X8815420Y-11933984D02*
X8815420Y-11800650D01*
X8815420Y-11819698D02*
X8824944Y-11810174D01*
X8824944Y-11810174D02*
X8843991Y-11800650D01*
X8843991Y-11800650D02*
X8872563Y-11800650D01*
X8872563Y-11800650D02*
X8891610Y-11810174D01*
X8891610Y-11810174D02*
X8901134Y-11829222D01*
X8901134Y-11829222D02*
X8901134Y-11933984D01*
X8901134Y-11829222D02*
X8910658Y-11810174D01*
X8910658Y-11810174D02*
X8929705Y-11800650D01*
X8929705Y-11800650D02*
X8958277Y-11800650D01*
X8958277Y-11800650D02*
X8977325Y-11810174D01*
X8977325Y-11810174D02*
X8986848Y-11829222D01*
X8986848Y-11829222D02*
X8986848Y-11933984D01*
X9082086Y-11933984D02*
X9082086Y-11800650D01*
X9082086Y-11819698D02*
X9091610Y-11810174D01*
X9091610Y-11810174D02*
X9110658Y-11800650D01*
X9110658Y-11800650D02*
X9139229Y-11800650D01*
X9139229Y-11800650D02*
X9158277Y-11810174D01*
X9158277Y-11810174D02*
X9167801Y-11829222D01*
X9167801Y-11829222D02*
X9167801Y-11933984D01*
X9167801Y-11829222D02*
X9177325Y-11810174D01*
X9177325Y-11810174D02*
X9196372Y-11800650D01*
X9196372Y-11800650D02*
X9224944Y-11800650D01*
X9224944Y-11800650D02*
X9243991Y-11810174D01*
X9243991Y-11810174D02*
X9253515Y-11829222D01*
X9253515Y-11829222D02*
X9253515Y-11933984D01*
X9643991Y-11724460D02*
X9472563Y-11981603D01*
X9901134Y-11733984D02*
X9920182Y-11733984D01*
X9920182Y-11733984D02*
X9939229Y-11743508D01*
X9939229Y-11743508D02*
X9948753Y-11753031D01*
X9948753Y-11753031D02*
X9958277Y-11772079D01*
X9958277Y-11772079D02*
X9967801Y-11810174D01*
X9967801Y-11810174D02*
X9967801Y-11857793D01*
X9967801Y-11857793D02*
X9958277Y-11895888D01*
X9958277Y-11895888D02*
X9948753Y-11914936D01*
X9948753Y-11914936D02*
X9939229Y-11924460D01*
X9939229Y-11924460D02*
X9920182Y-11933984D01*
X9920182Y-11933984D02*
X9901134Y-11933984D01*
X9901134Y-11933984D02*
X9882087Y-11924460D01*
X9882087Y-11924460D02*
X9872563Y-11914936D01*
X9872563Y-11914936D02*
X9863039Y-11895888D01*
X9863039Y-11895888D02*
X9853515Y-11857793D01*
X9853515Y-11857793D02*
X9853515Y-11810174D01*
X9853515Y-11810174D02*
X9863039Y-11772079D01*
X9863039Y-11772079D02*
X9872563Y-11753031D01*
X9872563Y-11753031D02*
X9882087Y-11743508D01*
X9882087Y-11743508D02*
X9901134Y-11733984D01*
X10053515Y-11914936D02*
X10063039Y-11924460D01*
X10063039Y-11924460D02*
X10053515Y-11933984D01*
X10053515Y-11933984D02*
X10043991Y-11924460D01*
X10043991Y-11924460D02*
X10053515Y-11914936D01*
X10053515Y-11914936D02*
X10053515Y-11933984D01*
X10186848Y-11733984D02*
X10205896Y-11733984D01*
X10205896Y-11733984D02*
X10224944Y-11743508D01*
X10224944Y-11743508D02*
X10234468Y-11753031D01*
X10234468Y-11753031D02*
X10243991Y-11772079D01*
X10243991Y-11772079D02*
X10253515Y-11810174D01*
X10253515Y-11810174D02*
X10253515Y-11857793D01*
X10253515Y-11857793D02*
X10243991Y-11895888D01*
X10243991Y-11895888D02*
X10234468Y-11914936D01*
X10234468Y-11914936D02*
X10224944Y-11924460D01*
X10224944Y-11924460D02*
X10205896Y-11933984D01*
X10205896Y-11933984D02*
X10186848Y-11933984D01*
X10186848Y-11933984D02*
X10167801Y-11924460D01*
X10167801Y-11924460D02*
X10158277Y-11914936D01*
X10158277Y-11914936D02*
X10148753Y-11895888D01*
X10148753Y-11895888D02*
X10139229Y-11857793D01*
X10139229Y-11857793D02*
X10139229Y-11810174D01*
X10139229Y-11810174D02*
X10148753Y-11772079D01*
X10148753Y-11772079D02*
X10158277Y-11753031D01*
X10158277Y-11753031D02*
X10167801Y-11743508D01*
X10167801Y-11743508D02*
X10186848Y-11733984D01*
X10443991Y-11933984D02*
X10329706Y-11933984D01*
X10386848Y-11933984D02*
X10386848Y-11733984D01*
X10386848Y-11733984D02*
X10367801Y-11762555D01*
X10367801Y-11762555D02*
X10348753Y-11781603D01*
X10348753Y-11781603D02*
X10329706Y-11791127D01*
X10624944Y-11733984D02*
X10529706Y-11733984D01*
X10529706Y-11733984D02*
X10520182Y-11829222D01*
X10520182Y-11829222D02*
X10529706Y-11819698D01*
X10529706Y-11819698D02*
X10548753Y-11810174D01*
X10548753Y-11810174D02*
X10596372Y-11810174D01*
X10596372Y-11810174D02*
X10615420Y-11819698D01*
X10615420Y-11819698D02*
X10624944Y-11829222D01*
X10624944Y-11829222D02*
X10634468Y-11848269D01*
X10634468Y-11848269D02*
X10634468Y-11895888D01*
X10634468Y-11895888D02*
X10624944Y-11914936D01*
X10624944Y-11914936D02*
X10615420Y-11924460D01*
X10615420Y-11924460D02*
X10596372Y-11933984D01*
X10596372Y-11933984D02*
X10548753Y-11933984D01*
X10548753Y-11933984D02*
X10529706Y-11924460D01*
X10529706Y-11924460D02*
X10520182Y-11914936D01*
X10701134Y-11733984D02*
X10834468Y-11733984D01*
X10834468Y-11733984D02*
X10748753Y-11933984D01*
X10901134Y-11733984D02*
X10901134Y-11772079D01*
X10977325Y-11733984D02*
X10977325Y-11772079D01*
X11272563Y-12010174D02*
X11263039Y-12000650D01*
X11263039Y-12000650D02*
X11243991Y-11972079D01*
X11243991Y-11972079D02*
X11234468Y-11953031D01*
X11234468Y-11953031D02*
X11224944Y-11924460D01*
X11224944Y-11924460D02*
X11215420Y-11876841D01*
X11215420Y-11876841D02*
X11215420Y-11838746D01*
X11215420Y-11838746D02*
X11224944Y-11791127D01*
X11224944Y-11791127D02*
X11234468Y-11762555D01*
X11234468Y-11762555D02*
X11243991Y-11743508D01*
X11243991Y-11743508D02*
X11263039Y-11714936D01*
X11263039Y-11714936D02*
X11272563Y-11705412D01*
X11453515Y-11933984D02*
X11339229Y-11933984D01*
X11396372Y-11933984D02*
X11396372Y-11733984D01*
X11396372Y-11733984D02*
X11377325Y-11762555D01*
X11377325Y-11762555D02*
X11358277Y-11781603D01*
X11358277Y-11781603D02*
X11339229Y-11791127D01*
X11624944Y-11733984D02*
X11586848Y-11733984D01*
X11586848Y-11733984D02*
X11567801Y-11743508D01*
X11567801Y-11743508D02*
X11558277Y-11753031D01*
X11558277Y-11753031D02*
X11539229Y-11781603D01*
X11539229Y-11781603D02*
X11529706Y-11819698D01*
X11529706Y-11819698D02*
X11529706Y-11895888D01*
X11529706Y-11895888D02*
X11539229Y-11914936D01*
X11539229Y-11914936D02*
X11548753Y-11924460D01*
X11548753Y-11924460D02*
X11567801Y-11933984D01*
X11567801Y-11933984D02*
X11605896Y-11933984D01*
X11605896Y-11933984D02*
X11624944Y-11924460D01*
X11624944Y-11924460D02*
X11634468Y-11914936D01*
X11634468Y-11914936D02*
X11643991Y-11895888D01*
X11643991Y-11895888D02*
X11643991Y-11848269D01*
X11643991Y-11848269D02*
X11634468Y-11829222D01*
X11634468Y-11829222D02*
X11624944Y-11819698D01*
X11624944Y-11819698D02*
X11605896Y-11810174D01*
X11605896Y-11810174D02*
X11567801Y-11810174D01*
X11567801Y-11810174D02*
X11548753Y-11819698D01*
X11548753Y-11819698D02*
X11539229Y-11829222D01*
X11539229Y-11829222D02*
X11529706Y-11848269D01*
X11882087Y-11933984D02*
X11882087Y-11733984D01*
X11967801Y-11933984D02*
X11967801Y-11829222D01*
X11967801Y-11829222D02*
X11958277Y-11810174D01*
X11958277Y-11810174D02*
X11939230Y-11800650D01*
X11939230Y-11800650D02*
X11910658Y-11800650D01*
X11910658Y-11800650D02*
X11891610Y-11810174D01*
X11891610Y-11810174D02*
X11882087Y-11819698D01*
X12091610Y-11933984D02*
X12072563Y-11924460D01*
X12072563Y-11924460D02*
X12063039Y-11914936D01*
X12063039Y-11914936D02*
X12053515Y-11895888D01*
X12053515Y-11895888D02*
X12053515Y-11838746D01*
X12053515Y-11838746D02*
X12063039Y-11819698D01*
X12063039Y-11819698D02*
X12072563Y-11810174D01*
X12072563Y-11810174D02*
X12091610Y-11800650D01*
X12091610Y-11800650D02*
X12120182Y-11800650D01*
X12120182Y-11800650D02*
X12139230Y-11810174D01*
X12139230Y-11810174D02*
X12148753Y-11819698D01*
X12148753Y-11819698D02*
X12158277Y-11838746D01*
X12158277Y-11838746D02*
X12158277Y-11895888D01*
X12158277Y-11895888D02*
X12148753Y-11914936D01*
X12148753Y-11914936D02*
X12139230Y-11924460D01*
X12139230Y-11924460D02*
X12120182Y-11933984D01*
X12120182Y-11933984D02*
X12091610Y-11933984D01*
X12272563Y-11933984D02*
X12253515Y-11924460D01*
X12253515Y-11924460D02*
X12243991Y-11905412D01*
X12243991Y-11905412D02*
X12243991Y-11733984D01*
X12424944Y-11924460D02*
X12405896Y-11933984D01*
X12405896Y-11933984D02*
X12367801Y-11933984D01*
X12367801Y-11933984D02*
X12348753Y-11924460D01*
X12348753Y-11924460D02*
X12339230Y-11905412D01*
X12339230Y-11905412D02*
X12339230Y-11829222D01*
X12339230Y-11829222D02*
X12348753Y-11810174D01*
X12348753Y-11810174D02*
X12367801Y-11800650D01*
X12367801Y-11800650D02*
X12405896Y-11800650D01*
X12405896Y-11800650D02*
X12424944Y-11810174D01*
X12424944Y-11810174D02*
X12434468Y-11829222D01*
X12434468Y-11829222D02*
X12434468Y-11848269D01*
X12434468Y-11848269D02*
X12339230Y-11867317D01*
X12510658Y-11924460D02*
X12529706Y-11933984D01*
X12529706Y-11933984D02*
X12567801Y-11933984D01*
X12567801Y-11933984D02*
X12586849Y-11924460D01*
X12586849Y-11924460D02*
X12596372Y-11905412D01*
X12596372Y-11905412D02*
X12596372Y-11895888D01*
X12596372Y-11895888D02*
X12586849Y-11876841D01*
X12586849Y-11876841D02*
X12567801Y-11867317D01*
X12567801Y-11867317D02*
X12539230Y-11867317D01*
X12539230Y-11867317D02*
X12520182Y-11857793D01*
X12520182Y-11857793D02*
X12510658Y-11838746D01*
X12510658Y-11838746D02*
X12510658Y-11829222D01*
X12510658Y-11829222D02*
X12520182Y-11810174D01*
X12520182Y-11810174D02*
X12539230Y-11800650D01*
X12539230Y-11800650D02*
X12567801Y-11800650D01*
X12567801Y-11800650D02*
X12586849Y-11810174D01*
X12663039Y-12010174D02*
X12672563Y-12000650D01*
X12672563Y-12000650D02*
X12691611Y-11972079D01*
X12691611Y-11972079D02*
X12701134Y-11953031D01*
X12701134Y-11953031D02*
X12710658Y-11924460D01*
X12710658Y-11924460D02*
X12720182Y-11876841D01*
X12720182Y-11876841D02*
X12720182Y-11838746D01*
X12720182Y-11838746D02*
X12710658Y-11791127D01*
X12710658Y-11791127D02*
X12701134Y-11762555D01*
X12701134Y-11762555D02*
X12691611Y-11743508D01*
X12691611Y-11743508D02*
X12672563Y-11714936D01*
X12672563Y-11714936D02*
X12663039Y-11705412D01*
D12*
X7697500Y-12106500D02*
G75*
G02*
X7617500Y-12106500I-40000J0D01*
G01*
X7617500Y-12106500D02*
G75*
G02*
X7697500Y-12106500I40000J0D01*
G01*
D11*
X7996372Y-11997984D02*
X8015420Y-11997984D01*
X8015420Y-11997984D02*
X8034467Y-12007508D01*
X8034467Y-12007508D02*
X8043991Y-12017031D01*
X8043991Y-12017031D02*
X8053515Y-12036079D01*
X8053515Y-12036079D02*
X8063039Y-12074174D01*
X8063039Y-12074174D02*
X8063039Y-12121793D01*
X8063039Y-12121793D02*
X8053515Y-12159888D01*
X8053515Y-12159888D02*
X8043991Y-12178936D01*
X8043991Y-12178936D02*
X8034467Y-12188460D01*
X8034467Y-12188460D02*
X8015420Y-12197984D01*
X8015420Y-12197984D02*
X7996372Y-12197984D01*
X7996372Y-12197984D02*
X7977324Y-12188460D01*
X7977324Y-12188460D02*
X7967801Y-12178936D01*
X7967801Y-12178936D02*
X7958277Y-12159888D01*
X7958277Y-12159888D02*
X7948753Y-12121793D01*
X7948753Y-12121793D02*
X7948753Y-12074174D01*
X7948753Y-12074174D02*
X7958277Y-12036079D01*
X7958277Y-12036079D02*
X7967801Y-12017031D01*
X7967801Y-12017031D02*
X7977324Y-12007508D01*
X7977324Y-12007508D02*
X7996372Y-11997984D01*
X8148753Y-12178936D02*
X8158277Y-12188460D01*
X8158277Y-12188460D02*
X8148753Y-12197984D01*
X8148753Y-12197984D02*
X8139229Y-12188460D01*
X8139229Y-12188460D02*
X8148753Y-12178936D01*
X8148753Y-12178936D02*
X8148753Y-12197984D01*
X8272562Y-12083698D02*
X8253515Y-12074174D01*
X8253515Y-12074174D02*
X8243991Y-12064650D01*
X8243991Y-12064650D02*
X8234467Y-12045603D01*
X8234467Y-12045603D02*
X8234467Y-12036079D01*
X8234467Y-12036079D02*
X8243991Y-12017031D01*
X8243991Y-12017031D02*
X8253515Y-12007508D01*
X8253515Y-12007508D02*
X8272562Y-11997984D01*
X8272562Y-11997984D02*
X8310658Y-11997984D01*
X8310658Y-11997984D02*
X8329705Y-12007508D01*
X8329705Y-12007508D02*
X8339229Y-12017031D01*
X8339229Y-12017031D02*
X8348753Y-12036079D01*
X8348753Y-12036079D02*
X8348753Y-12045603D01*
X8348753Y-12045603D02*
X8339229Y-12064650D01*
X8339229Y-12064650D02*
X8329705Y-12074174D01*
X8329705Y-12074174D02*
X8310658Y-12083698D01*
X8310658Y-12083698D02*
X8272562Y-12083698D01*
X8272562Y-12083698D02*
X8253515Y-12093222D01*
X8253515Y-12093222D02*
X8243991Y-12102746D01*
X8243991Y-12102746D02*
X8234467Y-12121793D01*
X8234467Y-12121793D02*
X8234467Y-12159888D01*
X8234467Y-12159888D02*
X8243991Y-12178936D01*
X8243991Y-12178936D02*
X8253515Y-12188460D01*
X8253515Y-12188460D02*
X8272562Y-12197984D01*
X8272562Y-12197984D02*
X8310658Y-12197984D01*
X8310658Y-12197984D02*
X8329705Y-12188460D01*
X8329705Y-12188460D02*
X8339229Y-12178936D01*
X8339229Y-12178936D02*
X8348753Y-12159888D01*
X8348753Y-12159888D02*
X8348753Y-12121793D01*
X8348753Y-12121793D02*
X8339229Y-12102746D01*
X8339229Y-12102746D02*
X8329705Y-12093222D01*
X8329705Y-12093222D02*
X8310658Y-12083698D01*
X8472563Y-11997984D02*
X8491610Y-11997984D01*
X8491610Y-11997984D02*
X8510658Y-12007508D01*
X8510658Y-12007508D02*
X8520182Y-12017031D01*
X8520182Y-12017031D02*
X8529705Y-12036079D01*
X8529705Y-12036079D02*
X8539229Y-12074174D01*
X8539229Y-12074174D02*
X8539229Y-12121793D01*
X8539229Y-12121793D02*
X8529705Y-12159888D01*
X8529705Y-12159888D02*
X8520182Y-12178936D01*
X8520182Y-12178936D02*
X8510658Y-12188460D01*
X8510658Y-12188460D02*
X8491610Y-12197984D01*
X8491610Y-12197984D02*
X8472563Y-12197984D01*
X8472563Y-12197984D02*
X8453515Y-12188460D01*
X8453515Y-12188460D02*
X8443991Y-12178936D01*
X8443991Y-12178936D02*
X8434467Y-12159888D01*
X8434467Y-12159888D02*
X8424944Y-12121793D01*
X8424944Y-12121793D02*
X8424944Y-12074174D01*
X8424944Y-12074174D02*
X8434467Y-12036079D01*
X8434467Y-12036079D02*
X8443991Y-12017031D01*
X8443991Y-12017031D02*
X8453515Y-12007508D01*
X8453515Y-12007508D02*
X8472563Y-11997984D01*
X8663039Y-11997984D02*
X8682086Y-11997984D01*
X8682086Y-11997984D02*
X8701134Y-12007508D01*
X8701134Y-12007508D02*
X8710658Y-12017031D01*
X8710658Y-12017031D02*
X8720182Y-12036079D01*
X8720182Y-12036079D02*
X8729705Y-12074174D01*
X8729705Y-12074174D02*
X8729705Y-12121793D01*
X8729705Y-12121793D02*
X8720182Y-12159888D01*
X8720182Y-12159888D02*
X8710658Y-12178936D01*
X8710658Y-12178936D02*
X8701134Y-12188460D01*
X8701134Y-12188460D02*
X8682086Y-12197984D01*
X8682086Y-12197984D02*
X8663039Y-12197984D01*
X8663039Y-12197984D02*
X8643991Y-12188460D01*
X8643991Y-12188460D02*
X8634467Y-12178936D01*
X8634467Y-12178936D02*
X8624944Y-12159888D01*
X8624944Y-12159888D02*
X8615420Y-12121793D01*
X8615420Y-12121793D02*
X8615420Y-12074174D01*
X8615420Y-12074174D02*
X8624944Y-12036079D01*
X8624944Y-12036079D02*
X8634467Y-12017031D01*
X8634467Y-12017031D02*
X8643991Y-12007508D01*
X8643991Y-12007508D02*
X8663039Y-11997984D01*
X8815420Y-12197984D02*
X8815420Y-12064650D01*
X8815420Y-12083698D02*
X8824944Y-12074174D01*
X8824944Y-12074174D02*
X8843991Y-12064650D01*
X8843991Y-12064650D02*
X8872563Y-12064650D01*
X8872563Y-12064650D02*
X8891610Y-12074174D01*
X8891610Y-12074174D02*
X8901134Y-12093222D01*
X8901134Y-12093222D02*
X8901134Y-12197984D01*
X8901134Y-12093222D02*
X8910658Y-12074174D01*
X8910658Y-12074174D02*
X8929705Y-12064650D01*
X8929705Y-12064650D02*
X8958277Y-12064650D01*
X8958277Y-12064650D02*
X8977325Y-12074174D01*
X8977325Y-12074174D02*
X8986848Y-12093222D01*
X8986848Y-12093222D02*
X8986848Y-12197984D01*
X9082086Y-12197984D02*
X9082086Y-12064650D01*
X9082086Y-12083698D02*
X9091610Y-12074174D01*
X9091610Y-12074174D02*
X9110658Y-12064650D01*
X9110658Y-12064650D02*
X9139229Y-12064650D01*
X9139229Y-12064650D02*
X9158277Y-12074174D01*
X9158277Y-12074174D02*
X9167801Y-12093222D01*
X9167801Y-12093222D02*
X9167801Y-12197984D01*
X9167801Y-12093222D02*
X9177325Y-12074174D01*
X9177325Y-12074174D02*
X9196372Y-12064650D01*
X9196372Y-12064650D02*
X9224944Y-12064650D01*
X9224944Y-12064650D02*
X9243991Y-12074174D01*
X9243991Y-12074174D02*
X9253515Y-12093222D01*
X9253515Y-12093222D02*
X9253515Y-12197984D01*
X9643991Y-11988460D02*
X9472563Y-12245603D01*
X9901134Y-11997984D02*
X9920182Y-11997984D01*
X9920182Y-11997984D02*
X9939229Y-12007508D01*
X9939229Y-12007508D02*
X9948753Y-12017031D01*
X9948753Y-12017031D02*
X9958277Y-12036079D01*
X9958277Y-12036079D02*
X9967801Y-12074174D01*
X9967801Y-12074174D02*
X9967801Y-12121793D01*
X9967801Y-12121793D02*
X9958277Y-12159888D01*
X9958277Y-12159888D02*
X9948753Y-12178936D01*
X9948753Y-12178936D02*
X9939229Y-12188460D01*
X9939229Y-12188460D02*
X9920182Y-12197984D01*
X9920182Y-12197984D02*
X9901134Y-12197984D01*
X9901134Y-12197984D02*
X9882087Y-12188460D01*
X9882087Y-12188460D02*
X9872563Y-12178936D01*
X9872563Y-12178936D02*
X9863039Y-12159888D01*
X9863039Y-12159888D02*
X9853515Y-12121793D01*
X9853515Y-12121793D02*
X9853515Y-12074174D01*
X9853515Y-12074174D02*
X9863039Y-12036079D01*
X9863039Y-12036079D02*
X9872563Y-12017031D01*
X9872563Y-12017031D02*
X9882087Y-12007508D01*
X9882087Y-12007508D02*
X9901134Y-11997984D01*
X10053515Y-12178936D02*
X10063039Y-12188460D01*
X10063039Y-12188460D02*
X10053515Y-12197984D01*
X10053515Y-12197984D02*
X10043991Y-12188460D01*
X10043991Y-12188460D02*
X10053515Y-12178936D01*
X10053515Y-12178936D02*
X10053515Y-12197984D01*
X10186848Y-11997984D02*
X10205896Y-11997984D01*
X10205896Y-11997984D02*
X10224944Y-12007508D01*
X10224944Y-12007508D02*
X10234468Y-12017031D01*
X10234468Y-12017031D02*
X10243991Y-12036079D01*
X10243991Y-12036079D02*
X10253515Y-12074174D01*
X10253515Y-12074174D02*
X10253515Y-12121793D01*
X10253515Y-12121793D02*
X10243991Y-12159888D01*
X10243991Y-12159888D02*
X10234468Y-12178936D01*
X10234468Y-12178936D02*
X10224944Y-12188460D01*
X10224944Y-12188460D02*
X10205896Y-12197984D01*
X10205896Y-12197984D02*
X10186848Y-12197984D01*
X10186848Y-12197984D02*
X10167801Y-12188460D01*
X10167801Y-12188460D02*
X10158277Y-12178936D01*
X10158277Y-12178936D02*
X10148753Y-12159888D01*
X10148753Y-12159888D02*
X10139229Y-12121793D01*
X10139229Y-12121793D02*
X10139229Y-12074174D01*
X10139229Y-12074174D02*
X10148753Y-12036079D01*
X10148753Y-12036079D02*
X10158277Y-12017031D01*
X10158277Y-12017031D02*
X10167801Y-12007508D01*
X10167801Y-12007508D02*
X10186848Y-11997984D01*
X10320182Y-11997984D02*
X10443991Y-11997984D01*
X10443991Y-11997984D02*
X10377325Y-12074174D01*
X10377325Y-12074174D02*
X10405896Y-12074174D01*
X10405896Y-12074174D02*
X10424944Y-12083698D01*
X10424944Y-12083698D02*
X10434468Y-12093222D01*
X10434468Y-12093222D02*
X10443991Y-12112269D01*
X10443991Y-12112269D02*
X10443991Y-12159888D01*
X10443991Y-12159888D02*
X10434468Y-12178936D01*
X10434468Y-12178936D02*
X10424944Y-12188460D01*
X10424944Y-12188460D02*
X10405896Y-12197984D01*
X10405896Y-12197984D02*
X10348753Y-12197984D01*
X10348753Y-12197984D02*
X10329706Y-12188460D01*
X10329706Y-12188460D02*
X10320182Y-12178936D01*
X10634468Y-12197984D02*
X10520182Y-12197984D01*
X10577325Y-12197984D02*
X10577325Y-11997984D01*
X10577325Y-11997984D02*
X10558277Y-12026555D01*
X10558277Y-12026555D02*
X10539229Y-12045603D01*
X10539229Y-12045603D02*
X10520182Y-12055127D01*
X10815420Y-11997984D02*
X10720182Y-11997984D01*
X10720182Y-11997984D02*
X10710658Y-12093222D01*
X10710658Y-12093222D02*
X10720182Y-12083698D01*
X10720182Y-12083698D02*
X10739229Y-12074174D01*
X10739229Y-12074174D02*
X10786849Y-12074174D01*
X10786849Y-12074174D02*
X10805896Y-12083698D01*
X10805896Y-12083698D02*
X10815420Y-12093222D01*
X10815420Y-12093222D02*
X10824944Y-12112269D01*
X10824944Y-12112269D02*
X10824944Y-12159888D01*
X10824944Y-12159888D02*
X10815420Y-12178936D01*
X10815420Y-12178936D02*
X10805896Y-12188460D01*
X10805896Y-12188460D02*
X10786849Y-12197984D01*
X10786849Y-12197984D02*
X10739229Y-12197984D01*
X10739229Y-12197984D02*
X10720182Y-12188460D01*
X10720182Y-12188460D02*
X10710658Y-12178936D01*
X10901134Y-11997984D02*
X10901134Y-12036079D01*
X10977325Y-11997984D02*
X10977325Y-12036079D01*
X11272563Y-12274174D02*
X11263039Y-12264650D01*
X11263039Y-12264650D02*
X11243991Y-12236079D01*
X11243991Y-12236079D02*
X11234468Y-12217031D01*
X11234468Y-12217031D02*
X11224944Y-12188460D01*
X11224944Y-12188460D02*
X11215420Y-12140841D01*
X11215420Y-12140841D02*
X11215420Y-12102746D01*
X11215420Y-12102746D02*
X11224944Y-12055127D01*
X11224944Y-12055127D02*
X11234468Y-12026555D01*
X11234468Y-12026555D02*
X11243991Y-12007508D01*
X11243991Y-12007508D02*
X11263039Y-11978936D01*
X11263039Y-11978936D02*
X11272563Y-11969412D01*
X11434468Y-11997984D02*
X11396372Y-11997984D01*
X11396372Y-11997984D02*
X11377325Y-12007508D01*
X11377325Y-12007508D02*
X11367801Y-12017031D01*
X11367801Y-12017031D02*
X11348753Y-12045603D01*
X11348753Y-12045603D02*
X11339229Y-12083698D01*
X11339229Y-12083698D02*
X11339229Y-12159888D01*
X11339229Y-12159888D02*
X11348753Y-12178936D01*
X11348753Y-12178936D02*
X11358277Y-12188460D01*
X11358277Y-12188460D02*
X11377325Y-12197984D01*
X11377325Y-12197984D02*
X11415420Y-12197984D01*
X11415420Y-12197984D02*
X11434468Y-12188460D01*
X11434468Y-12188460D02*
X11443991Y-12178936D01*
X11443991Y-12178936D02*
X11453515Y-12159888D01*
X11453515Y-12159888D02*
X11453515Y-12112269D01*
X11453515Y-12112269D02*
X11443991Y-12093222D01*
X11443991Y-12093222D02*
X11434468Y-12083698D01*
X11434468Y-12083698D02*
X11415420Y-12074174D01*
X11415420Y-12074174D02*
X11377325Y-12074174D01*
X11377325Y-12074174D02*
X11358277Y-12083698D01*
X11358277Y-12083698D02*
X11348753Y-12093222D01*
X11348753Y-12093222D02*
X11339229Y-12112269D01*
X11691610Y-12197984D02*
X11691610Y-11997984D01*
X11777325Y-12197984D02*
X11777325Y-12093222D01*
X11777325Y-12093222D02*
X11767801Y-12074174D01*
X11767801Y-12074174D02*
X11748753Y-12064650D01*
X11748753Y-12064650D02*
X11720182Y-12064650D01*
X11720182Y-12064650D02*
X11701134Y-12074174D01*
X11701134Y-12074174D02*
X11691610Y-12083698D01*
X11901134Y-12197984D02*
X11882087Y-12188460D01*
X11882087Y-12188460D02*
X11872563Y-12178936D01*
X11872563Y-12178936D02*
X11863039Y-12159888D01*
X11863039Y-12159888D02*
X11863039Y-12102746D01*
X11863039Y-12102746D02*
X11872563Y-12083698D01*
X11872563Y-12083698D02*
X11882087Y-12074174D01*
X11882087Y-12074174D02*
X11901134Y-12064650D01*
X11901134Y-12064650D02*
X11929706Y-12064650D01*
X11929706Y-12064650D02*
X11948753Y-12074174D01*
X11948753Y-12074174D02*
X11958277Y-12083698D01*
X11958277Y-12083698D02*
X11967801Y-12102746D01*
X11967801Y-12102746D02*
X11967801Y-12159888D01*
X11967801Y-12159888D02*
X11958277Y-12178936D01*
X11958277Y-12178936D02*
X11948753Y-12188460D01*
X11948753Y-12188460D02*
X11929706Y-12197984D01*
X11929706Y-12197984D02*
X11901134Y-12197984D01*
X12082087Y-12197984D02*
X12063039Y-12188460D01*
X12063039Y-12188460D02*
X12053515Y-12169412D01*
X12053515Y-12169412D02*
X12053515Y-11997984D01*
X12234468Y-12188460D02*
X12215420Y-12197984D01*
X12215420Y-12197984D02*
X12177325Y-12197984D01*
X12177325Y-12197984D02*
X12158277Y-12188460D01*
X12158277Y-12188460D02*
X12148753Y-12169412D01*
X12148753Y-12169412D02*
X12148753Y-12093222D01*
X12148753Y-12093222D02*
X12158277Y-12074174D01*
X12158277Y-12074174D02*
X12177325Y-12064650D01*
X12177325Y-12064650D02*
X12215420Y-12064650D01*
X12215420Y-12064650D02*
X12234468Y-12074174D01*
X12234468Y-12074174D02*
X12243991Y-12093222D01*
X12243991Y-12093222D02*
X12243991Y-12112269D01*
X12243991Y-12112269D02*
X12148753Y-12131317D01*
X12320182Y-12188460D02*
X12339230Y-12197984D01*
X12339230Y-12197984D02*
X12377325Y-12197984D01*
X12377325Y-12197984D02*
X12396372Y-12188460D01*
X12396372Y-12188460D02*
X12405896Y-12169412D01*
X12405896Y-12169412D02*
X12405896Y-12159888D01*
X12405896Y-12159888D02*
X12396372Y-12140841D01*
X12396372Y-12140841D02*
X12377325Y-12131317D01*
X12377325Y-12131317D02*
X12348753Y-12131317D01*
X12348753Y-12131317D02*
X12329706Y-12121793D01*
X12329706Y-12121793D02*
X12320182Y-12102746D01*
X12320182Y-12102746D02*
X12320182Y-12093222D01*
X12320182Y-12093222D02*
X12329706Y-12074174D01*
X12329706Y-12074174D02*
X12348753Y-12064650D01*
X12348753Y-12064650D02*
X12377325Y-12064650D01*
X12377325Y-12064650D02*
X12396372Y-12074174D01*
X12472563Y-12274174D02*
X12482087Y-12264650D01*
X12482087Y-12264650D02*
X12501134Y-12236079D01*
X12501134Y-12236079D02*
X12510658Y-12217031D01*
X12510658Y-12217031D02*
X12520182Y-12188460D01*
X12520182Y-12188460D02*
X12529706Y-12140841D01*
X12529706Y-12140841D02*
X12529706Y-12102746D01*
X12529706Y-12102746D02*
X12520182Y-12055127D01*
X12520182Y-12055127D02*
X12510658Y-12026555D01*
X12510658Y-12026555D02*
X12501134Y-12007508D01*
X12501134Y-12007508D02*
X12482087Y-11978936D01*
X12482087Y-11978936D02*
X12472563Y-11969412D01*
D12*
X7647500Y-12320500D02*
X7647500Y-12420500D01*
X7597500Y-12370500D02*
X7697500Y-12370500D01*
D11*
X8063039Y-12461984D02*
X7948753Y-12461984D01*
X8005896Y-12461984D02*
X8005896Y-12261984D01*
X8005896Y-12261984D02*
X7986848Y-12290555D01*
X7986848Y-12290555D02*
X7967801Y-12309603D01*
X7967801Y-12309603D02*
X7948753Y-12319127D01*
X8148753Y-12442936D02*
X8158277Y-12452460D01*
X8158277Y-12452460D02*
X8148753Y-12461984D01*
X8148753Y-12461984D02*
X8139229Y-12452460D01*
X8139229Y-12452460D02*
X8148753Y-12442936D01*
X8148753Y-12442936D02*
X8148753Y-12461984D01*
X8282086Y-12261984D02*
X8301134Y-12261984D01*
X8301134Y-12261984D02*
X8320182Y-12271508D01*
X8320182Y-12271508D02*
X8329705Y-12281031D01*
X8329705Y-12281031D02*
X8339229Y-12300079D01*
X8339229Y-12300079D02*
X8348753Y-12338174D01*
X8348753Y-12338174D02*
X8348753Y-12385793D01*
X8348753Y-12385793D02*
X8339229Y-12423888D01*
X8339229Y-12423888D02*
X8329705Y-12442936D01*
X8329705Y-12442936D02*
X8320182Y-12452460D01*
X8320182Y-12452460D02*
X8301134Y-12461984D01*
X8301134Y-12461984D02*
X8282086Y-12461984D01*
X8282086Y-12461984D02*
X8263039Y-12452460D01*
X8263039Y-12452460D02*
X8253515Y-12442936D01*
X8253515Y-12442936D02*
X8243991Y-12423888D01*
X8243991Y-12423888D02*
X8234467Y-12385793D01*
X8234467Y-12385793D02*
X8234467Y-12338174D01*
X8234467Y-12338174D02*
X8243991Y-12300079D01*
X8243991Y-12300079D02*
X8253515Y-12281031D01*
X8253515Y-12281031D02*
X8263039Y-12271508D01*
X8263039Y-12271508D02*
X8282086Y-12261984D01*
X8472563Y-12261984D02*
X8491610Y-12261984D01*
X8491610Y-12261984D02*
X8510658Y-12271508D01*
X8510658Y-12271508D02*
X8520182Y-12281031D01*
X8520182Y-12281031D02*
X8529705Y-12300079D01*
X8529705Y-12300079D02*
X8539229Y-12338174D01*
X8539229Y-12338174D02*
X8539229Y-12385793D01*
X8539229Y-12385793D02*
X8529705Y-12423888D01*
X8529705Y-12423888D02*
X8520182Y-12442936D01*
X8520182Y-12442936D02*
X8510658Y-12452460D01*
X8510658Y-12452460D02*
X8491610Y-12461984D01*
X8491610Y-12461984D02*
X8472563Y-12461984D01*
X8472563Y-12461984D02*
X8453515Y-12452460D01*
X8453515Y-12452460D02*
X8443991Y-12442936D01*
X8443991Y-12442936D02*
X8434467Y-12423888D01*
X8434467Y-12423888D02*
X8424944Y-12385793D01*
X8424944Y-12385793D02*
X8424944Y-12338174D01*
X8424944Y-12338174D02*
X8434467Y-12300079D01*
X8434467Y-12300079D02*
X8443991Y-12281031D01*
X8443991Y-12281031D02*
X8453515Y-12271508D01*
X8453515Y-12271508D02*
X8472563Y-12261984D01*
X8663039Y-12261984D02*
X8682086Y-12261984D01*
X8682086Y-12261984D02*
X8701134Y-12271508D01*
X8701134Y-12271508D02*
X8710658Y-12281031D01*
X8710658Y-12281031D02*
X8720182Y-12300079D01*
X8720182Y-12300079D02*
X8729705Y-12338174D01*
X8729705Y-12338174D02*
X8729705Y-12385793D01*
X8729705Y-12385793D02*
X8720182Y-12423888D01*
X8720182Y-12423888D02*
X8710658Y-12442936D01*
X8710658Y-12442936D02*
X8701134Y-12452460D01*
X8701134Y-12452460D02*
X8682086Y-12461984D01*
X8682086Y-12461984D02*
X8663039Y-12461984D01*
X8663039Y-12461984D02*
X8643991Y-12452460D01*
X8643991Y-12452460D02*
X8634467Y-12442936D01*
X8634467Y-12442936D02*
X8624944Y-12423888D01*
X8624944Y-12423888D02*
X8615420Y-12385793D01*
X8615420Y-12385793D02*
X8615420Y-12338174D01*
X8615420Y-12338174D02*
X8624944Y-12300079D01*
X8624944Y-12300079D02*
X8634467Y-12281031D01*
X8634467Y-12281031D02*
X8643991Y-12271508D01*
X8643991Y-12271508D02*
X8663039Y-12261984D01*
X8815420Y-12461984D02*
X8815420Y-12328650D01*
X8815420Y-12347698D02*
X8824944Y-12338174D01*
X8824944Y-12338174D02*
X8843991Y-12328650D01*
X8843991Y-12328650D02*
X8872563Y-12328650D01*
X8872563Y-12328650D02*
X8891610Y-12338174D01*
X8891610Y-12338174D02*
X8901134Y-12357222D01*
X8901134Y-12357222D02*
X8901134Y-12461984D01*
X8901134Y-12357222D02*
X8910658Y-12338174D01*
X8910658Y-12338174D02*
X8929705Y-12328650D01*
X8929705Y-12328650D02*
X8958277Y-12328650D01*
X8958277Y-12328650D02*
X8977325Y-12338174D01*
X8977325Y-12338174D02*
X8986848Y-12357222D01*
X8986848Y-12357222D02*
X8986848Y-12461984D01*
X9082086Y-12461984D02*
X9082086Y-12328650D01*
X9082086Y-12347698D02*
X9091610Y-12338174D01*
X9091610Y-12338174D02*
X9110658Y-12328650D01*
X9110658Y-12328650D02*
X9139229Y-12328650D01*
X9139229Y-12328650D02*
X9158277Y-12338174D01*
X9158277Y-12338174D02*
X9167801Y-12357222D01*
X9167801Y-12357222D02*
X9167801Y-12461984D01*
X9167801Y-12357222D02*
X9177325Y-12338174D01*
X9177325Y-12338174D02*
X9196372Y-12328650D01*
X9196372Y-12328650D02*
X9224944Y-12328650D01*
X9224944Y-12328650D02*
X9243991Y-12338174D01*
X9243991Y-12338174D02*
X9253515Y-12357222D01*
X9253515Y-12357222D02*
X9253515Y-12461984D01*
X9643991Y-12252460D02*
X9472563Y-12509603D01*
X9901134Y-12261984D02*
X9920182Y-12261984D01*
X9920182Y-12261984D02*
X9939229Y-12271508D01*
X9939229Y-12271508D02*
X9948753Y-12281031D01*
X9948753Y-12281031D02*
X9958277Y-12300079D01*
X9958277Y-12300079D02*
X9967801Y-12338174D01*
X9967801Y-12338174D02*
X9967801Y-12385793D01*
X9967801Y-12385793D02*
X9958277Y-12423888D01*
X9958277Y-12423888D02*
X9948753Y-12442936D01*
X9948753Y-12442936D02*
X9939229Y-12452460D01*
X9939229Y-12452460D02*
X9920182Y-12461984D01*
X9920182Y-12461984D02*
X9901134Y-12461984D01*
X9901134Y-12461984D02*
X9882087Y-12452460D01*
X9882087Y-12452460D02*
X9872563Y-12442936D01*
X9872563Y-12442936D02*
X9863039Y-12423888D01*
X9863039Y-12423888D02*
X9853515Y-12385793D01*
X9853515Y-12385793D02*
X9853515Y-12338174D01*
X9853515Y-12338174D02*
X9863039Y-12300079D01*
X9863039Y-12300079D02*
X9872563Y-12281031D01*
X9872563Y-12281031D02*
X9882087Y-12271508D01*
X9882087Y-12271508D02*
X9901134Y-12261984D01*
X10053515Y-12442936D02*
X10063039Y-12452460D01*
X10063039Y-12452460D02*
X10053515Y-12461984D01*
X10053515Y-12461984D02*
X10043991Y-12452460D01*
X10043991Y-12452460D02*
X10053515Y-12442936D01*
X10053515Y-12442936D02*
X10053515Y-12461984D01*
X10186848Y-12261984D02*
X10205896Y-12261984D01*
X10205896Y-12261984D02*
X10224944Y-12271508D01*
X10224944Y-12271508D02*
X10234468Y-12281031D01*
X10234468Y-12281031D02*
X10243991Y-12300079D01*
X10243991Y-12300079D02*
X10253515Y-12338174D01*
X10253515Y-12338174D02*
X10253515Y-12385793D01*
X10253515Y-12385793D02*
X10243991Y-12423888D01*
X10243991Y-12423888D02*
X10234468Y-12442936D01*
X10234468Y-12442936D02*
X10224944Y-12452460D01*
X10224944Y-12452460D02*
X10205896Y-12461984D01*
X10205896Y-12461984D02*
X10186848Y-12461984D01*
X10186848Y-12461984D02*
X10167801Y-12452460D01*
X10167801Y-12452460D02*
X10158277Y-12442936D01*
X10158277Y-12442936D02*
X10148753Y-12423888D01*
X10148753Y-12423888D02*
X10139229Y-12385793D01*
X10139229Y-12385793D02*
X10139229Y-12338174D01*
X10139229Y-12338174D02*
X10148753Y-12300079D01*
X10148753Y-12300079D02*
X10158277Y-12281031D01*
X10158277Y-12281031D02*
X10167801Y-12271508D01*
X10167801Y-12271508D02*
X10186848Y-12261984D01*
X10320182Y-12261984D02*
X10443991Y-12261984D01*
X10443991Y-12261984D02*
X10377325Y-12338174D01*
X10377325Y-12338174D02*
X10405896Y-12338174D01*
X10405896Y-12338174D02*
X10424944Y-12347698D01*
X10424944Y-12347698D02*
X10434468Y-12357222D01*
X10434468Y-12357222D02*
X10443991Y-12376269D01*
X10443991Y-12376269D02*
X10443991Y-12423888D01*
X10443991Y-12423888D02*
X10434468Y-12442936D01*
X10434468Y-12442936D02*
X10424944Y-12452460D01*
X10424944Y-12452460D02*
X10405896Y-12461984D01*
X10405896Y-12461984D02*
X10348753Y-12461984D01*
X10348753Y-12461984D02*
X10329706Y-12452460D01*
X10329706Y-12452460D02*
X10320182Y-12442936D01*
X10539229Y-12461984D02*
X10577325Y-12461984D01*
X10577325Y-12461984D02*
X10596372Y-12452460D01*
X10596372Y-12452460D02*
X10605896Y-12442936D01*
X10605896Y-12442936D02*
X10624944Y-12414365D01*
X10624944Y-12414365D02*
X10634468Y-12376269D01*
X10634468Y-12376269D02*
X10634468Y-12300079D01*
X10634468Y-12300079D02*
X10624944Y-12281031D01*
X10624944Y-12281031D02*
X10615420Y-12271508D01*
X10615420Y-12271508D02*
X10596372Y-12261984D01*
X10596372Y-12261984D02*
X10558277Y-12261984D01*
X10558277Y-12261984D02*
X10539229Y-12271508D01*
X10539229Y-12271508D02*
X10529706Y-12281031D01*
X10529706Y-12281031D02*
X10520182Y-12300079D01*
X10520182Y-12300079D02*
X10520182Y-12347698D01*
X10520182Y-12347698D02*
X10529706Y-12366746D01*
X10529706Y-12366746D02*
X10539229Y-12376269D01*
X10539229Y-12376269D02*
X10558277Y-12385793D01*
X10558277Y-12385793D02*
X10596372Y-12385793D01*
X10596372Y-12385793D02*
X10615420Y-12376269D01*
X10615420Y-12376269D02*
X10624944Y-12366746D01*
X10624944Y-12366746D02*
X10634468Y-12347698D01*
X10805896Y-12328650D02*
X10805896Y-12461984D01*
X10758277Y-12252460D02*
X10710658Y-12395317D01*
X10710658Y-12395317D02*
X10834468Y-12395317D01*
X10901134Y-12261984D02*
X10901134Y-12300079D01*
X10977325Y-12261984D02*
X10977325Y-12300079D01*
X11272563Y-12538174D02*
X11263039Y-12528650D01*
X11263039Y-12528650D02*
X11243991Y-12500079D01*
X11243991Y-12500079D02*
X11234468Y-12481031D01*
X11234468Y-12481031D02*
X11224944Y-12452460D01*
X11224944Y-12452460D02*
X11215420Y-12404841D01*
X11215420Y-12404841D02*
X11215420Y-12366746D01*
X11215420Y-12366746D02*
X11224944Y-12319127D01*
X11224944Y-12319127D02*
X11234468Y-12290555D01*
X11234468Y-12290555D02*
X11243991Y-12271508D01*
X11243991Y-12271508D02*
X11263039Y-12242936D01*
X11263039Y-12242936D02*
X11272563Y-12233412D01*
X11453515Y-12461984D02*
X11339229Y-12461984D01*
X11396372Y-12461984D02*
X11396372Y-12261984D01*
X11396372Y-12261984D02*
X11377325Y-12290555D01*
X11377325Y-12290555D02*
X11358277Y-12309603D01*
X11358277Y-12309603D02*
X11339229Y-12319127D01*
X11577325Y-12261984D02*
X11596372Y-12261984D01*
X11596372Y-12261984D02*
X11615420Y-12271508D01*
X11615420Y-12271508D02*
X11624944Y-12281031D01*
X11624944Y-12281031D02*
X11634468Y-12300079D01*
X11634468Y-12300079D02*
X11643991Y-12338174D01*
X11643991Y-12338174D02*
X11643991Y-12385793D01*
X11643991Y-12385793D02*
X11634468Y-12423888D01*
X11634468Y-12423888D02*
X11624944Y-12442936D01*
X11624944Y-12442936D02*
X11615420Y-12452460D01*
X11615420Y-12452460D02*
X11596372Y-12461984D01*
X11596372Y-12461984D02*
X11577325Y-12461984D01*
X11577325Y-12461984D02*
X11558277Y-12452460D01*
X11558277Y-12452460D02*
X11548753Y-12442936D01*
X11548753Y-12442936D02*
X11539229Y-12423888D01*
X11539229Y-12423888D02*
X11529706Y-12385793D01*
X11529706Y-12385793D02*
X11529706Y-12338174D01*
X11529706Y-12338174D02*
X11539229Y-12300079D01*
X11539229Y-12300079D02*
X11548753Y-12281031D01*
X11548753Y-12281031D02*
X11558277Y-12271508D01*
X11558277Y-12271508D02*
X11577325Y-12261984D01*
X11834468Y-12461984D02*
X11720182Y-12461984D01*
X11777325Y-12461984D02*
X11777325Y-12261984D01*
X11777325Y-12261984D02*
X11758277Y-12290555D01*
X11758277Y-12290555D02*
X11739229Y-12309603D01*
X11739229Y-12309603D02*
X11720182Y-12319127D01*
X12072563Y-12461984D02*
X12072563Y-12261984D01*
X12158277Y-12461984D02*
X12158277Y-12357222D01*
X12158277Y-12357222D02*
X12148753Y-12338174D01*
X12148753Y-12338174D02*
X12129706Y-12328650D01*
X12129706Y-12328650D02*
X12101134Y-12328650D01*
X12101134Y-12328650D02*
X12082087Y-12338174D01*
X12082087Y-12338174D02*
X12072563Y-12347698D01*
X12282087Y-12461984D02*
X12263039Y-12452460D01*
X12263039Y-12452460D02*
X12253515Y-12442936D01*
X12253515Y-12442936D02*
X12243991Y-12423888D01*
X12243991Y-12423888D02*
X12243991Y-12366746D01*
X12243991Y-12366746D02*
X12253515Y-12347698D01*
X12253515Y-12347698D02*
X12263039Y-12338174D01*
X12263039Y-12338174D02*
X12282087Y-12328650D01*
X12282087Y-12328650D02*
X12310658Y-12328650D01*
X12310658Y-12328650D02*
X12329706Y-12338174D01*
X12329706Y-12338174D02*
X12339230Y-12347698D01*
X12339230Y-12347698D02*
X12348753Y-12366746D01*
X12348753Y-12366746D02*
X12348753Y-12423888D01*
X12348753Y-12423888D02*
X12339230Y-12442936D01*
X12339230Y-12442936D02*
X12329706Y-12452460D01*
X12329706Y-12452460D02*
X12310658Y-12461984D01*
X12310658Y-12461984D02*
X12282087Y-12461984D01*
X12463039Y-12461984D02*
X12443991Y-12452460D01*
X12443991Y-12452460D02*
X12434468Y-12433412D01*
X12434468Y-12433412D02*
X12434468Y-12261984D01*
X12615420Y-12452460D02*
X12596372Y-12461984D01*
X12596372Y-12461984D02*
X12558277Y-12461984D01*
X12558277Y-12461984D02*
X12539230Y-12452460D01*
X12539230Y-12452460D02*
X12529706Y-12433412D01*
X12529706Y-12433412D02*
X12529706Y-12357222D01*
X12529706Y-12357222D02*
X12539230Y-12338174D01*
X12539230Y-12338174D02*
X12558277Y-12328650D01*
X12558277Y-12328650D02*
X12596372Y-12328650D01*
X12596372Y-12328650D02*
X12615420Y-12338174D01*
X12615420Y-12338174D02*
X12624944Y-12357222D01*
X12624944Y-12357222D02*
X12624944Y-12376269D01*
X12624944Y-12376269D02*
X12529706Y-12395317D01*
X12701134Y-12452460D02*
X12720182Y-12461984D01*
X12720182Y-12461984D02*
X12758277Y-12461984D01*
X12758277Y-12461984D02*
X12777325Y-12452460D01*
X12777325Y-12452460D02*
X12786849Y-12433412D01*
X12786849Y-12433412D02*
X12786849Y-12423888D01*
X12786849Y-12423888D02*
X12777325Y-12404841D01*
X12777325Y-12404841D02*
X12758277Y-12395317D01*
X12758277Y-12395317D02*
X12729706Y-12395317D01*
X12729706Y-12395317D02*
X12710658Y-12385793D01*
X12710658Y-12385793D02*
X12701134Y-12366746D01*
X12701134Y-12366746D02*
X12701134Y-12357222D01*
X12701134Y-12357222D02*
X12710658Y-12338174D01*
X12710658Y-12338174D02*
X12729706Y-12328650D01*
X12729706Y-12328650D02*
X12758277Y-12328650D01*
X12758277Y-12328650D02*
X12777325Y-12338174D01*
X12853515Y-12538174D02*
X12863039Y-12528650D01*
X12863039Y-12528650D02*
X12882087Y-12500079D01*
X12882087Y-12500079D02*
X12891611Y-12481031D01*
X12891611Y-12481031D02*
X12901134Y-12452460D01*
X12901134Y-12452460D02*
X12910658Y-12404841D01*
X12910658Y-12404841D02*
X12910658Y-12366746D01*
X12910658Y-12366746D02*
X12901134Y-12319127D01*
X12901134Y-12319127D02*
X12891611Y-12290555D01*
X12891611Y-12290555D02*
X12882087Y-12271508D01*
X12882087Y-12271508D02*
X12863039Y-12242936D01*
X12863039Y-12242936D02*
X12853515Y-12233412D01*
X7668211Y-12705211D02*
X7668211Y-12563789D01*
X7526789Y-12563789D01*
X7526789Y-12705211D01*
X7668211Y-12705211D01*
X7948753Y-12545031D02*
X7958277Y-12535508D01*
X7958277Y-12535508D02*
X7977324Y-12525984D01*
X7977324Y-12525984D02*
X8024943Y-12525984D01*
X8024943Y-12525984D02*
X8043991Y-12535508D01*
X8043991Y-12535508D02*
X8053515Y-12545031D01*
X8053515Y-12545031D02*
X8063039Y-12564079D01*
X8063039Y-12564079D02*
X8063039Y-12583127D01*
X8063039Y-12583127D02*
X8053515Y-12611698D01*
X8053515Y-12611698D02*
X7939229Y-12725984D01*
X7939229Y-12725984D02*
X8063039Y-12725984D01*
X8148753Y-12706936D02*
X8158277Y-12716460D01*
X8158277Y-12716460D02*
X8148753Y-12725984D01*
X8148753Y-12725984D02*
X8139229Y-12716460D01*
X8139229Y-12716460D02*
X8148753Y-12706936D01*
X8148753Y-12706936D02*
X8148753Y-12725984D01*
X8224943Y-12525984D02*
X8358277Y-12525984D01*
X8358277Y-12525984D02*
X8272562Y-12725984D01*
X8472563Y-12525984D02*
X8491610Y-12525984D01*
X8491610Y-12525984D02*
X8510658Y-12535508D01*
X8510658Y-12535508D02*
X8520182Y-12545031D01*
X8520182Y-12545031D02*
X8529705Y-12564079D01*
X8529705Y-12564079D02*
X8539229Y-12602174D01*
X8539229Y-12602174D02*
X8539229Y-12649793D01*
X8539229Y-12649793D02*
X8529705Y-12687888D01*
X8529705Y-12687888D02*
X8520182Y-12706936D01*
X8520182Y-12706936D02*
X8510658Y-12716460D01*
X8510658Y-12716460D02*
X8491610Y-12725984D01*
X8491610Y-12725984D02*
X8472563Y-12725984D01*
X8472563Y-12725984D02*
X8453515Y-12716460D01*
X8453515Y-12716460D02*
X8443991Y-12706936D01*
X8443991Y-12706936D02*
X8434467Y-12687888D01*
X8434467Y-12687888D02*
X8424944Y-12649793D01*
X8424944Y-12649793D02*
X8424944Y-12602174D01*
X8424944Y-12602174D02*
X8434467Y-12564079D01*
X8434467Y-12564079D02*
X8443991Y-12545031D01*
X8443991Y-12545031D02*
X8453515Y-12535508D01*
X8453515Y-12535508D02*
X8472563Y-12525984D01*
X8663039Y-12525984D02*
X8682086Y-12525984D01*
X8682086Y-12525984D02*
X8701134Y-12535508D01*
X8701134Y-12535508D02*
X8710658Y-12545031D01*
X8710658Y-12545031D02*
X8720182Y-12564079D01*
X8720182Y-12564079D02*
X8729705Y-12602174D01*
X8729705Y-12602174D02*
X8729705Y-12649793D01*
X8729705Y-12649793D02*
X8720182Y-12687888D01*
X8720182Y-12687888D02*
X8710658Y-12706936D01*
X8710658Y-12706936D02*
X8701134Y-12716460D01*
X8701134Y-12716460D02*
X8682086Y-12725984D01*
X8682086Y-12725984D02*
X8663039Y-12725984D01*
X8663039Y-12725984D02*
X8643991Y-12716460D01*
X8643991Y-12716460D02*
X8634467Y-12706936D01*
X8634467Y-12706936D02*
X8624944Y-12687888D01*
X8624944Y-12687888D02*
X8615420Y-12649793D01*
X8615420Y-12649793D02*
X8615420Y-12602174D01*
X8615420Y-12602174D02*
X8624944Y-12564079D01*
X8624944Y-12564079D02*
X8634467Y-12545031D01*
X8634467Y-12545031D02*
X8643991Y-12535508D01*
X8643991Y-12535508D02*
X8663039Y-12525984D01*
X8815420Y-12725984D02*
X8815420Y-12592650D01*
X8815420Y-12611698D02*
X8824944Y-12602174D01*
X8824944Y-12602174D02*
X8843991Y-12592650D01*
X8843991Y-12592650D02*
X8872563Y-12592650D01*
X8872563Y-12592650D02*
X8891610Y-12602174D01*
X8891610Y-12602174D02*
X8901134Y-12621222D01*
X8901134Y-12621222D02*
X8901134Y-12725984D01*
X8901134Y-12621222D02*
X8910658Y-12602174D01*
X8910658Y-12602174D02*
X8929705Y-12592650D01*
X8929705Y-12592650D02*
X8958277Y-12592650D01*
X8958277Y-12592650D02*
X8977325Y-12602174D01*
X8977325Y-12602174D02*
X8986848Y-12621222D01*
X8986848Y-12621222D02*
X8986848Y-12725984D01*
X9082086Y-12725984D02*
X9082086Y-12592650D01*
X9082086Y-12611698D02*
X9091610Y-12602174D01*
X9091610Y-12602174D02*
X9110658Y-12592650D01*
X9110658Y-12592650D02*
X9139229Y-12592650D01*
X9139229Y-12592650D02*
X9158277Y-12602174D01*
X9158277Y-12602174D02*
X9167801Y-12621222D01*
X9167801Y-12621222D02*
X9167801Y-12725984D01*
X9167801Y-12621222D02*
X9177325Y-12602174D01*
X9177325Y-12602174D02*
X9196372Y-12592650D01*
X9196372Y-12592650D02*
X9224944Y-12592650D01*
X9224944Y-12592650D02*
X9243991Y-12602174D01*
X9243991Y-12602174D02*
X9253515Y-12621222D01*
X9253515Y-12621222D02*
X9253515Y-12725984D01*
X9643991Y-12516460D02*
X9472563Y-12773603D01*
X9901134Y-12525984D02*
X9920182Y-12525984D01*
X9920182Y-12525984D02*
X9939229Y-12535508D01*
X9939229Y-12535508D02*
X9948753Y-12545031D01*
X9948753Y-12545031D02*
X9958277Y-12564079D01*
X9958277Y-12564079D02*
X9967801Y-12602174D01*
X9967801Y-12602174D02*
X9967801Y-12649793D01*
X9967801Y-12649793D02*
X9958277Y-12687888D01*
X9958277Y-12687888D02*
X9948753Y-12706936D01*
X9948753Y-12706936D02*
X9939229Y-12716460D01*
X9939229Y-12716460D02*
X9920182Y-12725984D01*
X9920182Y-12725984D02*
X9901134Y-12725984D01*
X9901134Y-12725984D02*
X9882087Y-12716460D01*
X9882087Y-12716460D02*
X9872563Y-12706936D01*
X9872563Y-12706936D02*
X9863039Y-12687888D01*
X9863039Y-12687888D02*
X9853515Y-12649793D01*
X9853515Y-12649793D02*
X9853515Y-12602174D01*
X9853515Y-12602174D02*
X9863039Y-12564079D01*
X9863039Y-12564079D02*
X9872563Y-12545031D01*
X9872563Y-12545031D02*
X9882087Y-12535508D01*
X9882087Y-12535508D02*
X9901134Y-12525984D01*
X10053515Y-12706936D02*
X10063039Y-12716460D01*
X10063039Y-12716460D02*
X10053515Y-12725984D01*
X10053515Y-12725984D02*
X10043991Y-12716460D01*
X10043991Y-12716460D02*
X10053515Y-12706936D01*
X10053515Y-12706936D02*
X10053515Y-12725984D01*
X10253515Y-12725984D02*
X10139229Y-12725984D01*
X10196372Y-12725984D02*
X10196372Y-12525984D01*
X10196372Y-12525984D02*
X10177325Y-12554555D01*
X10177325Y-12554555D02*
X10158277Y-12573603D01*
X10158277Y-12573603D02*
X10139229Y-12583127D01*
X10377325Y-12525984D02*
X10396372Y-12525984D01*
X10396372Y-12525984D02*
X10415420Y-12535508D01*
X10415420Y-12535508D02*
X10424944Y-12545031D01*
X10424944Y-12545031D02*
X10434468Y-12564079D01*
X10434468Y-12564079D02*
X10443991Y-12602174D01*
X10443991Y-12602174D02*
X10443991Y-12649793D01*
X10443991Y-12649793D02*
X10434468Y-12687888D01*
X10434468Y-12687888D02*
X10424944Y-12706936D01*
X10424944Y-12706936D02*
X10415420Y-12716460D01*
X10415420Y-12716460D02*
X10396372Y-12725984D01*
X10396372Y-12725984D02*
X10377325Y-12725984D01*
X10377325Y-12725984D02*
X10358277Y-12716460D01*
X10358277Y-12716460D02*
X10348753Y-12706936D01*
X10348753Y-12706936D02*
X10339229Y-12687888D01*
X10339229Y-12687888D02*
X10329706Y-12649793D01*
X10329706Y-12649793D02*
X10329706Y-12602174D01*
X10329706Y-12602174D02*
X10339229Y-12564079D01*
X10339229Y-12564079D02*
X10348753Y-12545031D01*
X10348753Y-12545031D02*
X10358277Y-12535508D01*
X10358277Y-12535508D02*
X10377325Y-12525984D01*
X10615420Y-12525984D02*
X10577325Y-12525984D01*
X10577325Y-12525984D02*
X10558277Y-12535508D01*
X10558277Y-12535508D02*
X10548753Y-12545031D01*
X10548753Y-12545031D02*
X10529706Y-12573603D01*
X10529706Y-12573603D02*
X10520182Y-12611698D01*
X10520182Y-12611698D02*
X10520182Y-12687888D01*
X10520182Y-12687888D02*
X10529706Y-12706936D01*
X10529706Y-12706936D02*
X10539229Y-12716460D01*
X10539229Y-12716460D02*
X10558277Y-12725984D01*
X10558277Y-12725984D02*
X10596372Y-12725984D01*
X10596372Y-12725984D02*
X10615420Y-12716460D01*
X10615420Y-12716460D02*
X10624944Y-12706936D01*
X10624944Y-12706936D02*
X10634468Y-12687888D01*
X10634468Y-12687888D02*
X10634468Y-12640269D01*
X10634468Y-12640269D02*
X10624944Y-12621222D01*
X10624944Y-12621222D02*
X10615420Y-12611698D01*
X10615420Y-12611698D02*
X10596372Y-12602174D01*
X10596372Y-12602174D02*
X10558277Y-12602174D01*
X10558277Y-12602174D02*
X10539229Y-12611698D01*
X10539229Y-12611698D02*
X10529706Y-12621222D01*
X10529706Y-12621222D02*
X10520182Y-12640269D01*
X10701134Y-12525984D02*
X10824944Y-12525984D01*
X10824944Y-12525984D02*
X10758277Y-12602174D01*
X10758277Y-12602174D02*
X10786849Y-12602174D01*
X10786849Y-12602174D02*
X10805896Y-12611698D01*
X10805896Y-12611698D02*
X10815420Y-12621222D01*
X10815420Y-12621222D02*
X10824944Y-12640269D01*
X10824944Y-12640269D02*
X10824944Y-12687888D01*
X10824944Y-12687888D02*
X10815420Y-12706936D01*
X10815420Y-12706936D02*
X10805896Y-12716460D01*
X10805896Y-12716460D02*
X10786849Y-12725984D01*
X10786849Y-12725984D02*
X10729706Y-12725984D01*
X10729706Y-12725984D02*
X10710658Y-12716460D01*
X10710658Y-12716460D02*
X10701134Y-12706936D01*
X10901134Y-12525984D02*
X10901134Y-12564079D01*
X10977325Y-12525984D02*
X10977325Y-12564079D01*
X11272563Y-12802174D02*
X11263039Y-12792650D01*
X11263039Y-12792650D02*
X11243991Y-12764079D01*
X11243991Y-12764079D02*
X11234468Y-12745031D01*
X11234468Y-12745031D02*
X11224944Y-12716460D01*
X11224944Y-12716460D02*
X11215420Y-12668841D01*
X11215420Y-12668841D02*
X11215420Y-12630746D01*
X11215420Y-12630746D02*
X11224944Y-12583127D01*
X11224944Y-12583127D02*
X11234468Y-12554555D01*
X11234468Y-12554555D02*
X11243991Y-12535508D01*
X11243991Y-12535508D02*
X11263039Y-12506936D01*
X11263039Y-12506936D02*
X11272563Y-12497412D01*
X11434468Y-12592650D02*
X11434468Y-12725984D01*
X11386848Y-12516460D02*
X11339229Y-12659317D01*
X11339229Y-12659317D02*
X11463039Y-12659317D01*
X11691610Y-12725984D02*
X11691610Y-12525984D01*
X11777325Y-12725984D02*
X11777325Y-12621222D01*
X11777325Y-12621222D02*
X11767801Y-12602174D01*
X11767801Y-12602174D02*
X11748753Y-12592650D01*
X11748753Y-12592650D02*
X11720182Y-12592650D01*
X11720182Y-12592650D02*
X11701134Y-12602174D01*
X11701134Y-12602174D02*
X11691610Y-12611698D01*
X11901134Y-12725984D02*
X11882087Y-12716460D01*
X11882087Y-12716460D02*
X11872563Y-12706936D01*
X11872563Y-12706936D02*
X11863039Y-12687888D01*
X11863039Y-12687888D02*
X11863039Y-12630746D01*
X11863039Y-12630746D02*
X11872563Y-12611698D01*
X11872563Y-12611698D02*
X11882087Y-12602174D01*
X11882087Y-12602174D02*
X11901134Y-12592650D01*
X11901134Y-12592650D02*
X11929706Y-12592650D01*
X11929706Y-12592650D02*
X11948753Y-12602174D01*
X11948753Y-12602174D02*
X11958277Y-12611698D01*
X11958277Y-12611698D02*
X11967801Y-12630746D01*
X11967801Y-12630746D02*
X11967801Y-12687888D01*
X11967801Y-12687888D02*
X11958277Y-12706936D01*
X11958277Y-12706936D02*
X11948753Y-12716460D01*
X11948753Y-12716460D02*
X11929706Y-12725984D01*
X11929706Y-12725984D02*
X11901134Y-12725984D01*
X12082087Y-12725984D02*
X12063039Y-12716460D01*
X12063039Y-12716460D02*
X12053515Y-12697412D01*
X12053515Y-12697412D02*
X12053515Y-12525984D01*
X12234468Y-12716460D02*
X12215420Y-12725984D01*
X12215420Y-12725984D02*
X12177325Y-12725984D01*
X12177325Y-12725984D02*
X12158277Y-12716460D01*
X12158277Y-12716460D02*
X12148753Y-12697412D01*
X12148753Y-12697412D02*
X12148753Y-12621222D01*
X12148753Y-12621222D02*
X12158277Y-12602174D01*
X12158277Y-12602174D02*
X12177325Y-12592650D01*
X12177325Y-12592650D02*
X12215420Y-12592650D01*
X12215420Y-12592650D02*
X12234468Y-12602174D01*
X12234468Y-12602174D02*
X12243991Y-12621222D01*
X12243991Y-12621222D02*
X12243991Y-12640269D01*
X12243991Y-12640269D02*
X12148753Y-12659317D01*
X12320182Y-12716460D02*
X12339230Y-12725984D01*
X12339230Y-12725984D02*
X12377325Y-12725984D01*
X12377325Y-12725984D02*
X12396372Y-12716460D01*
X12396372Y-12716460D02*
X12405896Y-12697412D01*
X12405896Y-12697412D02*
X12405896Y-12687888D01*
X12405896Y-12687888D02*
X12396372Y-12668841D01*
X12396372Y-12668841D02*
X12377325Y-12659317D01*
X12377325Y-12659317D02*
X12348753Y-12659317D01*
X12348753Y-12659317D02*
X12329706Y-12649793D01*
X12329706Y-12649793D02*
X12320182Y-12630746D01*
X12320182Y-12630746D02*
X12320182Y-12621222D01*
X12320182Y-12621222D02*
X12329706Y-12602174D01*
X12329706Y-12602174D02*
X12348753Y-12592650D01*
X12348753Y-12592650D02*
X12377325Y-12592650D01*
X12377325Y-12592650D02*
X12396372Y-12602174D01*
X12472563Y-12802174D02*
X12482087Y-12792650D01*
X12482087Y-12792650D02*
X12501134Y-12764079D01*
X12501134Y-12764079D02*
X12510658Y-12745031D01*
X12510658Y-12745031D02*
X12520182Y-12716460D01*
X12520182Y-12716460D02*
X12529706Y-12668841D01*
X12529706Y-12668841D02*
X12529706Y-12630746D01*
X12529706Y-12630746D02*
X12520182Y-12583127D01*
X12520182Y-12583127D02*
X12510658Y-12554555D01*
X12510658Y-12554555D02*
X12501134Y-12535508D01*
X12501134Y-12535508D02*
X12482087Y-12506936D01*
X12482087Y-12506936D02*
X12472563Y-12497412D01*
M02*
